<?xml version="1.0" encoding="utf-8"?>
<!-- Generator: Adobe Illustrator 17.0.0, SVG Export Plug-In . SVG Version: 6.00 Build 0)  -->
<!DOCTYPE svg PUBLIC "-//W3C//DTD SVG 1.1//EN" "http://www.w3.org/Graphics/SVG/1.1/DTD/svg11.dtd">
<svg version="1.1" xmlns="http://www.w3.org/2000/svg" xmlns:xlink="http://www.w3.org/1999/xlink" x="0px" y="0px" width="328.1px"
	 height="228.7px" viewBox="0 0 328.1 228.7" style="enable-background:new 0 0 328.1 228.7;" xml:space="preserve">
<g id="レイヤ_xFF3C_x5B_x5F__x5F_1">
	<g>
		<g>
			<polyline style="fill:none;stroke:#000000;stroke-width:0.3;" points="0,191.4 25.5,191.4 25.5,225.4 			"/>
			<polyline style="fill:none;stroke:#000000;stroke-width:0.3;" points="34,225.4 34,199.9 0,199.9 			"/>
		</g>
		<g>
			<polyline style="fill:none;stroke:#000000;stroke-width:0.3;" points="0,35.2 25.5,35.2 25.5,1.2 			"/>
			<polyline style="fill:none;stroke:#000000;stroke-width:0.3;" points="34,1.2 34,26.7 0,26.7 			"/>
		</g>
		<g>
			<polyline style="fill:none;stroke:#000000;stroke-width:0.3;" points="326.3,35.2 300.8,35.2 300.8,1.2 			"/>
			<polyline style="fill:none;stroke:#000000;stroke-width:0.3;" points="292.3,1.2 292.3,26.7 326.3,26.7 			"/>
		</g>
		<g>
			<polyline style="fill:none;stroke:#000000;stroke-width:0.3;" points="326.3,191.4 300.8,191.4 300.8,225.4 			"/>
			<polyline style="fill:none;stroke:#000000;stroke-width:0.3;" points="292.3,225.4 292.3,199.9 326.3,199.9 			"/>
		</g>
		<g>
			<line style="fill:none;stroke:#000000;stroke-width:0.3;" x1="-2.9" y1="114" x2="21.1" y2="114"/>
			<line style="fill:none;stroke:#000000;stroke-width:0.3;" x1="15.1" y1="78" x2="15.1" y2="150"/>
		</g>
		<g>
			<line style="fill:none;stroke:#000000;stroke-width:0.3;" x1="328.1" y1="114" x2="304.1" y2="114"/>
			<line style="fill:none;stroke:#000000;stroke-width:0.3;" x1="310.1" y1="150" x2="310.1" y2="78"/>
		</g>
		<g>
			<line style="fill:none;stroke:#000000;stroke-width:0.3;" x1="127.1" y1="18" x2="199.1" y2="18"/>
			<line style="fill:none;stroke:#000000;stroke-width:0.3;" x1="163.1" y1="0" x2="163.1" y2="24"/>
		</g>
		<g>
			<line style="fill:none;stroke:#000000;stroke-width:0.3;" x1="199.1" y1="210" x2="127.1" y2="210"/>
			<line style="fill:none;stroke:#000000;stroke-width:0.3;" x1="163.1" y1="228" x2="163.1" y2="204"/>
		</g>
	</g>
</g>
<g id="Layer_2">
	<rect id="XMLID_2_" x="25.6" y="26.5" style="fill:#1F2325;" width="275" height="173.3"/>
	<g>
		<path id="XMLID_14_" style="fill:#FFFFFF;" d="M103,147.6c0.7,0,1.2,0.4,1.5,1l0.1,0.2l6.2,15.2c-0.1,0-0.3,0.1-0.5,0.1
			c-0.5,0-1.2-0.2-1.7-1.3l-5.5-13.5L103,149l-0.1,0.2l0,0.1l-3.4,8.3l-0.1,0.2h0.2l3.8,0c1.6,0.1,1.9,1.2,1.9,1.5h-6.5h-0.1l0,0.1
			l-1.4,3.4c-0.5,1-1.2,1.3-1.7,1.3c-0.2,0-0.4,0-0.5-0.1l6.3-15.4C101.8,148,102.4,147.6,103,147.6"/>
		<path id="XMLID_10_" style="fill:#FFFFFF;" d="M90.9,147.9v13.7l0,0.3c0,1.9-1.2,2.1-1.5,2.2v-13.7V150
			C89.3,148.2,90.5,147.9,90.9,147.9"/>
		<g id="XMLID_6_">
			<path id="XMLID_11_" style="fill:#FFFFFF;" d="M76.4,154c0.3-0.3,0.6-0.6,0.8-0.9l-2.9-4.1l0,0c0,0,0,0,0,0
				c-0.5-0.7-1.1-1.1-1.7-1.1c-0.4,0-0.7,0.1-0.8,0.2l4.4,6.2C76.2,154.2,76.3,154.1,76.4,154z"/>
			<path id="XMLID_9_" style="fill:#FFFFFF;" d="M78.7,155.9l-0.2,0.3c-0.1,0.2-0.2,0.3-0.3,0.4c-0.1,0.1-0.1,0.2-0.2,0.2l4.6,6.4
				c0.5,0.5,1,0.8,1.5,0.8c0.4,0,0.7-0.1,0.8-0.2l-5.9-8.3C78.9,155.6,78.8,155.8,78.7,155.9z"/>
		</g>
		<g id="XMLID_4_">
			<defs>
				<path id="XMLID_3_" d="M94.8,141.1c0,0-0.5,0.3-1.3,0.8c-0.4,0.2-0.9,0.6-1.5,0.9c-0.1,0.1-0.3,0.2-0.4,0.3
					c-0.1,0.1-0.3,0.2-0.5,0.3c-0.3,0.2-0.6,0.4-1,0.7c-0.7,0.5-1.4,1-2.1,1.6c-0.4,0.3-0.8,0.6-1.1,0.9c-0.4,0.3-0.8,0.6-1.2,1
					c-0.8,0.7-1.5,1.4-2.3,2.2c-0.4,0.4-0.8,0.8-1.1,1.2c-0.4,0.4-0.7,0.8-1.1,1.2l-0.5,0.6l-0.5,0.6c-0.4,0.4-0.7,0.8-1,1.3
					c-0.3,0.4-0.6,0.9-0.9,1.3c-0.3,0.4-0.6,0.8-0.9,1.3c-0.6,0.8-1.1,1.7-1.5,2.5c-0.5,0.8-0.9,1.6-1.2,2.3c-0.4,0.8-0.7,1.5-1,2.1
					H70c0.5-0.9,1.1-2.1,2-3.5c0.5-0.7,1-1.5,1.5-2.3c0.6-0.8,1.2-1.6,1.9-2.4c0.3-0.4,0.7-0.8,1-1.2c0.4-0.4,0.7-0.8,1.1-1.2
					c0.4-0.4,0.8-0.8,1.2-1.2l0.6-0.6l0.6-0.6c0.4-0.4,0.8-0.8,1.2-1.1c0.4-0.4,0.8-0.7,1.3-1.1c0.9-0.7,1.7-1.4,2.6-2
					c0.4-0.3,0.9-0.6,1.3-0.9c0.4-0.3,0.8-0.6,1.2-0.8c0.8-0.5,1.6-1,2.3-1.4c0.4-0.2,0.7-0.4,1.1-0.6c0.2-0.1,0.3-0.2,0.5-0.3
					c0.2-0.1,0.3-0.2,0.5-0.2c0.6-0.3,1.1-0.6,1.6-0.8C94.3,141.3,94.8,141.1,94.8,141.1"/>
			</defs>
			<clipPath id="XMLID_13_">
				<use xlink:href="#XMLID_3_"  style="overflow:visible;"/>
			</clipPath>
			<g id="XMLID_7_" style="clip-path:url(#XMLID_13_);">
				
					<linearGradient id="XMLID_15_" gradientUnits="userSpaceOnUse" x1="-575.6265" y1="507.5298" x2="-575.4801" y2="507.5298" gradientTransform="matrix(172.0762 0 0 -172.0762 99121.3047 87486.3828)">
					<stop  offset="0" style="stop-color:#FFED12"/>
					<stop  offset="0.7872" style="stop-color:#F7B119"/>
					<stop  offset="1" style="stop-color:#CF691C"/>
				</linearGradient>
				<rect id="XMLID_8_" x="69.7" y="140.9" style="fill:url(#XMLID_15_);" width="25.2" height="23.4"/>
			</g>
		</g>
		<g>
			<path style="fill:#FFFFFF;" d="M70,165.9h0.2v0.1c0,0,0.1-0.1,0.1-0.1c0.1,0,0.1-0.1,0.2-0.1c0.1,0,0.1,0,0.2,0.1
				c0,0,0.1,0.1,0.1,0.1c0-0.1,0.1-0.1,0.1-0.1c0,0,0.1,0,0.2,0c0.1,0,0.2,0,0.3,0.1c0,0.1,0,0.1,0,0.2v0.6h-0.2v-0.7
				c0-0.1,0-0.1,0-0.1c0,0-0.1,0-0.1,0c-0.1,0-0.1,0-0.2,0.1c0,0-0.1,0.1-0.1,0.2v0.6h-0.2v-0.6c0-0.1,0-0.1,0-0.1
				c0,0-0.1-0.1-0.1-0.1c-0.1,0-0.1,0-0.2,0.1c-0.1,0-0.1,0.1-0.1,0.3v0.5H70V165.9z"/>
			<path style="fill:#FFFFFF;" d="M73.8,166.3C73.8,166.3,73.8,166.3,73.8,166.3c0.1-0.1,0.1-0.1,0.1-0.1c0-0.1,0-0.1-0.1-0.1
				c0,0-0.1,0-0.2,0c-0.1,0-0.1,0-0.2,0.1c0,0,0,0.1,0,0.1h-0.2c0-0.1,0-0.2,0.1-0.2c0.1,0,0.2-0.1,0.3-0.1c0.1,0,0.2,0,0.3,0.1
				c0.1,0,0.1,0.1,0.1,0.2v0.6c0,0,0,0,0,0c0,0,0,0,0,0c0,0,0,0,0,0c0,0,0,0,0,0v0.1c0,0,0,0-0.1,0c0,0,0,0-0.1,0
				c-0.1,0-0.1,0-0.1-0.1c0,0,0-0.1,0-0.1c0,0-0.1,0.1-0.1,0.1c-0.1,0-0.1,0-0.2,0c-0.1,0-0.2,0-0.2-0.1s-0.1-0.1-0.1-0.2
				c0-0.1,0-0.2,0.1-0.2c0.1,0,0.1-0.1,0.2-0.1L73.8,166.3z M73.4,166.7c0,0,0.1,0,0.1,0c0.1,0,0.1,0,0.2,0c0.1,0,0.1-0.1,0.1-0.2
				v-0.1c0,0,0,0-0.1,0c0,0-0.1,0-0.1,0l-0.1,0c-0.1,0-0.1,0-0.1,0c-0.1,0-0.1,0.1-0.1,0.1C73.4,166.7,73.4,166.7,73.4,166.7z"/>
			<path style="fill:#FFFFFF;" d="M75.9,165.9h0.2v0.2c0,0,0-0.1,0.1-0.1c0,0,0.1-0.1,0.2-0.1c0,0,0,0,0,0c0,0,0,0,0,0v0.2
				c0,0,0,0,0,0c0,0,0,0,0,0c-0.1,0-0.1,0-0.2,0.1c0,0.1-0.1,0.1-0.1,0.2v0.6h-0.2V165.9z"/>
			<path style="fill:#FFFFFF;" d="M78.2,165.5h0.2v0.8l0.4-0.4H79l-0.4,0.4l0.4,0.6h-0.2l-0.3-0.5l-0.1,0.1v0.4h-0.2V165.5z"/>
			<path style="fill:#FFFFFF;" d="M81.4,165.9c0.1,0,0.1,0.1,0.1,0.1c0,0,0.1,0.1,0.1,0.2c0,0,0,0.1,0,0.2h-0.7c0,0.1,0,0.2,0.1,0.2
				c0,0.1,0.1,0.1,0.2,0.1c0.1,0,0.2,0,0.2-0.1c0,0,0-0.1,0.1-0.1h0.2c0,0,0,0.1,0,0.1c0,0-0.1,0.1-0.1,0.1c0,0-0.1,0.1-0.2,0.1
				c0,0-0.1,0-0.1,0c-0.1,0-0.2,0-0.3-0.1c-0.1-0.1-0.1-0.2-0.1-0.4c0-0.2,0-0.3,0.1-0.4c0.1-0.1,0.2-0.1,0.3-0.1
				C81.3,165.9,81.3,165.9,81.4,165.9z M81.5,166.3c0-0.1,0-0.1,0-0.2c0-0.1-0.1-0.1-0.2-0.1c-0.1,0-0.1,0-0.2,0.1
				c-0.1,0.1-0.1,0.1-0.1,0.2H81.5z"/>
			<path style="fill:#FFFFFF;" d="M83.5,165.6h0.2v0.3h0.2v0.1h-0.2v0.6c0,0,0,0.1,0,0.1c0,0,0,0,0.1,0c0,0,0,0,0,0c0,0,0,0,0,0v0.1
				c0,0,0,0-0.1,0c0,0,0,0-0.1,0c-0.1,0-0.1,0-0.2-0.1c0,0,0-0.1,0-0.2V166h-0.1v-0.1h0.1V165.6z"/>
			<path style="fill:#FFFFFF;" d="M87.9,165.5H88v0.2h-0.2V165.5z M87.9,165.9H88v1h-0.2V165.9z"/>
			<path style="fill:#FFFFFF;" d="M89.9,165.9h0.2v0.1c0-0.1,0.1-0.1,0.1-0.1c0.1,0,0.1,0,0.2,0c0.1,0,0.2,0,0.3,0.1
				c0,0.1,0,0.1,0,0.2v0.6h-0.2v-0.6c0-0.1,0-0.1,0-0.1c0-0.1-0.1-0.1-0.2-0.1c0,0-0.1,0-0.1,0c0,0-0.1,0-0.1,0.1c0,0,0,0.1-0.1,0.1
				c0,0,0,0.1,0,0.1v0.5h-0.2V165.9z"/>
			<path style="fill:#FFFFFF;" d="M92.6,165.9h0.2v0.1c0-0.1,0.1-0.1,0.1-0.1c0.1,0,0.1,0,0.2,0c0.1,0,0.2,0,0.3,0.1
				c0,0.1,0,0.1,0,0.2v0.6h-0.2v-0.6c0-0.1,0-0.1,0-0.1c0-0.1-0.1-0.1-0.2-0.1c0,0-0.1,0-0.1,0c0,0-0.1,0-0.1,0.1c0,0,0,0.1-0.1,0.1
				c0,0,0,0.1,0,0.1v0.5h-0.2V165.9z"/>
			<path style="fill:#FFFFFF;" d="M96,166c0.1,0.1,0.1,0.2,0.1,0.4c0,0.2,0,0.3-0.1,0.4c-0.1,0.1-0.2,0.2-0.4,0.2
				c-0.1,0-0.2,0-0.3-0.1c-0.1-0.1-0.1-0.2-0.1-0.4c0-0.2,0-0.3,0.1-0.4c0.1-0.1,0.2-0.1,0.3-0.1C95.9,165.9,96,165.9,96,166z
				 M95.9,166.6c0-0.1,0.1-0.2,0.1-0.3c0-0.1,0-0.2,0-0.2c0-0.1-0.1-0.1-0.2-0.1c-0.1,0-0.2,0-0.2,0.1c0,0.1-0.1,0.2-0.1,0.3
				c0,0.1,0,0.2,0.1,0.3c0,0.1,0.1,0.1,0.2,0.1C95.8,166.8,95.9,166.7,95.9,166.6z"/>
			<path style="fill:#FFFFFF;" d="M98.1,165.9l0.3,0.8l0.3-0.8h0.2l-0.4,1h-0.2l-0.4-1H98.1z"/>
			<path style="fill:#FFFFFF;" d="M101.1,166.3C101.2,166.3,101.2,166.3,101.1,166.3c0.1-0.1,0.1-0.1,0.1-0.1c0-0.1,0-0.1-0.1-0.1
				c0,0-0.1,0-0.2,0c-0.1,0-0.1,0-0.2,0.1c0,0,0,0.1,0,0.1h-0.2c0-0.1,0-0.2,0.1-0.2c0.1,0,0.2-0.1,0.3-0.1c0.1,0,0.2,0,0.3,0.1
				c0.1,0,0.1,0.1,0.1,0.2v0.6c0,0,0,0,0,0c0,0,0,0,0,0c0,0,0,0,0,0c0,0,0,0,0,0v0.1c0,0,0,0-0.1,0c0,0,0,0-0.1,0
				c-0.1,0-0.1,0-0.1-0.1c0,0,0-0.1,0-0.1c0,0-0.1,0.1-0.1,0.1c-0.1,0-0.1,0-0.2,0c-0.1,0-0.2,0-0.2-0.1c-0.1-0.1-0.1-0.1-0.1-0.2
				c0-0.1,0-0.2,0.1-0.2c0.1,0,0.1-0.1,0.2-0.1L101.1,166.3z M100.8,166.7c0,0,0.1,0,0.1,0c0.1,0,0.1,0,0.2,0c0.1,0,0.1-0.1,0.1-0.2
				v-0.1c0,0,0,0-0.1,0c0,0-0.1,0-0.1,0l-0.1,0c-0.1,0-0.1,0-0.1,0c-0.1,0-0.1,0.1-0.1,0.1C100.8,166.7,100.8,166.7,100.8,166.7z"/>
			<path style="fill:#FFFFFF;" d="M103.4,165.6h0.2v0.3h0.2v0.1h-0.2v0.6c0,0,0,0.1,0,0.1c0,0,0,0,0.1,0c0,0,0,0,0,0c0,0,0,0,0,0
				v0.1c0,0,0,0-0.1,0c0,0,0,0-0.1,0c-0.1,0-0.1,0-0.2-0.1c0,0,0-0.1,0-0.2V166h-0.1v-0.1h0.1V165.6z"/>
			<path style="fill:#FFFFFF;" d="M105.5,165.5h0.2v0.2h-0.2V165.5z M105.5,165.9h0.2v1h-0.2V165.9z"/>
			<path style="fill:#FFFFFF;" d="M108.3,166c0.1,0.1,0.1,0.2,0.1,0.4c0,0.2,0,0.3-0.1,0.4c-0.1,0.1-0.2,0.2-0.4,0.2
				c-0.1,0-0.2,0-0.3-0.1c-0.1-0.1-0.1-0.2-0.1-0.4c0-0.2,0-0.3,0.1-0.4c0.1-0.1,0.2-0.1,0.3-0.1C108.1,165.9,108.2,165.9,108.3,166
				z M108.2,166.6c0-0.1,0.1-0.2,0.1-0.3c0-0.1,0-0.2,0-0.2c0-0.1-0.1-0.1-0.2-0.1c-0.1,0-0.2,0-0.2,0.1c0,0.1-0.1,0.2-0.1,0.3
				c0,0.1,0,0.2,0.1,0.3c0,0.1,0.1,0.1,0.2,0.1C108.1,166.8,108.1,166.7,108.2,166.6z"/>
			<path style="fill:#FFFFFF;" d="M110.3,165.9h0.2v0.1c0-0.1,0.1-0.1,0.1-0.1c0.1,0,0.1,0,0.2,0c0.1,0,0.2,0,0.3,0.1
				c0,0.1,0,0.1,0,0.2v0.6h-0.2v-0.6c0-0.1,0-0.1,0-0.1c0-0.1-0.1-0.1-0.2-0.1c0,0-0.1,0-0.1,0c0,0-0.1,0-0.1,0.1c0,0,0,0.1-0.1,0.1
				c0,0,0,0.1,0,0.1v0.5h-0.2V165.9z"/>
		</g>
		<path id="XMLID_1_" style="fill:#FFFFFF;" d="M59.7,149.2l5.5,13.5c0.5,1,1.2,1.3,1.7,1.3c0.2,0,0.4,0,0.5-0.1l-6.2-15.2l-0.1-0.2
			c-0.3-0.6-0.8-1-1.5-1c-0.7,0-1.2,0.4-1.5,1l-6.3,15.4c0.1,0,0.3,0.1,0.5,0.1c0.5,0,1.2-0.2,1.7-1.3l1.4-3.4l0-0.1h0.1h6.5
			c0-0.3-0.3-1.4-1.9-1.5l-3.8,0H56l0.1-0.2l3.4-8.3l0-0.1l0.1-0.2L59.7,149.2z"/>
	</g>
</g>
<g id="Layer_3">
	<g>
		<g>
			<path style="fill:#FFFFFF;" d="M58.2,101.7c-0.1,0.3-0.3,0.5-0.5,0.7c-0.2,0.2-0.5,0.4-0.7,0.5c-0.3,0.1-0.6,0.2-1,0.2
				c-0.4,0-0.7-0.1-1-0.2c-0.3-0.1-0.6-0.3-0.8-0.6c-0.2-0.3-0.4-0.6-0.5-0.9s-0.2-0.8-0.2-1.2c0-0.3,0-0.7,0.1-1.1
				c0.1-0.4,0.3-0.7,0.5-1c0.2-0.3,0.5-0.5,0.8-0.7c0.3-0.2,0.8-0.3,1.2-0.3c0.4,0,0.7,0.1,1,0.2c0.3,0.1,0.5,0.3,0.7,0.5
				s0.3,0.4,0.4,0.6c0.1,0.2,0.1,0.4,0.2,0.6h-0.2c0-0.2-0.1-0.4-0.2-0.6c-0.1-0.2-0.3-0.4-0.4-0.5c-0.2-0.2-0.4-0.3-0.7-0.4
				c-0.3-0.1-0.5-0.1-0.8-0.1c-0.5,0-0.9,0.1-1.2,0.3c-0.3,0.2-0.6,0.4-0.8,0.7s-0.3,0.6-0.4,0.9c-0.1,0.3-0.1,0.7-0.1,1
				c0,0.4,0.1,0.7,0.2,1c0.1,0.3,0.3,0.6,0.5,0.9s0.5,0.5,0.8,0.6c0.3,0.2,0.6,0.2,1,0.2c0.3,0,0.6-0.1,0.9-0.2
				c0.3-0.1,0.5-0.3,0.7-0.5s0.4-0.4,0.5-0.7c0.1-0.3,0.2-0.6,0.2-0.9h0.2C58.4,101.1,58.4,101.4,58.2,101.7z"/>
			<path style="fill:#FFFFFF;" d="M62.9,102.8v0.2h-3.8v-5.7h3.8v0.2h-3.6v2.5h3.4v0.2h-3.4v2.7H62.9z"/>
			<path style="fill:#FFFFFF;" d="M63.4,98.9c0.1-0.4,0.3-0.7,0.5-1c0.2-0.3,0.5-0.5,0.8-0.6c0.3-0.2,0.7-0.2,1.1-0.2
				c0.4,0,0.8,0.1,1.1,0.2c0.3,0.2,0.6,0.4,0.8,0.6c0.2,0.3,0.4,0.6,0.5,1c0.1,0.4,0.2,0.7,0.2,1.2s-0.1,0.8-0.2,1.2
				c-0.1,0.4-0.3,0.7-0.5,1c-0.2,0.3-0.5,0.5-0.8,0.6c-0.3,0.2-0.7,0.2-1.1,0.2c-0.4,0-0.8-0.1-1.1-0.2s-0.6-0.4-0.8-0.6
				c-0.2-0.3-0.4-0.6-0.5-1c-0.1-0.4-0.2-0.7-0.2-1.2S63.3,99.3,63.4,98.9z M63.6,101.2c0.1,0.3,0.3,0.6,0.5,0.9
				c0.2,0.3,0.5,0.4,0.8,0.6c0.3,0.1,0.6,0.2,1,0.2c0.4,0,0.7-0.1,1-0.2c0.3-0.1,0.6-0.3,0.8-0.6c0.2-0.3,0.4-0.5,0.5-0.9
				c0.1-0.3,0.2-0.7,0.2-1.1c0-0.4-0.1-0.8-0.2-1.1c-0.1-0.3-0.3-0.6-0.5-0.9c-0.2-0.3-0.5-0.4-0.8-0.6c-0.3-0.1-0.6-0.2-1-0.2
				c-0.4,0-0.7,0.1-1,0.2c-0.3,0.1-0.6,0.3-0.8,0.6c-0.2,0.3-0.4,0.5-0.5,0.9c-0.1,0.3-0.2,0.7-0.2,1.1
				C63.4,100.5,63.5,100.9,63.6,101.2z"/>
		</g>
	</g>
	<g>
		<g>
			<path style="fill:#FFFFFF;" d="M64.3,81.6v10.7H64V81.9h0l-4.5,10.3h-0.3l-4.5-10.3h0v10.3h-0.3V81.6h0.5l4.5,10.3h0l4.5-10.3
				H64.3z"/>
			<path style="fill:#FFFFFF;" d="M66.1,85.9c0.1-0.3,0.3-0.6,0.6-0.8s0.5-0.4,0.9-0.5c0.4-0.1,0.8-0.2,1.3-0.2c0.3,0,0.7,0,1,0.1
				c0.3,0.1,0.6,0.2,0.8,0.4c0.2,0.2,0.4,0.4,0.6,0.7s0.2,0.6,0.2,1v4.9c0,0.1,0,0.3,0.1,0.3c0.1,0.1,0.1,0.1,0.2,0.1
				c0.1,0,0.2,0,0.3,0c0.1,0,0.2,0,0.3,0v0.3h-0.5c-0.2,0-0.4-0.1-0.6-0.2s-0.2-0.3-0.2-0.6v-1h0c-0.1,0.2-0.2,0.5-0.4,0.7
				c-0.2,0.2-0.4,0.4-0.7,0.6c-0.3,0.2-0.6,0.3-0.9,0.4c-0.3,0.1-0.7,0.2-1.1,0.2c-0.8,0-1.4-0.2-1.9-0.5c-0.5-0.3-0.7-0.9-0.7-1.6
				c0-0.5,0.1-0.9,0.2-1.2s0.4-0.5,0.6-0.7s0.5-0.3,0.9-0.3c0.3-0.1,0.6-0.1,1-0.1c0.5,0,1-0.1,1.4-0.1c0.4,0,0.7-0.1,0.9-0.1
				c0.2-0.1,0.4-0.2,0.5-0.3c0.1-0.2,0.2-0.4,0.2-0.7c0-0.2,0-0.5-0.1-0.7c0-0.2-0.1-0.5-0.3-0.7S70.3,85,70,84.9
				c-0.3-0.1-0.7-0.2-1.2-0.2c-0.8,0-1.4,0.2-1.9,0.6s-0.7,1-0.8,1.7h-0.3C65.9,86.6,66,86.3,66.1,85.9z M71,87.8
				c-0.1,0.1-0.3,0.2-0.5,0.3s-0.4,0.1-0.7,0.2c-0.3,0-0.6,0.1-0.9,0.1c-0.3,0-0.6,0-0.9,0s-0.6,0.1-0.9,0.1
				c-0.3,0.1-0.5,0.2-0.8,0.3c-0.2,0.1-0.4,0.3-0.5,0.6c-0.1,0.3-0.2,0.6-0.2,1c0,0.2,0,0.4,0.1,0.7c0.1,0.2,0.2,0.4,0.4,0.6
				c0.2,0.2,0.4,0.3,0.7,0.4c0.3,0.1,0.6,0.2,1.1,0.2c0.5,0,0.9-0.1,1.3-0.3c0.4-0.2,0.7-0.4,1-0.7c0.3-0.3,0.5-0.6,0.6-1
				c0.1-0.4,0.2-0.7,0.2-1.1L71,87.8L71,87.8z"/>
			<path style="fill:#FFFFFF;" d="M73.9,90.8c0,0.3,0,0.5,0.1,0.7c0.1,0.2,0.1,0.3,0.2,0.4s0.2,0.1,0.3,0.1c0.1,0,0.2,0,0.4,0
				c0.1,0,0.3,0,0.4,0c0.1,0,0.2,0,0.3,0v0.3c-0.1,0-0.2,0-0.3,0c-0.1,0-0.2,0-0.5,0c-0.4,0-0.6-0.1-0.9-0.3
				c-0.2-0.2-0.4-0.6-0.4-1.1v-6h-1.4v-0.3h1.4v-2.4h0.3v2.4h1.7v0.3h-1.7V90.8z"/>
			<path style="fill:#FFFFFF;" d="M81.6,85.9c-0.1-0.3-0.3-0.5-0.5-0.7c-0.2-0.2-0.5-0.3-0.8-0.4c-0.3-0.1-0.6-0.1-1-0.1
				c-0.5,0-1,0.1-1.3,0.2c-0.3,0.1-0.5,0.3-0.7,0.5C77.1,85.6,77,85.8,77,86c0,0.2-0.1,0.3-0.1,0.4c0,0.4,0.1,0.7,0.2,0.9
				c0.2,0.2,0.4,0.4,0.6,0.5c0.3,0.1,0.6,0.2,0.9,0.3s0.7,0.2,1.1,0.3c0.3,0.1,0.6,0.2,0.9,0.2s0.6,0.2,0.8,0.4
				c0.2,0.1,0.4,0.3,0.6,0.6c0.1,0.2,0.2,0.5,0.2,0.9c0,0.4-0.1,0.7-0.2,1s-0.4,0.5-0.6,0.7c-0.3,0.2-0.6,0.3-0.9,0.4
				c-0.3,0.1-0.7,0.1-1,0.1c-1,0-1.8-0.2-2.3-0.7c-0.5-0.5-0.8-1.2-0.8-2.1h0.3c0,0.9,0.2,1.5,0.7,1.9c0.5,0.4,1.2,0.6,2.1,0.6
				c0.3,0,0.6,0,0.9-0.1c0.3-0.1,0.6-0.2,0.8-0.3c0.2-0.1,0.4-0.3,0.6-0.6c0.2-0.2,0.2-0.5,0.2-0.8c0-0.3-0.1-0.6-0.2-0.8
				c-0.2-0.2-0.4-0.4-0.6-0.5c-0.2-0.1-0.5-0.2-0.8-0.3c-0.3-0.1-0.6-0.2-1-0.2c-0.4-0.1-0.7-0.2-1-0.3c-0.3-0.1-0.5-0.2-0.8-0.3
				c-0.3-0.1-0.6-0.3-0.7-0.6c-0.1-0.2-0.2-0.6-0.2-1c0-0.2,0-0.4,0.1-0.7c0.1-0.2,0.2-0.4,0.5-0.6c0.2-0.2,0.5-0.3,0.8-0.5
				s0.7-0.2,1.2-0.2c0.9,0,1.5,0.2,2,0.6c0.5,0.4,0.8,1,0.8,1.9h-0.3C81.7,86.5,81.7,86.1,81.6,85.9z"/>
			<path style="fill:#FFFFFF;" d="M89.2,92.3v-1.9h0c-0.1,0.6-0.4,1.1-0.9,1.5c-0.5,0.4-1.1,0.6-1.9,0.6c-0.4,0-0.8-0.1-1.1-0.2
				c-0.3-0.1-0.6-0.3-0.9-0.5c-0.2-0.2-0.4-0.5-0.6-0.9c-0.1-0.3-0.2-0.7-0.2-1.2v-5.1H84v5.1c0,0.5,0.1,0.8,0.2,1.1
				c0.1,0.3,0.3,0.6,0.5,0.8c0.2,0.2,0.5,0.4,0.8,0.4c0.3,0.1,0.6,0.1,0.9,0.1c0.5,0,0.9-0.1,1.2-0.3s0.6-0.4,0.9-0.7
				c0.2-0.3,0.4-0.6,0.5-1c0.1-0.4,0.2-0.8,0.2-1.2v-4.4h0.3v7.7H89.2z"/>
			<path style="fill:#FFFFFF;" d="M91,86.9c0.1-0.5,0.4-0.9,0.7-1.3c0.3-0.4,0.7-0.7,1.1-0.9c0.4-0.2,0.9-0.3,1.5-0.3
				c0.6,0,1.1,0.1,1.5,0.3c0.4,0.2,0.8,0.5,1.1,0.9c0.3,0.4,0.5,0.8,0.7,1.3c0.2,0.5,0.2,1,0.2,1.5c0,0.5-0.1,1-0.2,1.5
				c-0.1,0.5-0.4,0.9-0.7,1.3s-0.7,0.7-1.1,0.9c-0.4,0.2-0.9,0.3-1.5,0.3c-0.6,0-1.1-0.1-1.5-0.3c-0.4-0.2-0.8-0.5-1.1-0.9
				S91.1,90.4,91,90c-0.2-0.5-0.2-1-0.2-1.5C90.8,87.9,90.8,87.4,91,86.9z M91.3,89.8c0.1,0.4,0.3,0.8,0.6,1.2
				c0.3,0.3,0.6,0.6,1,0.8c0.4,0.2,0.9,0.3,1.4,0.3c0.5,0,1-0.1,1.4-0.3c0.4-0.2,0.7-0.5,1-0.8c0.3-0.3,0.5-0.7,0.6-1.2
				c0.1-0.5,0.2-0.9,0.2-1.4c0-0.5-0.1-0.9-0.2-1.4c-0.1-0.5-0.3-0.8-0.6-1.2c-0.3-0.3-0.6-0.6-1-0.8c-0.4-0.2-0.8-0.3-1.4-0.3
				c-0.5,0-1,0.1-1.4,0.3c-0.4,0.2-0.7,0.5-1,0.8c-0.3,0.3-0.5,0.7-0.6,1.2s-0.2,0.9-0.2,1.4C91.1,88.9,91.1,89.4,91.3,89.8z"/>
			<path style="fill:#FFFFFF;" d="M102.1,81.6h8v0.3h-3.9v10.4h-0.3V81.9h-3.8V81.6z"/>
			<path style="fill:#FFFFFF;" d="M109.5,85.9c0.1-0.3,0.3-0.6,0.6-0.8s0.5-0.4,0.9-0.5c0.4-0.1,0.8-0.2,1.3-0.2c0.3,0,0.7,0,1,0.1
				c0.3,0.1,0.6,0.2,0.8,0.4c0.2,0.2,0.4,0.4,0.6,0.7c0.1,0.3,0.2,0.6,0.2,1v4.9c0,0.1,0,0.3,0.1,0.3c0.1,0.1,0.1,0.1,0.2,0.1
				c0.1,0,0.2,0,0.3,0c0.1,0,0.2,0,0.3,0v0.3h-0.5c-0.2,0-0.4-0.1-0.6-0.2s-0.2-0.3-0.2-0.6v-1h0c-0.1,0.2-0.2,0.5-0.4,0.7
				c-0.2,0.2-0.4,0.4-0.7,0.6c-0.3,0.2-0.6,0.3-0.9,0.4s-0.7,0.2-1.1,0.2c-0.8,0-1.4-0.2-1.9-0.5c-0.5-0.3-0.7-0.9-0.7-1.6
				c0-0.5,0.1-0.9,0.2-1.2s0.4-0.5,0.6-0.7s0.5-0.3,0.9-0.3c0.3-0.1,0.6-0.1,1-0.1c0.5,0,1-0.1,1.4-0.1s0.7-0.1,0.9-0.1
				c0.2-0.1,0.4-0.2,0.5-0.3c0.1-0.2,0.2-0.4,0.2-0.7c0-0.2,0-0.5-0.1-0.7c0-0.2-0.1-0.5-0.3-0.7s-0.4-0.4-0.7-0.5
				c-0.3-0.1-0.7-0.2-1.2-0.2c-0.8,0-1.4,0.2-1.9,0.6c-0.5,0.4-0.7,1-0.8,1.7h-0.3C109.2,86.6,109.3,86.3,109.5,85.9z M114.4,87.8
				c-0.1,0.1-0.3,0.2-0.5,0.3s-0.5,0.1-0.7,0.2c-0.3,0-0.6,0.1-0.9,0.1c-0.3,0-0.6,0-0.9,0c-0.3,0-0.6,0.1-0.9,0.1
				c-0.3,0.1-0.5,0.2-0.8,0.3c-0.2,0.1-0.4,0.3-0.5,0.6c-0.1,0.3-0.2,0.6-0.2,1c0,0.2,0,0.4,0.1,0.7c0.1,0.2,0.2,0.4,0.4,0.6
				s0.4,0.3,0.7,0.4s0.6,0.2,1.1,0.2c0.5,0,0.9-0.1,1.3-0.3c0.4-0.2,0.7-0.4,1-0.7s0.5-0.6,0.6-1c0.1-0.4,0.2-0.7,0.2-1.1
				L114.4,87.8L114.4,87.8z"/>
			<path style="fill:#FFFFFF;" d="M116.5,83.1v-1.5h0.3v1.5H116.5z M116.5,92.3v-7.7h0.3v7.7H116.5z"/>
			<path style="fill:#FFFFFF;" d="M123.9,84.6l-3.6,9.3c-0.1,0.3-0.2,0.5-0.4,0.6c-0.1,0.1-0.3,0.3-0.5,0.3
				c-0.2,0.1-0.4,0.1-0.6,0.1c-0.2,0-0.4,0-0.7,0v-0.3c0.3,0,0.5,0,0.7,0c0.2,0,0.3-0.1,0.5-0.1c0.1-0.1,0.3-0.2,0.4-0.3
				c0.1-0.1,0.2-0.3,0.3-0.5l0.6-1.4l-3.2-7.6h0.3l3.1,7.3l2.8-7.3H123.9z"/>
			<path style="fill:#FFFFFF;" d="M124.3,86.9c0.2-0.5,0.4-0.9,0.7-1.3c0.3-0.4,0.7-0.7,1.1-0.9c0.4-0.2,0.9-0.3,1.5-0.3
				c0.6,0,1.1,0.1,1.5,0.3c0.4,0.2,0.8,0.5,1.1,0.9c0.3,0.4,0.5,0.8,0.7,1.3c0.2,0.5,0.2,1,0.2,1.5c0,0.5-0.1,1-0.2,1.5
				c-0.1,0.5-0.4,0.9-0.7,1.3s-0.7,0.7-1.1,0.9s-0.9,0.3-1.5,0.3c-0.6,0-1.1-0.1-1.5-0.3c-0.4-0.2-0.8-0.5-1.1-0.9s-0.5-0.8-0.7-1.3
				c-0.1-0.5-0.2-1-0.2-1.5C124.1,87.9,124.2,87.4,124.3,86.9z M124.6,89.8c0.1,0.4,0.3,0.8,0.6,1.2c0.3,0.3,0.6,0.6,1,0.8
				c0.4,0.2,0.9,0.3,1.4,0.3c0.5,0,1-0.1,1.4-0.3c0.4-0.2,0.7-0.5,1-0.8c0.3-0.3,0.5-0.7,0.6-1.2c0.1-0.5,0.2-0.9,0.2-1.4
				c0-0.5-0.1-0.9-0.2-1.4s-0.3-0.8-0.6-1.2c-0.3-0.3-0.6-0.6-1-0.8c-0.4-0.2-0.8-0.3-1.4-0.3c-0.5,0-1,0.1-1.4,0.3
				c-0.4,0.2-0.7,0.5-1,0.8c-0.3,0.3-0.5,0.7-0.6,1.2c-0.1,0.5-0.2,0.9-0.2,1.4C124.4,88.9,124.5,89.4,124.6,89.8z"/>
			<path style="fill:#FFFFFF;" d="M137.8,92.3v-1.9h0c-0.1,0.6-0.4,1.1-0.9,1.5c-0.5,0.4-1.1,0.6-1.9,0.6c-0.4,0-0.8-0.1-1.1-0.2
				c-0.3-0.1-0.6-0.3-0.9-0.5c-0.2-0.2-0.4-0.5-0.6-0.9c-0.1-0.3-0.2-0.7-0.2-1.2v-5.1h0.3v5.1c0,0.5,0.1,0.8,0.2,1.1
				c0.1,0.3,0.3,0.6,0.5,0.8s0.5,0.4,0.8,0.4c0.3,0.1,0.6,0.1,0.9,0.1c0.5,0,0.9-0.1,1.2-0.3c0.3-0.2,0.6-0.4,0.9-0.7
				c0.2-0.3,0.4-0.6,0.5-1c0.1-0.4,0.2-0.8,0.2-1.2v-4.4h0.3v7.7H137.8z"/>
		</g>
	</g>
	<g>
		<g>
			<path style="fill:#FFFFFF;" d="M204.8,125.1v5h-0.1v-4.8h0l-2.1,4.8h-0.2l-2.1-4.8h0v4.8h-0.1v-5h0.2l2.1,4.8h0l2.1-4.8H204.8z"
				/>
			<path style="fill:#FFFFFF;" d="M205.5,126.6c0.1-0.3,0.2-0.6,0.4-0.8s0.4-0.4,0.7-0.6c0.3-0.1,0.6-0.2,1-0.2c0.4,0,0.7,0.1,1,0.2
				c0.3,0.1,0.5,0.3,0.7,0.6s0.3,0.5,0.4,0.8s0.2,0.7,0.2,1s0,0.7-0.2,1c-0.1,0.3-0.2,0.6-0.4,0.8c-0.2,0.2-0.4,0.4-0.7,0.6
				c-0.3,0.1-0.6,0.2-1,0.2c-0.4,0-0.7-0.1-1-0.2c-0.3-0.1-0.5-0.3-0.7-0.6c-0.2-0.2-0.3-0.5-0.4-0.8c-0.1-0.3-0.2-0.7-0.2-1
				S205.4,126.9,205.5,126.6z M205.7,128.6c0.1,0.3,0.2,0.6,0.4,0.8s0.4,0.4,0.7,0.5c0.3,0.1,0.6,0.2,0.9,0.2s0.6-0.1,0.9-0.2
				c0.3-0.1,0.5-0.3,0.7-0.5s0.3-0.5,0.4-0.8c0.1-0.3,0.2-0.6,0.2-1c0-0.4-0.1-0.7-0.2-1c-0.1-0.3-0.2-0.6-0.4-0.8
				c-0.2-0.2-0.4-0.4-0.7-0.5c-0.3-0.1-0.6-0.2-0.9-0.2s-0.6,0.1-0.9,0.2c-0.3,0.1-0.5,0.3-0.7,0.5c-0.2,0.2-0.3,0.5-0.4,0.8
				c-0.1,0.3-0.2,0.6-0.2,1C205.5,128,205.6,128.3,205.7,128.6z"/>
			<path style="fill:#FFFFFF;" d="M212.7,125.1c0.2,0,0.4,0,0.5,0.1c0.2,0.1,0.3,0.1,0.4,0.2c0.1,0.1,0.2,0.2,0.3,0.4
				s0.1,0.3,0.1,0.5c0,0.1,0,0.3-0.1,0.4c-0.1,0.1-0.1,0.3-0.2,0.4s-0.2,0.2-0.3,0.2c-0.1,0.1-0.3,0.1-0.4,0.1v0
				c0.2,0,0.3,0,0.5,0.1c0.1,0.1,0.3,0.1,0.4,0.2c0.1,0.1,0.2,0.2,0.3,0.4c0.1,0.2,0.1,0.3,0.1,0.5c0,0.2,0,0.4-0.1,0.6
				c-0.1,0.2-0.2,0.3-0.3,0.4s-0.3,0.2-0.5,0.3c-0.2,0.1-0.4,0.1-0.7,0.1h-2.1v-5H212.7z M212.7,127.4c0.2,0,0.3,0,0.5-0.1
				c0.2,0,0.3-0.1,0.4-0.2c0.1-0.1,0.2-0.2,0.3-0.3c0.1-0.1,0.1-0.3,0.1-0.5c0-0.2,0-0.4-0.1-0.5c-0.1-0.1-0.2-0.3-0.3-0.3
				c-0.1-0.1-0.2-0.2-0.4-0.2c-0.2,0-0.3-0.1-0.5-0.1h-2v2.2H212.7z M212.7,130c0.2,0,0.4,0,0.6-0.1c0.2,0,0.3-0.1,0.5-0.2
				c0.1-0.1,0.2-0.2,0.3-0.4c0.1-0.2,0.1-0.3,0.1-0.5c0-0.2,0-0.4-0.1-0.6c-0.1-0.1-0.2-0.3-0.3-0.4c-0.1-0.1-0.3-0.2-0.5-0.2
				c-0.2,0-0.3-0.1-0.5-0.1h-2v2.4H212.7z"/>
			<path style="fill:#FFFFFF;" d="M215,125.1v5h-0.1v-5H215z"/>
			<path style="fill:#FFFFFF;" d="M218.8,130.1h-3.1v-5h0.1v4.9h2.9V130.1z"/>
			<path style="fill:#FFFFFF;" d="M222.5,130v0.1h-3.3v-5h3.3v0.1h-3.2v2.2h3v0.1h-3v2.4H222.5z"/>
			<path style="fill:#FFFFFF;" d="M225.2,124.6h0.1v7h-0.1V124.6z"/>
			<path style="fill:#FFFFFF;" d="M231.6,128.6c-0.1,0.3-0.2,0.6-0.3,0.8c-0.1,0.2-0.3,0.4-0.6,0.6c-0.2,0.1-0.5,0.2-0.9,0.2
				c-0.3,0-0.6-0.1-0.9-0.2c-0.2-0.1-0.4-0.3-0.6-0.6c-0.1-0.2-0.2-0.5-0.3-0.8c-0.1-0.3-0.1-0.6-0.1-0.9s0-0.6,0.1-0.9
				s0.2-0.6,0.3-0.8c0.1-0.2,0.3-0.4,0.6-0.6c0.2-0.1,0.5-0.2,0.9-0.2c0.3,0,0.6,0.1,0.9,0.2s0.4,0.3,0.6,0.6
				c0.1,0.2,0.2,0.5,0.3,0.8s0.1,0.6,0.1,0.9S231.7,128.3,231.6,128.6z M231.5,126.9c-0.1-0.3-0.1-0.5-0.3-0.7
				c-0.1-0.2-0.3-0.4-0.5-0.5c-0.2-0.1-0.5-0.2-0.8-0.2c-0.3,0-0.6,0.1-0.8,0.2c-0.2,0.1-0.4,0.3-0.5,0.5c-0.1,0.2-0.2,0.5-0.3,0.7
				c-0.1,0.3-0.1,0.5-0.1,0.8c0,0.3,0,0.5,0.1,0.8c0.1,0.3,0.1,0.5,0.3,0.7c0.1,0.2,0.3,0.4,0.5,0.5c0.2,0.1,0.5,0.2,0.8,0.2
				c0.3,0,0.6-0.1,0.8-0.2c0.2-0.1,0.4-0.3,0.5-0.5c0.1-0.2,0.2-0.5,0.3-0.7c0.1-0.3,0.1-0.5,0.1-0.8
				C231.6,127.5,231.5,127.2,231.5,126.9z"/>
			<path style="fill:#FFFFFF;" d="M235.2,127.9c0.2,0.2,0.3,0.5,0.3,0.9c0,0.2,0,0.5-0.1,0.6c-0.1,0.2-0.2,0.3-0.4,0.4
				s-0.3,0.2-0.5,0.3s-0.4,0.1-0.7,0.1s-0.5,0-0.7-0.1s-0.4-0.1-0.5-0.3s-0.3-0.3-0.4-0.4c-0.1-0.2-0.1-0.4-0.1-0.6
				c0-0.4,0.1-0.7,0.3-0.9c0.2-0.2,0.5-0.4,0.9-0.4v0c-0.1,0-0.3-0.1-0.4-0.1s-0.2-0.1-0.3-0.2c-0.1-0.1-0.2-0.2-0.2-0.3
				c-0.1-0.1-0.1-0.2-0.1-0.4c0-0.2,0-0.4,0.1-0.5c0.1-0.2,0.2-0.3,0.3-0.4c0.1-0.1,0.3-0.2,0.5-0.2c0.2,0,0.4-0.1,0.6-0.1
				c0.2,0,0.4,0,0.6,0.1c0.2,0,0.3,0.1,0.5,0.2c0.1,0.1,0.2,0.2,0.3,0.4c0.1,0.2,0.1,0.3,0.1,0.5c0,0.1,0,0.3-0.1,0.4
				c-0.1,0.1-0.1,0.2-0.2,0.3c-0.1,0.1-0.2,0.2-0.3,0.2c-0.1,0.1-0.2,0.1-0.4,0.1v0C234.7,127.5,235,127.7,235.2,127.9z
				 M235.3,128.2c-0.1-0.2-0.2-0.3-0.4-0.4c-0.1-0.1-0.3-0.2-0.5-0.2c-0.2,0-0.4-0.1-0.6-0.1c-0.2,0-0.4,0-0.6,0.1
				c-0.2,0-0.4,0.1-0.5,0.2c-0.1,0.1-0.3,0.2-0.4,0.4c-0.1,0.2-0.1,0.3-0.1,0.6c0,0.2,0,0.4,0.1,0.6c0.1,0.2,0.2,0.3,0.4,0.4
				c0.1,0.1,0.3,0.2,0.5,0.2c0.2,0,0.4,0.1,0.6,0.1s0.4,0,0.6-0.1c0.2,0,0.4-0.1,0.5-0.2c0.1-0.1,0.3-0.2,0.3-0.4
				c0.1-0.2,0.1-0.4,0.1-0.6C235.4,128.5,235.3,128.3,235.3,128.2z M235,125.9c-0.1-0.1-0.2-0.2-0.3-0.3c-0.1-0.1-0.3-0.1-0.4-0.2
				s-0.3-0.1-0.5-0.1c-0.2,0-0.3,0-0.5,0.1s-0.3,0.1-0.4,0.2c-0.1,0.1-0.2,0.2-0.3,0.3c-0.1,0.1-0.1,0.3-0.1,0.5
				c0,0.2,0,0.3,0.1,0.4c0.1,0.1,0.2,0.2,0.3,0.3c0.1,0.1,0.3,0.1,0.4,0.2s0.3,0.1,0.5,0.1c0.2,0,0.3,0,0.5-0.1s0.3-0.1,0.4-0.2
				c0.1-0.1,0.2-0.2,0.3-0.3c0.1-0.1,0.1-0.3,0.1-0.4C235.2,126.3,235.1,126.1,235,125.9z"/>
			<path style="fill:#FFFFFF;" d="M239.4,128.6c-0.1,0.3-0.2,0.6-0.3,0.8c-0.1,0.2-0.3,0.4-0.6,0.6c-0.2,0.1-0.5,0.2-0.9,0.2
				c-0.3,0-0.6-0.1-0.9-0.2c-0.2-0.1-0.4-0.3-0.6-0.6c-0.1-0.2-0.2-0.5-0.3-0.8c-0.1-0.3-0.1-0.6-0.1-0.9s0-0.6,0.1-0.9
				s0.2-0.6,0.3-0.8c0.1-0.2,0.3-0.4,0.6-0.6c0.2-0.1,0.5-0.2,0.9-0.2c0.3,0,0.6,0.1,0.9,0.2s0.4,0.3,0.6,0.6
				c0.1,0.2,0.2,0.5,0.3,0.8s0.1,0.6,0.1,0.9S239.5,128.3,239.4,128.6z M239.3,126.9c-0.1-0.3-0.1-0.5-0.3-0.7
				c-0.1-0.2-0.3-0.4-0.5-0.5c-0.2-0.1-0.5-0.2-0.8-0.2c-0.3,0-0.6,0.1-0.8,0.2c-0.2,0.1-0.4,0.3-0.5,0.5c-0.1,0.2-0.2,0.5-0.3,0.7
				c-0.1,0.3-0.1,0.5-0.1,0.8c0,0.3,0,0.5,0.1,0.8c0.1,0.3,0.1,0.5,0.3,0.7c0.1,0.2,0.3,0.4,0.5,0.5c0.2,0.1,0.5,0.2,0.8,0.2
				c0.3,0,0.6-0.1,0.8-0.2c0.2-0.1,0.4-0.3,0.5-0.5c0.1-0.2,0.2-0.5,0.3-0.7c0.1-0.3,0.1-0.5,0.1-0.8
				C239.4,127.5,239.3,127.2,239.3,126.9z"/>
			<path style="fill:#FFFFFF;" d="M241.4,128.2v0.1h-1.2v-0.1H241.4z"/>
			<path style="fill:#FFFFFF;" d="M242.6,127.5L242.6,127.5c0.1-0.2,0.3-0.4,0.6-0.5c0.2-0.1,0.5-0.2,0.8-0.2c0.2,0,0.5,0,0.7,0.1
				c0.2,0.1,0.4,0.2,0.5,0.3s0.3,0.3,0.3,0.5c0.1,0.2,0.1,0.4,0.1,0.7c0,0.3,0,0.5-0.1,0.7c-0.1,0.2-0.2,0.4-0.3,0.5
				c-0.1,0.1-0.3,0.3-0.5,0.3c-0.2,0.1-0.4,0.1-0.7,0.1c-0.2,0-0.5,0-0.7-0.1c-0.2-0.1-0.4-0.2-0.5-0.3c-0.1-0.1-0.3-0.3-0.3-0.5
				c-0.1-0.2-0.1-0.4-0.1-0.7h0.1c0,0.2,0,0.4,0.1,0.6c0.1,0.2,0.2,0.3,0.3,0.5c0.1,0.1,0.3,0.2,0.5,0.3s0.4,0.1,0.6,0.1
				c0.2,0,0.4,0,0.6-0.1c0.2-0.1,0.3-0.2,0.5-0.3c0.1-0.1,0.2-0.3,0.3-0.5c0.1-0.2,0.1-0.4,0.1-0.6c0-0.2,0-0.4-0.1-0.6
				c-0.1-0.2-0.2-0.3-0.3-0.5s-0.3-0.2-0.5-0.3c-0.2-0.1-0.4-0.1-0.6-0.1c-0.3,0-0.5,0.1-0.8,0.2c-0.2,0.1-0.4,0.3-0.6,0.5h-0.2
				l0.5-2.4h2.4v0.1H243L242.6,127.5z"/>
			<path style="fill:#FFFFFF;" d="M249.2,127.9c0.2,0.2,0.3,0.5,0.3,0.9c0,0.2,0,0.5-0.1,0.6c-0.1,0.2-0.2,0.3-0.4,0.4
				s-0.3,0.2-0.5,0.3s-0.4,0.1-0.7,0.1s-0.5,0-0.7-0.1s-0.4-0.1-0.5-0.3s-0.3-0.3-0.4-0.4c-0.1-0.2-0.1-0.4-0.1-0.6
				c0-0.4,0.1-0.7,0.3-0.9c0.2-0.2,0.5-0.4,0.9-0.4v0c-0.1,0-0.3-0.1-0.4-0.1s-0.2-0.1-0.3-0.2c-0.1-0.1-0.2-0.2-0.2-0.3
				c-0.1-0.1-0.1-0.2-0.1-0.4c0-0.2,0-0.4,0.1-0.5c0.1-0.2,0.2-0.3,0.3-0.4c0.1-0.1,0.3-0.2,0.5-0.2c0.2,0,0.4-0.1,0.6-0.1
				c0.2,0,0.4,0,0.6,0.1c0.2,0,0.3,0.1,0.5,0.2c0.1,0.1,0.2,0.2,0.3,0.4c0.1,0.2,0.1,0.3,0.1,0.5c0,0.1,0,0.3-0.1,0.4
				c-0.1,0.1-0.1,0.2-0.2,0.3c-0.1,0.1-0.2,0.2-0.3,0.2c-0.1,0.1-0.2,0.1-0.4,0.1v0C248.7,127.5,249,127.7,249.2,127.9z
				 M249.3,128.2c-0.1-0.2-0.2-0.3-0.4-0.4c-0.1-0.1-0.3-0.2-0.5-0.2c-0.2,0-0.4-0.1-0.6-0.1c-0.2,0-0.4,0-0.6,0.1
				c-0.2,0-0.4,0.1-0.5,0.2c-0.1,0.1-0.3,0.2-0.4,0.4c-0.1,0.2-0.1,0.3-0.1,0.6c0,0.2,0,0.4,0.1,0.6c0.1,0.2,0.2,0.3,0.4,0.4
				c0.1,0.1,0.3,0.2,0.5,0.2c0.2,0,0.4,0.1,0.6,0.1s0.4,0,0.6-0.1c0.2,0,0.4-0.1,0.5-0.2c0.1-0.1,0.3-0.2,0.3-0.4
				c0.1-0.2,0.1-0.4,0.1-0.6C249.4,128.5,249.4,128.3,249.3,128.2z M249,125.9c-0.1-0.1-0.2-0.2-0.3-0.3c-0.1-0.1-0.3-0.1-0.4-0.2
				s-0.3-0.1-0.5-0.1c-0.2,0-0.3,0-0.5,0.1s-0.3,0.1-0.4,0.2c-0.1,0.1-0.2,0.2-0.3,0.3c-0.1,0.1-0.1,0.3-0.1,0.5
				c0,0.2,0,0.3,0.1,0.4c0.1,0.1,0.2,0.2,0.3,0.3c0.1,0.1,0.3,0.1,0.4,0.2s0.3,0.1,0.5,0.1c0.2,0,0.3,0,0.5-0.1s0.3-0.1,0.4-0.2
				c0.1-0.1,0.2-0.2,0.3-0.3c0.1-0.1,0.1-0.3,0.1-0.4C249.2,126.3,249.1,126.1,249,125.9z"/>
			<path style="fill:#FFFFFF;" d="M253.4,128.6c-0.1,0.3-0.2,0.6-0.3,0.8c-0.1,0.2-0.3,0.4-0.6,0.6c-0.2,0.1-0.5,0.2-0.9,0.2
				c-0.3,0-0.6-0.1-0.9-0.2c-0.2-0.1-0.4-0.3-0.6-0.6c-0.1-0.2-0.2-0.5-0.3-0.8c-0.1-0.3-0.1-0.6-0.1-0.9s0-0.6,0.1-0.9
				s0.2-0.6,0.3-0.8c0.1-0.2,0.3-0.4,0.6-0.6c0.2-0.1,0.5-0.2,0.9-0.2c0.3,0,0.6,0.1,0.9,0.2c0.2,0.1,0.4,0.3,0.6,0.6
				c0.1,0.2,0.2,0.5,0.3,0.8s0.1,0.6,0.1,0.9S253.5,128.3,253.4,128.6z M253.3,126.9c-0.1-0.3-0.1-0.5-0.3-0.7
				c-0.1-0.2-0.3-0.4-0.5-0.5c-0.2-0.1-0.5-0.2-0.8-0.2c-0.3,0-0.6,0.1-0.8,0.2c-0.2,0.1-0.4,0.3-0.5,0.5c-0.1,0.2-0.2,0.5-0.3,0.7
				c-0.1,0.3-0.1,0.5-0.1,0.8c0,0.3,0,0.5,0.1,0.8c0.1,0.3,0.1,0.5,0.3,0.7c0.1,0.2,0.3,0.4,0.5,0.5c0.2,0.1,0.5,0.2,0.8,0.2
				c0.3,0,0.6-0.1,0.8-0.2c0.2-0.1,0.4-0.3,0.5-0.5c0.1-0.2,0.2-0.5,0.3-0.7c0.1-0.3,0.1-0.5,0.1-0.8
				C253.4,127.5,253.3,127.2,253.3,126.9z"/>
			<path style="fill:#FFFFFF;" d="M254.2,126.1c0.1-0.2,0.2-0.4,0.3-0.5c0.1-0.1,0.3-0.2,0.5-0.3s0.4-0.1,0.7-0.1
				c0.2,0,0.4,0,0.6,0.1c0.2,0,0.3,0.1,0.5,0.2c0.1,0.1,0.3,0.2,0.3,0.4s0.1,0.3,0.1,0.5c0,0.3-0.1,0.6-0.3,0.8s-0.4,0.3-0.7,0.3v0
				c0.1,0,0.3,0,0.4,0.1c0.1,0.1,0.3,0.1,0.4,0.2c0.1,0.1,0.2,0.2,0.3,0.4c0.1,0.1,0.1,0.3,0.1,0.5c0,0.2,0,0.4-0.1,0.6
				c-0.1,0.2-0.2,0.3-0.3,0.4c-0.1,0.1-0.3,0.2-0.5,0.3c-0.2,0.1-0.4,0.1-0.6,0.1c-0.3,0-0.5,0-0.7-0.1c-0.2-0.1-0.4-0.2-0.6-0.3
				s-0.3-0.3-0.3-0.5s-0.1-0.5-0.1-0.7h0.1c0,0.3,0,0.5,0.1,0.7c0.1,0.2,0.2,0.4,0.3,0.5c0.1,0.1,0.3,0.2,0.5,0.3s0.4,0.1,0.7,0.1
				c0.2,0,0.4,0,0.6-0.1c0.2-0.1,0.3-0.1,0.5-0.2c0.1-0.1,0.2-0.2,0.3-0.4s0.1-0.3,0.1-0.5c0-0.2,0-0.4-0.1-0.5
				c-0.1-0.1-0.2-0.3-0.3-0.4c-0.1-0.1-0.3-0.2-0.4-0.2c-0.2,0-0.3-0.1-0.5-0.1h-0.3v-0.1h0.3c0.2,0,0.3,0,0.5-0.1s0.3-0.1,0.4-0.2
				c0.1-0.1,0.2-0.2,0.3-0.3c0.1-0.1,0.1-0.3,0.1-0.5c0-0.2,0-0.4-0.1-0.5c-0.1-0.1-0.2-0.2-0.3-0.3c-0.1-0.1-0.3-0.1-0.4-0.2
				c-0.2,0-0.3-0.1-0.5-0.1c-0.2,0-0.4,0-0.6,0.1c-0.2,0.1-0.3,0.1-0.5,0.3c-0.1,0.1-0.2,0.3-0.3,0.4c-0.1,0.2-0.1,0.4-0.1,0.6h-0.1
				C254.1,126.6,254.1,126.3,254.2,126.1z"/>
			<path style="fill:#FFFFFF;" d="M259.3,128.2v0.1h-1.2v-0.1H259.3z"/>
			<path style="fill:#FFFFFF;" d="M263.5,128.6c-0.1,0.3-0.2,0.6-0.3,0.8c-0.1,0.2-0.3,0.4-0.6,0.6c-0.2,0.1-0.5,0.2-0.9,0.2
				c-0.3,0-0.6-0.1-0.9-0.2c-0.2-0.1-0.4-0.3-0.6-0.6c-0.1-0.2-0.2-0.5-0.3-0.8c-0.1-0.3-0.1-0.6-0.1-0.9s0-0.6,0.1-0.9
				s0.2-0.6,0.3-0.8c0.1-0.2,0.3-0.4,0.6-0.6c0.2-0.1,0.5-0.2,0.9-0.2c0.3,0,0.6,0.1,0.9,0.2s0.4,0.3,0.6,0.6
				c0.1,0.2,0.2,0.5,0.3,0.8s0.1,0.6,0.1,0.9S263.6,128.3,263.5,128.6z M263.4,126.9c-0.1-0.3-0.1-0.5-0.3-0.7
				c-0.1-0.2-0.3-0.4-0.5-0.5c-0.2-0.1-0.5-0.2-0.8-0.2c-0.3,0-0.6,0.1-0.8,0.2c-0.2,0.1-0.4,0.3-0.5,0.5c-0.1,0.2-0.2,0.5-0.3,0.7
				c-0.1,0.3-0.1,0.5-0.1,0.8c0,0.3,0,0.5,0.1,0.8c0.1,0.3,0.1,0.5,0.3,0.7c0.1,0.2,0.3,0.4,0.5,0.5c0.2,0.1,0.5,0.2,0.8,0.2
				c0.3,0,0.6-0.1,0.8-0.2c0.2-0.1,0.4-0.3,0.5-0.5c0.1-0.2,0.2-0.5,0.3-0.7c0.1-0.3,0.1-0.5,0.1-0.8
				C263.5,127.5,263.4,127.2,263.4,126.9z"/>
			<path style="fill:#FFFFFF;" d="M264.3,126.1c0.1-0.2,0.2-0.4,0.3-0.5c0.1-0.1,0.3-0.2,0.5-0.3s0.4-0.1,0.7-0.1
				c0.2,0,0.4,0,0.6,0.1c0.2,0,0.3,0.1,0.5,0.2c0.1,0.1,0.3,0.2,0.3,0.4s0.1,0.3,0.1,0.5c0,0.3-0.1,0.6-0.3,0.8s-0.4,0.3-0.7,0.3v0
				c0.1,0,0.3,0,0.4,0.1c0.1,0.1,0.3,0.1,0.4,0.2c0.1,0.1,0.2,0.2,0.3,0.4c0.1,0.1,0.1,0.3,0.1,0.5c0,0.2,0,0.4-0.1,0.6
				c-0.1,0.2-0.2,0.3-0.3,0.4c-0.1,0.1-0.3,0.2-0.5,0.3c-0.2,0.1-0.4,0.1-0.6,0.1c-0.3,0-0.5,0-0.7-0.1c-0.2-0.1-0.4-0.2-0.6-0.3
				s-0.3-0.3-0.3-0.5s-0.1-0.5-0.1-0.7h0.1c0,0.3,0,0.5,0.1,0.7c0.1,0.2,0.2,0.4,0.3,0.5c0.1,0.1,0.3,0.2,0.5,0.3s0.4,0.1,0.7,0.1
				c0.2,0,0.4,0,0.6-0.1c0.2-0.1,0.3-0.1,0.5-0.2c0.1-0.1,0.2-0.2,0.3-0.4s0.1-0.3,0.1-0.5c0-0.2,0-0.4-0.1-0.5
				c-0.1-0.1-0.2-0.3-0.3-0.4c-0.1-0.1-0.3-0.2-0.4-0.2c-0.2,0-0.3-0.1-0.5-0.1h-0.3v-0.1h0.3c0.2,0,0.3,0,0.5-0.1s0.3-0.1,0.4-0.2
				c0.1-0.1,0.2-0.2,0.3-0.3c0.1-0.1,0.1-0.3,0.1-0.5c0-0.2,0-0.4-0.1-0.5c-0.1-0.1-0.2-0.2-0.3-0.3c-0.1-0.1-0.3-0.1-0.4-0.2
				c-0.2,0-0.3-0.1-0.5-0.1c-0.2,0-0.4,0-0.6,0.1c-0.2,0.1-0.3,0.1-0.5,0.3c-0.1,0.1-0.2,0.3-0.3,0.4c-0.1,0.2-0.1,0.4-0.1,0.6h-0.1
				C264.2,126.6,264.2,126.3,264.3,126.1z"/>
			<path style="fill:#FFFFFF;" d="M269.7,125.5c-0.1,0.2-0.3,0.4-0.6,0.5c-0.2,0.1-0.5,0.3-0.7,0.3v-0.1c0.1,0,0.3-0.1,0.4-0.2
				c0.1-0.1,0.2-0.1,0.3-0.2s0.2-0.1,0.3-0.2c0.1-0.1,0.2-0.2,0.3-0.3h0.2v4.8h-0.1L269.7,125.5L269.7,125.5z"/>
			<path style="fill:#FFFFFF;" d="M272.1,126.1c0.1-0.2,0.2-0.4,0.3-0.5c0.1-0.1,0.3-0.2,0.5-0.3s0.4-0.1,0.7-0.1
				c0.2,0,0.4,0,0.6,0.1c0.2,0,0.3,0.1,0.5,0.2c0.1,0.1,0.3,0.2,0.3,0.4s0.1,0.3,0.1,0.5c0,0.3-0.1,0.6-0.3,0.8s-0.4,0.3-0.7,0.3v0
				c0.1,0,0.3,0,0.4,0.1c0.1,0.1,0.3,0.1,0.4,0.2c0.1,0.1,0.2,0.2,0.3,0.4c0.1,0.1,0.1,0.3,0.1,0.5c0,0.2,0,0.4-0.1,0.6
				c-0.1,0.2-0.2,0.3-0.3,0.4c-0.1,0.1-0.3,0.2-0.5,0.3c-0.2,0.1-0.4,0.1-0.6,0.1c-0.3,0-0.5,0-0.7-0.1c-0.2-0.1-0.4-0.2-0.6-0.3
				s-0.3-0.3-0.3-0.5s-0.1-0.5-0.1-0.7h0.1c0,0.3,0,0.5,0.1,0.7c0.1,0.2,0.2,0.4,0.3,0.5c0.1,0.1,0.3,0.2,0.5,0.3s0.4,0.1,0.7,0.1
				c0.2,0,0.4,0,0.6-0.1c0.2-0.1,0.3-0.1,0.5-0.2c0.1-0.1,0.2-0.2,0.3-0.4s0.1-0.3,0.1-0.5c0-0.2,0-0.4-0.1-0.5
				c-0.1-0.1-0.2-0.3-0.3-0.4c-0.1-0.1-0.3-0.2-0.4-0.2c-0.2,0-0.3-0.1-0.5-0.1h-0.3v-0.1h0.3c0.2,0,0.3,0,0.5-0.1s0.3-0.1,0.4-0.2
				c0.1-0.1,0.2-0.2,0.3-0.3c0.1-0.1,0.1-0.3,0.1-0.5c0-0.2,0-0.4-0.1-0.5c-0.1-0.1-0.2-0.2-0.3-0.3c-0.1-0.1-0.3-0.1-0.4-0.2
				c-0.2,0-0.3-0.1-0.5-0.1c-0.2,0-0.4,0-0.6,0.1c-0.2,0.1-0.3,0.1-0.5,0.3c-0.1,0.1-0.2,0.3-0.3,0.4c-0.1,0.2-0.1,0.4-0.1,0.6H272
				C272,126.6,272,126.3,272.1,126.1z"/>
		</g>
	</g>
	<g>
		<g>
			<path style="fill:#FFFFFF;" d="M199.6,134.6h3.7v0.1h-1.8v4.9h-0.1v-4.9h-1.8V134.6z"/>
			<path style="fill:#FFFFFF;" d="M206.9,139.5v0.1h-3.3v-5h3.3v0.1h-3.2v2.2h3v0.1h-3v2.4H206.9z"/>
			<path style="fill:#FFFFFF;" d="M210.4,139.6h-3.1v-5h0.1v4.9h2.9V139.6z"/>
			<path style="fill:#FFFFFF;" d="M213,134.1h0.1v7H213V134.1z"/>
			<path style="fill:#FFFFFF;" d="M219.4,138.1c-0.1,0.3-0.2,0.6-0.3,0.8c-0.1,0.2-0.3,0.4-0.6,0.6c-0.2,0.1-0.5,0.2-0.9,0.2
				c-0.3,0-0.6-0.1-0.9-0.2c-0.2-0.1-0.4-0.3-0.6-0.6c-0.1-0.2-0.2-0.5-0.3-0.8c-0.1-0.3-0.1-0.6-0.1-0.9s0-0.6,0.1-0.9
				s0.2-0.6,0.3-0.8c0.1-0.2,0.3-0.4,0.6-0.6c0.2-0.1,0.5-0.2,0.9-0.2c0.3,0,0.6,0.1,0.9,0.2s0.4,0.3,0.6,0.6
				c0.1,0.2,0.2,0.5,0.3,0.8s0.1,0.6,0.1,0.9S219.5,137.8,219.4,138.1z M219.3,136.4c-0.1-0.3-0.1-0.5-0.3-0.7
				c-0.1-0.2-0.3-0.4-0.5-0.5c-0.2-0.1-0.5-0.2-0.8-0.2c-0.3,0-0.6,0.1-0.8,0.2c-0.2,0.1-0.4,0.3-0.5,0.5c-0.1,0.2-0.2,0.5-0.3,0.7
				c-0.1,0.3-0.1,0.5-0.1,0.8c0,0.3,0,0.5,0.1,0.8c0.1,0.3,0.1,0.5,0.3,0.7c0.1,0.2,0.3,0.4,0.5,0.5c0.2,0.1,0.5,0.2,0.8,0.2
				c0.3,0,0.6-0.1,0.8-0.2c0.2-0.1,0.4-0.3,0.5-0.5c0.1-0.2,0.2-0.5,0.3-0.7c0.1-0.3,0.1-0.5,0.1-0.8
				C219.4,137,219.4,136.7,219.3,136.4z"/>
			<path style="fill:#FFFFFF;" d="M220.4,139c0.1,0.1,0.2,0.2,0.3,0.3s0.3,0.1,0.4,0.2s0.3,0,0.4,0c0.2,0,0.4,0,0.6-0.1
				c0.2-0.1,0.3-0.2,0.4-0.3s0.2-0.3,0.3-0.5c0.1-0.2,0.1-0.4,0.2-0.6c0-0.2,0.1-0.4,0.1-0.6c0-0.2,0-0.4,0-0.6h0
				c0,0.2-0.1,0.3-0.2,0.5c-0.1,0.1-0.2,0.3-0.3,0.4s-0.3,0.2-0.5,0.3s-0.4,0.1-0.5,0.1c-0.2,0-0.4,0-0.6-0.1s-0.4-0.2-0.5-0.3
				s-0.3-0.3-0.4-0.5c-0.1-0.2-0.1-0.4-0.1-0.7c0-0.2,0-0.5,0.1-0.7c0.1-0.2,0.2-0.4,0.4-0.5c0.2-0.1,0.3-0.3,0.5-0.3
				c0.2-0.1,0.4-0.1,0.6-0.1c0.2,0,0.3,0,0.5,0.1c0.1,0,0.3,0.1,0.4,0.2c0.1,0.1,0.2,0.1,0.3,0.2c0.1,0.1,0.2,0.2,0.2,0.3
				c0.1,0.2,0.2,0.4,0.3,0.7c0,0.3,0.1,0.6,0.1,0.9c0,0.3,0,0.6-0.1,0.9s-0.2,0.6-0.3,0.8c-0.1,0.2-0.3,0.5-0.6,0.6
				c-0.2,0.2-0.5,0.2-0.9,0.2c-0.2,0-0.4,0-0.6-0.1c-0.2-0.1-0.3-0.1-0.4-0.3s-0.2-0.2-0.3-0.4c-0.1-0.1-0.1-0.3-0.2-0.5h0.1
				C220.2,138.7,220.3,138.9,220.4,139z M223,135.8c-0.1-0.2-0.2-0.3-0.3-0.5c-0.1-0.1-0.3-0.2-0.5-0.3c-0.2-0.1-0.4-0.1-0.6-0.1
				s-0.4,0-0.6,0.1c-0.2,0.1-0.3,0.2-0.5,0.3c-0.1,0.1-0.2,0.3-0.3,0.5c-0.1,0.2-0.1,0.4-0.1,0.6c0,0.2,0,0.4,0.1,0.6
				c0.1,0.2,0.2,0.3,0.3,0.5c0.1,0.1,0.3,0.2,0.5,0.3s0.4,0.1,0.6,0.1s0.4,0,0.6-0.1c0.2-0.1,0.3-0.2,0.5-0.3
				c0.1-0.1,0.2-0.3,0.3-0.5c0.1-0.2,0.1-0.4,0.1-0.6C223.1,136.2,223.1,136,223,135.8z"/>
			<path style="fill:#FFFFFF;" d="M227.2,139.6H224c0-0.2,0-0.4,0.1-0.5s0.2-0.3,0.4-0.5c0.1-0.1,0.3-0.3,0.5-0.4s0.4-0.3,0.5-0.4
				c0.2-0.1,0.4-0.3,0.5-0.4s0.3-0.3,0.5-0.4c0.1-0.1,0.2-0.3,0.3-0.5c0.1-0.2,0.1-0.3,0.1-0.5s0-0.4-0.1-0.5
				c-0.1-0.1-0.2-0.3-0.3-0.4c-0.1-0.1-0.3-0.2-0.4-0.2c-0.2,0-0.3-0.1-0.5-0.1c-0.2,0-0.5,0-0.6,0.1c-0.2,0.1-0.3,0.2-0.4,0.3
				c-0.1,0.1-0.2,0.3-0.2,0.5c-0.1,0.2-0.1,0.4-0.1,0.6H224c0-0.5,0.1-0.9,0.4-1.2s0.6-0.4,1.1-0.4c0.2,0,0.4,0,0.6,0.1
				c0.2,0.1,0.3,0.1,0.5,0.2s0.2,0.2,0.3,0.4c0.1,0.2,0.1,0.3,0.1,0.6c0,0.3-0.1,0.5-0.2,0.7s-0.3,0.4-0.5,0.6
				c-0.2,0.2-0.4,0.4-0.7,0.5c-0.2,0.2-0.5,0.3-0.7,0.5c-0.2,0.2-0.4,0.3-0.6,0.5c-0.2,0.2-0.2,0.4-0.3,0.6h3.1V139.6z"/>
			<path style="fill:#FFFFFF;" d="M229.2,137.7v0.1H228v-0.1H229.2z"/>
			<path style="fill:#FFFFFF;" d="M230.2,134.8h3v0.2c-0.3,0.3-0.6,0.7-0.9,1c-0.3,0.3-0.5,0.7-0.7,1.1c-0.2,0.4-0.3,0.8-0.4,1.2
				s-0.2,0.9-0.2,1.3H231c0-0.5,0-0.9,0.1-1.3s0.2-0.8,0.4-1.2c0.2-0.4,0.4-0.7,0.7-1.1c0.3-0.3,0.6-0.7,0.9-1h-2.9V134.8z"/>
			<path style="fill:#FFFFFF;" d="M235.8,135c-0.1,0.2-0.3,0.4-0.6,0.5c-0.2,0.1-0.5,0.3-0.7,0.3v-0.1c0.1,0,0.3-0.1,0.4-0.2
				c0.1-0.1,0.2-0.1,0.3-0.2s0.2-0.1,0.3-0.2c0.1-0.1,0.2-0.2,0.3-0.3h0.2v4.8h-0.1L235.8,135L235.8,135z"/>
			<path style="fill:#FFFFFF;" d="M238.1,135.6c0.1-0.2,0.2-0.4,0.3-0.5c0.1-0.1,0.3-0.2,0.5-0.3s0.4-0.1,0.7-0.1
				c0.2,0,0.4,0,0.6,0.1c0.2,0,0.3,0.1,0.5,0.2c0.1,0.1,0.3,0.2,0.3,0.4s0.1,0.3,0.1,0.5c0,0.3-0.1,0.6-0.3,0.8s-0.4,0.3-0.7,0.3v0
				c0.1,0,0.3,0,0.4,0.1c0.1,0.1,0.3,0.1,0.4,0.2c0.1,0.1,0.2,0.2,0.3,0.4c0.1,0.1,0.1,0.3,0.1,0.5c0,0.2,0,0.4-0.1,0.6
				c-0.1,0.2-0.2,0.3-0.3,0.4c-0.1,0.1-0.3,0.2-0.5,0.3c-0.2,0.1-0.4,0.1-0.6,0.1c-0.3,0-0.5,0-0.7-0.1c-0.2-0.1-0.4-0.2-0.6-0.3
				s-0.3-0.3-0.3-0.5s-0.1-0.5-0.1-0.7h0.1c0,0.3,0,0.5,0.1,0.7c0.1,0.2,0.2,0.4,0.3,0.5c0.1,0.1,0.3,0.2,0.5,0.3s0.4,0.1,0.7,0.1
				c0.2,0,0.4,0,0.6-0.1c0.2-0.1,0.3-0.1,0.5-0.2c0.1-0.1,0.2-0.2,0.3-0.4s0.1-0.3,0.1-0.5c0-0.2,0-0.4-0.1-0.5
				c-0.1-0.1-0.2-0.3-0.3-0.4c-0.1-0.1-0.3-0.2-0.4-0.2c-0.2,0-0.3-0.1-0.5-0.1h-0.3V137h0.3c0.2,0,0.3,0,0.5-0.1s0.3-0.1,0.4-0.2
				c0.1-0.1,0.2-0.2,0.3-0.3c0.1-0.1,0.1-0.3,0.1-0.5c0-0.2,0-0.4-0.1-0.5c-0.1-0.1-0.2-0.2-0.3-0.3c-0.1-0.1-0.3-0.1-0.4-0.2
				c-0.2,0-0.3-0.1-0.5-0.1c-0.2,0-0.4,0-0.6,0.1c-0.2,0.1-0.3,0.1-0.5,0.3c-0.1,0.1-0.2,0.3-0.3,0.4c-0.1,0.2-0.1,0.4-0.1,0.6H238
				C238,136.1,238,135.8,238.1,135.6z"/>
			<path style="fill:#FFFFFF;" d="M243.2,137.7v0.1H242v-0.1H243.2z"/>
			<path style="fill:#FFFFFF;" d="M247.5,138.1c-0.1,0.3-0.2,0.6-0.3,0.8c-0.1,0.2-0.3,0.4-0.6,0.6c-0.2,0.1-0.5,0.2-0.9,0.2
				c-0.3,0-0.6-0.1-0.9-0.2c-0.2-0.1-0.4-0.3-0.6-0.6c-0.1-0.2-0.2-0.5-0.3-0.8c-0.1-0.3-0.1-0.6-0.1-0.9s0-0.6,0.1-0.9
				s0.2-0.6,0.3-0.8c0.1-0.2,0.3-0.4,0.6-0.6c0.2-0.1,0.5-0.2,0.9-0.2c0.3,0,0.6,0.1,0.9,0.2s0.4,0.3,0.6,0.6
				c0.1,0.2,0.2,0.5,0.3,0.8s0.1,0.6,0.1,0.9S247.5,137.8,247.5,138.1z M247.3,136.4c-0.1-0.3-0.1-0.5-0.3-0.7
				c-0.1-0.2-0.3-0.4-0.5-0.5c-0.2-0.1-0.5-0.2-0.8-0.2c-0.3,0-0.6,0.1-0.8,0.2c-0.2,0.1-0.4,0.3-0.5,0.5c-0.1,0.2-0.2,0.5-0.3,0.7
				c-0.1,0.3-0.1,0.5-0.1,0.8c0,0.3,0,0.5,0.1,0.8c0.1,0.3,0.1,0.5,0.3,0.7c0.1,0.2,0.3,0.4,0.5,0.5c0.2,0.1,0.5,0.2,0.8,0.2
				c0.3,0,0.6-0.1,0.8-0.2c0.2-0.1,0.4-0.3,0.5-0.5c0.1-0.2,0.2-0.5,0.3-0.7c0.1-0.3,0.1-0.5,0.1-0.8
				C247.4,137,247.4,136.7,247.3,136.4z"/>
			<path style="fill:#FFFFFF;" d="M251,137.4c0.2,0.2,0.3,0.5,0.3,0.9c0,0.2,0,0.5-0.1,0.6c-0.1,0.2-0.2,0.3-0.4,0.4
				s-0.3,0.2-0.5,0.3s-0.4,0.1-0.7,0.1s-0.5,0-0.7-0.1s-0.4-0.1-0.5-0.3s-0.3-0.3-0.4-0.4c-0.1-0.2-0.1-0.4-0.1-0.6
				c0-0.4,0.1-0.7,0.3-0.9c0.2-0.2,0.5-0.4,0.9-0.4v0c-0.1,0-0.3-0.1-0.4-0.1s-0.2-0.1-0.3-0.2c-0.1-0.1-0.2-0.2-0.2-0.3
				c-0.1-0.1-0.1-0.2-0.1-0.4c0-0.2,0-0.4,0.1-0.5c0.1-0.2,0.2-0.3,0.3-0.4c0.1-0.1,0.3-0.2,0.5-0.2c0.2,0,0.4-0.1,0.6-0.1
				c0.2,0,0.4,0,0.6,0.1c0.2,0,0.3,0.1,0.5,0.2c0.1,0.1,0.2,0.2,0.3,0.4c0.1,0.2,0.1,0.3,0.1,0.5c0,0.1,0,0.3-0.1,0.4
				c-0.1,0.1-0.1,0.2-0.2,0.3c-0.1,0.1-0.2,0.2-0.3,0.2c-0.1,0.1-0.2,0.1-0.4,0.1v0C250.5,137,250.8,137.2,251,137.4z M251.1,137.7
				c-0.1-0.2-0.2-0.3-0.4-0.4c-0.1-0.1-0.3-0.2-0.5-0.2c-0.2,0-0.4-0.1-0.6-0.1c-0.2,0-0.4,0-0.6,0.1c-0.2,0-0.4,0.1-0.5,0.2
				c-0.1,0.1-0.3,0.2-0.4,0.4c-0.1,0.2-0.1,0.3-0.1,0.6c0,0.2,0,0.4,0.1,0.6c0.1,0.2,0.2,0.3,0.4,0.4c0.1,0.1,0.3,0.2,0.5,0.2
				c0.2,0,0.4,0.1,0.6,0.1s0.4,0,0.6-0.1c0.2,0,0.4-0.1,0.5-0.2c0.1-0.1,0.3-0.2,0.3-0.4c0.1-0.2,0.1-0.4,0.1-0.6
				C251.2,138,251.2,137.8,251.1,137.7z M250.9,135.4c-0.1-0.1-0.2-0.2-0.3-0.3c-0.1-0.1-0.3-0.1-0.4-0.2s-0.3-0.1-0.5-0.1
				c-0.2,0-0.3,0-0.5,0.1s-0.3,0.1-0.4,0.2c-0.1,0.1-0.2,0.2-0.3,0.3c-0.1,0.1-0.1,0.3-0.1,0.5c0,0.2,0,0.3,0.1,0.4
				c0.1,0.1,0.2,0.2,0.3,0.3c0.1,0.1,0.3,0.1,0.4,0.2s0.3,0.1,0.5,0.1c0.2,0,0.3,0,0.5-0.1s0.3-0.1,0.4-0.2c0.1-0.1,0.2-0.2,0.3-0.3
				c0.1-0.1,0.1-0.3,0.1-0.4C251,135.8,250.9,135.6,250.9,135.4z"/>
			<path style="fill:#FFFFFF;" d="M255.2,138.1c-0.1,0.3-0.2,0.6-0.3,0.8c-0.1,0.2-0.3,0.4-0.6,0.6c-0.2,0.1-0.5,0.2-0.9,0.2
				c-0.3,0-0.6-0.1-0.9-0.2c-0.2-0.1-0.4-0.3-0.6-0.6c-0.1-0.2-0.2-0.5-0.3-0.8c-0.1-0.3-0.1-0.6-0.1-0.9s0-0.6,0.1-0.9
				s0.2-0.6,0.3-0.8c0.1-0.2,0.3-0.4,0.6-0.6c0.2-0.1,0.5-0.2,0.9-0.2c0.3,0,0.6,0.1,0.9,0.2s0.4,0.3,0.6,0.6
				c0.1,0.2,0.2,0.5,0.3,0.8s0.1,0.6,0.1,0.9S255.3,137.8,255.2,138.1z M255.1,136.4c-0.1-0.3-0.1-0.5-0.3-0.7
				c-0.1-0.2-0.3-0.4-0.5-0.5c-0.2-0.1-0.5-0.2-0.8-0.2c-0.3,0-0.6,0.1-0.8,0.2c-0.2,0.1-0.4,0.3-0.5,0.5c-0.1,0.2-0.2,0.5-0.3,0.7
				c-0.1,0.3-0.1,0.5-0.1,0.8c0,0.3,0,0.5,0.1,0.8c0.1,0.3,0.1,0.5,0.3,0.7c0.1,0.2,0.3,0.4,0.5,0.5c0.2,0.1,0.5,0.2,0.8,0.2
				c0.3,0,0.6-0.1,0.8-0.2c0.2-0.1,0.4-0.3,0.5-0.5c0.1-0.2,0.2-0.5,0.3-0.7c0.1-0.3,0.1-0.5,0.1-0.8
				C255.2,137,255.2,136.7,255.1,136.4z"/>
			<path style="fill:#FFFFFF;" d="M256,135.6c0.1-0.2,0.2-0.4,0.3-0.5c0.1-0.1,0.3-0.2,0.5-0.3s0.4-0.1,0.7-0.1c0.2,0,0.4,0,0.6,0.1
				c0.2,0,0.3,0.1,0.5,0.2c0.1,0.1,0.3,0.2,0.3,0.4s0.1,0.3,0.1,0.5c0,0.3-0.1,0.6-0.3,0.8s-0.4,0.3-0.7,0.3v0c0.1,0,0.3,0,0.4,0.1
				c0.1,0.1,0.3,0.1,0.4,0.2c0.1,0.1,0.2,0.2,0.3,0.4c0.1,0.1,0.1,0.3,0.1,0.5c0,0.2,0,0.4-0.1,0.6c-0.1,0.2-0.2,0.3-0.3,0.4
				c-0.1,0.1-0.3,0.2-0.5,0.3c-0.2,0.1-0.4,0.1-0.6,0.1c-0.3,0-0.5,0-0.7-0.1c-0.2-0.1-0.4-0.2-0.6-0.3s-0.3-0.3-0.3-0.5
				s-0.1-0.5-0.1-0.7h0.1c0,0.3,0,0.5,0.1,0.7c0.1,0.2,0.2,0.4,0.3,0.5c0.1,0.1,0.3,0.2,0.5,0.3s0.4,0.1,0.7,0.1
				c0.2,0,0.4,0,0.6-0.1c0.2-0.1,0.3-0.1,0.5-0.2c0.1-0.1,0.2-0.2,0.3-0.4s0.1-0.3,0.1-0.5c0-0.2,0-0.4-0.1-0.5
				c-0.1-0.1-0.2-0.3-0.3-0.4c-0.1-0.1-0.3-0.2-0.4-0.2c-0.2,0-0.3-0.1-0.5-0.1h-0.3V137h0.3c0.2,0,0.3,0,0.5-0.1s0.3-0.1,0.4-0.2
				c0.1-0.1,0.2-0.2,0.3-0.3c0.1-0.1,0.1-0.3,0.1-0.5c0-0.2,0-0.4-0.1-0.5c-0.1-0.1-0.2-0.2-0.3-0.3c-0.1-0.1-0.3-0.1-0.4-0.2
				c-0.2,0-0.3-0.1-0.5-0.1c-0.2,0-0.4,0-0.6,0.1c-0.2,0.1-0.3,0.1-0.5,0.3c-0.1,0.1-0.2,0.3-0.3,0.4c-0.1,0.2-0.1,0.4-0.1,0.6h-0.1
				C255.9,136.1,255.9,135.8,256,135.6z"/>
		</g>
	</g>
	<g>
		<g>
			<path style="fill:#FFFFFF;" d="M52,172.6c0.1-0.2,0.1-0.3,0.2-0.5c0.1-0.1,0.2-0.2,0.4-0.3c0.2-0.1,0.3-0.1,0.6-0.1
				c0.2,0,0.4,0,0.5,0.1c0.2,0.1,0.3,0.2,0.4,0.3c0.1,0.1,0.2,0.3,0.2,0.5s0.1,0.4,0.1,0.6s0,0.4-0.1,0.6c-0.1,0.2-0.1,0.3-0.2,0.5
				c-0.1,0.1-0.2,0.2-0.4,0.3c-0.2,0.1-0.3,0.1-0.6,0.1c-0.2,0-0.4,0-0.5-0.1c-0.2-0.1-0.3-0.2-0.4-0.3c-0.1-0.1-0.2-0.3-0.2-0.5
				c-0.1-0.2-0.1-0.4-0.1-0.6S52,172.8,52,172.6z M52.1,173.7c0,0.2,0.1,0.3,0.2,0.4s0.2,0.2,0.4,0.3s0.3,0.1,0.5,0.1
				c0.2,0,0.4,0,0.5-0.1s0.3-0.2,0.4-0.3s0.2-0.3,0.2-0.4s0.1-0.3,0.1-0.5c0-0.2,0-0.3-0.1-0.5s-0.1-0.3-0.2-0.4
				c-0.1-0.1-0.2-0.2-0.4-0.3s-0.3-0.1-0.5-0.1c-0.2,0-0.4,0-0.5,0.1s-0.3,0.2-0.4,0.3c-0.1,0.1-0.2,0.3-0.2,0.4
				c0,0.2-0.1,0.3-0.1,0.5C52.1,173.4,52.1,173.5,52.1,173.7z"/>
			<path style="fill:#FFFFFF;" d="M55.1,170.7v1.8h0c0-0.1,0.1-0.2,0.1-0.3c0.1-0.1,0.1-0.2,0.2-0.2s0.2-0.1,0.3-0.2
				s0.2-0.1,0.4-0.1c0.1,0,0.3,0,0.4,0.1c0.1,0,0.2,0.1,0.3,0.2c0.1,0.1,0.2,0.2,0.2,0.3c0,0.1,0.1,0.3,0.1,0.4v1.9H57v-1.9
				c0-0.2,0-0.3-0.1-0.4c0-0.1-0.1-0.2-0.2-0.3c-0.1-0.1-0.2-0.1-0.3-0.2c-0.1,0-0.2-0.1-0.3-0.1c-0.2,0-0.3,0-0.4,0.1
				c-0.1,0.1-0.2,0.2-0.3,0.3s-0.2,0.2-0.2,0.4c0,0.1-0.1,0.3-0.1,0.5v1.6H55v-3.9H55.1z"/>
			<path style="fill:#FFFFFF;" d="M57.7,172.6c0.1-0.2,0.1-0.3,0.2-0.5s0.2-0.2,0.4-0.3c0.2-0.1,0.3-0.1,0.5-0.1
				c0.2,0,0.4,0,0.5,0.1c0.2,0.1,0.3,0.2,0.4,0.3s0.2,0.3,0.2,0.5s0.1,0.4,0.1,0.6s0,0.4-0.1,0.6c-0.1,0.2-0.1,0.3-0.2,0.5
				s-0.2,0.2-0.4,0.3c-0.2,0.1-0.3,0.1-0.5,0.1c-0.2,0-0.4,0-0.5-0.1c-0.2-0.1-0.3-0.2-0.4-0.3s-0.2-0.3-0.2-0.5
				c-0.1-0.2-0.1-0.4-0.1-0.6S57.6,172.8,57.7,172.6z M57.8,173.7c0,0.2,0.1,0.3,0.2,0.4c0.1,0.1,0.2,0.2,0.4,0.3s0.3,0.1,0.5,0.1
				c0.2,0,0.4,0,0.5-0.1s0.3-0.2,0.4-0.3c0.1-0.1,0.2-0.3,0.2-0.4c0-0.2,0.1-0.3,0.1-0.5c0-0.2,0-0.3-0.1-0.5c0-0.2-0.1-0.3-0.2-0.4
				c-0.1-0.1-0.2-0.2-0.4-0.3s-0.3-0.1-0.5-0.1c-0.2,0-0.4,0-0.5,0.1s-0.3,0.2-0.4,0.3c-0.1,0.1-0.2,0.3-0.2,0.4
				c0,0.2-0.1,0.3-0.1,0.5C57.7,173.4,57.7,173.5,57.8,173.7z"/>
			<path style="fill:#FFFFFF;" d="M60.7,174.6h-0.1v-3.9h0.1v2.7l2-1.6h0.2l-1.3,1.1l1.4,1.7h-0.1l-1.3-1.7l-0.7,0.6V174.6z"/>
			<path style="fill:#FFFFFF;" d="M65,174.6v-0.7h0c-0.1,0.2-0.2,0.4-0.3,0.5c-0.2,0.1-0.4,0.2-0.7,0.2c-0.1,0-0.3,0-0.4-0.1
				c-0.1,0-0.2-0.1-0.3-0.2c-0.1-0.1-0.2-0.2-0.2-0.3c0-0.1-0.1-0.3-0.1-0.4v-1.9h0.1v1.9c0,0.2,0,0.3,0.1,0.4
				c0,0.1,0.1,0.2,0.2,0.3c0.1,0.1,0.2,0.1,0.3,0.2c0.1,0,0.2,0.1,0.3,0.1c0.2,0,0.3,0,0.4-0.1c0.1-0.1,0.2-0.2,0.3-0.3
				s0.2-0.2,0.2-0.4c0-0.1,0.1-0.3,0.1-0.5v-1.6h0.1v2.8H65z"/>
			<path style="fill:#FFFFFF;" d="M68.9,170.7c0.2,0,0.3,0,0.4,0.1s0.3,0.1,0.4,0.2c0.1,0.1,0.2,0.2,0.2,0.3
				c0.1,0.1,0.1,0.3,0.1,0.4c0,0.1,0,0.2-0.1,0.3s-0.1,0.2-0.2,0.3c-0.1,0.1-0.2,0.1-0.3,0.2c-0.1,0-0.2,0.1-0.3,0.1v0
				c0.1,0,0.3,0,0.4,0.1s0.2,0.1,0.3,0.2c0.1,0.1,0.2,0.2,0.2,0.3c0.1,0.1,0.1,0.3,0.1,0.4c0,0.2,0,0.3-0.1,0.5s-0.2,0.2-0.3,0.3
				c-0.1,0.1-0.2,0.2-0.4,0.2c-0.2,0-0.3,0.1-0.5,0.1h-1.6v-3.9H68.9z M68.9,172.5c0.1,0,0.3,0,0.4-0.1c0.1,0,0.2-0.1,0.3-0.2
				s0.2-0.2,0.2-0.3c0.1-0.1,0.1-0.2,0.1-0.4c0-0.1,0-0.3-0.1-0.4c-0.1-0.1-0.1-0.2-0.2-0.3c-0.1-0.1-0.2-0.1-0.3-0.2
				c-0.1,0-0.3-0.1-0.4-0.1h-1.6v1.7H68.9z M68.9,174.5c0.2,0,0.3,0,0.4-0.1c0.1,0,0.3-0.1,0.4-0.2c0.1-0.1,0.2-0.2,0.2-0.3
				s0.1-0.3,0.1-0.4c0-0.2,0-0.3-0.1-0.4c-0.1-0.1-0.1-0.2-0.3-0.3c-0.1-0.1-0.2-0.1-0.4-0.2s-0.3,0-0.4,0h-1.6v1.9H68.9z"/>
			<path style="fill:#FFFFFF;" d="M70.8,170.7v3.9h-0.1v-3.9H70.8z"/>
			<path style="fill:#FFFFFF;" d="M73.7,170.7v3.9h-0.1v-0.8h0c-0.1,0.3-0.2,0.5-0.4,0.6c-0.2,0.2-0.4,0.2-0.7,0.2
				c-0.2,0-0.4,0-0.5-0.1c-0.1-0.1-0.3-0.2-0.4-0.3s-0.2-0.3-0.2-0.5s-0.1-0.4-0.1-0.6c0-0.2,0-0.4,0.1-0.6c0.1-0.2,0.1-0.3,0.2-0.5
				s0.2-0.2,0.4-0.3c0.2-0.1,0.3-0.1,0.5-0.1c0.3,0,0.5,0.1,0.7,0.2s0.3,0.4,0.4,0.6h0v-1.9H73.7z M73.3,172.2
				c-0.2-0.2-0.5-0.4-0.8-0.4c-0.2,0-0.4,0-0.5,0.1c-0.1,0.1-0.3,0.2-0.3,0.3s-0.2,0.3-0.2,0.4c0,0.2-0.1,0.3-0.1,0.5
				c0,0.2,0,0.4,0.1,0.5s0.1,0.3,0.2,0.4c0.1,0.1,0.2,0.2,0.3,0.3c0.1,0.1,0.3,0.1,0.5,0.1s0.3,0,0.5-0.1c0.1-0.1,0.3-0.2,0.4-0.3
				c0.1-0.1,0.2-0.3,0.2-0.4c0.1-0.2,0.1-0.3,0.1-0.5C73.6,172.7,73.5,172.4,73.3,172.2z"/>
			<path style="fill:#FFFFFF;" d="M76.5,173.7c0,0.1-0.1,0.2-0.2,0.3s-0.2,0.2-0.3,0.2c-0.1,0.1-0.2,0.1-0.3,0.2s-0.2,0.1-0.4,0.1
				c-0.2,0-0.4,0-0.5-0.1c-0.1-0.1-0.3-0.2-0.4-0.3c-0.1-0.1-0.2-0.3-0.2-0.4c0-0.2-0.1-0.3-0.1-0.5c0-0.2,0-0.4,0.1-0.5
				c0.1-0.2,0.1-0.3,0.2-0.4c0.1-0.1,0.2-0.2,0.4-0.3c0.2-0.1,0.3-0.1,0.5-0.1c0.1,0,0.3,0,0.4,0.1c0.1,0,0.2,0.1,0.3,0.2
				s0.2,0.2,0.2,0.3c0.1,0.1,0.1,0.2,0.1,0.3h0v-0.8h0.1v2.7c0,0.4-0.1,0.7-0.3,0.9s-0.5,0.3-0.9,0.3c-0.1,0-0.3,0-0.4-0.1
				c-0.1,0-0.2-0.1-0.3-0.2c-0.1-0.1-0.2-0.2-0.2-0.3c-0.1-0.1-0.1-0.2-0.1-0.4h0.1c0,0.1,0,0.3,0.1,0.4c0.1,0.1,0.1,0.2,0.2,0.2
				c0.1,0.1,0.2,0.1,0.3,0.1c0.1,0,0.2,0,0.4,0c0.3,0,0.6-0.1,0.8-0.2c0.2-0.2,0.3-0.4,0.3-0.8L76.5,173.7L76.5,173.7z M76.4,172.6
				c0-0.2-0.1-0.3-0.2-0.4s-0.2-0.2-0.3-0.3s-0.3-0.1-0.5-0.1c-0.2,0-0.3,0-0.5,0.1c-0.1,0.1-0.3,0.2-0.3,0.3
				c-0.1,0.1-0.2,0.3-0.2,0.4s-0.1,0.3-0.1,0.5c0,0.2,0,0.3,0.1,0.5s0.1,0.3,0.2,0.4c0.1,0.1,0.2,0.2,0.3,0.3
				c0.1,0.1,0.3,0.1,0.5,0.1c0.2,0,0.3,0,0.5-0.1c0.1-0.1,0.3-0.2,0.3-0.3c0.1-0.1,0.2-0.2,0.2-0.4c0-0.2,0.1-0.3,0.1-0.5
				C76.5,172.9,76.4,172.8,76.4,172.6z"/>
			<path style="fill:#FFFFFF;" d="M77.6,174.6v-0.5h0.1v0.5H77.6z"/>
			<path style="fill:#FFFFFF;" d="M80,171c-0.1,0.2-0.3,0.3-0.4,0.4c-0.2,0.1-0.4,0.2-0.6,0.2v-0.1c0.1,0,0.2-0.1,0.3-0.1
				c0.1,0,0.2-0.1,0.2-0.1s0.2-0.1,0.2-0.2c0.1-0.1,0.1-0.1,0.2-0.2h0.1v3.7H80L80,171L80,171z"/>
			<path style="fill:#FFFFFF;" d="M84,172.5v0.1h-2.1v2h-0.1v-3.9h2.4v0.1h-2.3v1.7H84z"/>
			<path style="fill:#FFFFFF;" d="M86.5,174.6c0,0.2,0,0.3-0.1,0.4c0,0.1-0.1,0.2-0.2,0.2v-0.1c0,0,0.1-0.1,0.1-0.2
				c0-0.1,0-0.2,0-0.3v-0.5h0.1V174.6z"/>
			<path style="fill:#FFFFFF;" d="M89,171.8c0.1-0.2,0.2-0.5,0.3-0.7c0.2-0.2,0.3-0.3,0.6-0.4c0.2-0.1,0.5-0.2,0.8-0.2
				s0.6,0.1,0.8,0.2c0.2,0.1,0.4,0.3,0.6,0.4c0.2,0.2,0.3,0.4,0.3,0.7c0.1,0.2,0.1,0.5,0.1,0.8c0,0.3,0,0.5-0.1,0.8
				c-0.1,0.2-0.2,0.5-0.3,0.7c-0.2,0.2-0.3,0.3-0.6,0.4c-0.2,0.1-0.5,0.2-0.8,0.2s-0.6-0.1-0.8-0.2c-0.2-0.1-0.4-0.3-0.6-0.4
				c-0.2-0.2-0.3-0.4-0.3-0.7c-0.1-0.2-0.1-0.5-0.1-0.8C88.9,172.4,88.9,172.1,89,171.8z M89.1,173.4c0.1,0.2,0.2,0.4,0.3,0.6
				c0.1,0.2,0.3,0.3,0.5,0.4c0.2,0.1,0.4,0.1,0.7,0.1s0.5,0,0.7-0.1c0.2-0.1,0.4-0.2,0.5-0.4c0.1-0.2,0.3-0.4,0.3-0.6
				c0.1-0.2,0.1-0.5,0.1-0.8c0-0.3,0-0.5-0.1-0.8c-0.1-0.2-0.2-0.4-0.3-0.6c-0.1-0.2-0.3-0.3-0.5-0.4c-0.2-0.1-0.4-0.1-0.7-0.1
				s-0.5,0-0.7,0.1c-0.2,0.1-0.4,0.2-0.5,0.4c-0.1,0.2-0.3,0.4-0.3,0.6c-0.1,0.2-0.1,0.5-0.1,0.8C89,172.9,89,173.2,89.1,173.4z"/>
			<path style="fill:#FFFFFF;" d="M93.3,174c0,0.1,0,0.2,0,0.2c0,0.1,0.1,0.1,0.1,0.1s0.1,0,0.1,0.1c0,0,0.1,0,0.1,0
				c0.1,0,0.1,0,0.1,0s0.1,0,0.1,0v0.1c0,0-0.1,0-0.1,0c0,0-0.1,0-0.2,0c-0.1,0-0.2,0-0.3-0.1c-0.1-0.1-0.1-0.2-0.1-0.4v-2.2h-0.5
				v-0.1h0.5v-0.9h0.1v0.9h0.6v0.1h-0.6V174z"/>
			<path style="fill:#FFFFFF;" d="M94.3,173.7c0,0.2,0.1,0.3,0.2,0.4s0.2,0.2,0.3,0.3c0.1,0.1,0.3,0.1,0.5,0.1
				c0.3,0,0.5-0.1,0.7-0.2c0.2-0.2,0.3-0.4,0.4-0.7h0.1c0,0.3-0.2,0.6-0.4,0.8c-0.2,0.2-0.5,0.3-0.8,0.3c-0.2,0-0.4,0-0.6-0.1
				c-0.2-0.1-0.3-0.2-0.4-0.3c-0.1-0.1-0.2-0.3-0.2-0.5c0-0.2-0.1-0.4-0.1-0.6c0-0.2,0-0.4,0.1-0.6c0.1-0.2,0.2-0.3,0.3-0.5
				c0.1-0.1,0.2-0.2,0.4-0.3c0.2-0.1,0.3-0.1,0.5-0.1c0.2,0,0.4,0,0.6,0.1c0.2,0.1,0.3,0.2,0.4,0.3c0.1,0.1,0.2,0.3,0.2,0.5
				c0,0.2,0.1,0.4,0.1,0.6h-2.4C94.2,173.4,94.3,173.6,94.3,173.7z M96.4,172.6c0-0.2-0.1-0.3-0.2-0.4c-0.1-0.1-0.2-0.2-0.3-0.3
				c-0.1-0.1-0.3-0.1-0.5-0.1c-0.2,0-0.3,0-0.4,0.1s-0.3,0.1-0.4,0.3c-0.1,0.1-0.2,0.2-0.2,0.4c-0.1,0.2-0.1,0.3-0.1,0.5h2.3
				C96.5,172.9,96.5,172.8,96.4,172.6z"/>
			<path style="fill:#FFFFFF;" d="M97.1,171.8v0.7h0c0-0.1,0.1-0.2,0.1-0.3c0.1-0.1,0.1-0.2,0.2-0.2c0.1-0.1,0.2-0.1,0.3-0.2
				c0.1,0,0.2-0.1,0.3-0.1c0.2,0,0.4,0,0.6,0.2s0.2,0.3,0.3,0.5h0c0.1-0.2,0.2-0.4,0.3-0.5s0.4-0.2,0.6-0.2c0.2,0,0.3,0,0.4,0.1
				c0.1,0.1,0.2,0.1,0.3,0.2c0.1,0.1,0.1,0.2,0.1,0.3c0,0.1,0,0.3,0,0.4v1.9h-0.1v-1.9c0-0.1,0-0.3,0-0.4c0-0.1-0.1-0.2-0.1-0.3
				c-0.1-0.1-0.1-0.1-0.2-0.2c-0.1,0-0.2-0.1-0.4-0.1c-0.1,0-0.3,0-0.4,0.1c-0.1,0.1-0.2,0.1-0.3,0.2c-0.1,0.1-0.1,0.2-0.2,0.3
				s-0.1,0.2-0.1,0.4v1.8h-0.1v-1.8c0-0.1,0-0.3,0-0.4c0-0.1-0.1-0.2-0.1-0.3s-0.1-0.2-0.2-0.2c-0.1-0.1-0.2-0.1-0.4-0.1
				c-0.1,0-0.3,0-0.4,0.1c-0.1,0.1-0.2,0.2-0.3,0.3s-0.1,0.2-0.2,0.4c0,0.1-0.1,0.3-0.1,0.5v1.6H97v-2.8H97.1z"/>
			<path style="fill:#FFFFFF;" d="M101.3,172.6c0.1-0.2,0.1-0.3,0.2-0.5s0.2-0.2,0.4-0.3c0.2-0.1,0.3-0.1,0.5-0.1
				c0.2,0,0.4,0,0.5,0.1c0.2,0.1,0.3,0.2,0.4,0.3s0.2,0.3,0.2,0.5s0.1,0.4,0.1,0.6s0,0.4-0.1,0.6c-0.1,0.2-0.1,0.3-0.2,0.5
				s-0.2,0.2-0.4,0.3c-0.2,0.1-0.3,0.1-0.5,0.1c-0.2,0-0.4,0-0.5-0.1c-0.2-0.1-0.3-0.2-0.4-0.3s-0.2-0.3-0.2-0.5
				c-0.1-0.2-0.1-0.4-0.1-0.6S101.2,172.8,101.3,172.6z M101.4,173.7c0,0.2,0.1,0.3,0.2,0.4c0.1,0.1,0.2,0.2,0.4,0.3
				s0.3,0.1,0.5,0.1c0.2,0,0.4,0,0.5-0.1s0.3-0.2,0.4-0.3c0.1-0.1,0.2-0.3,0.2-0.4c0-0.2,0.1-0.3,0.1-0.5c0-0.2,0-0.3-0.1-0.5
				c0-0.2-0.1-0.3-0.2-0.4c-0.1-0.1-0.2-0.2-0.4-0.3s-0.3-0.1-0.5-0.1c-0.2,0-0.4,0-0.5,0.1s-0.3,0.2-0.4,0.3
				c-0.1,0.1-0.2,0.3-0.2,0.4c0,0.2-0.1,0.3-0.1,0.5C101.3,173.4,101.3,173.5,101.4,173.7z"/>
			<path style="fill:#FFFFFF;" d="M104.3,171.8v0.7h0c0-0.1,0.1-0.2,0.1-0.3c0.1-0.1,0.1-0.2,0.2-0.2s0.2-0.1,0.3-0.2
				s0.2-0.1,0.4-0.1c0.1,0,0.3,0,0.4,0.1c0.1,0,0.2,0.1,0.3,0.2c0.1,0.1,0.2,0.2,0.2,0.3c0,0.1,0.1,0.3,0.1,0.4v1.9h-0.1v-1.9
				c0-0.2,0-0.3-0.1-0.4c0-0.1-0.1-0.2-0.2-0.3c-0.1-0.1-0.2-0.1-0.3-0.2c-0.1,0-0.2-0.1-0.3-0.1c-0.2,0-0.3,0-0.4,0.1
				c-0.1,0.1-0.2,0.2-0.3,0.3s-0.2,0.2-0.2,0.4c0,0.1-0.1,0.3-0.1,0.5v1.6h-0.1v-2.8H104.3z"/>
			<path style="fill:#FFFFFF;" d="M107,171.5c0.1-0.2,0.1-0.3,0.3-0.4c0.1-0.1,0.2-0.2,0.4-0.2c0.2-0.1,0.3-0.1,0.5-0.1
				c0.2,0,0.3,0,0.4,0c0.1,0,0.3,0.1,0.4,0.2c0.1,0.1,0.2,0.2,0.3,0.3c0.1,0.1,0.1,0.3,0.1,0.4c0,0.3-0.1,0.5-0.2,0.6
				s-0.3,0.2-0.6,0.3v0c0.1,0,0.2,0,0.3,0.1s0.2,0.1,0.3,0.2c0.1,0.1,0.1,0.2,0.2,0.3c0,0.1,0.1,0.3,0.1,0.4c0,0.2,0,0.3-0.1,0.5
				c-0.1,0.1-0.2,0.2-0.3,0.3s-0.2,0.2-0.4,0.2s-0.3,0.1-0.5,0.1c-0.2,0-0.4,0-0.6-0.1c-0.2-0.1-0.3-0.1-0.4-0.3
				c-0.1-0.1-0.2-0.2-0.3-0.4s-0.1-0.4-0.1-0.6h0.1c0,0.2,0,0.4,0.1,0.5s0.1,0.3,0.2,0.4c0.1,0.1,0.2,0.2,0.4,0.2
				c0.2,0.1,0.3,0.1,0.5,0.1c0.2,0,0.3,0,0.4-0.1c0.1,0,0.3-0.1,0.4-0.2c0.1-0.1,0.2-0.2,0.3-0.3c0.1-0.1,0.1-0.3,0.1-0.4
				c0-0.2,0-0.3-0.1-0.4c-0.1-0.1-0.1-0.2-0.2-0.3c-0.1-0.1-0.2-0.1-0.3-0.2c-0.1,0-0.3-0.1-0.4-0.1H108v-0.1h0.3c0.1,0,0.2,0,0.4,0
				c0.1,0,0.2-0.1,0.3-0.1c0.1-0.1,0.2-0.1,0.2-0.3c0.1-0.1,0.1-0.2,0.1-0.4c0-0.1,0-0.3-0.1-0.4c-0.1-0.1-0.1-0.2-0.2-0.2
				c-0.1-0.1-0.2-0.1-0.3-0.1s-0.3,0-0.4,0c-0.2,0-0.3,0-0.5,0.1c-0.1,0-0.3,0.1-0.4,0.2s-0.2,0.2-0.2,0.3c-0.1,0.1-0.1,0.3-0.1,0.5
				h-0.1C106.9,171.8,107,171.6,107,171.5z"/>
			<path style="fill:#FFFFFF;" d="M111.1,173.1v0.1h-1v-0.1H111.1z"/>
			<path style="fill:#FFFFFF;" d="M111.9,171.5c0.1-0.2,0.1-0.3,0.3-0.4c0.1-0.1,0.2-0.2,0.4-0.2c0.2-0.1,0.3-0.1,0.5-0.1
				c0.2,0,0.3,0,0.4,0c0.1,0,0.3,0.1,0.4,0.2c0.1,0.1,0.2,0.2,0.3,0.3c0.1,0.1,0.1,0.3,0.1,0.4c0,0.3-0.1,0.5-0.2,0.6
				s-0.3,0.2-0.6,0.3v0c0.1,0,0.2,0,0.3,0.1s0.2,0.1,0.3,0.2c0.1,0.1,0.1,0.2,0.2,0.3c0,0.1,0.1,0.3,0.1,0.4c0,0.2,0,0.3-0.1,0.5
				c-0.1,0.1-0.2,0.2-0.3,0.3s-0.2,0.2-0.4,0.2s-0.3,0.1-0.5,0.1c-0.2,0-0.4,0-0.6-0.1c-0.2-0.1-0.3-0.1-0.4-0.3
				c-0.1-0.1-0.2-0.2-0.3-0.4s-0.1-0.4-0.1-0.6h0.1c0,0.2,0,0.4,0.1,0.5s0.1,0.3,0.2,0.4c0.1,0.1,0.2,0.2,0.4,0.2
				c0.2,0.1,0.3,0.1,0.5,0.1c0.2,0,0.3,0,0.4-0.1c0.1,0,0.3-0.1,0.4-0.2c0.1-0.1,0.2-0.2,0.3-0.3c0.1-0.1,0.1-0.3,0.1-0.4
				c0-0.2,0-0.3-0.1-0.4c-0.1-0.1-0.1-0.2-0.2-0.3c-0.1-0.1-0.2-0.1-0.3-0.2c-0.1,0-0.3-0.1-0.4-0.1h-0.3v-0.1h0.3
				c0.1,0,0.2,0,0.4,0c0.1,0,0.2-0.1,0.3-0.1c0.1-0.1,0.2-0.1,0.2-0.3c0.1-0.1,0.1-0.2,0.1-0.4c0-0.1,0-0.3-0.1-0.4
				c-0.1-0.1-0.1-0.2-0.2-0.2c-0.1-0.1-0.2-0.1-0.3-0.1s-0.3,0-0.4,0c-0.2,0-0.3,0-0.5,0.1c-0.1,0-0.3,0.1-0.4,0.2s-0.2,0.2-0.2,0.3
				c-0.1,0.1-0.1,0.3-0.1,0.5h-0.1C111.8,171.8,111.9,171.6,111.9,171.5z"/>
			<path style="fill:#FFFFFF;" d="M116,173.1v0.1h-1v-0.1H116z"/>
			<path style="fill:#FFFFFF;" d="M119,172.9c0.2,0.2,0.3,0.4,0.3,0.7c0,0.2,0,0.4-0.1,0.5c-0.1,0.1-0.2,0.3-0.3,0.3
				s-0.3,0.2-0.4,0.2c-0.2,0-0.3,0.1-0.5,0.1c-0.2,0-0.4,0-0.5-0.1c-0.2,0-0.3-0.1-0.4-0.2c-0.1-0.1-0.2-0.2-0.3-0.3
				c-0.1-0.1-0.1-0.3-0.1-0.5c0-0.3,0.1-0.5,0.3-0.7c0.2-0.2,0.4-0.3,0.7-0.3v0c-0.1,0-0.2,0-0.3-0.1c-0.1,0-0.2-0.1-0.2-0.2
				c-0.1-0.1-0.1-0.1-0.2-0.2s-0.1-0.2-0.1-0.3c0-0.2,0-0.3,0.1-0.4c0.1-0.1,0.1-0.2,0.2-0.3s0.2-0.1,0.4-0.2c0.1,0,0.3-0.1,0.5-0.1
				c0.2,0,0.3,0,0.5,0.1c0.1,0,0.3,0.1,0.4,0.2s0.2,0.2,0.2,0.3c0.1,0.1,0.1,0.3,0.1,0.4c0,0.1,0,0.2-0.1,0.3c0,0.1-0.1,0.2-0.2,0.2
				c-0.1,0.1-0.2,0.1-0.2,0.2s-0.2,0.1-0.3,0.1v0C118.6,172.6,118.9,172.7,119,172.9z M119.1,173.1c-0.1-0.1-0.2-0.2-0.3-0.3
				c-0.1-0.1-0.2-0.1-0.4-0.2s-0.3,0-0.5,0c-0.2,0-0.3,0-0.5,0s-0.3,0.1-0.4,0.2c-0.1,0.1-0.2,0.2-0.3,0.3c-0.1,0.1-0.1,0.3-0.1,0.5
				s0,0.3,0.1,0.5c0.1,0.1,0.2,0.2,0.3,0.3c0.1,0.1,0.2,0.1,0.4,0.2c0.2,0,0.3,0.1,0.5,0.1s0.3,0,0.5-0.1c0.2,0,0.3-0.1,0.4-0.2
				c0.1-0.1,0.2-0.2,0.3-0.3c0.1-0.1,0.1-0.3,0.1-0.5S119.1,173.2,119.1,173.1z M118.9,171.3c-0.1-0.1-0.1-0.2-0.2-0.3
				c-0.1-0.1-0.2-0.1-0.3-0.1c-0.1,0-0.3,0-0.4,0c-0.1,0-0.3,0-0.4,0s-0.2,0.1-0.3,0.1c-0.1,0.1-0.2,0.1-0.2,0.3
				c-0.1,0.1-0.1,0.2-0.1,0.4c0,0.1,0,0.2,0.1,0.3c0.1,0.1,0.1,0.2,0.2,0.2c0.1,0.1,0.2,0.1,0.3,0.1c0.1,0,0.3,0,0.4,0
				c0.1,0,0.2,0,0.4,0c0.1,0,0.2-0.1,0.3-0.1c0.1-0.1,0.2-0.1,0.2-0.2c0.1-0.1,0.1-0.2,0.1-0.3C119,171.6,119,171.4,118.9,171.3z"/>
			<path style="fill:#FFFFFF;" d="M121.8,174.6c0,0.2,0,0.3-0.1,0.4c0,0.1-0.1,0.2-0.2,0.2v-0.1c0,0,0.1-0.1,0.1-0.2
				c0-0.1,0-0.2,0-0.3v-0.5h0.1V174.6z"/>
			<path style="fill:#FFFFFF;" d="M124,170.7h2.9v0.1h-1.4v3.8h-0.1v-3.8H124V170.7z"/>
			<path style="fill:#FFFFFF;" d="M128.6,171.8l-1.3,3.4c0,0.1-0.1,0.2-0.1,0.2c-0.1,0.1-0.1,0.1-0.2,0.1s-0.1,0-0.2,0
				c-0.1,0-0.2,0-0.2,0v-0.1c0.1,0,0.2,0,0.2,0c0.1,0,0.1,0,0.2,0c0,0,0.1-0.1,0.1-0.1c0,0,0.1-0.1,0.1-0.2l0.2-0.5l-1.2-2.8h0.1
				l1.1,2.7l1-2.7H128.6z"/>
			<path style="fill:#FFFFFF;" d="M130.9,174.6v-0.7h0c-0.1,0.2-0.2,0.4-0.3,0.5c-0.2,0.1-0.4,0.2-0.7,0.2c-0.1,0-0.3,0-0.4-0.1
				c-0.1,0-0.2-0.1-0.3-0.2c-0.1-0.1-0.2-0.2-0.2-0.3c0-0.1-0.1-0.3-0.1-0.4v-1.9h0.1v1.9c0,0.2,0,0.3,0.1,0.4
				c0,0.1,0.1,0.2,0.2,0.3c0.1,0.1,0.2,0.1,0.3,0.2c0.1,0,0.2,0.1,0.3,0.1c0.2,0,0.3,0,0.4-0.1c0.1-0.1,0.2-0.2,0.3-0.3
				s0.2-0.2,0.2-0.4c0-0.1,0.1-0.3,0.1-0.5v-1.6h0.1v2.8H130.9z"/>
			<path style="fill:#FFFFFF;" d="M131.5,172.6c0.1-0.2,0.1-0.3,0.2-0.5s0.2-0.2,0.4-0.3c0.2-0.1,0.3-0.1,0.5-0.1
				c0.2,0,0.4,0,0.5,0.1c0.2,0.1,0.3,0.2,0.4,0.3s0.2,0.3,0.2,0.5s0.1,0.4,0.1,0.6s0,0.4-0.1,0.6c-0.1,0.2-0.1,0.3-0.2,0.5
				s-0.2,0.2-0.4,0.3c-0.2,0.1-0.3,0.1-0.5,0.1c-0.2,0-0.4,0-0.5-0.1c-0.2-0.1-0.3-0.2-0.4-0.3s-0.2-0.3-0.2-0.5
				c-0.1-0.2-0.1-0.4-0.1-0.6S131.5,172.8,131.5,172.6z M131.6,173.7c0,0.2,0.1,0.3,0.2,0.4c0.1,0.1,0.2,0.2,0.4,0.3
				s0.3,0.1,0.5,0.1c0.2,0,0.4,0,0.5-0.1s0.3-0.2,0.4-0.3c0.1-0.1,0.2-0.3,0.2-0.4c0-0.2,0.1-0.3,0.1-0.5c0-0.2,0-0.3-0.1-0.5
				c0-0.2-0.1-0.3-0.2-0.4c-0.1-0.1-0.2-0.2-0.4-0.3s-0.3-0.1-0.5-0.1c-0.2,0-0.4,0-0.5,0.1s-0.3,0.2-0.4,0.3
				c-0.1,0.1-0.2,0.3-0.2,0.4c0,0.2-0.1,0.3-0.1,0.5C131.5,173.4,131.6,173.5,131.6,173.7z"/>
			<path style="fill:#FFFFFF;" d="M135.5,173.1v0.1h-1v-0.1H135.5z"/>
			<path style="fill:#FFFFFF;" d="M136.4,174.6h-0.1v-3.9h0.1v2.7l2-1.6h0.2l-1.3,1.1l1.4,1.7h-0.1l-1.3-1.7l-0.7,0.6V174.6z"/>
			<path style="fill:#FFFFFF;" d="M140.7,174.6v-0.7h0c-0.1,0.2-0.2,0.4-0.3,0.5c-0.2,0.1-0.4,0.2-0.7,0.2c-0.1,0-0.3,0-0.4-0.1
				c-0.1,0-0.2-0.1-0.3-0.2c-0.1-0.1-0.2-0.2-0.2-0.3c0-0.1-0.1-0.3-0.1-0.4v-1.9h0.1v1.9c0,0.2,0,0.3,0.1,0.4
				c0,0.1,0.1,0.2,0.2,0.3c0.1,0.1,0.2,0.1,0.3,0.2c0.1,0,0.2,0.1,0.3,0.1c0.2,0,0.3,0,0.4-0.1c0.1-0.1,0.2-0.2,0.3-0.3
				s0.2-0.2,0.2-0.4c0-0.1,0.1-0.3,0.1-0.5v-1.6h0.1v2.8H140.7z"/>
			<path style="fill:#FFFFFF;" d="M142,174.6c0,0.2,0,0.3-0.1,0.4c0,0.1-0.1,0.2-0.2,0.2v-0.1c0,0,0.1-0.1,0.1-0.2
				c0-0.1,0-0.2,0-0.3v-0.5h0.1V174.6z"/>
			<path style="fill:#FFFFFF;" d="M146.7,172.5v0.1h-2.1v2h-0.1v-3.9h2.4v0.1h-2.3v1.7H146.7z"/>
			<path style="fill:#FFFFFF;" d="M149.2,174.6v-0.7h0c-0.1,0.2-0.2,0.4-0.3,0.5c-0.2,0.1-0.4,0.2-0.7,0.2c-0.1,0-0.3,0-0.4-0.1
				c-0.1,0-0.2-0.1-0.3-0.2c-0.1-0.1-0.2-0.2-0.2-0.3c0-0.1-0.1-0.3-0.1-0.4v-1.9h0.1v1.9c0,0.2,0,0.3,0.1,0.4
				c0,0.1,0.1,0.2,0.2,0.3c0.1,0.1,0.2,0.1,0.3,0.2c0.1,0,0.2,0.1,0.3,0.1c0.2,0,0.3,0,0.4-0.1c0.1-0.1,0.2-0.2,0.3-0.3
				s0.2-0.2,0.2-0.4c0-0.1,0.1-0.3,0.1-0.5v-1.6h0.1v2.8H149.2z"/>
			<path style="fill:#FFFFFF;" d="M150,174.6h-0.1v-3.9h0.1v2.7l2-1.6h0.2l-1.3,1.1l1.4,1.7h-0.1l-1.3-1.7l-0.7,0.6V174.6z"/>
			<path style="fill:#FFFFFF;" d="M154.4,174.6v-0.7h0c-0.1,0.2-0.2,0.4-0.3,0.5c-0.2,0.1-0.4,0.2-0.7,0.2c-0.1,0-0.3,0-0.4-0.1
				c-0.1,0-0.2-0.1-0.3-0.2c-0.1-0.1-0.2-0.2-0.2-0.3c0-0.1-0.1-0.3-0.1-0.4v-1.9h0.1v1.9c0,0.2,0,0.3,0.1,0.4
				c0,0.1,0.1,0.2,0.2,0.3c0.1,0.1,0.2,0.1,0.3,0.2c0.1,0,0.2,0.1,0.3,0.1c0.2,0,0.3,0,0.4-0.1c0.1-0.1,0.2-0.2,0.3-0.3
				s0.2-0.2,0.2-0.4c0-0.1,0.1-0.3,0.1-0.5v-1.6h0.1v2.8H154.4z"/>
			<path style="fill:#FFFFFF;" d="M155,172.6c0.1-0.2,0.1-0.3,0.2-0.5s0.2-0.2,0.4-0.3c0.2-0.1,0.3-0.1,0.5-0.1c0.2,0,0.4,0,0.5,0.1
				c0.2,0.1,0.3,0.2,0.4,0.3s0.2,0.3,0.2,0.5s0.1,0.4,0.1,0.6s0,0.4-0.1,0.6c-0.1,0.2-0.1,0.3-0.2,0.5s-0.2,0.2-0.4,0.3
				c-0.2,0.1-0.3,0.1-0.5,0.1c-0.2,0-0.4,0-0.5-0.1c-0.2-0.1-0.3-0.2-0.4-0.3s-0.2-0.3-0.2-0.5c-0.1-0.2-0.1-0.4-0.1-0.6
				S155,172.8,155,172.6z M155.1,173.7c0,0.2,0.1,0.3,0.2,0.4c0.1,0.1,0.2,0.2,0.4,0.3s0.3,0.1,0.5,0.1c0.2,0,0.4,0,0.5-0.1
				s0.3-0.2,0.4-0.3c0.1-0.1,0.2-0.3,0.2-0.4c0-0.2,0.1-0.3,0.1-0.5c0-0.2,0-0.3-0.1-0.5c0-0.2-0.1-0.3-0.2-0.4
				c-0.1-0.1-0.2-0.2-0.4-0.3s-0.3-0.1-0.5-0.1c-0.2,0-0.4,0-0.5,0.1s-0.3,0.2-0.4,0.3c-0.1,0.1-0.2,0.3-0.2,0.4
				c0,0.2-0.1,0.3-0.1,0.5C155.1,173.4,155.1,173.5,155.1,173.7z"/>
			<path style="fill:#FFFFFF;" d="M158.1,174.6H158v-3.9h0.1v2.7l2-1.6h0.2l-1.3,1.1l1.4,1.7h-0.1l-1.3-1.7l-0.7,0.6V174.6z"/>
			<path style="fill:#FFFFFF;" d="M160.5,172.3c0-0.1,0.1-0.2,0.2-0.3c0.1-0.1,0.2-0.2,0.3-0.2c0.1,0,0.3-0.1,0.5-0.1
				c0.1,0,0.2,0,0.4,0c0.1,0,0.2,0.1,0.3,0.1c0.1,0.1,0.2,0.1,0.2,0.2c0.1,0.1,0.1,0.2,0.1,0.4v1.8c0,0.1,0,0.1,0,0.1
				c0,0,0.1,0,0.1,0.1c0,0,0.1,0,0.1,0c0,0,0.1,0,0.1,0v0.1h-0.2c-0.1,0-0.2,0-0.2-0.1c-0.1,0-0.1-0.1-0.1-0.2V174h0
				c0,0.1-0.1,0.2-0.1,0.3c-0.1,0.1-0.1,0.2-0.2,0.2c-0.1,0.1-0.2,0.1-0.3,0.2c-0.1,0-0.3,0.1-0.4,0.1c-0.3,0-0.5-0.1-0.7-0.2
				c-0.2-0.1-0.3-0.3-0.3-0.6c0-0.2,0-0.3,0.1-0.4s0.1-0.2,0.2-0.2s0.2-0.1,0.3-0.1c0.1,0,0.2,0,0.4,0c0.2,0,0.4,0,0.5,0
				c0.1,0,0.3,0,0.3-0.1c0.1,0,0.2-0.1,0.2-0.1s0.1-0.1,0.1-0.2c0-0.1,0-0.2,0-0.3s0-0.2-0.1-0.3c-0.1-0.1-0.1-0.1-0.2-0.2
				c-0.1,0-0.3-0.1-0.4-0.1c-0.3,0-0.5,0.1-0.7,0.2s-0.3,0.3-0.3,0.6h-0.1C160.4,172.5,160.4,172.4,160.5,172.3z M162.3,172.9
				c0,0.1-0.1,0.1-0.2,0.1c-0.1,0-0.2,0-0.3,0.1c-0.1,0-0.2,0-0.3,0c-0.1,0-0.2,0-0.3,0c-0.1,0-0.2,0-0.3,0c-0.1,0-0.2,0.1-0.3,0.1
				c-0.1,0.1-0.1,0.1-0.2,0.2c0,0.1-0.1,0.2-0.1,0.4c0,0.1,0,0.2,0,0.2s0.1,0.1,0.1,0.2c0.1,0.1,0.2,0.1,0.3,0.1s0.2,0.1,0.4,0.1
				c0.2,0,0.3,0,0.5-0.1c0.1-0.1,0.3-0.1,0.4-0.2c0.1-0.1,0.2-0.2,0.2-0.3c0-0.1,0.1-0.3,0.1-0.4L162.3,172.9L162.3,172.9z"/>
			<path style="fill:#FFFFFF;" d="M167.7,173.7c-0.1,0.2-0.2,0.4-0.4,0.5c-0.1,0.1-0.3,0.3-0.5,0.3c-0.2,0.1-0.4,0.1-0.7,0.1
				c-0.3,0-0.5,0-0.7-0.2c-0.2-0.1-0.4-0.2-0.6-0.4c-0.2-0.2-0.3-0.4-0.4-0.6c-0.1-0.2-0.1-0.5-0.1-0.8c0-0.2,0-0.5,0.1-0.7
				c0.1-0.2,0.2-0.5,0.3-0.7c0.1-0.2,0.3-0.4,0.6-0.5c0.2-0.1,0.5-0.2,0.9-0.2c0.3,0,0.5,0,0.7,0.1c0.2,0.1,0.4,0.2,0.5,0.3
				s0.2,0.3,0.3,0.4c0.1,0.1,0.1,0.3,0.1,0.4h-0.1c0-0.1-0.1-0.3-0.1-0.4c-0.1-0.1-0.2-0.3-0.3-0.4c-0.1-0.1-0.3-0.2-0.5-0.3
				c-0.2-0.1-0.4-0.1-0.6-0.1c-0.3,0-0.6,0.1-0.8,0.2s-0.4,0.3-0.5,0.5s-0.2,0.4-0.3,0.6c-0.1,0.2-0.1,0.4-0.1,0.7
				c0,0.2,0,0.5,0.1,0.7c0.1,0.2,0.2,0.4,0.3,0.6c0.1,0.2,0.3,0.3,0.5,0.4s0.4,0.2,0.7,0.2c0.2,0,0.4,0,0.6-0.1
				c0.2-0.1,0.3-0.2,0.5-0.3C167.4,174,167.5,173.9,167.7,173.7c0-0.2,0-0.4,0.1-0.7h0.1C167.9,173.3,167.8,173.5,167.7,173.7z"/>
			<path style="fill:#FFFFFF;" d="M168.3,171.2v-0.6h0.1v0.6H168.3z M168.3,174.6v-2.8h0.1v2.8H168.3z"/>
			<path style="fill:#FFFFFF;" d="M169.4,174c0,0.1,0,0.2,0,0.2c0,0.1,0.1,0.1,0.1,0.1s0.1,0,0.1,0.1c0,0,0.1,0,0.1,0
				c0.1,0,0.1,0,0.1,0s0.1,0,0.1,0v0.1c0,0-0.1,0-0.1,0c0,0-0.1,0-0.2,0c-0.1,0-0.2,0-0.3-0.1s-0.1-0.2-0.1-0.4v-2.2h-0.5v-0.1h0.5
				v-0.9h0.1v0.9h0.6v0.1h-0.6V174z"/>
			<path style="fill:#FFFFFF;" d="M172.4,171.8l-1.3,3.4c0,0.1-0.1,0.2-0.1,0.2c-0.1,0.1-0.1,0.1-0.2,0.1s-0.1,0-0.2,0
				c-0.1,0-0.2,0-0.2,0v-0.1c0.1,0,0.2,0,0.2,0c0.1,0,0.1,0,0.2,0c0,0,0.1-0.1,0.1-0.1c0,0,0.1-0.1,0.1-0.2l0.2-0.5l-1.2-2.8h0.1
				l1.1,2.7l1-2.7H172.4z"/>
			<path style="fill:#FFFFFF;" d="M174.7,174.6c0,0.2,0,0.3-0.1,0.4c0,0.1-0.1,0.2-0.2,0.2v-0.1c0,0,0.1-0.1,0.1-0.2
				c0-0.1,0-0.2,0-0.3v-0.5h0.1V174.6z"/>
			<path style="fill:#FFFFFF;" d="M179.4,172.5v0.1h-2.1v2h-0.1v-3.9h2.4v0.1h-2.3v1.7H179.4z"/>
			<path style="fill:#FFFFFF;" d="M181.9,174.6v-0.7h0c-0.1,0.2-0.2,0.4-0.3,0.5c-0.2,0.1-0.4,0.2-0.7,0.2c-0.1,0-0.3,0-0.4-0.1
				c-0.1,0-0.2-0.1-0.3-0.2c-0.1-0.1-0.2-0.2-0.2-0.3c0-0.1-0.1-0.3-0.1-0.4v-1.9h0.1v1.9c0,0.2,0,0.3,0.1,0.4
				c0,0.1,0.1,0.2,0.2,0.3c0.1,0.1,0.2,0.1,0.3,0.2c0.1,0,0.2,0.1,0.3,0.1c0.2,0,0.3,0,0.4-0.1c0.1-0.1,0.2-0.2,0.3-0.3
				c0.1-0.1,0.2-0.2,0.2-0.4c0-0.1,0.1-0.3,0.1-0.5v-1.6h0.1v2.8H181.9z"/>
			<path style="fill:#FFFFFF;" d="M182.7,174.6h-0.1v-3.9h0.1v2.7l2-1.6h0.2l-1.3,1.1l1.4,1.7h-0.1l-1.3-1.7l-0.7,0.6V174.6z"/>
			<path style="fill:#FFFFFF;" d="M187.1,174.6v-0.7h0c-0.1,0.2-0.2,0.4-0.3,0.5c-0.2,0.1-0.4,0.2-0.7,0.2c-0.1,0-0.3,0-0.4-0.1
				c-0.1,0-0.2-0.1-0.3-0.2c-0.1-0.1-0.2-0.2-0.2-0.3c0-0.1-0.1-0.3-0.1-0.4v-1.9h0.1v1.9c0,0.2,0,0.3,0.1,0.4
				c0,0.1,0.1,0.2,0.2,0.3c0.1,0.1,0.2,0.1,0.3,0.2c0.1,0,0.2,0.1,0.3,0.1c0.2,0,0.3,0,0.4-0.1c0.1-0.1,0.2-0.2,0.3-0.3
				s0.2-0.2,0.2-0.4c0-0.1,0.1-0.3,0.1-0.5v-1.6h0.1v2.8H187.1z"/>
			<path style="fill:#FFFFFF;" d="M187.7,172.6c0.1-0.2,0.1-0.3,0.2-0.5s0.2-0.2,0.4-0.3c0.2-0.1,0.3-0.1,0.5-0.1
				c0.2,0,0.4,0,0.5,0.1c0.2,0.1,0.3,0.2,0.4,0.3s0.2,0.3,0.2,0.5c0.1,0.2,0.1,0.4,0.1,0.6s0,0.4-0.1,0.6c-0.1,0.2-0.1,0.3-0.2,0.5
				s-0.2,0.2-0.4,0.3c-0.2,0.1-0.3,0.1-0.5,0.1c-0.2,0-0.4,0-0.5-0.1c-0.2-0.1-0.3-0.2-0.4-0.3s-0.2-0.3-0.2-0.5
				c-0.1-0.2-0.1-0.4-0.1-0.6S187.7,172.8,187.7,172.6z M187.8,173.7c0,0.2,0.1,0.3,0.2,0.4c0.1,0.1,0.2,0.2,0.4,0.3
				s0.3,0.1,0.5,0.1c0.2,0,0.4,0,0.5-0.1s0.3-0.2,0.4-0.3c0.1-0.1,0.2-0.3,0.2-0.4c0-0.2,0.1-0.3,0.1-0.5c0-0.2,0-0.3-0.1-0.5
				c0-0.2-0.1-0.3-0.2-0.4c-0.1-0.1-0.2-0.2-0.4-0.3s-0.3-0.1-0.5-0.1c-0.2,0-0.4,0-0.5,0.1s-0.3,0.2-0.4,0.3
				c-0.1,0.1-0.2,0.3-0.2,0.4c0,0.2-0.1,0.3-0.1,0.5C187.8,173.4,187.8,173.5,187.8,173.7z"/>
			<path style="fill:#FFFFFF;" d="M190.8,174.6h-0.1v-3.9h0.1v2.7l2-1.6h0.2l-1.3,1.1l1.4,1.7h-0.1l-1.3-1.7l-0.7,0.6V174.6z"/>
			<path style="fill:#FFFFFF;" d="M193.2,172.3c0-0.1,0.1-0.2,0.2-0.3c0.1-0.1,0.2-0.2,0.3-0.2c0.1,0,0.3-0.1,0.5-0.1
				c0.1,0,0.2,0,0.4,0c0.1,0,0.2,0.1,0.3,0.1c0.1,0.1,0.2,0.1,0.2,0.2c0.1,0.1,0.1,0.2,0.1,0.4v1.8c0,0.1,0,0.1,0,0.1
				c0,0,0.1,0,0.1,0.1c0,0,0.1,0,0.1,0c0,0,0.1,0,0.1,0v0.1h-0.2c-0.1,0-0.2,0-0.2-0.1c-0.1,0-0.1-0.1-0.1-0.2V174h0
				c0,0.1-0.1,0.2-0.1,0.3c-0.1,0.1-0.1,0.2-0.2,0.2c-0.1,0.1-0.2,0.1-0.3,0.2c-0.1,0-0.3,0.1-0.4,0.1c-0.3,0-0.5-0.1-0.7-0.2
				c-0.2-0.1-0.3-0.3-0.3-0.6c0-0.2,0-0.3,0.1-0.4s0.1-0.2,0.2-0.2s0.2-0.1,0.3-0.1c0.1,0,0.2,0,0.4,0c0.2,0,0.4,0,0.5,0
				c0.1,0,0.3,0,0.3-0.1c0.1,0,0.2-0.1,0.2-0.1s0.1-0.1,0.1-0.2c0-0.1,0-0.2,0-0.3s0-0.2-0.1-0.3c-0.1-0.1-0.1-0.1-0.2-0.2
				c-0.1,0-0.3-0.1-0.4-0.1c-0.3,0-0.5,0.1-0.7,0.2s-0.3,0.3-0.3,0.6h-0.1C193.1,172.5,193.1,172.4,193.2,172.3z M195,172.9
				c0,0.1-0.1,0.1-0.2,0.1c-0.1,0-0.2,0-0.3,0.1c-0.1,0-0.2,0-0.3,0c-0.1,0-0.2,0-0.3,0c-0.1,0-0.2,0-0.3,0c-0.1,0-0.2,0.1-0.3,0.1
				c-0.1,0.1-0.1,0.1-0.2,0.2c0,0.1-0.1,0.2-0.1,0.4c0,0.1,0,0.2,0,0.2s0.1,0.1,0.1,0.2c0.1,0.1,0.2,0.1,0.3,0.1s0.2,0.1,0.4,0.1
				c0.2,0,0.3,0,0.5-0.1c0.1-0.1,0.3-0.1,0.4-0.2c0.1-0.1,0.2-0.2,0.2-0.3c0-0.1,0.1-0.3,0.1-0.4L195,172.9L195,172.9z"/>
			<path style="fill:#FFFFFF;" d="M201.1,172.9c0.2,0.2,0.3,0.4,0.3,0.7c0,0.2,0,0.4-0.1,0.5c-0.1,0.1-0.2,0.3-0.3,0.3
				s-0.3,0.2-0.4,0.2c-0.2,0-0.3,0.1-0.5,0.1c-0.2,0-0.4,0-0.5-0.1c-0.2,0-0.3-0.1-0.4-0.2c-0.1-0.1-0.2-0.2-0.3-0.3
				c-0.1-0.1-0.1-0.3-0.1-0.5c0-0.3,0.1-0.5,0.3-0.7c0.2-0.2,0.4-0.3,0.7-0.3v0c-0.1,0-0.2,0-0.3-0.1c-0.1,0-0.2-0.1-0.2-0.2
				c-0.1-0.1-0.1-0.1-0.2-0.2s-0.1-0.2-0.1-0.3c0-0.2,0-0.3,0.1-0.4c0.1-0.1,0.1-0.2,0.2-0.3s0.2-0.1,0.4-0.2c0.1,0,0.3-0.1,0.5-0.1
				c0.2,0,0.3,0,0.5,0.1c0.1,0,0.3,0.1,0.4,0.2s0.2,0.2,0.2,0.3c0.1,0.1,0.1,0.3,0.1,0.4c0,0.1,0,0.2-0.1,0.3c0,0.1-0.1,0.2-0.2,0.2
				c-0.1,0.1-0.2,0.1-0.2,0.2s-0.2,0.1-0.3,0.1v0C200.7,172.6,201,172.7,201.1,172.9z M201.2,173.1c-0.1-0.1-0.2-0.2-0.3-0.3
				c-0.1-0.1-0.2-0.1-0.4-0.2s-0.3,0-0.5,0c-0.2,0-0.3,0-0.5,0s-0.3,0.1-0.4,0.2c-0.1,0.1-0.2,0.2-0.3,0.3c-0.1,0.1-0.1,0.3-0.1,0.5
				s0,0.3,0.1,0.5c0.1,0.1,0.2,0.2,0.3,0.3c0.1,0.1,0.2,0.1,0.4,0.2c0.2,0,0.3,0.1,0.5,0.1s0.3,0,0.5-0.1c0.2,0,0.3-0.1,0.4-0.2
				c0.1-0.1,0.2-0.2,0.3-0.3c0.1-0.1,0.1-0.3,0.1-0.5S201.2,173.2,201.2,173.1z M201,171.3c-0.1-0.1-0.1-0.2-0.2-0.3
				c-0.1-0.1-0.2-0.1-0.3-0.1c-0.1,0-0.3,0-0.4,0s-0.3,0-0.4,0s-0.2,0.1-0.3,0.1c-0.1,0.1-0.2,0.1-0.2,0.3c-0.1,0.1-0.1,0.2-0.1,0.4
				c0,0.1,0,0.2,0.1,0.3c0.1,0.1,0.1,0.2,0.2,0.2c0.1,0.1,0.2,0.1,0.3,0.1c0.1,0,0.3,0,0.4,0c0.1,0,0.2,0,0.4,0
				c0.1,0,0.2-0.1,0.3-0.1c0.1-0.1,0.2-0.1,0.2-0.2c0.1-0.1,0.1-0.2,0.1-0.3C201.1,171.6,201.1,171.4,201,171.3z"/>
			<path style="fill:#FFFFFF;" d="M203.2,171c-0.1,0.2-0.3,0.3-0.4,0.4c-0.2,0.1-0.4,0.2-0.6,0.2v-0.1c0.1,0,0.2-0.1,0.3-0.1
				c0.1,0,0.2-0.1,0.2-0.1s0.2-0.1,0.2-0.2c0.1-0.1,0.1-0.1,0.2-0.2h0.1v3.7h-0.1L203.2,171L203.2,171z"/>
			<path style="fill:#FFFFFF;" d="M207.5,173.4c0,0.2-0.1,0.4-0.2,0.6c-0.1,0.2-0.3,0.3-0.4,0.4c-0.2,0.1-0.4,0.2-0.7,0.2
				c-0.3,0-0.5-0.1-0.7-0.2c-0.2-0.1-0.3-0.3-0.4-0.4s-0.2-0.4-0.2-0.6c0-0.2-0.1-0.5-0.1-0.7c0-0.2,0-0.5,0.1-0.7
				c0-0.2,0.1-0.4,0.2-0.6c0.1-0.2,0.3-0.3,0.4-0.4c0.2-0.1,0.4-0.2,0.7-0.2c0.3,0,0.5,0.1,0.7,0.2c0.2,0.1,0.3,0.3,0.4,0.4
				c0.1,0.2,0.2,0.4,0.2,0.6c0,0.2,0.1,0.5,0.1,0.7C207.5,173,207.5,173.2,207.5,173.4z M207.4,172.1c0-0.2-0.1-0.4-0.2-0.6
				c-0.1-0.2-0.2-0.3-0.4-0.4c-0.2-0.1-0.4-0.2-0.6-0.2c-0.3,0-0.5,0.1-0.6,0.2c-0.2,0.1-0.3,0.3-0.4,0.4c-0.1,0.2-0.2,0.4-0.2,0.6
				c0,0.2-0.1,0.4-0.1,0.6s0,0.4,0.1,0.6c0,0.2,0.1,0.4,0.2,0.6c0.1,0.2,0.2,0.3,0.4,0.4c0.2,0.1,0.4,0.2,0.6,0.2
				c0.3,0,0.5-0.1,0.6-0.2c0.2-0.1,0.3-0.3,0.4-0.4c0.1-0.2,0.2-0.4,0.2-0.6c0-0.2,0.1-0.4,0.1-0.6S207.4,172.3,207.4,172.1z"/>
			<path style="fill:#FFFFFF;" d="M209.1,173.1v0.1h-1v-0.1H209.1z"/>
			<path style="fill:#FFFFFF;" d="M212.4,173.4c0,0.2-0.1,0.4-0.2,0.6c-0.1,0.2-0.3,0.3-0.4,0.4c-0.2,0.1-0.4,0.2-0.7,0.2
				c-0.3,0-0.5-0.1-0.7-0.2c-0.2-0.1-0.3-0.3-0.4-0.4c-0.1-0.2-0.2-0.4-0.2-0.6c0-0.2-0.1-0.5-0.1-0.7c0-0.2,0-0.5,0.1-0.7
				c0-0.2,0.1-0.4,0.2-0.6c0.1-0.2,0.3-0.3,0.4-0.4c0.2-0.1,0.4-0.2,0.7-0.2c0.3,0,0.5,0.1,0.7,0.2c0.2,0.1,0.3,0.3,0.4,0.4
				c0.1,0.2,0.2,0.4,0.2,0.6c0,0.2,0.1,0.5,0.1,0.7C212.4,173,212.4,173.2,212.4,173.4z M212.3,172.1c0-0.2-0.1-0.4-0.2-0.6
				c-0.1-0.2-0.2-0.3-0.4-0.4c-0.2-0.1-0.4-0.2-0.6-0.2c-0.3,0-0.5,0.1-0.6,0.2c-0.2,0.1-0.3,0.3-0.4,0.4c-0.1,0.2-0.2,0.4-0.2,0.6
				c0,0.2-0.1,0.4-0.1,0.6s0,0.4,0.1,0.6c0,0.2,0.1,0.4,0.2,0.6c0.1,0.2,0.2,0.3,0.4,0.4c0.2,0.1,0.4,0.2,0.6,0.2
				c0.3,0,0.5-0.1,0.6-0.2c0.2-0.1,0.3-0.3,0.4-0.4c0.1-0.2,0.2-0.4,0.2-0.6c0-0.2,0.1-0.4,0.1-0.6S212.3,172.3,212.3,172.1z"/>
			<path style="fill:#FFFFFF;" d="M215.4,173.4c0,0.2-0.1,0.4-0.2,0.6c-0.1,0.2-0.3,0.3-0.4,0.4c-0.2,0.1-0.4,0.2-0.7,0.2
				c-0.3,0-0.5-0.1-0.7-0.2c-0.2-0.1-0.3-0.3-0.4-0.4s-0.2-0.4-0.2-0.6c0-0.2-0.1-0.5-0.1-0.7c0-0.2,0-0.5,0.1-0.7
				c0-0.2,0.1-0.4,0.2-0.6c0.1-0.2,0.3-0.3,0.4-0.4c0.2-0.1,0.4-0.2,0.7-0.2c0.3,0,0.5,0.1,0.7,0.2c0.2,0.1,0.3,0.3,0.4,0.4
				c0.1,0.2,0.2,0.4,0.2,0.6c0,0.2,0.1,0.5,0.1,0.7C215.5,173,215.5,173.2,215.4,173.4z M215.3,172.1c0-0.2-0.1-0.4-0.2-0.6
				c-0.1-0.2-0.2-0.3-0.4-0.4c-0.2-0.1-0.4-0.2-0.6-0.2c-0.3,0-0.5,0.1-0.6,0.2c-0.2,0.1-0.3,0.3-0.4,0.4c-0.1,0.2-0.2,0.4-0.2,0.6
				c0,0.2-0.1,0.4-0.1,0.6s0,0.4,0.1,0.6c0,0.2,0.1,0.4,0.2,0.6c0.1,0.2,0.2,0.3,0.4,0.4c0.2,0.1,0.4,0.2,0.6,0.2
				c0.3,0,0.5-0.1,0.6-0.2c0.2-0.1,0.3-0.3,0.4-0.4c0.1-0.2,0.2-0.4,0.2-0.6c0-0.2,0.1-0.4,0.1-0.6S215.4,172.3,215.3,172.1z"/>
			<path style="fill:#FFFFFF;" d="M215.9,170.9h2.4v0.1c-0.3,0.3-0.5,0.5-0.7,0.8s-0.4,0.5-0.5,0.8c-0.1,0.3-0.3,0.6-0.3,0.9
				c-0.1,0.3-0.1,0.7-0.1,1h-0.1c0-0.4,0-0.7,0.1-1c0.1-0.3,0.2-0.6,0.3-0.9s0.3-0.6,0.5-0.9c0.2-0.3,0.4-0.5,0.7-0.8h-2.3V170.9z"
				/>
			<path style="fill:#FFFFFF;" d="M218.9,173.5l1.9-2.6h0.1v2.7h0.7v0.1h-0.7v1h-0.1v-1h-1.9V173.5z M220.7,171l-1.8,2.5h1.8
				L220.7,171L220.7,171z"/>
			<path style="fill:#FFFFFF;" d="M55.5,176.9v0.4h-3.4v-0.4H55.5z M55.5,178.3v0.4h-1.5v2.6h-0.5v-2.6h-1.5v-0.4H55.5z"/>
			<path style="fill:#FFFFFF;" d="M58.5,179.5c0.2,0.2,0.3,0.4,0.3,0.7c0,0.2,0,0.4-0.1,0.5c-0.1,0.1-0.2,0.3-0.3,0.3
				s-0.3,0.2-0.4,0.2s-0.3,0.1-0.5,0.1c-0.2,0-0.4,0-0.5-0.1s-0.3-0.1-0.4-0.2c-0.1-0.1-0.2-0.2-0.3-0.3c-0.1-0.1-0.1-0.3-0.1-0.5
				c0-0.3,0.1-0.5,0.3-0.7c0.2-0.2,0.4-0.3,0.7-0.3v0c-0.1,0-0.2,0-0.3-0.1c-0.1,0-0.2-0.1-0.2-0.2c-0.1-0.1-0.1-0.1-0.2-0.2
				c0-0.1-0.1-0.2-0.1-0.3c0-0.2,0-0.3,0.1-0.4s0.1-0.2,0.2-0.3s0.2-0.1,0.4-0.2c0.1,0,0.3-0.1,0.5-0.1c0.2,0,0.3,0,0.5,0.1
				c0.1,0,0.3,0.1,0.4,0.2s0.2,0.2,0.2,0.3s0.1,0.3,0.1,0.4c0,0.1,0,0.2-0.1,0.3c0,0.1-0.1,0.2-0.2,0.2c-0.1,0.1-0.2,0.1-0.2,0.2
				s-0.2,0.1-0.3,0.1v0C58.1,179.2,58.3,179.3,58.5,179.5z M58.5,179.7c-0.1-0.1-0.2-0.2-0.3-0.3c-0.1-0.1-0.2-0.1-0.4-0.2
				s-0.3,0-0.5,0c-0.2,0-0.3,0-0.5,0s-0.3,0.1-0.4,0.2c-0.1,0.1-0.2,0.2-0.3,0.3c-0.1,0.1-0.1,0.3-0.1,0.5s0,0.3,0.1,0.5
				c0.1,0.1,0.2,0.2,0.3,0.3c0.1,0.1,0.2,0.1,0.4,0.2c0.2,0,0.3,0.1,0.5,0.1s0.3,0,0.5-0.1c0.2,0,0.3-0.1,0.4-0.2
				c0.1-0.1,0.2-0.2,0.3-0.3c0.1-0.1,0.1-0.3,0.1-0.5S58.6,179.8,58.5,179.7z M58.3,177.9c-0.1-0.1-0.1-0.2-0.2-0.3
				c-0.1-0.1-0.2-0.1-0.3-0.1c-0.1,0-0.3,0-0.4,0s-0.3,0-0.4,0c-0.1,0-0.2,0.1-0.3,0.1c-0.1,0.1-0.2,0.1-0.2,0.3s-0.1,0.2-0.1,0.4
				c0,0.1,0,0.2,0.1,0.3c0.1,0.1,0.1,0.2,0.2,0.2c0.1,0.1,0.2,0.1,0.3,0.1c0.1,0,0.3,0,0.4,0c0.1,0,0.2,0,0.4,0
				c0.1,0,0.2-0.1,0.3-0.1c0.1-0.1,0.2-0.1,0.2-0.2c0.1-0.1,0.1-0.2,0.1-0.3C58.4,178.2,58.4,178,58.3,177.9z"/>
			<path style="fill:#FFFFFF;" d="M60.5,177.6c-0.1,0.2-0.3,0.3-0.4,0.4c-0.2,0.1-0.4,0.2-0.6,0.3v-0.1c0.1,0,0.2-0.1,0.3-0.1
				c0.1,0,0.2-0.1,0.2-0.1s0.2-0.1,0.2-0.2c0.1-0.1,0.1-0.1,0.2-0.2h0.1v3.7h-0.1L60.5,177.6L60.5,177.6z"/>
			<path style="fill:#FFFFFF;" d="M64.8,180c0,0.2-0.1,0.4-0.2,0.6c-0.1,0.2-0.3,0.3-0.4,0.4c-0.2,0.1-0.4,0.2-0.7,0.2
				c-0.3,0-0.5-0.1-0.7-0.2c-0.2-0.1-0.3-0.3-0.4-0.4s-0.2-0.4-0.2-0.6c0-0.2-0.1-0.5-0.1-0.7s0-0.5,0.1-0.7c0-0.2,0.1-0.4,0.2-0.6
				c0.1-0.2,0.3-0.3,0.4-0.4c0.2-0.1,0.4-0.2,0.7-0.2c0.3,0,0.5,0.1,0.7,0.2c0.2,0.1,0.3,0.3,0.4,0.4c0.1,0.2,0.2,0.4,0.2,0.6
				c0,0.2,0.1,0.5,0.1,0.7S64.9,179.8,64.8,180z M64.7,178.7c0-0.2-0.1-0.4-0.2-0.6c-0.1-0.2-0.2-0.3-0.4-0.4
				c-0.2-0.1-0.4-0.2-0.6-0.2c-0.3,0-0.5,0.1-0.6,0.2c-0.2,0.1-0.3,0.3-0.4,0.4s-0.2,0.4-0.2,0.6c0,0.2-0.1,0.4-0.1,0.6
				s0,0.4,0.1,0.6c0,0.2,0.1,0.4,0.2,0.6s0.2,0.3,0.4,0.4c0.2,0.1,0.4,0.2,0.6,0.2c0.3,0,0.5-0.1,0.6-0.2c0.2-0.1,0.3-0.3,0.4-0.4
				c0.1-0.2,0.2-0.4,0.2-0.6c0-0.2,0.1-0.4,0.1-0.6S64.8,178.9,64.7,178.7z"/>
			<path style="fill:#FFFFFF;" d="M66.4,179.7v0.1h-1v-0.1H66.4z"/>
			<path style="fill:#FFFFFF;" d="M69.7,180c0,0.2-0.1,0.4-0.2,0.6c-0.1,0.2-0.3,0.3-0.4,0.4c-0.2,0.1-0.4,0.2-0.7,0.2
				c-0.3,0-0.5-0.1-0.7-0.2c-0.2-0.1-0.3-0.3-0.4-0.4s-0.2-0.4-0.2-0.6c0-0.2-0.1-0.5-0.1-0.7s0-0.5,0.1-0.7c0-0.2,0.1-0.4,0.2-0.6
				c0.1-0.2,0.3-0.3,0.4-0.4c0.2-0.1,0.4-0.2,0.7-0.2c0.3,0,0.5,0.1,0.7,0.2c0.2,0.1,0.3,0.3,0.4,0.4c0.1,0.2,0.2,0.4,0.2,0.6
				c0,0.2,0.1,0.5,0.1,0.7S69.8,179.8,69.7,180z M69.6,178.7c0-0.2-0.1-0.4-0.2-0.6c-0.1-0.2-0.2-0.3-0.4-0.4
				c-0.2-0.1-0.4-0.2-0.6-0.2c-0.3,0-0.5,0.1-0.6,0.2c-0.2,0.1-0.3,0.3-0.4,0.4s-0.2,0.4-0.2,0.6c0,0.2-0.1,0.4-0.1,0.6
				s0,0.4,0.1,0.6c0,0.2,0.1,0.4,0.2,0.6s0.2,0.3,0.4,0.4c0.2,0.1,0.4,0.2,0.6,0.2c0.3,0,0.5-0.1,0.6-0.2c0.2-0.1,0.3-0.3,0.4-0.4
				c0.1-0.2,0.2-0.4,0.2-0.6c0-0.2,0.1-0.4,0.1-0.6S69.7,178.9,69.6,178.7z"/>
			<path style="fill:#FFFFFF;" d="M72.8,180c0,0.2-0.1,0.4-0.2,0.6c-0.1,0.2-0.3,0.3-0.4,0.4c-0.2,0.1-0.4,0.2-0.7,0.2
				c-0.3,0-0.5-0.1-0.7-0.2c-0.2-0.1-0.3-0.3-0.4-0.4s-0.2-0.4-0.2-0.6c0-0.2-0.1-0.5-0.1-0.7s0-0.5,0.1-0.7c0-0.2,0.1-0.4,0.2-0.6
				c0.1-0.2,0.3-0.3,0.4-0.4c0.2-0.1,0.4-0.2,0.7-0.2c0.3,0,0.5,0.1,0.7,0.2c0.2,0.1,0.3,0.3,0.4,0.4c0.1,0.2,0.2,0.4,0.2,0.6
				c0,0.2,0.1,0.5,0.1,0.7S72.8,179.8,72.8,180z M72.7,178.7c0-0.2-0.1-0.4-0.2-0.6c-0.1-0.2-0.2-0.3-0.4-0.4
				c-0.2-0.1-0.4-0.2-0.6-0.2c-0.3,0-0.5,0.1-0.6,0.2c-0.2,0.1-0.3,0.3-0.4,0.4s-0.2,0.4-0.2,0.6c0,0.2-0.1,0.4-0.1,0.6
				s0,0.4,0.1,0.6c0,0.2,0.1,0.4,0.2,0.6s0.2,0.3,0.4,0.4c0.2,0.1,0.4,0.2,0.6,0.2c0.3,0,0.5-0.1,0.6-0.2c0.2-0.1,0.3-0.3,0.4-0.4
				c0.1-0.2,0.2-0.4,0.2-0.6c0-0.2,0.1-0.4,0.1-0.6S72.7,178.9,72.7,178.7z"/>
			<path style="fill:#FFFFFF;" d="M73.3,177.5h2.4v0.1c-0.3,0.3-0.5,0.5-0.7,0.8s-0.4,0.5-0.5,0.8c-0.1,0.3-0.3,0.6-0.3,0.9
				c-0.1,0.3-0.1,0.7-0.1,1h-0.1c0-0.4,0-0.7,0.1-1c0.1-0.3,0.2-0.6,0.3-0.9s0.3-0.6,0.5-0.9s0.4-0.5,0.7-0.8h-2.3V177.5z"/>
			<path style="fill:#FFFFFF;" d="M76.2,180.1l1.9-2.6h0.1v2.7h0.7v0.1h-0.7v1h-0.1v-1h-1.9V180.1z M78.1,177.6l-1.8,2.5h1.8
				L78.1,177.6L78.1,177.6z"/>
			<path style="fill:#FFFFFF;" d="M86.4,179.8c-0.1-0.1-0.3-0.3-0.5-0.7v2.5h-0.4v-2.2c-0.3,0.3-0.5,0.4-0.6,0.5l-0.2-0.5
				c0.8-0.6,1.2-1.2,1.4-1.7h-1.3v-0.4h0.7v-0.9h0.4v0.9h0.7v0.4c-0.1,0.1-0.1,0.4-0.5,0.9c0.3,0.4,0.5,0.5,0.6,0.7V179h3v2.6h-0.4
				v-0.3h-2.1v0.3h-0.4v-2.2L86.4,179.8z M89.9,177.1h-3.3v-0.4h3.3V177.1z M89.5,178.7h-2.6v-1.3h2.6V178.7z M88,179.4h-0.9v0.6H88
				V179.4z M88,180.3h-0.9v0.7H88V180.3z M89.1,177.8h-1.8v0.6h1.8V177.8z M89.3,179.4h-0.9v0.6h0.9V179.4z M89.3,180.3h-0.9v0.7
				h0.9V180.3z"/>
			<path style="fill:#FFFFFF;" d="M95.2,176.8v4.4c0,0.3-0.2,0.5-0.5,0.5h-0.9l-0.1-0.5l0.8,0c0.1,0,0.2,0,0.2-0.2v-3.9h-3.8v4.5
				h-0.5v-4.9H95.2z M92,178.2c-0.1-0.3-0.2-0.7-0.3-0.8l0.4-0.1c0.1,0.3,0.2,0.5,0.3,0.9h0.8c0.1-0.3,0.2-0.7,0.3-0.9l0.4,0.1
				c-0.1,0.4-0.3,0.7-0.3,0.8h0.8v0.4H93v1.9h0.8v-1.5h0.4v1.9h-2.8v-1.9h0.4v1.5h0.8v-1.9h-1.5v-0.4H92z"/>
			<path style="fill:#FFFFFF;" d="M95.7,181.2c0.5-0.2,0.9-0.4,1.4-1l0.4,0.2c-0.4,0.5-1,0.9-1.5,1.1L95.7,181.2z M98.6,181.7h-0.5
				v-1.6H96v-3.2h0.5v2.8h4.4v0.4h-2.3V181.7z M100.4,176.7v2.6H97v-2.6H100.4z M100,177.1h-2.6v0.4h2.6V177.1z M100,177.8h-2.6v0.4
				h2.6V177.8z M100,178.5h-2.6v0.4h2.6V178.5z M99.6,180.3c0.3,0.3,0.8,0.7,1.4,0.9l-0.3,0.4c-0.5-0.2-1.1-0.6-1.5-1.1L99.6,180.3z
				"/>
			<path style="fill:#FFFFFF;" d="M102.9,179.8c-0.1-0.1-0.3-0.3-0.5-0.7v2.5H102v-2.2c-0.3,0.3-0.5,0.4-0.6,0.5l-0.2-0.5
				c0.8-0.6,1.2-1.2,1.4-1.7h-1.3v-0.4h0.7v-0.9h0.4v0.9h0.7v0.4c-0.1,0.1-0.1,0.4-0.5,0.9c0.3,0.4,0.5,0.5,0.6,0.7V179h3v2.6h-0.4
				v-0.3h-2.1v0.3h-0.4v-2.2L102.9,179.8z M106.4,177.1H103v-0.4h3.3V177.1z M106,178.7h-2.6v-1.3h2.6V178.7z M104.5,179.4h-0.9v0.6
				h0.9V179.4z M104.5,180.3h-0.9v0.7h0.9V180.3z M105.6,177.8h-1.8v0.6h1.8V177.8z M105.8,179.4h-0.9v0.6h0.9V179.4z M105.8,180.3
				h-0.9v0.7h0.9V180.3z"/>
			<path style="fill:#FFFFFF;" d="M111.7,176.8v4.4c0,0.3-0.2,0.5-0.5,0.5h-0.9l-0.1-0.5l0.8,0c0.1,0,0.2,0,0.2-0.2v-3.9h-3.8v4.5
				h-0.5v-4.9H111.7z M108.5,178.2c-0.1-0.3-0.2-0.7-0.3-0.8l0.4-0.1c0.1,0.3,0.2,0.5,0.3,0.9h0.8c0.1-0.3,0.2-0.7,0.3-0.9l0.4,0.1
				c-0.1,0.4-0.3,0.7-0.3,0.8h0.8v0.4h-1.5v1.9h0.8v-1.5h0.4v1.9h-2.8v-1.9h0.4v1.5h0.8v-1.9h-1.5v-0.4H108.5z"/>
			<path style="fill:#FFFFFF;" d="M115,176.6v0.6h2.3v0.4H115v0.7h1.9v2.4c0,0.4-0.2,0.5-0.5,0.5h-0.8l-0.1-0.5l0.7,0
				c0.1,0,0.2,0,0.2-0.2v-1.8H115v2.9h-0.5v-2.9h-1.4v2.5h-0.5v-3h1.8v-0.7h-2.3v-0.4h2.3v-0.6H115z"/>
			<path style="fill:#FFFFFF;" d="M120.5,176.6v1h2.1v2.7h-0.5V180h-1.7v1.7h-0.5V180h-1.6v0.3H118v-2.7h2.1v-1H120.5z M120.1,178
				h-1.6v1.6h1.6V178z M122.2,178h-1.7v1.6h1.7V178z"/>
			<path style="fill:#FFFFFF;" d="M125.6,176.6h0.5v0.6h1.8v1.9h0.6v0.4h-2.1c0.3,0.8,1,1.3,2.2,1.7l-0.2,0.5
				c-0.7-0.2-1.9-0.7-2.4-2c-0.3,0.7-1,1.6-2.4,2.1l-0.3-0.5c1.1-0.3,1.8-0.8,2.2-1.7h-2.1v-0.4h0.6v-1.9h1.7V176.6z M125.6,177.6
				h-1.3v1.5h1.2c0.1-0.3,0.1-0.6,0.1-0.8V177.6z M126,178.3c0,0.2,0,0.5,0,0.8h1.4v-1.5H126V178.3z"/>
			<path style="fill:#FFFFFF;" d="M133.7,176.8v0.4h-4.3v3.8h4.4v0.4h-4.4v0.2H129v-4.9H133.7z M133,177.5c-0.1,0.3-0.4,0.8-0.9,1.4
				c0.7,0.5,1.2,0.9,1.4,1.1l-0.3,0.4c-0.7-0.7-1.1-1-1.4-1.1c-0.5,0.6-1.1,1-1.8,1.5l-0.3-0.4c0.5-0.2,1.1-0.6,1.7-1.3
				c-0.6-0.4-1.2-0.7-1.5-0.8l0.2-0.4c0.8,0.4,1.3,0.7,1.6,0.9c0.5-0.6,0.7-1.1,0.8-1.4L133,177.5z"/>
			<path style="fill:#FFFFFF;" d="M136.5,176.6h0.5v1.3h2.3v0.5h-2.3c0.3,1.4,1,2.2,2.3,2.8l-0.3,0.5c-1.1-0.5-1.9-1.3-2.3-2.6
				c-0.5,1.7-1.8,2.4-2.3,2.6l-0.3-0.5c0.8-0.3,2-1,2.3-2.8h-2.2v-0.5h2.3V176.6z"/>
			<path style="fill:#FFFFFF;" d="M142.6,178.1h2v0.4h-2v0.9h2.3v0.4h-2.3v1.3c0,0.2-0.1,0.5-0.5,0.5H141l-0.1-0.5l1,0
				c0.1,0,0.2,0,0.2-0.2v-1.2h-2.3v-0.4h2.3v-0.9h-2v-0.4h2v-0.8c-1,0.1-1.6,0.1-2,0.1l0-0.4c1.9,0,3.2-0.1,4.4-0.3l0.1,0.4
				c-0.3,0.1-0.8,0.2-1.9,0.3V178.1z"/>
			<path style="fill:#FFFFFF;" d="M147.5,176.8v2.1h-1.6v2.8h-0.4v-4.9H147.5z M145.9,177.2v0.5h1.2v-0.5H145.9z M145.9,178v0.5h1.2
				V178H145.9z M150.2,181.2c0,0.5-0.3,0.5-0.5,0.5h-0.8l-0.1-0.5l0.8,0c0.2,0,0.2,0,0.2-0.2v-2.1h-1.6v-2.1h2.1V181.2z
				 M148.5,177.2v0.5h1.2v-0.5H148.5z M148.5,178v0.5h1.2V178H148.5z"/>
			<path style="fill:#FFFFFF;" d="M151,178.1c0.1-0.2,0.1-0.3,0.3-0.4c0.1-0.1,0.2-0.2,0.4-0.2c0.2-0.1,0.3-0.1,0.5-0.1
				c0.2,0,0.3,0,0.4,0c0.1,0,0.3,0.1,0.4,0.2c0.1,0.1,0.2,0.2,0.3,0.3c0.1,0.1,0.1,0.3,0.1,0.4c0,0.3-0.1,0.5-0.2,0.6
				s-0.3,0.2-0.6,0.3v0c0.1,0,0.2,0,0.3,0.1s0.2,0.1,0.3,0.2c0.1,0.1,0.1,0.2,0.2,0.3c0,0.1,0.1,0.3,0.1,0.4c0,0.2,0,0.3-0.1,0.5
				c-0.1,0.1-0.2,0.2-0.3,0.3s-0.2,0.2-0.4,0.2c-0.2,0-0.3,0.1-0.5,0.1c-0.2,0-0.4,0-0.6-0.1c-0.2-0.1-0.3-0.1-0.4-0.3
				c-0.1-0.1-0.2-0.2-0.3-0.4s-0.1-0.4-0.1-0.6h0.1c0,0.2,0,0.4,0.1,0.5c0.1,0.2,0.1,0.3,0.2,0.4c0.1,0.1,0.2,0.2,0.4,0.2
				c0.2,0.1,0.3,0.1,0.5,0.1c0.2,0,0.3,0,0.4-0.1c0.1,0,0.3-0.1,0.4-0.2s0.2-0.2,0.3-0.3c0.1-0.1,0.1-0.3,0.1-0.4s0-0.3-0.1-0.4
				c-0.1-0.1-0.1-0.2-0.2-0.3c-0.1-0.1-0.2-0.1-0.3-0.2c-0.1,0-0.3-0.1-0.4-0.1H152v-0.1h0.3c0.1,0,0.2,0,0.4,0s0.2-0.1,0.3-0.1
				c0.1-0.1,0.2-0.1,0.2-0.3s0.1-0.2,0.1-0.4c0-0.2,0-0.3-0.1-0.4c-0.1-0.1-0.1-0.2-0.2-0.3c-0.1-0.1-0.2-0.1-0.3-0.1
				c-0.1,0-0.3,0-0.4,0c-0.2,0-0.3,0-0.5,0.1c-0.1,0-0.3,0.1-0.4,0.2c-0.1,0.1-0.2,0.2-0.2,0.3c-0.1,0.1-0.1,0.3-0.1,0.5h-0.1
				C150.9,178.4,150.9,178.2,151,178.1z"/>
			<path style="fill:#FFFFFF;" d="M155,179.7v0.1h-1v-0.1H155z"/>
			<path style="fill:#FFFFFF;" d="M155.9,178.1c0.1-0.2,0.1-0.3,0.3-0.4c0.1-0.1,0.2-0.2,0.4-0.2c0.2-0.1,0.3-0.1,0.5-0.1
				c0.2,0,0.3,0,0.4,0c0.1,0,0.3,0.1,0.4,0.2c0.1,0.1,0.2,0.2,0.3,0.3c0.1,0.1,0.1,0.3,0.1,0.4c0,0.3-0.1,0.5-0.2,0.6
				s-0.3,0.2-0.6,0.3v0c0.1,0,0.2,0,0.3,0.1s0.2,0.1,0.3,0.2c0.1,0.1,0.1,0.2,0.2,0.3c0,0.1,0.1,0.3,0.1,0.4c0,0.2,0,0.3-0.1,0.5
				c-0.1,0.1-0.2,0.2-0.3,0.3s-0.2,0.2-0.4,0.2c-0.2,0-0.3,0.1-0.5,0.1c-0.2,0-0.4,0-0.6-0.1c-0.2-0.1-0.3-0.1-0.4-0.3
				c-0.1-0.1-0.2-0.2-0.3-0.4s-0.1-0.4-0.1-0.6h0.1c0,0.2,0,0.4,0.1,0.5c0.1,0.2,0.1,0.3,0.2,0.4c0.1,0.1,0.2,0.2,0.4,0.2
				c0.2,0.1,0.3,0.1,0.5,0.1c0.2,0,0.3,0,0.4-0.1c0.1,0,0.3-0.1,0.4-0.2s0.2-0.2,0.3-0.3c0.1-0.1,0.1-0.3,0.1-0.4s0-0.3-0.1-0.4
				c-0.1-0.1-0.1-0.2-0.2-0.3c-0.1-0.1-0.2-0.1-0.3-0.2c-0.1,0-0.3-0.1-0.4-0.1h-0.3v-0.1h0.3c0.1,0,0.2,0,0.4,0s0.2-0.1,0.3-0.1
				c0.1-0.1,0.2-0.1,0.2-0.3s0.1-0.2,0.1-0.4c0-0.2,0-0.3-0.1-0.4c-0.1-0.1-0.1-0.2-0.2-0.3c-0.1-0.1-0.2-0.1-0.3-0.1
				c-0.1,0-0.3,0-0.4,0c-0.2,0-0.3,0-0.5,0.1c-0.1,0-0.3,0.1-0.4,0.2c-0.1,0.1-0.2,0.2-0.2,0.3c-0.1,0.1-0.1,0.3-0.1,0.5h-0.1
				C155.8,178.4,155.8,178.2,155.9,178.1z"/>
			<path style="fill:#FFFFFF;" d="M159.9,179.7v0.1h-1v-0.1H159.9z"/>
			<path style="fill:#FFFFFF;" d="M163,179.5c0.2,0.2,0.3,0.4,0.3,0.7c0,0.2,0,0.4-0.1,0.5c-0.1,0.1-0.2,0.3-0.3,0.3
				s-0.3,0.2-0.4,0.2s-0.3,0.1-0.5,0.1c-0.2,0-0.4,0-0.5-0.1s-0.3-0.1-0.4-0.2c-0.1-0.1-0.2-0.2-0.3-0.3c-0.1-0.1-0.1-0.3-0.1-0.5
				c0-0.3,0.1-0.5,0.3-0.7c0.2-0.2,0.4-0.3,0.7-0.3v0c-0.1,0-0.2,0-0.3-0.1c-0.1,0-0.2-0.1-0.2-0.2c-0.1-0.1-0.1-0.1-0.2-0.2
				c0-0.1-0.1-0.2-0.1-0.3c0-0.2,0-0.3,0.1-0.4s0.1-0.2,0.2-0.3s0.2-0.1,0.4-0.2c0.1,0,0.3-0.1,0.5-0.1c0.2,0,0.3,0,0.5,0.1
				c0.1,0,0.3,0.1,0.4,0.2s0.2,0.2,0.2,0.3s0.1,0.3,0.1,0.4c0,0.1,0,0.2-0.1,0.3c0,0.1-0.1,0.2-0.2,0.2c-0.1,0.1-0.2,0.1-0.2,0.2
				s-0.2,0.1-0.3,0.1v0C162.6,179.2,162.8,179.3,163,179.5z M163,179.7c-0.1-0.1-0.2-0.2-0.3-0.3c-0.1-0.1-0.2-0.1-0.4-0.2
				s-0.3,0-0.5,0c-0.2,0-0.3,0-0.5,0s-0.3,0.1-0.4,0.2c-0.1,0.1-0.2,0.2-0.3,0.3c-0.1,0.1-0.1,0.3-0.1,0.5s0,0.3,0.1,0.5
				c0.1,0.1,0.2,0.2,0.3,0.3c0.1,0.1,0.2,0.1,0.4,0.2c0.2,0,0.3,0.1,0.5,0.1s0.3,0,0.5-0.1c0.2,0,0.3-0.1,0.4-0.2
				c0.1-0.1,0.2-0.2,0.3-0.3c0.1-0.1,0.1-0.3,0.1-0.5S163.1,179.8,163,179.7z M162.9,177.9c-0.1-0.1-0.1-0.2-0.2-0.3
				c-0.1-0.1-0.2-0.1-0.3-0.1c-0.1,0-0.3,0-0.4,0s-0.3,0-0.4,0c-0.1,0-0.2,0.1-0.3,0.1c-0.1,0.1-0.2,0.1-0.2,0.3s-0.1,0.2-0.1,0.4
				c0,0.1,0,0.2,0.1,0.3c0.1,0.1,0.1,0.2,0.2,0.2c0.1,0.1,0.2,0.1,0.3,0.1c0.1,0,0.3,0,0.4,0c0.1,0,0.2,0,0.4,0
				c0.1,0,0.2-0.1,0.3-0.1c0.1-0.1,0.2-0.1,0.2-0.2c0.1-0.1,0.1-0.2,0.1-0.3C162.9,178.2,162.9,178,162.9,177.9z"/>
			<path style="fill:#FFFFFF;" d="M170.6,180.3c-0.5,0.3-1.3,0.5-1.5,0.6l-0.1-0.5c0.2,0,0.3-0.1,0.6-0.2v-1.9h-0.6v-0.4h0.6v-1.3
				h0.4v1.3h0.4v0.4h-0.4v1.7c0.3-0.1,0.3-0.1,0.4-0.2L170.6,180.3z M171.2,177.8v0.7h1.1c0,0.5,0,1.8-0.2,2.2
				c-0.1,0.2-0.3,0.2-0.4,0.2h-0.4l-0.1-0.4l0.4,0c0.1,0,0.1,0,0.2-0.1c0.1-0.2,0.1-1.2,0.1-1.4h-0.7v0.2c0,0.9-0.2,1.8-0.8,2.4
				l-0.4-0.3c0.3-0.3,0.8-0.8,0.8-2.2v-1.7h1.8c0-0.1,0-0.8,0-0.9h0.4c0,0.3,0,0.5,0,0.9h1.1v0.4h-1.1c0,0.3,0,1.2,0.1,1.8
				c0.3-0.6,0.4-1.2,0.5-1.5l0.4,0.1c-0.1,0.3-0.3,1.2-0.8,2c0,0.2,0.2,0.8,0.3,0.8c0.1,0,0.2-0.4,0.2-0.6l0.3,0.3
				c-0.2,0.8-0.4,0.9-0.6,0.9c-0.4,0-0.6-0.5-0.7-0.9c-0.4,0.5-0.8,0.7-1.1,0.9l-0.3-0.4c0.3-0.1,0.8-0.4,1.2-1
				c-0.2-0.9-0.2-1.9-0.2-2.4H171.2z M173.8,177.4c-0.2-0.2-0.3-0.4-0.6-0.6l0.3-0.3c0.1,0.1,0.3,0.2,0.6,0.6L173.8,177.4z"/>
			<path style="fill:#FFFFFF;" d="M174.6,180.9c0.6-0.1,1.4-0.4,1.6-0.5v-2h-1.6v-0.4h1.6v-1.4h0.5v5.1h-0.5v-0.8
				c-0.1,0-0.9,0.3-1.5,0.5L174.6,180.9z M177.9,176.6v1.8c0.2-0.1,0.8-0.5,1.4-1l0.3,0.4c-0.6,0.5-1.4,0.9-1.8,1.1v2.1
				c0,0.1,0,0.2,0.2,0.2h0.8c0.2,0,0.3,0,0.3-1l0.5,0.2c0,0.9-0.1,1.3-0.6,1.3h-1.2c-0.1,0-0.5,0-0.5-0.4v-4.6H177.9z"/>
			<path style="fill:#FFFFFF;" d="M180.9,176.9v1.7c1.2-0.3,1.9-0.6,2.8-1l0.3,0.4c-0.3,0.2-1.1,0.6-3.1,1.1v1.3
				c0,0.3,0,0.4,0.6,0.4h1.7c0.4,0,0.8,0,1.2-0.1l0,0.5c-0.5,0.1-1.2,0.1-1.2,0.1h-1.7c-0.9,0-1.1-0.2-1.1-0.8v-3.6H180.9z
				 M184,177.6c-0.1-0.4-0.2-0.5-0.4-0.8l0.3-0.1c0.1,0.1,0.3,0.4,0.4,0.8L184,177.6z M184.7,177.4c-0.1-0.3-0.2-0.5-0.4-0.8
				l0.3-0.1c0.2,0.3,0.3,0.5,0.4,0.8L184.7,177.4z"/>
			<path style="fill:#FFFFFF;" d="M186.7,178.4c0,0.6-0.1,1.3-0.3,1.9c-0.2,0.7-0.6,1-0.8,1.2l-0.4-0.4c0.2-0.2,0.6-0.6,0.8-1.3
				c0.1-0.3,0.2-1,0.2-1.4v-1.5h0.5V178.4z M188.1,180.8c1-0.2,1.5-1,1.7-2.2l0.5,0.2c-0.5,2.4-2.1,2.6-2.7,2.6v-4.6h0.5V180.8z"/>
			<path style="fill:#FFFFFF;" d="M192.2,177.6c-0.1,0.2-0.3,0.3-0.4,0.4c-0.2,0.1-0.4,0.2-0.6,0.3v-0.1c0.1,0,0.2-0.1,0.3-0.1
				c0.1,0,0.2-0.1,0.2-0.1s0.2-0.1,0.2-0.2c0.1-0.1,0.1-0.1,0.2-0.2h0.1v3.7h-0.1L192.2,177.6L192.2,177.6z"/>
			<path style="fill:#FFFFFF;" d="M196.1,179.1v0.1H194v2h-0.1v-3.9h2.4v0.1H194v1.7H196.1z"/>
		</g>
	</g>
	<g>
		<g>
			<path style="fill:#FFFFFF;" d="M202.9,146.1v0.1h-2.7v2.5h-0.1v-5h3.1v0.1h-2.9v2.2H202.9z"/>
			<path style="fill:#FFFFFF;" d="M202.9,148.8h-0.2l2-5h0.2l2,5h-0.2l-0.7-1.6h-2.5L202.9,148.8z M204.9,143.9L204.9,143.9
				l-1.2,3.1h2.4L204.9,143.9z"/>
			<path style="fill:#FFFFFF;" d="M210.6,143.8l-1.8,2.4l1.9,2.6h-0.2l-1.8-2.5l-1.8,2.5h-0.2l1.9-2.6l-1.8-2.4h0.2l1.7,2.3l1.7-2.3
				H210.6z"/>
			<path style="fill:#FFFFFF;" d="M213.1,143.3h0.1v7h-0.1V143.3z"/>
			<path style="fill:#FFFFFF;" d="M219.6,147.3c-0.1,0.3-0.2,0.6-0.3,0.8c-0.1,0.2-0.3,0.4-0.6,0.6s-0.5,0.2-0.9,0.2
				c-0.3,0-0.6-0.1-0.9-0.2c-0.2-0.1-0.4-0.3-0.6-0.6c-0.1-0.2-0.2-0.5-0.3-0.8s-0.1-0.6-0.1-0.9s0-0.6,0.1-0.9s0.2-0.6,0.3-0.8
				c0.1-0.2,0.3-0.4,0.6-0.6c0.2-0.1,0.5-0.2,0.9-0.2c0.3,0,0.6,0.1,0.9,0.2s0.4,0.3,0.6,0.6c0.1,0.2,0.2,0.5,0.3,0.8
				s0.1,0.6,0.1,0.9S219.6,147,219.6,147.3z M219.5,145.6c-0.1-0.3-0.1-0.5-0.3-0.7c-0.1-0.2-0.3-0.4-0.5-0.5
				c-0.2-0.1-0.5-0.2-0.8-0.2c-0.3,0-0.6,0.1-0.8,0.2c-0.2,0.1-0.4,0.3-0.5,0.5c-0.1,0.2-0.2,0.5-0.3,0.7c-0.1,0.3-0.1,0.5-0.1,0.8
				c0,0.3,0,0.5,0.1,0.8c0.1,0.3,0.1,0.5,0.3,0.7s0.3,0.4,0.5,0.5c0.2,0.1,0.5,0.2,0.8,0.2c0.3,0,0.6-0.1,0.8-0.2
				c0.2-0.1,0.4-0.3,0.5-0.5s0.2-0.5,0.3-0.7c0.1-0.3,0.1-0.5,0.1-0.8C219.5,146.1,219.5,145.8,219.5,145.6z"/>
			<path style="fill:#FFFFFF;" d="M220.5,148.2c0.1,0.1,0.2,0.2,0.3,0.3c0.1,0.1,0.3,0.1,0.4,0.2s0.3,0,0.4,0c0.2,0,0.4,0,0.6-0.1
				c0.2-0.1,0.3-0.2,0.4-0.3c0.1-0.1,0.2-0.3,0.3-0.5c0.1-0.2,0.1-0.4,0.2-0.6c0-0.2,0.1-0.4,0.1-0.6c0-0.2,0-0.4,0-0.6h0
				c0,0.2-0.1,0.3-0.2,0.5c-0.1,0.1-0.2,0.3-0.3,0.4c-0.1,0.1-0.3,0.2-0.5,0.3s-0.4,0.1-0.5,0.1c-0.2,0-0.4,0-0.6-0.1
				c-0.2-0.1-0.4-0.2-0.5-0.3c-0.2-0.1-0.3-0.3-0.4-0.5c-0.1-0.2-0.1-0.4-0.1-0.7c0-0.2,0-0.5,0.1-0.7c0.1-0.2,0.2-0.4,0.4-0.5
				c0.2-0.1,0.3-0.3,0.5-0.3c0.2-0.1,0.4-0.1,0.6-0.1c0.2,0,0.3,0,0.5,0.1c0.1,0,0.3,0.1,0.4,0.2c0.1,0.1,0.2,0.1,0.3,0.2
				c0.1,0.1,0.2,0.2,0.2,0.3c0.1,0.2,0.2,0.4,0.3,0.7c0,0.3,0.1,0.6,0.1,0.9c0,0.3,0,0.6-0.1,0.9s-0.2,0.6-0.3,0.8
				c-0.1,0.2-0.3,0.5-0.6,0.6c-0.2,0.2-0.5,0.2-0.9,0.2c-0.2,0-0.4,0-0.6-0.1c-0.2-0.1-0.3-0.1-0.4-0.3s-0.2-0.2-0.3-0.4
				c-0.1-0.1-0.1-0.3-0.2-0.5h0.1C220.4,147.9,220.4,148,220.5,148.2z M223.1,145c-0.1-0.2-0.2-0.3-0.3-0.5
				c-0.1-0.1-0.3-0.2-0.5-0.3c-0.2-0.1-0.4-0.1-0.6-0.1s-0.4,0-0.6,0.1s-0.3,0.2-0.5,0.3c-0.1,0.1-0.2,0.3-0.3,0.5
				c-0.1,0.2-0.1,0.4-0.1,0.6s0,0.4,0.1,0.6c0.1,0.2,0.2,0.3,0.3,0.5c0.1,0.1,0.3,0.2,0.5,0.3c0.2,0.1,0.4,0.1,0.6,0.1
				s0.4,0,0.6-0.1c0.2-0.1,0.3-0.2,0.5-0.3c0.1-0.1,0.2-0.3,0.3-0.5s0.1-0.4,0.1-0.6S223.2,145.2,223.1,145z"/>
			<path style="fill:#FFFFFF;" d="M227.3,148.8h-3.2c0-0.2,0-0.4,0.1-0.5c0.1-0.2,0.2-0.3,0.4-0.5c0.1-0.1,0.3-0.3,0.5-0.4
				c0.2-0.1,0.4-0.3,0.5-0.4c0.2-0.1,0.4-0.3,0.5-0.4c0.2-0.1,0.3-0.3,0.5-0.4s0.2-0.3,0.3-0.5c0.1-0.2,0.1-0.3,0.1-0.5
				s0-0.4-0.1-0.5s-0.2-0.3-0.3-0.4c-0.1-0.1-0.3-0.2-0.4-0.2s-0.3-0.1-0.5-0.1c-0.2,0-0.5,0-0.6,0.1c-0.2,0.1-0.3,0.2-0.4,0.3
				c-0.1,0.1-0.2,0.3-0.2,0.5c-0.1,0.2-0.1,0.4-0.1,0.6h-0.1c0-0.5,0.1-0.9,0.4-1.2s0.6-0.4,1.1-0.4c0.2,0,0.4,0,0.6,0.1
				c0.2,0.1,0.3,0.1,0.5,0.2s0.2,0.2,0.3,0.4c0.1,0.2,0.1,0.3,0.1,0.6c0,0.3-0.1,0.5-0.2,0.7c-0.1,0.2-0.3,0.4-0.5,0.6
				c-0.2,0.2-0.4,0.4-0.7,0.5s-0.5,0.3-0.7,0.5c-0.2,0.2-0.4,0.3-0.6,0.5s-0.2,0.4-0.3,0.6h3.1V148.8z"/>
			<path style="fill:#FFFFFF;" d="M229.4,146.8v0.1h-1.2v-0.1H229.4z"/>
			<path style="fill:#FFFFFF;" d="M230.4,144h3v0.2c-0.3,0.3-0.6,0.7-0.9,1s-0.5,0.7-0.7,1.1s-0.3,0.8-0.4,1.2s-0.2,0.9-0.2,1.3
				h-0.1c0-0.5,0-0.9,0.1-1.3s0.2-0.8,0.4-1.2c0.2-0.4,0.4-0.7,0.7-1.1s0.6-0.7,0.9-1h-2.9V144z"/>
			<path style="fill:#FFFFFF;" d="M234.3,144.8c0.1-0.2,0.2-0.4,0.3-0.5c0.1-0.1,0.3-0.2,0.5-0.3s0.4-0.1,0.7-0.1
				c0.2,0,0.4,0,0.6,0.1s0.3,0.1,0.5,0.2c0.1,0.1,0.3,0.2,0.3,0.4s0.1,0.3,0.1,0.5c0,0.3-0.1,0.6-0.3,0.8c-0.2,0.2-0.4,0.3-0.7,0.3
				v0c0.1,0,0.3,0,0.4,0.1c0.1,0.1,0.3,0.1,0.4,0.2c0.1,0.1,0.2,0.2,0.3,0.4c0.1,0.1,0.1,0.3,0.1,0.5c0,0.2,0,0.4-0.1,0.6
				c-0.1,0.2-0.2,0.3-0.3,0.4c-0.1,0.1-0.3,0.2-0.5,0.3c-0.2,0.1-0.4,0.1-0.6,0.1c-0.3,0-0.5,0-0.7-0.1c-0.2-0.1-0.4-0.2-0.6-0.3
				c-0.2-0.1-0.3-0.3-0.3-0.5s-0.1-0.5-0.1-0.7h0.1c0,0.3,0,0.5,0.1,0.7c0.1,0.2,0.2,0.4,0.3,0.5c0.1,0.1,0.3,0.2,0.5,0.3
				c0.2,0.1,0.4,0.1,0.7,0.1c0.2,0,0.4,0,0.6-0.1c0.2-0.1,0.3-0.1,0.5-0.2c0.1-0.1,0.2-0.2,0.3-0.4s0.1-0.3,0.1-0.5
				c0-0.2,0-0.4-0.1-0.5c-0.1-0.1-0.2-0.3-0.3-0.4c-0.1-0.1-0.3-0.2-0.4-0.2c-0.2,0-0.3-0.1-0.5-0.1h-0.3v-0.1h0.3
				c0.2,0,0.3,0,0.5-0.1s0.3-0.1,0.4-0.2c0.1-0.1,0.2-0.2,0.3-0.3c0.1-0.1,0.1-0.3,0.1-0.5c0-0.2,0-0.4-0.1-0.5s-0.2-0.2-0.3-0.3
				c-0.1-0.1-0.3-0.1-0.4-0.2c-0.2,0-0.3-0.1-0.5-0.1c-0.2,0-0.4,0-0.6,0.1c-0.2,0.1-0.3,0.1-0.5,0.3c-0.1,0.1-0.2,0.3-0.3,0.4
				s-0.1,0.4-0.1,0.6h-0.1C234.2,145.2,234.3,145,234.3,144.8z"/>
			<path style="fill:#FFFFFF;" d="M241.1,146.5c0.2,0.2,0.3,0.5,0.3,0.9c0,0.2,0,0.5-0.1,0.6c-0.1,0.2-0.2,0.3-0.4,0.4
				s-0.3,0.2-0.5,0.3s-0.4,0.1-0.7,0.1s-0.5,0-0.7-0.1s-0.4-0.1-0.5-0.3s-0.3-0.3-0.4-0.4c-0.1-0.2-0.1-0.4-0.1-0.6
				c0-0.4,0.1-0.7,0.3-0.9c0.2-0.2,0.5-0.4,0.9-0.4v0c-0.1,0-0.3-0.1-0.4-0.1c-0.1-0.1-0.2-0.1-0.3-0.2c-0.1-0.1-0.2-0.2-0.2-0.3
				c-0.1-0.1-0.1-0.2-0.1-0.4c0-0.2,0-0.4,0.1-0.5c0.1-0.2,0.2-0.3,0.3-0.4c0.1-0.1,0.3-0.2,0.5-0.2c0.2,0,0.4-0.1,0.6-0.1
				c0.2,0,0.4,0,0.6,0.1c0.2,0,0.3,0.1,0.5,0.2c0.1,0.1,0.2,0.2,0.3,0.4c0.1,0.2,0.1,0.3,0.1,0.5c0,0.1,0,0.3-0.1,0.4
				c-0.1,0.1-0.1,0.2-0.2,0.3c-0.1,0.1-0.2,0.2-0.3,0.2c-0.1,0.1-0.2,0.1-0.4,0.1v0C240.6,146.2,240.9,146.3,241.1,146.5z
				 M241.1,146.9c-0.1-0.2-0.2-0.3-0.4-0.4c-0.1-0.1-0.3-0.2-0.5-0.2s-0.4-0.1-0.6-0.1c-0.2,0-0.4,0-0.6,0.1s-0.4,0.1-0.5,0.2
				c-0.1,0.1-0.3,0.2-0.4,0.4c-0.1,0.2-0.1,0.3-0.1,0.6s0,0.4,0.1,0.6c0.1,0.2,0.2,0.3,0.4,0.4c0.1,0.1,0.3,0.2,0.5,0.2
				s0.4,0.1,0.6,0.1s0.4,0,0.6-0.1s0.4-0.1,0.5-0.2c0.1-0.1,0.3-0.2,0.3-0.4c0.1-0.2,0.1-0.4,0.1-0.6S241.2,147,241.1,146.9z
				 M240.9,144.6c-0.1-0.1-0.2-0.2-0.3-0.3c-0.1-0.1-0.3-0.1-0.4-0.2c-0.2,0-0.3-0.1-0.5-0.1c-0.2,0-0.3,0-0.5,0.1
				c-0.2,0-0.3,0.1-0.4,0.2c-0.1,0.1-0.2,0.2-0.3,0.3c-0.1,0.1-0.1,0.3-0.1,0.5c0,0.2,0,0.3,0.1,0.4c0.1,0.1,0.2,0.2,0.3,0.3
				c0.1,0.1,0.3,0.1,0.4,0.2c0.2,0,0.3,0.1,0.5,0.1c0.2,0,0.3,0,0.5-0.1c0.2,0,0.3-0.1,0.4-0.2c0.1-0.1,0.2-0.2,0.3-0.3
				c0.1-0.1,0.1-0.3,0.1-0.4C241,144.9,241,144.8,240.9,144.6z"/>
			<path style="fill:#FFFFFF;" d="M243.4,146.8v0.1h-1.2v-0.1H243.4z"/>
			<path style="fill:#FFFFFF;" d="M247.6,147.3c-0.1,0.3-0.2,0.6-0.3,0.8c-0.1,0.2-0.3,0.4-0.6,0.6s-0.5,0.2-0.9,0.2
				c-0.3,0-0.6-0.1-0.9-0.2c-0.2-0.1-0.4-0.3-0.6-0.6c-0.1-0.2-0.2-0.5-0.3-0.8s-0.1-0.6-0.1-0.9s0-0.6,0.1-0.9s0.2-0.6,0.3-0.8
				c0.1-0.2,0.3-0.4,0.6-0.6c0.2-0.1,0.5-0.2,0.9-0.2c0.3,0,0.6,0.1,0.9,0.2s0.4,0.3,0.6,0.6c0.1,0.2,0.2,0.5,0.3,0.8
				s0.1,0.6,0.1,0.9S247.7,147,247.6,147.3z M247.5,145.6c-0.1-0.3-0.1-0.5-0.3-0.7c-0.1-0.2-0.3-0.4-0.5-0.5
				c-0.2-0.1-0.5-0.2-0.8-0.2c-0.3,0-0.6,0.1-0.8,0.2c-0.2,0.1-0.4,0.3-0.5,0.5c-0.1,0.2-0.2,0.5-0.3,0.7c-0.1,0.3-0.1,0.5-0.1,0.8
				c0,0.3,0,0.5,0.1,0.8c0.1,0.3,0.1,0.5,0.3,0.7s0.3,0.4,0.5,0.5c0.2,0.1,0.5,0.2,0.8,0.2c0.3,0,0.6-0.1,0.8-0.2
				c0.2-0.1,0.4-0.3,0.5-0.5s0.2-0.5,0.3-0.7c0.1-0.3,0.1-0.5,0.1-0.8C247.5,146.1,247.5,145.8,247.5,145.6z"/>
			<path style="fill:#FFFFFF;" d="M248.6,148.2c0.1,0.1,0.2,0.2,0.3,0.3c0.1,0.1,0.3,0.1,0.4,0.2s0.3,0,0.4,0c0.2,0,0.4,0,0.6-0.1
				c0.2-0.1,0.3-0.2,0.4-0.3c0.1-0.1,0.2-0.3,0.3-0.5c0.1-0.2,0.1-0.4,0.2-0.6c0-0.2,0.1-0.4,0.1-0.6c0-0.2,0-0.4,0-0.6h0
				c0,0.2-0.1,0.3-0.2,0.5c-0.1,0.1-0.2,0.3-0.3,0.4c-0.1,0.1-0.3,0.2-0.5,0.3s-0.4,0.1-0.5,0.1c-0.2,0-0.4,0-0.6-0.1
				c-0.2-0.1-0.4-0.2-0.5-0.3c-0.2-0.1-0.3-0.3-0.4-0.5c-0.1-0.2-0.1-0.4-0.1-0.7c0-0.2,0-0.5,0.1-0.7c0.1-0.2,0.2-0.4,0.4-0.5
				c0.2-0.1,0.3-0.3,0.5-0.3c0.2-0.1,0.4-0.1,0.6-0.1c0.2,0,0.3,0,0.5,0.1c0.1,0,0.3,0.1,0.4,0.2c0.1,0.1,0.2,0.1,0.3,0.2
				c0.1,0.1,0.2,0.2,0.2,0.3c0.1,0.2,0.2,0.4,0.3,0.7c0,0.3,0.1,0.6,0.1,0.9c0,0.3,0,0.6-0.1,0.9s-0.2,0.6-0.3,0.8
				c-0.1,0.2-0.3,0.5-0.6,0.6c-0.2,0.2-0.5,0.2-0.9,0.2c-0.2,0-0.4,0-0.6-0.1c-0.2-0.1-0.3-0.1-0.4-0.3s-0.2-0.2-0.3-0.4
				c-0.1-0.1-0.1-0.3-0.2-0.5h0.1C248.4,147.9,248.5,148,248.6,148.2z M251.1,145c-0.1-0.2-0.2-0.3-0.3-0.5
				c-0.1-0.1-0.3-0.2-0.5-0.3c-0.2-0.1-0.4-0.1-0.6-0.1s-0.4,0-0.6,0.1s-0.3,0.2-0.5,0.3c-0.1,0.1-0.2,0.3-0.3,0.5
				c-0.1,0.2-0.1,0.4-0.1,0.6s0,0.4,0.1,0.6c0.1,0.2,0.2,0.3,0.3,0.5c0.1,0.1,0.3,0.2,0.5,0.3c0.2,0.1,0.4,0.1,0.6,0.1
				s0.4,0,0.6-0.1c0.2-0.1,0.3-0.2,0.5-0.3c0.1-0.1,0.2-0.3,0.3-0.5s0.1-0.4,0.1-0.6S251.2,145.2,251.1,145z"/>
			<path style="fill:#FFFFFF;" d="M253.8,144.2c-0.1,0.2-0.3,0.4-0.6,0.5c-0.2,0.1-0.5,0.3-0.7,0.3v-0.1c0.1,0,0.3-0.1,0.4-0.2
				c0.1-0.1,0.2-0.1,0.3-0.2c0.1-0.1,0.2-0.1,0.3-0.2c0.1-0.1,0.2-0.2,0.3-0.3h0.2v4.8h-0.1L253.8,144.2L253.8,144.2z"/>
			<path style="fill:#FFFFFF;" d="M256.1,144.8c0.1-0.2,0.2-0.4,0.3-0.5c0.1-0.1,0.3-0.2,0.5-0.3s0.4-0.1,0.7-0.1
				c0.2,0,0.4,0,0.6,0.1s0.3,0.1,0.5,0.2c0.1,0.1,0.3,0.2,0.3,0.4s0.1,0.3,0.1,0.5c0,0.3-0.1,0.6-0.3,0.8c-0.2,0.2-0.4,0.3-0.7,0.3
				v0c0.1,0,0.3,0,0.4,0.1c0.1,0.1,0.3,0.1,0.4,0.2c0.1,0.1,0.2,0.2,0.3,0.4c0.1,0.1,0.1,0.3,0.1,0.5c0,0.2,0,0.4-0.1,0.6
				c-0.1,0.2-0.2,0.3-0.3,0.4c-0.1,0.1-0.3,0.2-0.5,0.3c-0.2,0.1-0.4,0.1-0.6,0.1c-0.3,0-0.5,0-0.7-0.1c-0.2-0.1-0.4-0.2-0.6-0.3
				c-0.2-0.1-0.3-0.3-0.3-0.5c-0.1-0.2-0.1-0.5-0.1-0.7h0.1c0,0.3,0,0.5,0.1,0.7c0.1,0.2,0.2,0.4,0.3,0.5c0.1,0.1,0.3,0.2,0.5,0.3
				c0.2,0.1,0.4,0.1,0.7,0.1c0.2,0,0.4,0,0.6-0.1c0.2-0.1,0.3-0.1,0.5-0.2c0.1-0.1,0.2-0.2,0.3-0.4s0.1-0.3,0.1-0.5
				c0-0.2,0-0.4-0.1-0.5c-0.1-0.1-0.2-0.3-0.3-0.4c-0.1-0.1-0.3-0.2-0.4-0.2c-0.2,0-0.3-0.1-0.5-0.1h-0.3v-0.1h0.3
				c0.2,0,0.3,0,0.5-0.1s0.3-0.1,0.4-0.2c0.1-0.1,0.2-0.2,0.3-0.3c0.1-0.1,0.1-0.3,0.1-0.5c0-0.2,0-0.4-0.1-0.5s-0.2-0.2-0.3-0.3
				c-0.1-0.1-0.3-0.1-0.4-0.2c-0.2,0-0.3-0.1-0.5-0.1c-0.2,0-0.4,0-0.6,0.1c-0.2,0.1-0.3,0.1-0.5,0.3c-0.1,0.1-0.2,0.3-0.3,0.4
				s-0.1,0.4-0.1,0.6H256C256,145.2,256.1,145,256.1,144.8z"/>
		</g>
	</g>
</g>
</svg>
