<?xml version="1.0" encoding="utf-8"?>
<!-- Generator: Adobe Illustrator 17.0.0, SVG Export Plug-In . SVG Version: 6.00 Build 0)  -->
<!DOCTYPE svg PUBLIC "-//W3C//DTD SVG 1.1//EN" "http://www.w3.org/Graphics/SVG/1.1/DTD/svg11.dtd">
<svg version="1.1" xmlns="http://www.w3.org/2000/svg" xmlns:xlink="http://www.w3.org/1999/xlink" x="0px" y="0px" width="331px"
	 height="228px" viewBox="0 0 331 228" style="enable-background:new 0 0 331 228;" xml:space="preserve">
<g id="レイヤ_xFF3C_x5B_x5F__x5F_1">
	<g>
		<g>
			<polyline style="fill:none;stroke:#000000;stroke-width:0.3;" points="2.9,191.4 28.4,191.4 28.4,225.4 			"/>
			<polyline style="fill:none;stroke:#000000;stroke-width:0.3;" points="36.9,225.4 36.9,199.9 2.9,199.9 			"/>
		</g>
		<g>
			<polyline style="fill:none;stroke:#000000;stroke-width:0.3;" points="2.9,35.2 28.4,35.2 28.4,1.2 			"/>
			<polyline style="fill:none;stroke:#000000;stroke-width:0.3;" points="36.9,1.2 36.9,26.7 2.9,26.7 			"/>
		</g>
		<g>
			<polyline style="fill:none;stroke:#000000;stroke-width:0.3;" points="329.2,35.2 303.7,35.2 303.7,1.2 			"/>
			<polyline style="fill:none;stroke:#000000;stroke-width:0.3;" points="295.1,1.2 295.1,26.7 329.2,26.7 			"/>
		</g>
		<g>
			<polyline style="fill:none;stroke:#000000;stroke-width:0.3;" points="329.2,191.4 303.7,191.4 303.7,225.4 			"/>
			<polyline style="fill:none;stroke:#000000;stroke-width:0.3;" points="295.1,225.4 295.1,199.9 329.2,199.9 			"/>
		</g>
		<g>
			<line style="fill:none;stroke:#000000;stroke-width:0.3;" x1="0" y1="114" x2="24" y2="114"/>
			<line style="fill:none;stroke:#000000;stroke-width:0.3;" x1="18" y1="78" x2="18" y2="150"/>
		</g>
		<g>
			<line style="fill:none;stroke:#000000;stroke-width:0.3;" x1="331" y1="114" x2="307" y2="114"/>
			<line style="fill:none;stroke:#000000;stroke-width:0.3;" x1="313" y1="150" x2="313" y2="78"/>
		</g>
		<g>
			<line style="fill:none;stroke:#000000;stroke-width:0.3;" x1="130" y1="18" x2="202" y2="18"/>
			<line style="fill:none;stroke:#000000;stroke-width:0.3;" x1="166" y1="0" x2="166" y2="24"/>
		</g>
		<g>
			<line style="fill:none;stroke:#000000;stroke-width:0.3;" x1="202" y1="210" x2="130" y2="210"/>
			<line style="fill:none;stroke:#000000;stroke-width:0.3;" x1="166" y1="228" x2="166" y2="204"/>
		</g>
	</g>
</g>
<g id="Layer_2">
	<rect id="XMLID_50_" x="28.5" y="25.8" style="fill:#1F2325;" width="275" height="173.3"/>
	<g>
		<path id="XMLID_25_" style="fill:#FFFFFF;" d="M205.3,101.8c1.2,0,2.3,0.7,2.7,1.8l0.1,0.3l11.4,28c-0.2,0-0.5,0.1-0.8,0.1
			c-0.9,0-2.2-0.4-3.1-2.3l-10.1-24.9l-0.2-0.5l-0.2,0.5L205,105l-6.2,15.3l-0.1,0.3h0.3l7.1,0c3,0.2,3.5,2.2,3.5,2.8h-11.9h-0.1
			l-0.1,0.1l-2.5,6.2c-0.9,1.9-2.2,2.3-3.1,2.3c-0.4,0-0.7-0.1-0.8-0.1l11.5-28.3C203,102.5,204.1,101.8,205.3,101.8"/>
		<path id="XMLID_24_" style="fill:#FFFFFF;" d="M182.9,102.3v25.3l0,0.5c0,3.4-2.2,3.9-2.8,4v-25.2v-0.6
			C180.1,102.9,182.3,102.4,182.9,102.3"/>
		<g id="XMLID_21_">
			<path id="XMLID_23_" style="fill:#FFFFFF;" d="M156.2,113.6c0.5-0.6,1-1.1,1.5-1.7l-5.4-7.5l0,0c0,0,0-0.1-0.1-0.1
				c-0.9-1.3-2-2-3.1-2c-0.7,0-1.2,0.3-1.5,0.4l8.1,11.3C155.9,113.9,156.1,113.8,156.2,113.6z"/>
			<path id="XMLID_22_" style="fill:#FFFFFF;" d="M160.4,117.1l-0.4,0.5c-0.2,0.3-0.4,0.6-0.6,0.8c-0.1,0.1-0.2,0.3-0.3,0.4
				l8.4,11.8c0.8,1,1.8,1.5,2.8,1.5c0.7,0,1.3-0.3,1.5-0.4l-11-15.3C160.8,116.6,160.6,116.9,160.4,117.1z"/>
		</g>
		<g id="XMLID_13_">
			<defs>
				<path id="XMLID_16_" d="M190.1,89.8c0,0-0.9,0.5-2.4,1.4c-0.8,0.4-1.7,1-2.7,1.7c-0.3,0.2-0.5,0.3-0.8,0.5
					c-0.3,0.2-0.6,0.4-0.8,0.6c-0.6,0.4-1.2,0.8-1.8,1.2c-1.2,0.9-2.6,1.8-3.9,2.9c-0.7,0.5-1.4,1.1-2.1,1.7
					c-0.7,0.6-1.4,1.2-2.1,1.8c-1.4,1.3-2.9,2.6-4.3,4c-0.7,0.7-1.4,1.4-2.1,2.2c-0.7,0.7-1.4,1.5-2,2.2l-1,1.1l-1,1.2
					c-0.6,0.8-1.2,1.6-1.9,2.3c-0.6,0.8-1.2,1.6-1.7,2.4c-0.5,0.8-1.1,1.6-1.6,2.4c-1,1.6-2,3.1-2.9,4.6c-0.8,1.5-1.6,2.9-2.3,4.2
					c-0.7,1.4-1.3,2.7-1.8,3.9h-6.3c0.8-1.7,2-3.9,3.7-6.5c0.8-1.3,1.8-2.8,2.8-4.2c1.1-1.5,2.2-3,3.4-4.5c0.6-0.8,1.3-1.5,1.9-2.3
					c0.7-0.8,1.3-1.5,2-2.3c0.7-0.7,1.4-1.5,2.1-2.2l1.1-1.1l1.1-1.1c0.7-0.7,1.5-1.4,2.3-2.1c0.8-0.7,1.6-1.3,2.3-2
					c1.6-1.3,3.2-2.5,4.7-3.7c0.8-0.6,1.6-1.1,2.3-1.6c0.8-0.5,1.5-1,2.3-1.5c1.5-1,2.9-1.8,4.3-2.6c0.7-0.4,1.3-0.7,1.9-1.1
					c0.3-0.2,0.6-0.3,0.9-0.5c0.3-0.2,0.6-0.3,0.9-0.4c1.1-0.6,2.1-1.1,2.9-1.4C189.2,90.3,190.1,89.8,190.1,89.8"/>
			</defs>
			<clipPath id="XMLID_2_">
				<use xlink:href="#XMLID_16_"  style="overflow:visible;"/>
			</clipPath>
			<g id="XMLID_18_" style="clip-path:url(#XMLID_2_);">
				
					<linearGradient id="XMLID_3_" gradientUnits="userSpaceOnUse" x1="-234.6524" y1="507.0848" x2="-234.3825" y2="507.0848" gradientTransform="matrix(172.0762 0 0 -172.0762 40521.9453 87368.2422)">
					<stop  offset="0" style="stop-color:#FFED12"/>
					<stop  offset="0.7872" style="stop-color:#F7B119"/>
					<stop  offset="1" style="stop-color:#CF691C"/>
				</linearGradient>
				<rect id="XMLID_19_" x="143.8" y="89.5" style="fill:url(#XMLID_3_);" width="46.4" height="43.1"/>
			</g>
		</g>
		<g>
			<path style="fill:#FFFFFF;" d="M144.5,135.6h0.3v0.3c0.1-0.1,0.1-0.2,0.2-0.2c0.1-0.1,0.2-0.1,0.3-0.1c0.1,0,0.3,0,0.3,0.1
				c0,0,0.1,0.1,0.1,0.2c0.1-0.1,0.1-0.2,0.2-0.2c0.1,0,0.2-0.1,0.3-0.1c0.2,0,0.4,0.1,0.5,0.3c0,0.1,0.1,0.2,0.1,0.4v1.2h-0.3v-1.2
				c0-0.1,0-0.2-0.1-0.2c-0.1,0-0.1-0.1-0.2-0.1c-0.1,0-0.2,0-0.3,0.1c-0.1,0.1-0.1,0.2-0.1,0.4v1h-0.3v-1.2c0-0.1,0-0.2,0-0.3
				c0-0.1-0.1-0.1-0.3-0.1c-0.1,0-0.2,0-0.3,0.1c-0.1,0.1-0.1,0.2-0.1,0.5v0.9h-0.3V135.6z"/>
			<path style="fill:#FFFFFF;" d="M151.4,136.3c0.1,0,0.1,0,0.1-0.1c0,0,0-0.1,0-0.1c0-0.1,0-0.2-0.1-0.2c-0.1,0-0.2-0.1-0.3-0.1
				c-0.2,0-0.3,0-0.3,0.1c0,0-0.1,0.1-0.1,0.2h-0.3c0-0.2,0.1-0.4,0.2-0.5c0.1-0.1,0.3-0.1,0.5-0.1c0.2,0,0.4,0,0.5,0.1
				c0.1,0.1,0.2,0.2,0.2,0.4v1c0,0,0,0.1,0,0.1c0,0,0,0,0.1,0c0,0,0,0,0,0c0,0,0,0,0.1,0v0.2c0,0-0.1,0-0.1,0c0,0-0.1,0-0.1,0
				c-0.1,0-0.2,0-0.2-0.1c0,0,0-0.1-0.1-0.2c-0.1,0.1-0.1,0.1-0.3,0.2c-0.1,0.1-0.2,0.1-0.4,0.1c-0.2,0-0.3-0.1-0.4-0.2
				c-0.1-0.1-0.2-0.2-0.2-0.4c0-0.2,0.1-0.3,0.2-0.4c0.1-0.1,0.2-0.1,0.4-0.2L151.4,136.3z M150.7,137.1c0.1,0.1,0.1,0.1,0.2,0.1
				c0.1,0,0.2,0,0.3-0.1c0.2-0.1,0.2-0.2,0.2-0.4v-0.2c0,0-0.1,0-0.1,0.1c-0.1,0-0.1,0-0.2,0l-0.2,0c-0.1,0-0.2,0-0.2,0.1
				c-0.1,0.1-0.1,0.1-0.1,0.2C150.6,137,150.7,137,150.7,137.1z"/>
			<path style="fill:#FFFFFF;" d="M155.4,135.6h0.3v0.3c0-0.1,0.1-0.1,0.2-0.2c0.1-0.1,0.2-0.1,0.3-0.1c0,0,0,0,0,0c0,0,0,0,0.1,0
				v0.3c0,0,0,0,0,0c0,0,0,0,0,0c-0.2,0-0.3,0-0.3,0.1c-0.1,0.1-0.1,0.2-0.1,0.3v1h-0.3V135.6z"/>
			<path style="fill:#FFFFFF;" d="M159.6,134.9h0.3v1.4l0.8-0.8h0.4l-0.7,0.7l0.7,1.1h-0.4l-0.6-0.9l-0.2,0.2v0.7h-0.3V134.9z"/>
			<path style="fill:#FFFFFF;" d="M165.5,135.6c0.1,0.1,0.2,0.1,0.3,0.2c0.1,0.1,0.1,0.2,0.1,0.3c0,0.1,0,0.2,0,0.4h-1.3
				c0,0.2,0,0.3,0.1,0.4c0.1,0.1,0.2,0.2,0.4,0.2c0.2,0,0.3-0.1,0.4-0.2c0.1-0.1,0.1-0.1,0.1-0.2h0.3c0,0.1,0,0.1-0.1,0.2
				c0,0.1-0.1,0.1-0.1,0.2c-0.1,0.1-0.2,0.1-0.3,0.2c-0.1,0-0.2,0-0.2,0c-0.2,0-0.4-0.1-0.6-0.2c-0.2-0.2-0.2-0.4-0.2-0.7
				c0-0.3,0.1-0.5,0.2-0.7c0.2-0.2,0.4-0.3,0.6-0.3C165.2,135.5,165.3,135.6,165.5,135.6z M165.6,136.3c0-0.1,0-0.2-0.1-0.3
				c-0.1-0.1-0.2-0.2-0.4-0.2c-0.1,0-0.3,0-0.3,0.1c-0.1,0.1-0.1,0.2-0.1,0.4H165.6z"/>
			<path style="fill:#FFFFFF;" d="M169.4,135.1h0.3v0.5h0.3v0.2h-0.3v1.2c0,0.1,0,0.1,0.1,0.1c0,0,0.1,0,0.1,0c0,0,0,0,0,0
				c0,0,0,0,0.1,0v0.2c0,0-0.1,0-0.1,0c0,0-0.1,0-0.1,0c-0.1,0-0.2,0-0.3-0.1c-0.1-0.1-0.1-0.2-0.1-0.3v-1.2h-0.2v-0.2h0.2V135.1z"
				/>
			<path style="fill:#FFFFFF;" d="M177.4,134.9h0.3v0.3h-0.3V134.9z M177.4,135.6h0.3v1.8h-0.3V135.6z"/>
			<path style="fill:#FFFFFF;" d="M181.2,135.6h0.3v0.3c0.1-0.1,0.2-0.2,0.3-0.2c0.1,0,0.2-0.1,0.3-0.1c0.3,0,0.4,0.1,0.5,0.3
				c0,0.1,0.1,0.2,0.1,0.4v1.1h-0.3v-1.1c0-0.1,0-0.2,0-0.3c-0.1-0.1-0.1-0.2-0.3-0.2c-0.1,0-0.1,0-0.2,0c-0.1,0-0.2,0.1-0.2,0.1
				c0,0.1-0.1,0.1-0.1,0.2c0,0.1,0,0.2,0,0.3v0.9h-0.3V135.6z"/>
			<path style="fill:#FFFFFF;" d="M186.2,135.6h0.3v0.3c0.1-0.1,0.2-0.2,0.3-0.2c0.1,0,0.2-0.1,0.3-0.1c0.3,0,0.4,0.1,0.5,0.3
				c0,0.1,0.1,0.2,0.1,0.4v1.1h-0.3v-1.1c0-0.1,0-0.2,0-0.3c-0.1-0.1-0.1-0.2-0.3-0.2c-0.1,0-0.1,0-0.2,0c-0.1,0-0.2,0.1-0.2,0.1
				c0,0.1-0.1,0.1-0.1,0.2c0,0.1,0,0.2,0,0.3v0.9h-0.3V135.6z"/>
			<path style="fill:#FFFFFF;" d="M192.4,135.8c0.2,0.2,0.2,0.4,0.2,0.7c0,0.3-0.1,0.5-0.2,0.7c-0.1,0.2-0.4,0.3-0.6,0.3
				c-0.2,0-0.4-0.1-0.6-0.2c-0.1-0.2-0.2-0.4-0.2-0.7c0-0.3,0.1-0.5,0.2-0.7c0.2-0.2,0.4-0.3,0.6-0.3
				C192.1,135.5,192.3,135.6,192.4,135.8z M192.2,136.9c0.1-0.2,0.1-0.3,0.1-0.5c0-0.2,0-0.3-0.1-0.4c-0.1-0.2-0.2-0.2-0.4-0.2
				c-0.2,0-0.3,0.1-0.4,0.2c-0.1,0.1-0.1,0.3-0.1,0.5c0,0.2,0,0.3,0.1,0.5c0.1,0.1,0.2,0.2,0.4,0.2
				C192,137.2,192.2,137.1,192.2,136.9z"/>
			<path style="fill:#FFFFFF;" d="M196.3,135.6l0.5,1.5l0.5-1.5h0.3l-0.7,1.8h-0.3l-0.7-1.8H196.3z"/>
			<path style="fill:#FFFFFF;" d="M201.8,136.3c0.1,0,0.1,0,0.1-0.1c0,0,0-0.1,0-0.1c0-0.1,0-0.2-0.1-0.2c-0.1,0-0.2-0.1-0.3-0.1
				c-0.2,0-0.3,0-0.3,0.1c0,0-0.1,0.1-0.1,0.2h-0.3c0-0.2,0.1-0.4,0.2-0.5c0.1-0.1,0.3-0.1,0.5-0.1c0.2,0,0.4,0,0.5,0.1
				c0.1,0.1,0.2,0.2,0.2,0.4v1c0,0,0,0.1,0,0.1c0,0,0,0,0.1,0c0,0,0,0,0,0c0,0,0,0,0.1,0v0.2c0,0-0.1,0-0.1,0c0,0-0.1,0-0.1,0
				c-0.1,0-0.2,0-0.2-0.1c0,0,0-0.1-0.1-0.2c-0.1,0.1-0.1,0.1-0.3,0.2c-0.1,0.1-0.2,0.1-0.4,0.1c-0.2,0-0.3-0.1-0.4-0.2
				c-0.1-0.1-0.2-0.2-0.2-0.4c0-0.2,0.1-0.3,0.2-0.4c0.1-0.1,0.2-0.1,0.4-0.2L201.8,136.3z M201.2,137.1c0.1,0.1,0.1,0.1,0.2,0.1
				c0.1,0,0.2,0,0.3-0.1c0.2-0.1,0.3-0.2,0.3-0.4v-0.2c0,0-0.1,0-0.1,0.1c-0.1,0-0.1,0-0.2,0l-0.2,0c-0.1,0-0.2,0-0.2,0.1
				c-0.1,0.1-0.1,0.1-0.1,0.2C201.1,137,201.2,137,201.2,137.1z"/>
			<path style="fill:#FFFFFF;" d="M205.9,135.1h0.3v0.5h0.3v0.2h-0.3v1.2c0,0.1,0,0.1,0.1,0.1c0,0,0.1,0,0.1,0c0,0,0,0,0,0
				c0,0,0,0,0.1,0v0.2c0,0-0.1,0-0.1,0c0,0-0.1,0-0.1,0c-0.1,0-0.2,0-0.3-0.1c-0.1-0.1-0.1-0.2-0.1-0.3v-1.2h-0.2v-0.2h0.2V135.1z"
				/>
			<path style="fill:#FFFFFF;" d="M209.9,134.9h0.3v0.3h-0.3V134.9z M209.9,135.6h0.3v1.8h-0.3V135.6z"/>
			<path style="fill:#FFFFFF;" d="M215,135.8c0.2,0.2,0.2,0.4,0.2,0.7c0,0.3-0.1,0.5-0.2,0.7c-0.1,0.2-0.4,0.3-0.6,0.3
				c-0.2,0-0.4-0.1-0.6-0.2c-0.1-0.2-0.2-0.4-0.2-0.7c0-0.3,0.1-0.5,0.2-0.7c0.2-0.2,0.4-0.3,0.6-0.3
				C214.7,135.5,214.8,135.6,215,135.8z M214.8,136.9c0.1-0.2,0.1-0.3,0.1-0.5c0-0.2,0-0.3-0.1-0.4c-0.1-0.2-0.2-0.2-0.4-0.2
				c-0.2,0-0.3,0.1-0.4,0.2c-0.1,0.1-0.1,0.3-0.1,0.5c0,0.2,0,0.3,0.1,0.5c0.1,0.1,0.2,0.2,0.4,0.2
				C214.6,137.2,214.7,137.1,214.8,136.9z"/>
			<path style="fill:#FFFFFF;" d="M218.7,135.6h0.3v0.3c0.1-0.1,0.2-0.2,0.3-0.2c0.1,0,0.2-0.1,0.3-0.1c0.3,0,0.4,0.1,0.5,0.3
				c0,0.1,0.1,0.2,0.1,0.4v1.1h-0.3v-1.1c0-0.1,0-0.2,0-0.3c-0.1-0.1-0.1-0.2-0.3-0.2c-0.1,0-0.1,0-0.2,0c-0.1,0-0.2,0.1-0.2,0.1
				c0,0.1-0.1,0.1-0.1,0.2c0,0.1,0,0.2,0,0.3v0.9h-0.3V135.6z"/>
		</g>
		<path id="XMLID_12_" style="fill:#FFFFFF;" d="M125.3,104.8l10.1,24.9c0.9,1.9,2.2,2.3,3.1,2.3c0.4,0,0.7-0.1,0.8-0.1l-11.4-28
			l-0.1-0.3c-0.5-1.1-1.5-1.8-2.7-1.8c-1.2,0-2.3,0.7-2.8,1.8l-11.5,28.3c0.2,0,0.5,0.1,0.8,0.1c0.9,0,2.2-0.4,3.1-2.3l2.5-6.2
			l0.1-0.1h0.1h11.9c-0.1-0.6-0.5-2.6-3.5-2.8l-7.1,0h-0.3l0.1-0.3l6.2-15.3l0.1-0.2l0.2-0.5L125.3,104.8z"/>
	</g>
</g>
<g id="Layer_3">
</g>
</svg>
