<?xml version="1.0" encoding="utf-8"?>
<!-- Generator: Adobe Illustrator 17.0.0, SVG Export Plug-In . SVG Version: 6.00 Build 0)  -->
<!DOCTYPE svg PUBLIC "-//W3C//DTD SVG 1.1//EN" "http://www.w3.org/Graphics/SVG/1.1/DTD/svg11.dtd">
<svg version="1.1" id="Layer_1" xmlns="http://www.w3.org/2000/svg" xmlns:xlink="http://www.w3.org/1999/xlink" x="0px" y="0px"
	 width="330.2px" height="226.2px" viewBox="0 0 330.2 226.2" style="enable-background:new 0 0 330.2 226.2;" xml:space="preserve"
	>
<g id="Layer_1_1_">
	<g>
		<g>
			<polyline style="fill:none;stroke:#000000;stroke-width:0.25;" points="2,192.2 27.5,192.2 27.5,226.2 			"/>
			<polyline style="fill:none;stroke:#000000;stroke-width:0.25;" points="36,226.2 36,200.7 2,200.7 			"/>
		</g>
		<g>
			<polyline style="fill:none;stroke:#000000;stroke-width:0.25;" points="2,36 27.5,36 27.5,2 			"/>
			<polyline style="fill:none;stroke:#000000;stroke-width:0.25;" points="36,2 36,27.5 2,27.5 			"/>
		</g>
		<g>
			<polyline style="fill:none;stroke:#000000;stroke-width:0.25;" points="328.2,36 302.7,36 302.7,2 			"/>
			<polyline style="fill:none;stroke:#000000;stroke-width:0.25;" points="294.2,2 294.2,27.5 328.2,27.5 			"/>
		</g>
		<g>
			<polyline style="fill:none;stroke:#000000;stroke-width:0.25;" points="328.2,192.2 302.7,192.2 302.7,226.2 			"/>
			<polyline style="fill:none;stroke:#000000;stroke-width:0.25;" points="294.2,226.2 294.2,200.7 328.2,200.7 			"/>
		</g>
		<g>
			<line style="fill:none;stroke:#000000;stroke-width:0.25;" x1="0" y1="114.1" x2="24" y2="114.1"/>
			<line style="fill:none;stroke:#000000;stroke-width:0.25;" x1="18" y1="78.1" x2="18" y2="150.1"/>
		</g>
		<g>
			<line style="fill:none;stroke:#000000;stroke-width:0.25;" x1="330.2" y1="114.1" x2="306.2" y2="114.1"/>
			<line style="fill:none;stroke:#000000;stroke-width:0.25;" x1="312.2" y1="150.1" x2="312.2" y2="78.1"/>
		</g>
		<g>
			<line style="fill:none;stroke:#000000;stroke-width:0.25;" x1="129.1" y1="18" x2="201.1" y2="18"/>
			<line style="fill:none;stroke:#000000;stroke-width:0.25;" x1="165.1" y1="0" x2="165.1" y2="24"/>
		</g>
		<g>
			<line style="fill:none;stroke:#000000;stroke-width:0.25;" x1="201.1" y1="210.2" x2="129.1" y2="210.2"/>
			<line style="fill:none;stroke:#000000;stroke-width:0.25;" x1="165.1" y1="228.2" x2="165.1" y2="204.2"/>
		</g>
	</g>
</g>
<g id="Layer_2">
	<text transform="matrix(1 0 0 1 131.4185 86.8969)" style="fill:#A85C2E; font-family:'GillSans'; font-size:10;">Patricia Gibson</text>
	<text transform="matrix(1 0 0 1 138.2185 98.8969)" style="fill:#A85C2E; font-family:'GillSans-Light'; font-size:10;">Art Teacher</text>
	<g>
		<g>
			<rect id="SVGID_10_" x="27.5" y="27.6" style="fill:#F7F7D9;" width="275" height="172.9"/>
		</g>
	</g>
	<g>
		<g>
			<path style="fill:#A85C2E;" d="M195.9,74c0.2,0,0.3,0.1,0.2,0.1c0.3-0.1,0.3,0,0.4-0.2c0.2-0.1,0.4,0,0.2,0.1l0.6-0.1H197
				c0.1-0.2,0.6,0,0.7-0.1h-0.6v-0.1c-0.1,0.1-0.4,0-0.5,0c0,0,0-0.1,0.1-0.1C195.9,73.6,196.5,73.9,195.9,74
				C195.8,74,195.8,74,195.9,74z"/>
			<path style="fill:#A85C2E;" d="M195.2,73.6l-0.3,0.2h-0.4c0,0.1-0.3,0.1-0.1,0.2c0,0,0.1,0,0.2,0c0,0.1-0.6,0.1-0.5,0.2
				c0.4,0,0.4,0,0.6-0.1c0.3,0,0.6,0,0.7,0.1c0.1,0,0.1-0.1,0.2-0.1h-0.1v-0.2c-0.1,0-0.2,0-0.3,0l0.5-0.3c-0.2-0.2-0.7-0.1-0.9-0.2
				C195.2,73.6,194.7,73.5,195.2,73.6z"/>
			<path style="fill:#A85C2E;" d="M195.7,74L195.7,74L195.7,74z"/>
			<path style="fill:#A85C2E;" d="M156.9,75.3c-0.1,0-0.1,0.1-0.2,0.1h1.2c0-0.1-0.4-0.1-0.2-0.2c-0.1-0.1-0.4,0-0.5,0.1l0.1-0.1
				c-0.3,0.1-0.5-0.1-0.3-0.2l0,0l-0.8,0.4C156.6,75.4,156.5,75.3,156.9,75.3z"/>
			<path style="fill:#A85C2E;" d="M131.4,75c0.2,0,0.2,0,0.2-0.1C131.5,75,131.4,75,131.4,75z"/>
			<path style="fill:#A85C2E;" d="M156.1,75.5l-0.2,0.1C156,75.6,156.1,75.6,156.1,75.5z"/>
			<path style="fill:#A85C2E;" d="M157.9,73.5C157.9,73.4,157.9,73.4,157.9,73.5h-0.1l0,0H157.9z"/>
			<path style="fill:#A85C2E;" d="M150.5,76L150.5,76C150.4,76,150.5,76,150.5,76z"/>
			<path style="fill:#A85C2E;" d="M161.2,72.7l-0.6,0.1c0.1-0.1-0.2,0-0.1-0.1c0,0-0.2,0-0.2,0.1h0.1c-0.3,0.2-0.1,0.2-0.6,0.4
				c0.3,0.1,0.4,0,0.6-0.1c0.1,0,0.1,0,0.1,0l0.5-0.3L161.2,72.7z"/>
			<path style="fill:#A85C2E;" d="M139.1,74L139.1,74L139.1,74z"/>
			<path style="fill:#A85C2E;" d="M139.1,73.9L139.1,73.9C139.1,74,139.2,74,139.1,73.9z"/>
			<path style="fill:#A85C2E;" d="M156.2,75.4c0,0,0,0.1-0.1,0.1L156.2,75.4C156.3,75.4,156.3,75.4,156.2,75.4z"/>
			<path style="fill:#A85C2E;" d="M156.7,75h0.5l0.2-0.1C157.1,74.9,156.9,74.9,156.7,75z"/>
			<path style="fill:#A85C2E;" d="M151.2,76.1c-1,0,0.2-0.2-0.2-0.3c-0.3,0-0.4,0.1-0.5,0.2c0.8-0.1-0.1,0.3,0.7,0.3
				c-0.1,0.2-0.6,0.2-0.8,0.1c-0.3-0.2,0.3-0.1,0.3-0.3c-0.3,0-0.3,0.1-0.4,0.2c-0.5,0-1,0.2-1.3,0c-0.4,0-0.3,0.1-0.5,0.2
				c0,0.2,0.5,0.1,0.7,0.2c0,0-0.1,0-0.1-0.1h0.3c-0.3-0.1,0-0.2,0.2-0.2c0.1,0,0.3,0,0.3,0h-0.2c0.2,0.1,0.5-0.1,0.7,0l-0.1,0.1
				c0.3-0.1,0.5-0.1,0.9-0.2l-0.2,0.2c0.3-0.2,1-0.1,1.5,0c-0.1,0-0.1-0.1-0.1-0.1c0.3,0,0.5,0.1,0.4,0.2c0.3-0.2,1.1,0.1,1.4-0.1
				l1.7-0.9c-0.1,0-0.1,0-0.2,0.1c-0.2-0.2-0.2-0.1,0-0.3c-0.3,0.1-0.2,0.2-0.6,0.2c0.2-0.1,0.2-0.3-0.2-0.3c-1,0.2-1.6,0.6-2.5,0.9
				C152.4,76.1,151.7,76.1,151.2,76.1c0.2-0.1,0.5-0.2,0.8-0.2c-0.2,0-0.5,0-0.7,0L151.2,76.1z"/>
			<path style="fill:#A85C2E;" d="M153.5,75.7C153.5,75.7,153.4,75.7,153.5,75.7C153.4,75.7,153.5,75.7,153.5,75.7z"/>
			<polygon style="fill:#A85C2E;" points="152.1,75.9 152.1,75.9 152,75.9 			"/>
			<path style="fill:#A85C2E;" d="M156,75.1c0.1,0,0.1,0,0.2-0.1C156.1,75,156.1,75.1,156,75.1L156,75.1z"/>
			<path style="fill:#A85C2E;" d="M156.2,75.3L156.2,75.3C156.2,75.4,156.2,75.4,156.2,75.3C156.2,75.4,156.2,75.3,156.2,75.3z"/>
			<path style="fill:#A85C2E;" d="M147.5,75L147.5,75L147.5,75z"/>
			<path style="fill:#A85C2E;" d="M150.2,75.9c0.3,0,0-0.2,0.5-0.2h-0.1c0.3-0.1,0.9,0,1.3,0c0,0.1,0.2,0.1,0.2,0.2
				c0.3,0,0.6-0.1,0.7-0.2c0.2,0,0.4-0.1,0.6,0c-0.1-0.1,0.3-0.2-0.2-0.2c0,0,0,0,0.1,0c-0.3-0.1-0.5,0.1-0.8,0.1
				c-0.2-0.1,0.3-0.1,0.1-0.1c-0.4,0.1-1.2-0.1-1.1,0.2c-0.3,0-0.3,0-0.4-0.1c-0.4,0.3-1.6-0.1-1.6,0.2c0.2,0,0.4,0,0.6-0.1
				L150.2,75.9z"/>
			<path style="fill:#A85C2E;" d="M155.4,75.1L155.4,75.1L155.4,75.1z"/>
			<path style="fill:#A85C2E;" d="M159.7,76.2l-0.1,0.2c-0.8,0.1-1.1,0-1.8,0c-0.1,0,0-0.1,0.1-0.1c-0.5,0-1.2,0-1.6,0.1
				c-0.2,0-0.6-0.1-0.4-0.1c-0.1,0-0.2,0-0.3,0c0-0.1,0.2,0,0.2-0.1c-0.1,0-0.1,0-0.1,0c0.1-0.1-0.1-0.3,0.4-0.3
				c0.2,0.2-0.4,0-0.3,0.2c0.2,0,0.2-0.1,0.2-0.1c0.2,0,0.2,0.1,0.2,0.1c0.1-0.1,0.4,0,0.5-0.1c0.4,0,0,0.2,0.3,0.2l0.2-0.2h0.5
				c0.7-0.1-0.1-0.4,0.7-0.5c-0.1,0.1,0.2,0.3,0.6,0.3c-0.2,0-0.6,0.2-0.9,0.1c0.4,0.2-0.6,0-0.3,0.2c0.2-0.1,0.5-0.1,0.8-0.1h-0.1
				c0.3,0,0.5-0.2,0.9-0.1c0.2,0,0.2,0.1,0.1,0.1C159.5,76.2,159.7,76.1,159.7,76.2z M159.3,76.2H159
				C159.1,76.2,159.2,76.2,159.3,76.2z"/>
			<path style="fill:#A85C2E;" d="M191.7,73.6L191.7,73.6C191.7,73.7,191.7,73.6,191.7,73.6z"/>
			<path style="fill:#A85C2E;" d="M169,73.6h0.1H169z"/>
			<path style="fill:#A85C2E;" d="M172.3,72.8l0.2-0.1C172.5,72.8,172.4,72.8,172.3,72.8z"/>
			<path style="fill:#A85C2E;" d="M189.9,73.6L189.9,73.6L189.9,73.6L189.9,73.6z"/>
			<path style="fill:#A85C2E;" d="M179,73.4h0.1H179z"/>
			<polygon style="fill:#A85C2E;" points="172.3,72.9 172.3,72.9 172.3,72.8 			"/>
			<path style="fill:#A85C2E;" d="M167.5,72.9L167.5,72.9L167.5,72.9z"/>
			<path style="fill:#A85C2E;" d="M167.8,73.5C167.7,73.5,167.7,73.6,167.8,73.5L167.8,73.5z"/>
			<path style="fill:#A85C2E;" d="M162.6,73.1h-0.2C162.5,73.1,162.6,73.1,162.6,73.1z"/>
			<path style="fill:#A85C2E;" d="M167.2,73.4L167.2,73.4L167.2,73.4z"/>
			<path style="fill:#A85C2E;" d="M192.9,74.3L192.9,74.3L192.9,74.3z"/>
			<path style="fill:#A85C2E;" d="M193.4,74h0.2C193.5,74,193.5,74,193.4,74z"/>
			<path style="fill:#A85C2E;" d="M181.9,73.7c0.1,0,0.2,0.1,0.1,0.1C182.1,73.8,182.1,73.7,181.9,73.7z"/>
			<path style="fill:#A85C2E;" d="M192,75.7l0.1-0.1C192,75.6,191.9,75.6,192,75.7z"/>
			<path style="fill:#A85C2E;" d="M192.1,75.6h0.1C192.1,75.5,192.1,75.6,192.1,75.6z"/>
			<path style="fill:#A85C2E;" d="M180.5,75.5L180.5,75.5L180.5,75.5z"/>
			<path style="fill:#A85C2E;" d="M193.7,74c0-0.1,0.8-0.2,0.2-0.2c0-0.2,0.4-0.1,0.6-0.1c-0.1,0,0.1-0.1,0-0.2
				c-0.1,0-0.2,0.1-0.3,0.1c-0.1-0.1,0.1-0.1,0.3-0.1c-0.2-0.1,0.3-0.1,0-0.2c-0.6,0.1-1.1,0.1-1.5,0.4c0.4,0,0.7-0.1,1,0l-0.1,0.1
				c-0.3-0.1-0.5,0-0.8,0L193.7,74c0.4,0,0.2,0-0.1,0.1C193.6,74,193.7,74,193.7,74z"/>
			<path style="fill:#A85C2E;" d="M193.2,75.2L193.2,75.2C193.3,75.2,193.3,75.2,193.2,75.2L193.2,75.2z"/>
			<path style="fill:#A85C2E;" d="M162.7,76L162.7,76L162.7,76z"/>
			<path style="fill:#A85C2E;" d="M192.8,74.5L192.8,74.5L192.8,74.5z"/>
			<path style="fill:#A85C2E;" d="M164.2,76L164.2,76L164.2,76z"/>
			<path style="fill:#A85C2E;" d="M164.6,72.9L164.6,72.9L164.6,72.9z"/>
			<path style="fill:#A85C2E;" d="M164.2,75.9L164.2,75.9C164.2,76,164.2,76,164.2,75.9z"/>
			<path style="fill:#A85C2E;" d="M171.7,75.4L171.7,75.4C171.6,75.4,171.6,75.4,171.7,75.4z"/>
			<path style="fill:#A85C2E;" d="M170.2,75.2L170.2,75.2L170.2,75.2z"/>
			<path style="fill:#A85C2E;" d="M181.5,73.1c-0.1,0-0.1,0-0.2,0C181.4,73.1,181.5,73.1,181.5,73.1z"/>
			<path style="fill:#A85C2E;" d="M164.2,76L164.2,76L164.2,76z"/>
			<path style="fill:#A85C2E;" d="M174,74.7L174,74.7C173.9,74.7,173.9,74.7,174,74.7L174,74.7z"/>
			<path style="fill:#A85C2E;" d="M174.7,74.8C174.7,74.8,174.7,74.9,174.7,74.8c0.2,0,0.7,0.1,0.8-0.1c-0.1,0-0.6-0.1-0.5-0.2
				c-0.2,0-0.5-0.1-0.6,0c0.3,0.1,0,0.1-0.2,0.2c-0.2,0,0-0.1-0.1-0.1h-0.4h0.4l-0.1,0.1l0,0C174.7,74.6,174.1,74.9,174.7,74.8z"/>
			<path style="fill:#A85C2E;" d="M174.7,74.9h-0.1C174.6,74.9,174.7,74.9,174.7,74.9z"/>
			<path style="fill:#A85C2E;" d="M177.4,75.1h0.1H177.4z"/>
			<path style="fill:#A85C2E;" d="M157.6,74.9c0,0,0.4,0.1,0.4,0H157.6L157.6,74.9z"/>
			<path style="fill:#A85C2E;" d="M184.7,74.5h-0.1l0,0C184.6,74.5,184.7,74.5,184.7,74.5z"/>
			<path style="fill:#A85C2E;" d="M175.1,74.5c-0.1,0-0.1,0-0.1,0.1C175.1,74.6,175.1,74.5,175.1,74.5z"/>
			<path style="fill:#A85C2E;" d="M184.7,74.7c0.1,0,0.1,0.1,0.1,0.1c0.1,0,0.2-0.1,0.3-0.1C185.1,74.8,184.9,74.8,184.7,74.7z"/>
			<path style="fill:#A85C2E;" d="M185.2,74.8L185.2,74.8L185.2,74.8z"/>
			<path style="fill:#A85C2E;" d="M157.4,74.9h-0.1H157.4h-0.3H157l0,0h-0.1c-0.2,0.1-0.7,0.2-0.9,0.3c-0.2,0-0.4,0.1-0.6,0.1
				c0.1,0,0.3,0,0.3-0.1c-0.3-0.1-0.4-0.3-0.9-0.1h0.3l-0.7,0.2c-0.2-0.1,0.3-0.1,0.4-0.2c-0.5,0.1-0.9-0.2-1.2,0
				c0-0.1-0.1-0.3-0.4-0.3c0.2,0.1-0.2,0.1,0,0.2c-0.1,0.1-0.4,0-0.4,0v-0.1c-0.6-0.2-0.8,0.1-1,0.2c-0.7,0.1-1,0-1.6,0
				c0-0.1-0.2-0.3-0.4-0.3c-0.1,0.1-0.6,0.2-0.7,0.3c0.4,0.1,0.3-0.1,0.6-0.2c0.2,0.2,0,0.2,0.3,0.2c-0.2-0.1-1,0.1-1.2-0.1h0.1
				c-0.4-0.1-0.5-0.4-1.1-0.2l-0.3,0.1l0,0c-0.5,0-0.4-0.2-0.9-0.1c0,0,0,0,0.1,0c-0.3-0.1-0.6,0.1-0.9,0.1c-0.1-0.1,0-0.1,0.1-0.2
				c-0.6,0-1.2,0.2-1.5,0.3l-0.4-0.1c0.2,0,0.5-0.2,0.4-0.3c-0.2,0-0.2,0.1-0.4,0.1c0-0.1,0.2-0.2,0.3-0.2c-0.6-0.1-0.1,0.3-0.5,0
				c-0.2,0-0.3,0.1-0.3,0.2l-0.3-0.1c0,0.1-0.4,0.1-0.7,0.1c0,0.1,0.2,0.1,0.3,0.1c0,0.1-0.3,0.1-0.5,0.1c-0.1-0.3-1.2,0-1-0.3
				c-0.8,0.1-2,0.1-2.5,0.2c-0.2-0.1-0.5-0.1-0.3-0.2c-0.7,0-1,0.3-1.6,0.2c-0.1,0,0.3,0,0.3-0.1c-0.4,0.1-0.8-0.1-1.4,0
				c0.1,0,0.1-0.1,0.2-0.1c0,0-0.3,0.1-0.4,0.1c-0.1,0,0.1,0,0.1-0.1c-1.3-0.1-2.2,0.2-3.5,0.2c0.4,0,0.5-0.2,0.5-0.2h-0.4
				c-0.1,0.1-0.4,0.1-0.6,0.1c0,0-0.1-0.1,0-0.1c-0.7-0.2-1.1,0.3-2,0.2l1-0.3l-0.3-0.1l0.5-0.2c-0.3-0.1-0.5,0.1-0.5,0
				c0.1,0,0.2,0,0.2-0.1c-0.3,0-0.3,0-0.5,0.1c0.5-0.3,1.5-0.3,2.1-0.3c0.1,0-0.1,0.1-0.1,0.1c0.2,0,0.4,0.1,0.6,0
				c0.2-0.1-0.1-0.1-0.3-0.1c0-0.1,0.1-0.1,0.2-0.1c0,0.1,0.8,0,1,0.2c0.8,0-0.1-0.3,0.7-0.3l0.2,0.1c0.5-0.1,1.1-0.2,1.6-0.2H136
				c-0.1,0.1,0,0.1,0.1,0.1c0.4,0.1,0.8-0.1,1,0c0.5-0.2,1.2-0.3,1.7-0.3c0.1,0.2-0.7,0.2-0.9,0.3h0.5c-0.3,0-0.4,0.1-0.6,0.2
				c0.4,0,0.6-0.1,0.9-0.2c0,0.1,0,0.1,0.2,0.1l0.1-0.1c0,0,0,0,0.1,0l0.7-0.1c-0.1-0.1-0.2-0.2-0.3-0.2c0.1,0.1-0.1,0.1-0.3,0.1
				c0.2-0.1-0.2-0.1-0.2-0.1c0.4,0,0.8,0,1,0l0.1,0.1c0.3,0,0.7,0,0.9,0l-0.1,0.1c0.4,0,0.8,0,1.2,0.1c0.4-0.1,0.8-0.2,1.1-0.4
				c0.2-0.1,1.1,0.2,1.5,0c0,0-0.3,0.1-0.4,0.2c0.3,0,0.5-0.2,0.6,0c-0.6-0.1,0,0.1-0.2,0.2c0.3,0,0.6,0,0.7-0.1
				c-0.5,0,0.2-0.2-0.3-0.1c0.4-0.1,0.9-0.2,1.3-0.1c0,0.1,0,0.1,0.2,0.1l0.1-0.1c0.2,0-0.4,0.1,0,0.2c0.4-0.2,1.3,0.1,1.5-0.2
				c0.3,0.1-0.6,0.1-0.1,0.3c-0.3,0.1-0.7,0-0.8,0.1c0.3,0,0.1,0.1,0.3,0.1l0.3-0.1h-0.1c0.5-0.1,1.4-0.1,2-0.1
				c0.6-0.2,1-0.4,1.6-0.4c-0.2,0.1,0.6,0.1,0.1,0.3c0.3,0.1,0.6,0,0.6-0.1c-0.3,0-0.1,0-0.3-0.1c0.2-0.1,0.5-0.1,0.7,0
				c-0.1,0,0,0-0.1,0c0.3,0.1,0.2-0.1,0.4-0.1c0.1,0.1,0.5,0,0.7,0.1l0.3-0.2c-0.2,0.1,0.3,0,0.4,0.1c0.2-0.1,0.4-0.2,0.8-0.2
				c-0.1,0.1,0.3,0.1,0.3,0.2c0.6,0.1,1-0.3,1.5-0.1c0,0-0.1,0.1,0,0.1s0.4,0,0.5,0l0,0l0,0c0.1,0,0.1,0,0.1,0
				c0.2-0.1,0.4-0.2,0.8-0.3c0-0.1-0.4-0.1-0.6,0l-0.1,0.1c-0.1-0.2-0.4,0-0.5,0c0.3-0.2,1.1-0.2,1.6-0.3c-0.3-0.2-0.9-0.2-1.5-0.2
				l0.2,0.1H157l0.3,0.1c-0.3,0-0.5,0-0.8,0c0.3,0,0.4,0.2,0.2,0.1c-0.3-0.1-0.3,0.1-0.6,0.1c0.1,0,0.3,0,0.2,0.1
				c-0.5-0.2-0.6-0.1-1.1-0.2c0.1,0.2-0.6,0-0.6,0.2h0.2l-0.4,0.1c-0.4-0.2,0.4-0.2-0.3-0.3c-0.6,0-0.6,0.2-1,0.2
				c0.1-0.1,0.5-0.2,0.9-0.2l-0.2-0.1c0.1-0.1,0.6-0.1,0.9,0c-0.4,0.1,0.2,0,0.4,0.2c0-0.1-0.2-0.1,0.1-0.2c-0.3,0-0.3,0-0.7,0
				c0.8,0.1,0.7-0.4,1.4-0.3c-0.3,0.1,0.1,0.2,0.2,0.2c0.2,0,0.5,0,0.6-0.1l-0.1-0.2c0.4-0.1,0.6,0.3,1,0.1c0.1-0.1-0.4,0-0.3-0.1
				c0.6-0.1,0.9,0.2,1.5,0.3c0-0.1,0-0.2,0.2-0.3c-0.1,0.1,0.1,0.2-0.1,0.2c0.2,0,0.4,0,0.6-0.1c-0.4-0.1,0.2-0.1,0.2-0.2
				c0.2,0-0.1,0.1-0.2,0.1c0.2,0,0.4,0.2,0.5,0c0,0.1-0.5,0.3-0.8,0.3h0.2c-0.1,0.1-0.2,0-0.4,0c0.2,0.1,0.2,0.2,0.1,0.3l0,0
				c-0.2,0-0.3,0-0.3,0.1c-0.1,0.1,0.2,0.1,0.3,0.2h0.3l0.9-0.5c0.4-0.1,0.5,0.1,0.8,0.1l0.1-0.1c0.3,0,0.6,0.1,0.4,0.2h-0.1l0,0
				l0,0c0.3,0,0.6-0.1,0.6-0.1c-0.6,0.2,0,0.2-0.1,0.5l0.6-0.1c-0.4-0.1,0-0.1,0.1-0.1c0,0.1,0.5,0,0.7,0l0,0c0.2,0,0.5,0,0.8,0
				c0,0,0.3-0.2,0.4-0.4c-0.4,0-0.2-0.1-0.2-0.2h0.1c0.1,0-0.1,0-0.1-0.1c-0.4,0.1-0.9,0.1-1.1,0.3c0.1,0.1,0.2-0.1,0.4,0
				c-0.2,0.1-0.5,0.1-0.9,0.1l-0.1-0.1l-0.4,0.1c0.2-0.1,0.1-0.2,0.4-0.2c0-0.1-0.4,0-0.6,0l-0.1,0.1c0-0.1-0.5-0.1-0.1-0.2l0.6-0.1
				l-0.2-0.1h0.5l-0.1,0.1c0.8-0.1,0.2,0.3,1,0.1c0.2-0.2,0.5-0.2,1-0.1c-0.4,0,0,0.1-0.2,0.2c0.4,0.1,0.5-0.1,0.7-0.1
				c0.1,0.1,0.2,0.2-0.2,0.2c0,0.2,0.4,0,0.5,0.2c1.1,0,0.8-0.6,2.1-0.4v0.1c0.8-0.1,1.2,0,2-0.1l0.6,0.2c-0.1,0-0.5,0.2-0.3,0.3
				c-0.3-0.2-0.6-0.1-0.9-0.2c0,0.1,0.1,0.1,0.1,0.1c-0.2,0-0.3-0.1-0.5-0.1c0,0,0.3,0.1,0.1,0.1l-0.3-0.1c-0.4,0.1-0.2,0.3-0.7,0.2
				c0.1-0.1,0.3-0.3,0.5-0.3c-0.2,0,0.3-0.1,0.1-0.1c-0.3,0.2-0.5,0-0.9,0.1c0.1,0,0.1-0.1,0.2-0.1l-0.7-0.1
				c0.2,0.1-0.5,0.1-0.5,0.2c0.7,0.1,0.5,0,1.3,0.1c-0.2,0-0.5,0.2-0.6,0.3l0,0c-0.1,0.1,0,0.2,0,0.4c0.4-0.2,0.6,0,1-0.1
				c0.1-0.1-0.2-0.2-0.5-0.1l0.4-0.1l-0.1,0.1h1c-0.2,0-0.2,0.1-0.3,0.1c0.1,0,0.2,0,0.4,0.1c0-0.1,0-0.2,0.1-0.2
				c0.6,0,1,0.1,1.2,0.3h0.1c-0.1-0.1,0.4-0.2,0.6-0.4c0,0.1,0.3,0.1,0.5,0.2c0.1-0.2,0-0.4-0.2-0.5c-0.4,0.1-0.2,0.1-0.4,0.3
				l-0.7,0.1l0.1-0.1c-0.3-0.1-0.6,0.1-0.6-0.1c0.2-0.1,0.5,0,0.6-0.2l-0.2-0.1c0.4-0.2,0.2,0.2,0.7,0c-0.2-0.1,0,0,0.2-0.1
				c-0.2-0.1-0.8,0-0.7-0.2c0.2-0.1,0.8,0.3,1.1,0l0,0c0.5,0,0.6-0.1,0.8-0.2c0.2,0.1,0.5,0,0.7,0v0.1h0.3c-0.1,0.1-0.4,0-0.6,0v0.1
				c-0.3-0.1-0.5,0.1-0.7,0.2c0.3-0.1,1,0,1.1-0.2l0.2,0.1h0.1c0.2,0.1,0,0.2-0.3,0.3c-0.1,0-0.1,0-0.1-0.1
				c-0.1,0.1-0.3,0.2-0.6,0.1l0.2-0.1c-0.4,0-0.8,0-1,0.2c0.6,0.1,1.2,0.1,1.8,0.1c0.2-0.3,0.4-0.4,0.5-0.7c0.4,0,0.9-0.1,1.3,0v0.1
				c0.2,0,0.3,0,0.4,0c0.2,0.1-0.1,0.1,0,0.2l0.6-0.1c0,0.1-0.5,0.1-0.7,0.1h0.1c-0.3,0-0.7,0.2-0.9,0c-0.1,0,0.3-0.1-0.2-0.1
				c-0.3-0.1-0.4,0.1-0.4,0.1c0,0.1,0.5,0.1,0.3,0.2c0.2,0,0.3-0.1,0.6,0c-0.2,0-0.5,0.1-0.6,0c-0.4,0.1-0.4,0.4-0.2,0.5
				c0-0.1,0.8-0.1,0.2-0.3c0.3-0.1,0.7-0.1,1.1-0.2l0,0h0.4c-0.1,0-0.2,0.1-0.2,0.1l0.6-0.2c-0.3,0.1,0.2,0.1,0.4,0.1
				c0.1-0.1,0.3-0.2,0.1-0.2c-0.2-0.1-0.1,0.1-0.4,0.1l0.3-0.2l0,0l0.2-0.1c0.4,0-0.2,0.3,0.4,0.2l-0.1-0.2c0.6,0,1.5,0.2,1.9,0.1
				c-0.1,0.1-0.2,0.3,0,0.4c-0.2,0-0.6,0-0.9,0c-0.1,0,0.3-0.2,0.7-0.2c-0.1-0.3-0.8,0.2-0.8-0.1c-0.8-0.1-0.6,0.3-1.2,0.1
				c0,0.1-0.2,0.1-0.2,0.2c0.2,0.2,0.9,0,1.3,0.1c0,0-0.1,0-0.1,0.1c0.3,0,0.4,0,0.6,0l0,0c0.4-0.1,0.2,0.1,0.4,0.2
				c0.1,0,0.4,0,0.3-0.1l0.4,0.1v-0.2c0.2,0,0.3,0.1,0.5,0v-0.1h-0.6c0.3,0,0.1-0.1,0.4-0.2c-0.3,0.1,0.2,0.1,0.3,0.2l0.2-0.1h-0.1
				c0.2,0.1,0.2,0,0.4,0c-0.2-0.1-0.4-0.2-0.7-0.1c0.2-0.1,0.7-0.2,0.8-0.2c0.2-0.1,0.4,0,0.6,0.1c-0.4,0.1,0.2,0.4-0.7,0.3h0.1
				c-0.1-0.2-0.5,0-0.7,0.1c0,0.1-0.1,0.1,0.2,0.2c-0.1-0.1,0.3-0.2,0.6-0.1l-0.1,0.2h0.5l0,0c0.2,0.1,0.5,0,0.8,0.1
				c0.2-0.1,1.1,0,0.7-0.2c0.3,0.1,0.5,0,0.8-0.1l-0.4-0.1c0.5-0.2,0.3-0.1,0.7-0.3c0,0.1,0.1,0.1,0,0.2c0.6,0,1.5,0.1,1.8-0.1
				c0.4,0,0.5,0.3,1.1,0.2c0.1,0-0.1-0.2,0.3-0.1c0,0-0.4,0.2,0.1,0.1c0.3-0.2,0.7,0.1,1.2-0.1c0.2,0.1,0.6,0,0.5,0.2
				c-0.3,0-0.8,0-0.9,0.1c0-0.1-0.2-0.1,0-0.1c-0.5-0.1-0.3,0.1-0.8,0c0,0.1,0.2,0.1,0.3,0.1c0,0.2-0.9,0.1-0.5,0.3
				c0.5,0,0.7-0.4,1.1-0.2c-0.2,0.1-0.4,0-0.7,0.2l0.4,0.1l0.3-0.1l0,0c0.6,0.2,0.6-0.2,1.1-0.3c-0.3-0.1,0.1-0.3-0.2-0.4
				c0.4,0,0.7,0,0.7,0.2c-0.7,0.1,0,0.2-0.7,0.4c0.1,0.1-0.2,0.3,0.2,0.3c0.4-0.1-0.1-0.1,0.3-0.2c0,0,0.1,0,0,0.1
				c0.2-0.1,0.2,0,0.5-0.1h-0.1c0.3,0.1,0.3-0.1,0.6,0c-0.1-0.1,0.2-0.1,0.3-0.2c-0.3,0-0.4-0.2-0.9-0.2c-0.1,0.1,0,0.2-0.2,0.2h0.3
				c-0.1,0-0.1,0-0.2,0.1l-0.3-0.1c0.4-0.1,0.2-0.2,0.4-0.3c0.4,0,0.3,0,0.5,0c0,0.2,0.7,0.3,1.2,0.4c-0.1,0-0.2,0-0.2,0
				c-0.3,0.1,0.2,0.1,0.2,0.2l0.2-0.1c0,0-0.1,0,0,0.1c0.3,0,0.3-0.2,0.6-0.2c0,0.1-0.2,0.2,0,0.3c0.1,0.1,0.3,0.3,0.7,0.2
				c0,0,0.1-0.1,0.3-0.1l0,0l0.3,0.1c-0.2,0.1-0.5-0.1-0.7,0.1v0.1c-0.2,0-0.4,0.1-0.5,0.1c0.3,0,0.3,0,0.6,0c0,0.1-0.2,0.1-0.2,0.2
				v-0.1c-0.4-0.1-0.6,0.1-1,0.1c-0.1,0,0,0,0,0c-0.4,0.1-0.7,0-1.1,0.1l0.1-0.1c-0.2,0.1-0.7,0.2-1.2,0.3v0.1c0.1,0-0.1,0-0.2,0
				l0,0c-0.2,0.1-0.5,0.1-0.7,0.2c0.1,0,0.1,0.1,0.2,0.1c0.1-0.1,0.5,0,0.5-0.2c0.2,0.1,0.5,0,0.7,0c-0.3-0.1,0.2-0.1,0.2-0.2
				c0.1,0.1,0.4,0,0.4,0.1c0.1,0-0.1-0.1-0.2,0c-0.3,0.1,0.5,0.1,0.2,0.2c0.5-0.1,1.1,0,1.5-0.2h-0.3c0.2,0,0.7,0,0.7,0
				c-0.2,0-0.3,0-0.5,0c0,0.1,0.5,0,0.5,0.1l0.6-0.2h-0.3c0.2-0.1,0.7,0,1.1,0c-0.2,0.2-0.6,0-1,0.1c-0.3,0.1,0.2,0.2-0.1,0.2
				c0.1,0,0.3,0,0.3,0h0.1c-0.3,0.2-0.8,0.1-1.2,0.3c0,0,0.1,0,0.1-0.1c-0.3-0.1-0.6-0.1-0.9,0c0.1,0.1,0.2,0,0.3,0
				c0,0-0.3,0.1-0.4,0.1c0.3,0,0,0.1,0.2,0.1c-0.2,0-0.3,0-0.5,0c-0.1-0.1,0.1-0.1,0.1-0.2c-0.2,0.1-0.3-0.1-0.6-0.1
				c0.4,0-0.1,0.2-0.3,0.2h0.1c-0.1,0.1-0.2,0.1-0.3,0c0.2,0,0.3,0,0.3-0.1c-0.1,0-0.2,0-0.4,0l0.1-0.1h-0.6
				c-0.1,0.1-0.2,0.2-0.3,0.3c-0.1-0.1-0.3,0-0.4,0h0.1c-0.2-0.1-0.8,0-0.8,0.1c-0.2-0.1,1.2-0.5,0-0.4c-0.5,0-0.3,0.2-0.6,0.3l0,0
				c-0.2,0-0.2,0.1-0.4,0.1c0.1,0,0.3,0,0.4,0c-0.1,0.1-0.4,0-0.6,0.1c0.2-0.2-0.4-0.1-0.2-0.1c-0.4-0.1-0.9,0-1.1,0.1
				c-0.3-0.2-0.5,0-0.9-0.1c0.1,0,0.2,0,0.3,0c0.3-0.1-0.5-0.1-0.1-0.2c-0.1,0,0,0.1,0.1,0c0.2,0,0.3-0.1,0.3-0.1l-0.4-0.1h0.1
				l-0.6-0.2c0,0,0,0.1,0.1,0.1c-0.7-0.1-1.4,0-2,0c-0.1,0.4-1.4,0.2-1.9,0.4c0.1-0.1,0.2-0.3,0.1-0.4c0.1,0,0.3-0.2,0.5-0.1
				c0,0.1,0.3,0.1,0.1,0.2c0.6,0-0.1-0.2,0.1-0.3c-0.7,0-1.1,0.2-1.6,0.3l0,0l-0.3,0.1c0.3,0,0.3,0.2-0.1,0.2l0,0
				c-0.2-0.1-0.6,0-0.9,0l-0.2,0.1c-0.3,0-0.3-0.2-0.4-0.4c-0.5,0-0.8,0.2-1.1,0.3c-0.2-0.1-0.9-0.1-0.5-0.2
				c-0.5,0.1-0.4,0.6-1.1,0.3l0.2-0.1c-0.7,0-1.8,0.2-2.1,0.1c0.3-0.3-0.9-0.3-1.1-0.7c0,0.1-0.2,0.1-0.3,0.1s-0.2-0.1-0.3,0
				c0.3,0.1-0.2,0.3,0.3,0.2c-0.3,0.2-0.6,0.4-1.3,0.4v-0.1h0.5c0-0.1,0.2-0.1,0.3-0.1c-0.9-0.1,0.1-0.3-0.8-0.3
				c-0.1,0.1,0,0.1-0.3,0.1c0.1,0,0.1-0.1,0-0.1l-0.2,0.1c-0.3-0.2,0.5-0.1,0.3-0.3c0.4-0.1,1-0.2,0.9-0.3c-0.6-0.1-0.5,0.3-1.1,0.2
				l-0.1-0.1c-0.2,0-0.2,0.2-0.4,0.2c0,0-0.1-0.1-0.2-0.1c-0.4,0.2-0.6,0.2-0.9,0.4c0.9-0.1,0.8,0.1,1.7,0c-0.1,0.1-0.8,0.1-0.8,0.3
				v-0.1c-0.3,0.1-0.6,0.1-1,0.1l0.2-0.1c-0.5,0.1-0.8-0.2-1.2,0c0.1,0,0.2,0,0.3,0c-0.3,0.1-0.6,0-0.9,0l-0.6,0.2
				c0-0.1-0.4-0.1-0.2-0.2c-0.4-0.1-0.6,0.1-0.8,0.1c-0.4-0.1,0.4-0.1,0.4-0.3c-0.6-0.1-1.2,0-1.5,0.1c0.1,0,0.2,0.1,0.2,0.1
				s-0.3,0-0.4,0l-0.1,0.1c-0.2-0.1-0.2-0.1,0-0.2c-0.2,0-0.5,0.2-0.7,0c0.4-0.1,0.8,0,1-0.1c-0.7,0.1-0.7-0.3-1.7-0.2
				c0,0,0.1-0.1,0-0.1c-0.4,0-0.1,0.2-0.2,0.3c0.3-0.1,0.5,0,0.7,0.1l-0.1,0.1c0,0-0.2,0-0.3-0.1l-0.1,0.1c0-0.2-0.3-0.3-0.6-0.2
				c0.3,0.1,0.2,0.1,0.3,0.3c-0.4,0.2-0.4-0.2-0.8,0c0-0.1,0.4-0.1,0.1-0.1c-0.3,0-0.2,0.1-0.4,0.2c0.2-0.1,0.1-0.2,0.3-0.4
				c0.4,0,0.2,0,0.6-0.1l-0.4-0.1c0.4,0,0.3-0.2,0.3-0.2c-0.6-0.1-0.5,0.2-0.9,0.2c-0.2,0.1,0.4,0,0.1,0.1c-0.4,0-0.1,0.1-0.5,0.1
				l0.1-0.1c-0.1-0.1-0.3,0-0.4,0c-0.2,0,0.2,0.5-0.5,0.5v-0.1l0.7-1.1c-0.7,0-1.5,0-2.3-0.1c-0.2-0.2,0.6-0.2,0.5-0.3h0.4
				c0,0.1-0.8,0-0.4,0.2c0.7-0.1,1,0,1.6-0.2c-0.2-0.2-0.8,0-1.2-0.1c0.2,0,0.3,0,0.5,0l-1.2-0.1l-0.1,0.1c0.3,0,0.5,0,0.5,0.1
				c-0.4,0-0.7,0.1-0.7,0.3h0.1h-0.1L157.4,74.9z M132.2,74.8L132.2,74.8L132.2,74.8z M165,74.3c-0.5,0-1-0.1-1.5-0.1
				c0.9,0.3,1.5,0.6,0,0.6h-0.1c0.2,0,0.5,0,0.9,0c0.3-0.1,1.1-0.5,1.1-0.6C165.2,74.2,165.1,74.3,165,74.3L165,74.3z M165.4,74.9
				c0.3,0,0.2,0,0.3-0.1L165.4,74.9C165.4,74.8,165.4,74.8,165.4,74.9z M165.6,74.7L165.6,74.7L165.6,74.7z M159.9,74.6L159.9,74.6
				h-0.2C159.8,74.6,159.8,74.6,159.9,74.6z M160.5,74.8l0.1-0.1L160.5,74.8C160.4,74.7,160.4,74.7,160.5,74.8z M162.4,75.2
				c0.1-0.1,0.5-0.1,0.6-0.3c0,0-0.1-0.1-0.2-0.1h-0.3c0,0,0,0-0.1,0.1c0.1,0,0.2,0.1,0.2,0.2c-0.3-0.2-0.3,0.2-0.6,0.1
				C161.9,75.2,162.3,75.2,162.4,75.2z M187.9,74.7L187.9,74.7l-0.1,0.2c-0.4,0-0.8-0.3-1.1-0.1c-0.2,0-0.3-0.2-0.4-0.2
				c0.1,0,0.2,0,0.2,0C187.6,74.3,187.1,74.9,187.9,74.7z M183.1,74.5C183.2,74.4,183.2,74.4,183.1,74.5c-0.9,0.3-1.6,0.3-2.1,0.3
				c0.1,0.1,0.5,0.2,0.8,0.3l-0.2,0.1l-0.1-0.1l-0.3,0.1c0.1,0.1,0.4,0.1,0.5,0.1c0,0,0.6-0.2,0.7-0.3l-0.5-0.1c0.1,0,0.7,0,1,0
				c0-0.1-0.4-0.2-0.5,0c0-0.1,0.4-0.1,0.1-0.2c0.4-0.1,0.9,0,1.2,0v0.2c0.3,0.1,0.2-0.2,0.5-0.1c-0.4,0,0.1,0.2-0.3,0.2
				c0.1,0.1,0,0.2,0.3,0.2c0.3-0.2,0.4,0.1,0.6-0.1c0.2,0.1-0.2,0.1,0.2,0.2c0.4-0.1,0.4-0.2,0.4-0.4c-0.4,0-0.4,0.2-0.7,0.2
				l0.6-0.3c-0.1,0-0.2,0-0.3,0c0.1,0,0.2-0.1,0.3-0.1l0.1-0.1c-0.3,0-0.6,0-0.7-0.1v-0.1c-0.1-0.1-0.3,0-0.4,0
				c-0.3,0-0.6,0.1-0.7,0l0.1-0.1C183.6,74.4,183.6,74.4,183.1,74.5z M170.7,74.3c0.2,0.3,0.5,0.5,1.5,0.5h-0.1c0.5,0.2,1-0.2,1.7,0
				c-0.3,0.1-0.3,0.1-0.7,0.3l0.3-0.1c-0.1,0.2,0.2,0.1,0.5,0.1l-0.2,0.2c-0.2-0.1-0.5-0.1-0.5,0c0.1,0-0.5-0.2-0.8-0.2
				c0,0.1,0.7,0.1,0.4,0.3c0.3-0.1,0.3,0,0.6,0c-0.3,0.1-0.1,0.2-0.3,0.3h0.5c0,0-0.7,0.1-0.3,0.2c0.2-0.1,0.7,0,0.7-0.1l0,0
				c0.3,0,0.2-0.2,0.6-0.1c0-0.1-0.1-0.1-0.2-0.1c-0.1,0-0.1,0.1-0.4,0.1c-0.1-0.1,0.3,0,0.1-0.2c-0.1-0.1-0.7,0.1-0.5-0.1h0.3
				c0-0.1,0.3-0.1,0.3-0.2c0.2,0,0.4,0.1,0.6,0c0.1-0.1-0.1-0.2,0.3-0.2c0.3,0.2,1.1,0.2,1.4,0.1l0.3-0.1c0-0.1-0.5,0-0.3-0.1h0.4
				V75c0.1,0,0.3,0,0.4-0.1c-0.1,0.1-0.4,0.1-0.4,0.2c0.2,0,0.2,0.1,0.4,0.1h-0.1c0.4,0.1,0.4-0.2,0.5-0.2c0.4-0.2-0.4-0.2-0.4-0.3
				l1.2-0.1c-0.1,0-0.2,0.1-0.2,0.1c0.3,0.1,0,0.1,0.4,0.1c0-0.2,0.5-0.1,0.8-0.2c0.1,0.1,0.2,0.1-0.1,0.1c0,0.1,0.4,0.1,0.6,0.1
				c0.1,0,0.2,0,0.3-0.1c-0.1-0.1-0.1-0.1,0.2-0.2l0,0c-0.4,0-1.1-0.2-1.3,0l0.1-0.1c-0.5-0.1-1,0.2-1.3,0c0-0.1-0.1,0-0.1-0.2
				l-0.4,0.1l0.1-0.1H177l0,0l-0.7,0.3c0,0.1,0,0.1-0.1,0.1s-0.2,0-0.2,0l0,0l0,0c-0.1,0-0.2-0.1-0.4-0.1h0.6c0-0.1,0-0.2-0.3-0.3
				c0.1,0,0.2-0.1,0-0.1c0,0-0.4,0.1-0.2,0.1c-0.5,0-1.4-0.2-2.2,0c0.6-0.1-0.5-0.1,0.2-0.2c-0.4-0.2-0.4,0.2-0.8,0.1
				c0-0.1,0.2,0,0.4-0.1c-0.8-0.1-1.3,0.3-2,0.2v-0.1L170.7,74.3z M169.3,74.4h-0.4l0,0l-0.4,0.1c0.3,0,0.4,0.2,0.1,0.3
				c0-0.1-0.1-0.1,0.1-0.1c-0.2-0.1-0.8-0.1-0.6,0c0.5-0.2,0.1,0.2,0.5,0.1c-0.2,0.1-0.4,0.1-0.6,0.1c0.2-0.1,0-0.2-0.3-0.3
				c-0.1,0-0.5,0-0.7,0.1c0.1,0.1-0.1,0.2,0.2,0.2c-0.1,0-0.3,0.1-0.5,0c0.1,0,0.2,0,0.2-0.1c-0.1-0.1-0.3-0.1-0.4-0.1h-0.2
				c0,0,0,0,0.1,0l-0.2,0.1c0.3-0.1,0.1,0.1,0.1,0.1c0-0.1-0.2,0-0.3,0l0.2,0.1c-0.1,0.1-0.4-0.1-0.4,0c0.5,0.1,0.7,0,1.2,0
				l-0.2-0.1c0.5-0.1,0.3,0.2,0.9,0.2c0.2-0.1,0.9,0,0.9-0.2c-0.1,0.1,0.4,0.2,0.6,0.1c0.2-0.2,0.9-0.2,0.7-0.3
				c-0.2,0-0.4,0.1-0.6,0h0.4l-0.2-0.1C169.4,74.7,169.3,74.6,169.3,74.4z M161.4,73.3L161.4,73.3L161.4,73.3L161.4,73.3z"/>
			<path style="fill:#A85C2E;" d="M193.1,74.3c0.1,0,0.4,0,0.3-0.1C193.4,74.3,193,74.2,193.1,74.3z"/>
			<path style="fill:#A85C2E;" d="M193.4,74.4c0,0,0-0.1,0.1-0.1h-0.3L193.4,74.4z"/>
			<path style="fill:#A85C2E;" d="M193.7,75.2c0.2-0.1,0.3-0.1,0.5-0.1c0.1,0.3-0.4,0.1-0.5,0.3c0.5,0,0.6-0.2,1-0.2
				C194.5,75,193.8,75,193.7,75.2z"/>
			<polygon style="fill:#A85C2E;" points="193.5,75.5 193.8,75.4 193.8,75.4 			"/>
			<path style="fill:#A85C2E;" d="M188,73.2c0-0.1-0.2,0-0.3,0C187.8,73.2,187.9,73.2,188,73.2z"/>
			<path style="fill:#A85C2E;" d="M137.9,73.1l-1.9,0.1C136.5,73.2,137,73.1,137.9,73.1z"/>
			<path style="fill:#A85C2E;" d="M181.6,73.7c0.5-0.1,0.8-0.2,1.3-0.3c-0.7-0.2-0.9,0.3-1.5,0.1L181.6,73.7z"/>
			<path style="fill:#A85C2E;" d="M181.7,73.1c0.1,0.2-0.4,0.2-0.3,0.3c0.4,0,0.2-0.2,0.5-0.1L181.7,73.1z"/>
			<path style="fill:#A85C2E;" d="M184.1,75.7H184H184.1z"/>
			<polygon style="fill:#A85C2E;" points="179.4,73.2 179.4,73.2 179.2,73.1 			"/>
			<path style="fill:#A85C2E;" d="M179.5,73.1L179.5,73.1L179.5,73.1z"/>
			<polygon style="fill:#A85C2E;" points="183.9,76 184.1,76 184.3,76 			"/>
			<path style="fill:#A85C2E;" d="M181.8,75.2l0.2-0.1C182,75.1,181.7,75.1,181.8,75.2z"/>
			<polygon style="fill:#A85C2E;" points="177.8,73.1 177.5,73.2 177.5,73.2 177.8,73.2 			"/>
			<path style="fill:#A85C2E;" d="M180.2,75.6c0.1,0.1-0.4,0-0.1,0.1C180.3,75.7,180.2,75.6,180.2,75.6z"/>
			<path style="fill:#A85C2E;" d="M177.1,74.8H177H177.1z"/>
			<path style="fill:#A85C2E;" d="M177.1,74.8c0.1,0,0.2,0,0.3,0C177.3,74.7,177.2,74.7,177.1,74.8z"/>
			<path style="fill:#A85C2E;" d="M175.8,74.8h0.1c-0.1,0.1-0.1,0.1,0,0c0.1,0,0.1,0,0.1-0.1h0.1H176
				C175.9,74.7,175.8,74.7,175.8,74.8z"/>
			<path style="fill:#A85C2E;" d="M171.1,72.8c0.4,0,0.5,0.1,0.5,0.2c0.4,0,0.3-0.1,0.5-0.2C171.6,72.8,171.5,72.7,171.1,72.8z"/>
			<path style="fill:#A85C2E;" d="M172,72.8h0.1C172.1,72.7,172.1,72.7,172,72.8z"/>
			<polygon style="fill:#A85C2E;" points="177.3,75.8 177.1,76 177.2,75.9 			"/>
			<path style="fill:#A85C2E;" d="M170.5,72.7c0.1,0,0.2,0,0.2,0C170.8,72.7,170.4,72.7,170.5,72.7z"/>
			<path style="fill:#A85C2E;" d="M171.9,74.6c0,0.1,0.3,0,0.4,0C172.2,74.6,172.1,74.4,171.9,74.6z"/>
			<path style="fill:#A85C2E;" d="M169.4,73.1c0.1,0,0.2,0.1,0.1,0.1C169.7,73.2,169.8,73,169.4,73.1z"/>
			<polygon style="fill:#A85C2E;" points="171.3,74.5 171.3,74.6 171.6,74.5 			"/>
			<path style="fill:#A85C2E;" d="M172.2,75.9c0.3-0.1-0.5-0.3,0-0.4c-0.6-0.1,0,0.2-0.4,0.1C172.1,75.7,172.2,75.9,172.2,75.9z"/>
			<path style="fill:#A85C2E;" d="M171.8,75.7h-0.1H171.8z"/>
			<path style="fill:#A85C2E;" d="M167.7,75C167.8,75,167.8,75,167.7,75C167.8,75,167.8,75,167.7,75z"/>
			<path style="fill:#A85C2E;" d="M170.3,75.8l0.4-0.2c-0.3,0.1-1,0.1-1,0.3C170,75.9,170.3,75.9,170.3,75.8L170.3,75.8z"/>
			<path style="fill:#A85C2E;" d="M165.3,72.8l0.2-0.1L165.3,72.8C165.4,72.7,165.2,72.8,165.3,72.8z"/>
			<path style="fill:#A85C2E;" d="M165.2,72.7L165.2,72.7C165.3,72.7,165.3,72.7,165.2,72.7z"/>
			<path style="fill:#A85C2E;" d="M168.6,74.9c0.1,0,0.2,0,0.4,0C168.9,74.9,168.5,74.8,168.6,74.9z"/>
			<path style="fill:#A85C2E;" d="M164,73h0.3H164z"/>
			<polygon style="fill:#A85C2E;" points="162.6,72.7 162.5,72.7 162.3,72.7 162.3,72.8 			"/>
			<path style="fill:#A85C2E;" d="M164.5,76c0.2,0,0.4-0.1,0.3-0.2h-0.4c0.1,0.1,0.1,0,0.3,0L164.5,76z"/>
			<path style="fill:#A85C2E;" d="M151.9,73c0.1-0.1,0.5,0,0.6,0c-0.1,0-0.3,0.1-0.1,0.1l0.3-0.2c0.5,0.1-0.4,0.3-0.6,0.4
				c0.5,0,0.6-0.1,1.1-0.1c-0.1,0-0.2-0.1-0.3-0.1c0-0.2,0.5-0.1,0.8-0.1c-0.2-0.1-0.1-0.1,0.1-0.2c0,0,0,0,0.1,0h0.1l0,0
				c0,0,0,0,0-0.1c-0.3,0-0.5-0.1-0.7-0.1c0.2,0.2-0.6,0.1-0.8,0.1h-0.3h-0.1c0,0,0-0.1,0.2-0.1c-0.1,0-0.5,0-0.5,0.1h-1h-0.1l0,0
				h-4.2c0.2,0,0.4,0.1,0.6,0.1c-0.3,0.2,0.3,0,0.3,0.2c-0.1,0.1-0.4,0-0.5,0c0,0.1,0.1,0.1,0.1,0.2c0.5,0.1,0.6-0.3,1.1-0.2
				c0,0.1-0.2,0.2,0.2,0.2h-0.1c0.5-0.1,0.4,0.2,0.8,0v0.1c0.2-0.1,0.7-0.1,1-0.1l0,0c0.8-0.2,0.4,0,1.3-0.1l-0.4,0.2
				c0.3,0.1,0.4-0.1,0.6-0.1c0,0,0,0.1-0.2,0.1l1-0.2C152.3,73,152,73,151.9,73z"/>
			<path style="fill:#A85C2E;" d="M153.2,73.2c0.1,0,0.1,0,0.2,0C153.4,73.2,153.3,73.2,153.2,73.2z"/>
			<path style="fill:#A85C2E;" d="M146.1,72.8h0.3C146.3,72.7,146.2,72.7,146.1,72.8z"/>
			<path style="fill:#A85C2E;" d="M154.7,72.9c-0.2-0.1,0.1-0.1,0.2-0.2h-0.6c0,0.1-0.1,0.1,0,0.2H154.7z"/>
			<path style="fill:#A85C2E;" d="M154,72.6c0,0-0.1,0.1-0.2,0.1h0.3C154.2,72.7,154.2,72.6,154,72.6z"/>
			<polygon style="fill:#A85C2E;" points="154.1,75.4 154,75.4 153.8,75.5 			"/>
			<path style="fill:#A85C2E;" d="M152.4,75.2c0.1,0.1,0.4,0,0.5,0C152.5,75.2,152.7,75.1,152.4,75.2z"/>
			<polygon style="fill:#A85C2E;" points="152.7,76 152.4,76.1 152.5,76.1 			"/>
			<path style="fill:#A85C2E;" d="M143.9,73.3h-0.1C143.8,73.3,143.9,73.3,143.9,73.3z"/>
			<path style="fill:#A85C2E;" d="M146.3,73.2c-0.7-0.2,0.4-0.1,0.2-0.3l-0.4,0.1v-0.1h-0.4c0.1,0.1,0.2,0.1,0.1,0.2
				c-0.6,0-0.2-0.1-0.6-0.2h-0.7h0.1c-0.1,0-0.1,0-0.1,0l-2.2,0.1c-0.4,0.1,0.2,0.2-0.1,0.3c0.5,0,1.2,0.1,1.2-0.1v0.1l0.3-0.2h-0.3
				c0.3-0.2,1.2-0.1,1.3,0c-0.5,0.1-0.3,0.2-1,0.1c0,0,0.2,0.1,0,0.2C144.7,73.2,145.5,73.3,146.3,73.2z"/>
			<path style="fill:#A85C2E;" d="M138,73.2L138,73.2L138,73.2z"/>
			<path style="fill:#A85C2E;" d="M138.3,73.3l0.4-0.2h-0.6v0.1C138.1,73.2,138.3,73.1,138.3,73.3L138.3,73.3z"/>
			<path style="fill:#A85C2E;" d="M139.2,73c-0.3,0.1-0.3,0.2-0.1,0.3c-0.3,0.1-0.2-0.2-0.4,0c0,0.1,0.4,0,0.5,0V73z"/>
			<polygon style="fill:#A85C2E;" points="141.6,73.1 141.5,73.1 141.7,73.1 			"/>
			<path style="fill:#A85C2E;" d="M141.5,73.1h-0.2C141.3,73.1,141.3,73.2,141.5,73.1L141.5,73.1z"/>
			<path style="fill:#A85C2E;" d="M140.7,73.1c-0.1,0-0.2,0-0.3,0H140.7z"/>
			<path style="fill:#A85C2E;" d="M140.9,73.1L140.9,73.1h-0.3C140.8,73.1,140.8,73.1,140.9,73.1z"/>
			<path style="fill:#A85C2E;" d="M141.3,73.1c0-0.1-0.1-0.2-0.4-0.2l0.1,0.2H141.3z"/>
			<polygon style="fill:#A85C2E;" points="150.7,75.9 150.4,75.9 150.4,75.9 			"/>
			<path style="fill:#A85C2E;" d="M149.2,75.8c-0.1,0-0.1,0-0.2,0.1C149.1,75.8,149.2,75.8,149.2,75.8z"/>
			<path style="fill:#A85C2E;" d="M148.1,76.5c-0.3-0.1,0.4-0.1-0.1-0.2c0-0.1,0.2-0.2,0.5-0.2c0,0.1-0.3,0.1-0.1,0.2
				c0.2-0.1,0.2,0,0.2-0.2c0.3-0.1,0.3-0.2,0.5-0.3c-0.4,0.1-1.1-0.1-1.5,0.1c-0.2,0.2-0.1,0.4-0.1,0.6
				C147.4,76.6,148.1,76.7,148.1,76.5z"/>
			<path style="fill:#A85C2E;" d="M148.6,76.7c0.1,0,0.2,0,0.3,0C148.8,76.6,148.7,76.7,148.6,76.7z"/>
			<path style="fill:#A85C2E;" d="M145.4,74.9c0,0-0.3,0.1-0.2,0.1h0.4C145.4,75,145.4,74.9,145.4,74.9z"/>
			<path style="fill:#A85C2E;" d="M145.7,75h-0.2C145.6,75,145.6,75,145.7,75z"/>
			<path style="fill:#A85C2E;" d="M145.4,74.9L145.4,74.9L145.4,74.9z"/>
			<path style="fill:#A85C2E;" d="M139.7,73c0-0.1-0.2,0-0.2,0C139.6,73,139.7,73,139.7,73z"/>
			<path style="fill:#A85C2E;" d="M133.4,73.3l-0.2-0.1C133.3,73.2,133.3,73.3,133.4,73.3z"/>
			<path style="fill:#A85C2E;" d="M131,75.1L131,75.1L131,75.1z"/>
			<path style="fill:#A85C2E;" d="M131,75.1c-0.1,0.1-0.4,0-0.5,0.1l0,0h-0.2C130.5,75.2,130.9,75.2,131,75.1z"/>
		</g>
		<g>
			<g>
				<path style="fill:#A85C2E;" d="M164.6,66.7c0,0,3.9-4.7,5.5-11.6C170.1,55.1,163.8,59.4,164.6,66.7z"/>
				<path style="fill:#FFFFFF;" d="M164.5,67v-0.3C163.7,59.4,170,55,170,55l0.3-0.2l-0.1,0.3c-1.6,6.9-5.5,11.6-5.5,11.7L164.5,67z
					 M169.9,55.4c-1.2,0.9-5.7,4.9-5.2,11C165.5,65.4,168.5,61.2,169.9,55.4z"/>
			</g>
			<g>
				<path style="fill:#A85C2E;" d="M167.1,60.1c0,0,1.5,4.4,6.2,2.8c0,0,4.8-1.8,5.6-5.9C178.9,57,170.3,54.5,167.1,60.1z"/>
				<path style="fill:#FFFFFF;" d="M171.4,63.4L171.4,63.4c-3.2,0-4.3-3.2-4.4-3.2v-0.1l0,0c1.8-3.1,5.1-3.7,7.7-3.7
					c2.3,0,4.3,0.5,4.3,0.6h0.1v0.1c-0.8,4.1-5.7,6-5.7,6C172.7,63.3,172,63.4,171.4,63.4z M167.3,60.1c0.2,0.4,1.3,3,4.1,3
					c0.6,0,1.2-0.1,1.9-0.3c0,0,4.7-1.8,5.5-5.7c-0.4-0.1-2.1-0.5-4.1-0.5C172.3,56.6,169,57.2,167.3,60.1z"/>
			</g>
			<g>
				<path style="fill:#A85C2E;" d="M168,61.5c0,0-3.6,3-0.5,6.7c0,0,2,1.7,5,3C172.4,71.1,178.3,63.4,168,61.5z"/>
				<path style="fill:#FFFFFF;" d="M172.5,71.3L172.5,71.3c-3.1-1.3-5.1-3-5.1-3c-1-1.2-1.4-2.4-1.3-3.6c0.2-2,1.7-3.2,1.8-3.3l0,0
					h0.1c3.2,0.6,5.2,1.9,5.9,3.7C175,67.9,172.6,71.1,172.5,71.3L172.5,71.3z M168,61.6c-0.2,0.2-1.5,1.4-1.6,3.1
					c-0.1,1.2,0.3,2.3,1.2,3.4c0,0,1.9,1.6,4.8,2.9c0.4-0.5,2.2-3.4,1.3-5.9C173,63.4,171.1,62.2,168,61.6z"/>
			</g>
			<g>
				<path style="fill:#A85C2E;" d="M166,60.6c0,0,0.8,4-4.4,5c0,0-2,0.3-6.1-1.4C155.6,64.1,157.8,54.2,166,60.6z"/>
				<path style="fill:#FFFFFF;" d="M161.4,65.7c-0.7,0-2.6-0.1-5.8-1.5h-0.1v-0.1c0-0.1,1.4-5.8,5.6-5.8c1.5,0,3.2,0.7,5.1,2.2l0,0
					l0,0c0,0.1,0.3,1.5-0.6,2.9c-0.7,1.1-2,1.8-3.8,2.2C161.7,65.7,161.6,65.7,161.4,65.7z M155.7,64c3.1,1.3,5,1.4,5.6,1.4
					c0.2,0,0.3,0,0.3,0c1.7-0.3,2.9-1,3.6-2.1c0.8-1.2,0.7-2.4,0.6-2.7c-1.8-1.4-3.4-2.1-4.9-2.1C157.3,58.6,155.9,63.3,155.7,64z"
					/>
			</g>
			<g>
				<path style="fill:#A85C2E;" d="M167.1,60.1c0,0-4.3,1.7-6.2-2.8c0,0-1.7-4.7,1-8C162,49.3,169.5,54.1,167.1,60.1z"/>
				<path style="fill:#FFFFFF;" d="M165.3,60.6c-1.4,0-3.3-0.6-4.4-3.2c0-0.1-1.7-4.9,1-8.1l0.1-0.1l0.1,0.1c0.1,0,7.6,4.9,5.2,11
					v0.1h-0.1C167.2,60.2,166.3,60.6,165.3,60.6z M162,49.5c-2.5,3.2-0.9,7.8-0.9,7.8c1,2.5,2.8,3,4.2,3c0.9,0,1.6-0.2,1.8-0.3
					C169.1,54.6,162.8,50,162,49.5z"/>
			</g>
		</g>
	</g>
	<text transform="matrix(1 0 0 1 114.399 106.2779)" style="fill:#A85C2E; font-family:'GillSans-Light'; font-size:8;">79 James Street, Brooklyn East </text>
	<text transform="matrix(1 0 0 1 129.099 117.2779)" style="fill:#A85C2E; font-family:'GillSans-Light'; font-size:8;">New York City 1289</text>
	<text transform="matrix(1 0 0 1 130.799 128.2779)" style="fill:#A85C2E; font-family:'GillSans-Light'; font-size:8;">Tel: 079-5889-3344</text>
	<text transform="matrix(1 0 0 1 117.599 139.2779)" style="fill:#A85C2E; font-family:'GillSans-Light'; font-size:8;">Email: particiagib@kmail.com</text>
	<text transform="matrix(1 0 0 1 120.799 161.2779)" style="fill:#A85C2E; font-family:'GillSans-Light'; font-size:8;">Facebook: Patricia_Gibson</text>
	<text transform="matrix(1 0 0 1 124.399 172.2779)" style="fill:#A85C2E; font-family:'GillSans-Light'; font-size:8;">Twitter: @patriciagibson</text>
	<text transform="matrix(1 0 0 1 125.899 183.2779)" style="fill:#A85C2E; font-family:'GillSans-Light'; font-size:8;">www.patriciagibson.net</text>
</g>
</svg>
