<?xml version="1.0" encoding="utf-8"?>
<!-- Generator: Adobe Illustrator 17.0.0, SVG Export Plug-In . SVG Version: 6.00 Build 0)  -->
<!DOCTYPE svg PUBLIC "-//W3C//DTD SVG 1.1//EN" "http://www.w3.org/Graphics/SVG/1.1/DTD/svg11.dtd">
<svg version="1.1" id="Layer_1" xmlns="http://www.w3.org/2000/svg" xmlns:xlink="http://www.w3.org/1999/xlink" x="0px" y="0px"
	 width="228.2px" height="330.2px" viewBox="0 0 228.2 330.2" style="enable-background:new 0 0 228.2 330.2;" xml:space="preserve"
	>
<g>
	<g>
		<polyline style="fill:none;stroke:#010101;stroke-width:0.25;" points="192.2,328.2 192.2,302.7 226.2,302.7 		"/>
		<polyline style="fill:none;stroke:#010101;stroke-width:0.25;" points="226.2,294.2 200.7,294.2 200.7,328.2 		"/>
	</g>
	<g>
		<polyline style="fill:none;stroke:#010101;stroke-width:0.25;" points="36,328.2 36,302.7 2,302.7 		"/>
		<polyline style="fill:none;stroke:#010101;stroke-width:0.25;" points="2,294.2 27.5,294.2 27.5,328.2 		"/>
	</g>
	<g>
		<polyline style="fill:none;stroke:#010101;stroke-width:0.25;" points="36,2 36,27.5 2,27.5 		"/>
		<polyline style="fill:none;stroke:#010101;stroke-width:0.25;" points="2,36 27.5,36 27.5,2 		"/>
	</g>
	<g>
		<polyline style="fill:none;stroke:#010101;stroke-width:0.25;" points="192.2,2 192.2,27.5 226.2,27.5 		"/>
		<polyline style="fill:none;stroke:#010101;stroke-width:0.25;" points="226.2,36 200.7,36 200.7,2 		"/>
	</g>
	<g>
		<line style="fill:none;stroke:#010101;stroke-width:0.25;" x1="114.1" y1="330.2" x2="114.1" y2="306.2"/>
		<line style="fill:none;stroke:#010101;stroke-width:0.25;" x1="78.1" y1="312.2" x2="150.1" y2="312.2"/>
	</g>
	<g>
		<line style="fill:none;stroke:#010101;stroke-width:0.25;" x1="114.1" y1="0" x2="114.1" y2="24"/>
		<line style="fill:none;stroke:#010101;stroke-width:0.25;" x1="150.1" y1="18" x2="78.1" y2="18"/>
	</g>
	<g>
		<line style="fill:none;stroke:#010101;stroke-width:0.25;" x1="18" y1="201.1" x2="18" y2="129.1"/>
		<line style="fill:none;stroke:#010101;stroke-width:0.25;" x1="0" y1="165.1" x2="24" y2="165.1"/>
	</g>
	<g>
		<line style="fill:none;stroke:#010101;stroke-width:0.25;" x1="210.2" y1="129.1" x2="210.2" y2="201.1"/>
		<line style="fill:none;stroke:#010101;stroke-width:0.25;" x1="228.2" y1="165.1" x2="204.2" y2="165.1"/>
	</g>
</g>
<rect x="27.4" y="27.5" style="fill:#E8C5C3;" width="173" height="275"/>
<path style="fill:#FFFFFF;" d="M183.5,222.4c-2.6-36.4,2.7-53.2,0-89.7c-1.3-17.7,3.9-41.5,1.5-59c-1.5-10.7,2.5-23.5-3.2-27.3
	c-4.9-3.3-22.6-1.4-28.3-1.7c-9.3-0.5-18.6,2-28.1,2c-10.4,0-21.2-2.9-31.5-2c-7.5,0.7-15.5,1.2-23,0c-9.2-1.4-14.7-0.2-21.3,2
	c-6.4,2.1-5.4,10.4-5,15.3c1,10.6,0.8,17.9,0,28c-0.8,10-0.8,23.2,0,33.2c0.9,10.5-1.1,27.4-0.5,38.1c0.8,15.4-1.9,30.2-0.8,45.4
	c1.2,16.8,2.2,35.8,1.3,52.7c-0.4,7.9-0.8,18,5,23.2c4.7,4.2,11.1,3,20.3,2.9c8.5,0,13-1.2,21.3,0c9.2,1.3,20.7-1.6,30,0
	c11.2,1.9,23.6,1.1,34.9,0c6.2-0.6,20.7,1.7,25.4-3.6c3.8-4.4,2.6-17.4,2.8-22.8C184.7,250.1,184.2,231.1,183.5,222.4z"/>
<g>
	<polygon style="fill:#A33322;" points="117.6,258 117.4,269 118.6,269.7 118.4,270.7 117,269.6 116.7,271.6 115.7,271 116.3,269.2 
		115,269.1 114.9,268.3 116.3,268.2 116.6,258 	"/>
	<polygon style="fill:#A33322;" points="112.3,257.4 112.1,268.4 113.3,269.1 113,270.1 111.7,269 111.4,271 110.4,270.4 
		110.9,268.6 109.6,269.3 109.3,268.3 110.9,267.6 111.3,257.4 	"/>
	<path style="fill:#DBE079;" d="M137.7,247.2L101.4,228c0,0-8.7,18.5,1.4,26.1C112.9,261.8,135.6,257.4,137.7,247.2z"/>
	<polygon style="fill:#73321B;" points="98.4,237.7 98.5,237.4 98,241.4 91.5,238.9 	"/>
	<ellipse style="fill:#73321B;" cx="104.3" cy="238.9" rx="3.5" ry="3.3"/>
	<ellipse style="fill:#DBE079;" cx="104.2" cy="239" rx="1.1" ry="1"/>
	<path style="fill:#D4716A;" d="M114,240.4l16.3,7.7c0,0-6.4,5-11.1,5.1s-10.2-3.4-10.2-3.4L114,240.4z"/>
	<polygon style="fill:#73321B;" points="114.7,242.1 116.3,242.9 116,243.3 114.5,242.6 	"/>
	<polygon style="fill:#73321B;" points="113.9,243.7 115.5,244.5 115.1,244.9 113.7,244.2 	"/>
	<polygon style="fill:#73321B;" points="113.1,245.3 114.7,246.1 114.3,246.5 112.8,245.8 	"/>
	<polygon style="fill:#73321B;" points="112.2,246.8 113.8,247.6 113.4,248.1 112,247.3 	"/>
	<polygon style="fill:#73321B;" points="111.4,248.4 113,249.2 112.6,249.6 111.2,248.9 	"/>
	<polygon style="fill:#73321B;" points="117.3,242.6 118.9,243.4 118.6,243.8 117.1,243.1 	"/>
	<polygon style="fill:#73321B;" points="116.5,244.2 118.1,245 117.7,245.4 116.3,244.7 	"/>
	<polygon style="fill:#73321B;" points="115.7,245.8 117.3,246.6 116.9,247 115.4,246.3 	"/>
	<polygon style="fill:#73321B;" points="114.8,247.3 116.4,248.1 116,248.6 114.6,247.8 	"/>
	<polygon style="fill:#73321B;" points="114,248.9 115.6,249.7 115.2,250.1 113.7,249.4 	"/>
	<polygon style="fill:#73321B;" points="119.2,244.5 120.8,245.3 120.4,245.7 118.9,245 	"/>
	<polygon style="fill:#73321B;" points="118.3,246.1 119.9,246.8 119.6,247.3 118.1,246.6 	"/>
	<polygon style="fill:#73321B;" points="117.5,247.6 119.1,248.4 118.7,248.8 117.3,248.1 	"/>
	<polygon style="fill:#73321B;" points="116.7,249.2 118.3,250 117.9,250.4 116.4,249.7 	"/>
	<polygon style="fill:#73321B;" points="115.8,250.8 117.4,251.6 117,252 115.6,251.3 	"/>
	<polygon style="fill:#73321B;" points="121.9,245.1 123.5,245.8 123.1,246.3 121.7,245.6 	"/>
	<polygon style="fill:#73321B;" points="121.1,246.6 122.7,247.4 122.3,247.8 120.9,247.1 	"/>
	<polygon style="fill:#73321B;" points="120.2,248.2 121.8,249 121.5,249.4 120,248.7 	"/>
	<polygon style="fill:#73321B;" points="119.4,249.8 121,250.6 120.6,251 119.2,250.3 	"/>
	<polygon style="fill:#73321B;" points="118.6,251.3 120.2,252.1 119.8,252.6 118.3,251.8 	"/>
	<polygon style="fill:#73321B;" points="123.9,246.8 125.5,247.6 125.1,248.1 123.7,247.3 	"/>
	<polygon style="fill:#73321B;" points="123.1,248.4 124.7,249.2 124.3,249.6 122.8,248.9 	"/>
	<polygon style="fill:#73321B;" points="126.9,246.8 128.5,247.6 128.1,248.1 126.7,247.3 	"/>
	<polygon style="fill:#73321B;" points="126,248.4 127.6,249.2 127.3,249.6 125.8,248.9 	"/>
	<polygon style="fill:#73321B;" points="122.2,250 123.8,250.8 123.4,251.2 122,250.5 	"/>
	<polygon style="fill:#73321B;" points="133.1,244.8 139.6,232.5 141,233.5 135.8,243 142.3,234.3 144.1,235.7 137.2,244.3 
		144.5,236.3 146,237.9 137.5,247.2 	"/>
	<polygon style="fill:#73321B;" points="103.4,229.2 103.1,224 101.5,224.2 101.9,227.1 100.5,224.4 99.2,224.8 100.7,227.3 
		98.2,225.3 97.3,226.3 	"/>
	<ellipse style="fill:#73321B;" cx="130.8" cy="241.6" rx="0.8" ry="0.7"/>
	<ellipse style="fill:#73321B;" cx="127.8" cy="240.1" rx="0.8" ry="0.7"/>
	<ellipse style="fill:#73321B;" cx="124.7" cy="238.7" rx="0.8" ry="0.7"/>
	<ellipse style="fill:#73321B;" cx="121.7" cy="237.3" rx="0.8" ry="0.7"/>
	<ellipse style="fill:#73321B;" cx="118.7" cy="235.8" rx="0.8" ry="0.7"/>
	<ellipse style="fill:#73321B;" cx="116.1" cy="234.4" rx="0.8" ry="0.7"/>
	<ellipse style="fill:#73321B;" cx="113.6" cy="232.9" rx="0.8" ry="0.7"/>
	<ellipse style="fill:#73321B;" cx="111" cy="231.4" rx="0.8" ry="0.7"/>
	<ellipse style="fill:#73321B;" cx="108.5" cy="229.9" rx="0.8" ry="0.7"/>
</g>
<text transform="matrix(1 0 0 1 53.5469 111.2314)" style="fill:#D4716A; font-family:'MyriadPro-Regular'; font-size:8;">79 James Street, Brooklyn East, </text>
<text transform="matrix(1 0 0 1 77.9469 120.8314)" style="fill:#D4716A; font-family:'MyriadPro-Regular'; font-size:8;">New York City 1289</text>
<text transform="matrix(1 0 0 1 79.1469 140.0314)" style="fill:#D4716A; font-family:'MyriadPro-Regular'; font-size:8;">Tel: 079-5889-3344</text>
<text transform="matrix(1 0 0 1 56.2469 149.6314)" style="fill:#D4716A; font-family:'MyriadPro-Regular'; font-size:8;">Email: particiagibson@kmail.com</text>
<text transform="matrix(1 0 0 1 67.1469 159.2314)" style="fill:#D4716A; font-family:'MyriadPro-Regular'; font-size:8;">Facebook: Patricia_Gibson</text>
<text transform="matrix(1 0 0 1 70.3469 168.8314)" style="fill:#D4716A; font-family:'MyriadPro-Regular'; font-size:8;">Twitter: @patriciagibson</text>
<text transform="matrix(1 0 0 1 71.9469 188.0314)" style="fill:#D4716A; font-family:'MyriadPro-Regular'; font-size:8;">www.patriciagibson.com</text>
<text transform="matrix(1 0 0 1 75.4273 80.2334)" style="fill:#D4716A; font-family:'MyriadPro-Regular'; font-size:10;">PATRICIA GIBSON</text>
<text transform="matrix(1 0 0 1 89.4273 89.8334)" style="fill:#D4716A; font-family:'MyriadPro-Regular'; font-size:8;">Baby Clothing</text>
</svg>
