<?xml version="1.0" encoding="utf-8"?>
<!-- Generator: Adobe Illustrator 17.0.0, SVG Export Plug-In . SVG Version: 6.00 Build 0)  -->
<!DOCTYPE svg PUBLIC "-//W3C//DTD SVG 1.1//EN" "http://www.w3.org/Graphics/SVG/1.1/DTD/svg11.dtd">
<svg version="1.1" id="Layer_1" xmlns="http://www.w3.org/2000/svg" xmlns:xlink="http://www.w3.org/1999/xlink" x="0px" y="0px"
	 width="228.1px" height="330.2px" viewBox="0 0 228.1 330.2" style="enable-background:new 0 0 228.1 330.2;" xml:space="preserve"
	>
<g>
	<g>
		<polyline style="fill:none;stroke:#010101;stroke-width:0.25;" points="192.1,328.2 192.1,302.7 226.1,302.7 		"/>
		<polyline style="fill:none;stroke:#010101;stroke-width:0.25;" points="226.1,294.2 200.6,294.2 200.6,328.2 		"/>
	</g>
	<g>
		<polyline style="fill:none;stroke:#010101;stroke-width:0.25;" points="36,328.2 36,302.7 1.9,302.7 		"/>
		<polyline style="fill:none;stroke:#010101;stroke-width:0.25;" points="1.9,294.2 27.5,294.2 27.5,328.2 		"/>
	</g>
	<g>
		<polyline style="fill:none;stroke:#010101;stroke-width:0.25;" points="36,2 36,27.5 1.9,27.5 		"/>
		<polyline style="fill:none;stroke:#010101;stroke-width:0.25;" points="1.9,36 27.5,36 27.5,2 		"/>
	</g>
	<g>
		<polyline style="fill:none;stroke:#010101;stroke-width:0.25;" points="192.1,2 192.1,27.5 226.1,27.5 		"/>
		<polyline style="fill:none;stroke:#010101;stroke-width:0.25;" points="226.1,36 200.6,36 200.6,2 		"/>
	</g>
	<g>
		<line style="fill:none;stroke:#010101;stroke-width:0.25;" x1="114" y1="330.2" x2="114" y2="306.2"/>
		<line style="fill:none;stroke:#010101;stroke-width:0.25;" x1="78" y1="312.2" x2="150" y2="312.2"/>
	</g>
	<g>
		<line style="fill:none;stroke:#010101;stroke-width:0.25;" x1="114" y1="0" x2="114" y2="24"/>
		<line style="fill:none;stroke:#010101;stroke-width:0.25;" x1="150" y1="18" x2="78" y2="18"/>
	</g>
	<g>
		<line style="fill:none;stroke:#010101;stroke-width:0.25;" x1="18" y1="201.1" x2="18" y2="129.1"/>
		<line style="fill:none;stroke:#010101;stroke-width:0.25;" x1="0" y1="165.1" x2="24" y2="165.1"/>
	</g>
	<g>
		<line style="fill:none;stroke:#010101;stroke-width:0.25;" x1="210.1" y1="129.1" x2="210.1" y2="201.1"/>
		<line style="fill:none;stroke:#010101;stroke-width:0.25;" x1="228.1" y1="165.1" x2="204.1" y2="165.1"/>
	</g>
</g>
<rect x="27.5" y="27.5" style="fill:#E8C5C3;" width="173" height="275"/>
<g>
	<path style="fill:#DBE079;" d="M58.9,239.4c0,0-11.9,21.2,3.1,27.2c14.9,6.1,101.8,6.3,105.6,1.3c3.7-5,10.9-22,0-27.2
		c-10.9-5.3-83.2-5.6-94-4.8C62.7,236.7,64.4,235.2,58.9,239.4z"/>
	<path style="fill:#D4716A;" d="M62.3,242.6c0,0-6.1,9-3.1,14c3.1,5,3.7,9.3,47.2,10.6c43.5,1.3,54.3,1.6,57-1.1
		c2.7-2.6,7.1-19.8,2.7-22.2s-36.7-4.2-57-4.5C88.8,239.1,70.8,238.9,62.3,242.6z"/>
</g>
<g>
	<rect x="74.7" y="222.4" style="fill:#D4716A;" width="1.8" height="20.6"/>
	<g>
		<ellipse style="fill:#A33322;" cx="76" cy="215.7" rx="6.5" ry="6"/>
		<ellipse style="fill:#DBE079;" cx="76.3" cy="215.6" rx="3.8" ry="3.6"/>
		<ellipse style="fill:#73321B;" cx="76.1" cy="215.7" rx="0.9" ry="0.9"/>
		<path style="fill:#73321B;" d="M71.8,209.9l-2,1.9c0,0-2.7-1.5-1.3-2.7C69.8,208,71.2,209.5,71.8,209.9z"/>
		<path style="fill:#73321B;" d="M69.7,212.2l-1,2.5c0,0-3.1-0.3-2.4-1.9C67.1,211.2,69,212.1,69.7,212.2z"/>
		<path style="fill:#73321B;" d="M68.8,215.5l0.4,2.6c0,0-2.9,1.1-3.1-0.6C66,215.8,68.1,215.7,68.8,215.5z"/>
		<path style="fill:#73321B;" d="M69.7,218.8l1.7,2.1c0,0-1.9,2.3-3,0.8C67.3,220.3,69.1,219.2,69.7,218.8z"/>
		<path style="fill:#73321B;" d="M72.1,221.3l2.6,1.1c0,0-0.5,2.9-2.2,2.1C70.8,223.7,71.9,221.9,72.1,221.3z"/>
		<path style="fill:#73321B;" d="M75.6,222.4l2.8-0.2c0,0,1,2.7-0.9,2.8C75.7,225,75.7,223,75.6,222.4z"/>
		<path style="fill:#73321B;" d="M79.1,221.8l2.3-1.5c0,0,2.3,2,0.7,2.9C80.6,224.1,79.6,222.3,79.1,221.8z"/>
		<path style="fill:#73321B;" d="M81.9,219.6l1.3-2.3c0,0,3,0.7,2.1,2.2S82.6,219.9,81.9,219.6z"/>
		<path style="fill:#73321B;" d="M83.3,216.5v-2.6c0,0,3-0.8,3,1C86.1,216.6,84,216.4,83.3,216.5z"/>
		<path style="fill:#73321B;" d="M82.9,213.1l-1.4-2.3c0,0,2.2-2,3.1-0.5C85.4,211.9,83.5,212.7,82.9,213.1z"/>
		<path style="fill:#73321B;" d="M80.8,210.4l-2.4-1.4c0,0,0.9-2.8,2.5-1.8C82.4,208.1,81.1,209.8,80.8,210.4z"/>
		<path style="fill:#73321B;" d="M78,208.9l-2.8-0.1c0,0-0.6-2.8,1.2-2.7C78.2,206.3,78,208.3,78,208.9z"/>
		<path style="fill:#73321B;" d="M75,208.8l-2.7,0.8c0,0-1.7-2.4,0.1-2.9C74.2,206.2,74.7,208.2,75,208.8z"/>
	</g>
</g>
<g>
	<rect x="151.4" y="232.6" style="fill:#D4716A;" width="1.2" height="13.9"/>
	<g>
		<ellipse style="fill:#A33322;" cx="152.3" cy="228.1" rx="4.3" ry="4"/>
		<ellipse style="fill:#DBE079;" cx="152.4" cy="228" rx="2.6" ry="2.4"/>
		<ellipse style="fill:#73321B;" cx="152.3" cy="228.1" rx="0.6" ry="0.6"/>
		<path style="fill:#73321B;" d="M149.4,224.2l-1.3,1.3c0,0-1.8-1-0.9-1.8S149.1,223.9,149.4,224.2z"/>
		<path style="fill:#73321B;" d="M148,225.8l-0.7,1.7c0,0-2.1-0.2-1.6-1.3C146.3,225.1,147.6,225.6,148,225.8z"/>
		<path style="fill:#73321B;" d="M147.4,228l0.3,1.8c0,0-1.9,0.7-2.1-0.4C145.5,228.2,146.9,228.1,147.4,228z"/>
		<path style="fill:#73321B;" d="M148,230.2l1.1,1.4c0,0-1.3,1.5-2,0.6C146.4,231.2,147.6,230.5,148,230.2z"/>
		<path style="fill:#73321B;" d="M149.6,231.8l1.7,0.7c0,0-0.4,1.9-1.5,1.4C148.8,233.5,149.5,232.3,149.6,231.8z"/>
		<path style="fill:#73321B;" d="M151.9,232.6l1.9-0.1c0,0,0.7,1.8-0.6,1.9C152,234.4,152,233,151.9,232.6z"/>
		<path style="fill:#73321B;" d="M154.3,232.2l1.6-1c0,0,1.5,1.3,0.5,1.9C155.3,233.7,154.6,232.5,154.3,232.2z"/>
		<path style="fill:#73321B;" d="M156.2,230.7l0.9-1.6c0,0,2,0.5,1.4,1.5C157.9,231.6,156.7,230.9,156.2,230.7z"/>
		<path style="fill:#73321B;" d="M157.1,228.6v-1.8c0,0,2-0.5,2,0.7S157.6,228.6,157.1,228.6z"/>
		<path style="fill:#73321B;" d="M156.9,226.4l-0.9-1.5c0,0,1.5-1.3,2.1-0.3C158.6,225.5,157.3,226.1,156.9,226.4z"/>
		<path style="fill:#73321B;" d="M155.5,224.5l-1.6-0.9c0,0,0.6-1.9,1.7-1.2C156.5,223,155.7,224.1,155.5,224.5z"/>
		<path style="fill:#73321B;" d="M153.6,223.6l-1.9-0.1c0,0-0.4-1.9,0.8-1.8C153.8,221.8,153.6,223.1,153.6,223.6z"/>
		<path style="fill:#73321B;" d="M151.6,223.5l-1.8,0.6c0,0-1.1-1.6,0.1-2C151,221.7,151.4,223,151.6,223.5z"/>
	</g>
</g>
<path style="fill:#D4716A;" d="M80.5,160.1c0,0-6.5,0.5-4.6,4s9.3,1.5,9.3,1.5s2.2-7.8,0.1-9.2C82.8,154.6,80.7,157.7,80.5,160.1z"
	/>
<g>
	<polygon style="fill:#A33322;" points="127.4,218.6 127.1,236.3 129.1,237.5 128.6,239.1 126.4,237.3 126,240.5 124.3,239.6 
		125.2,236.6 123.1,236.5 123,235.2 125.2,235 125.8,218.6 	"/>
	<polygon style="fill:#A33322;" points="118.8,217.6 118.6,235.4 120.5,236.5 120,238.1 117.8,236.3 117.4,239.6 115.7,238.6 
		116.6,235.7 114.4,236.8 114,235.2 116.6,234.1 117.2,217.6 	"/>
	<path style="fill:#DBE079;" d="M159.9,201.1l-58.7-31c0,0-14.1,29.9,2.2,42.2C119.8,224.7,156.5,217.6,159.9,201.1z"/>
	<polygon style="fill:#73321B;" points="96.3,185.7 96.5,185.3 95.8,191.9 85.2,187.8 	"/>
	<ellipse style="fill:#73321B;" cx="106" cy="187.8" rx="5.6" ry="5.3"/>
	<ellipse style="fill:#DBE079;" cx="105.7" cy="187.9" rx="1.7" ry="1.6"/>
	<path style="fill:#D4716A;" d="M121.5,190.2l26.3,12.5c0,0-10.4,8.1-18,8.2c-7.6,0.1-16.5-5.4-16.5-5.4L121.5,190.2z"/>
	<polygon style="fill:#73321B;" points="122.8,193 125.4,194.2 124.8,194.9 122.4,193.8 	"/>
	<polygon style="fill:#73321B;" points="121.4,195.5 124,196.8 123.4,197.5 121,196.3 	"/>
	<polygon style="fill:#73321B;" points="120.1,198 122.7,199.3 122,200 119.7,198.8 	"/>
	<polygon style="fill:#73321B;" points="118.7,200.6 121.3,201.9 120.7,202.5 118.3,201.4 	"/>
	<polygon style="fill:#73321B;" points="117.3,203.1 119.9,204.4 119.3,205.1 117,203.9 	"/>
	<polygon style="fill:#73321B;" points="127,193.8 129.6,195 128.9,195.7 126.6,194.6 	"/>
	<polygon style="fill:#73321B;" points="125.6,196.3 128.2,197.6 127.6,198.3 125.2,197.1 	"/>
	<polygon style="fill:#73321B;" points="124.3,198.8 126.8,200.1 126.2,200.8 123.9,199.7 	"/>
	<polygon style="fill:#73321B;" points="122.9,201.4 125.5,202.7 124.9,203.4 122.5,202.2 	"/>
	<polygon style="fill:#73321B;" points="121.5,203.9 124.1,205.2 123.5,205.9 121.2,204.7 	"/>
	<polygon style="fill:#73321B;" points="129.9,196.8 132.5,198 131.9,198.7 129.6,197.6 	"/>
	<polygon style="fill:#73321B;" points="128.6,199.3 131.2,200.6 130.6,201.3 128.2,200.1 	"/>
	<polygon style="fill:#73321B;" points="127.2,201.9 129.8,203.1 129.2,203.8 126.8,202.7 	"/>
	<polygon style="fill:#73321B;" points="125.9,204.4 128.5,205.7 127.8,206.4 125.5,205.2 	"/>
	<polygon style="fill:#73321B;" points="124.5,206.9 127.1,208.2 126.5,208.9 124.1,207.7 	"/>
	<polygon style="fill:#73321B;" points="134.4,197.7 137,199 136.4,199.7 134,198.5 	"/>
	<polygon style="fill:#73321B;" points="133,200.2 135.6,201.5 135,202.2 132.6,201 	"/>
	<polygon style="fill:#73321B;" points="131.7,202.8 134.3,204 133.6,204.7 131.3,203.6 	"/>
	<polygon style="fill:#73321B;" points="130.3,205.3 132.9,206.6 132.3,207.3 129.9,206.1 	"/>
	<polygon style="fill:#73321B;" points="128.9,207.9 131.5,209.1 130.9,209.8 128.6,208.7 	"/>
	<polygon style="fill:#73321B;" points="137.6,200.6 140.2,201.9 139.6,202.5 137.2,201.4 	"/>
	<polygon style="fill:#73321B;" points="136.2,203.1 138.8,204.4 138.2,205.1 135.9,203.9 	"/>
	<polygon style="fill:#73321B;" points="142.4,200.6 145,201.9 144.4,202.5 142,201.4 	"/>
	<polygon style="fill:#73321B;" points="141,203.1 143.6,204.4 143,205.1 140.7,203.9 	"/>
	<polygon style="fill:#73321B;" points="134.9,205.7 137.5,206.9 136.8,207.6 134.5,206.5 	"/>
	<polygon style="fill:#73321B;" points="152.4,197.3 162.9,177.3 165.2,179.1 156.8,194.5 167.3,180.2 170.2,182.6 159.1,196.4 
		170.9,183.5 173.2,186.1 159.5,201.2 	"/>
	<polygon style="fill:#73321B;" points="104.5,172 104,163.6 101.4,163.9 102,168.7 99.8,164.3 97.7,165 100.1,169 96.1,165.8 
		94.5,167.4 	"/>
	<ellipse style="fill:#73321B;" cx="148.7" cy="192.1" rx="1.3" ry="1.2"/>
	<path style="fill:#73321B;" d="M142.5,189.8c0,0.7,0.6,1.2,1.3,1.2c0.7,0,1.3-0.5,1.3-1.2s-0.6-1.2-1.3-1.2
		S142.5,189.1,142.5,189.8z"/>
	<ellipse style="fill:#73321B;" cx="138.9" cy="187.4" rx="1.3" ry="1.2"/>
	<ellipse style="fill:#73321B;" cx="134" cy="185.1" rx="1.3" ry="1.2"/>
	<ellipse style="fill:#73321B;" cx="129.1" cy="182.8" rx="1.3" ry="1.2"/>
	<ellipse style="fill:#73321B;" cx="125" cy="180.4" rx="1.3" ry="1.2"/>
	<ellipse style="fill:#73321B;" cx="120.9" cy="178" rx="1.3" ry="1.2"/>
	<ellipse style="fill:#73321B;" cx="116.8" cy="175.7" rx="1.3" ry="1.2"/>
	<ellipse style="fill:#73321B;" cx="112.6" cy="173.3" rx="1.3" ry="1.2"/>
</g>
<g>
	<path style="fill:#C63627;" d="M89.8,216.4c0,0-0.7,7.6,4,7.6s4.9-7.4,4.9-7.4l-4.9,2.3L89.8,216.4z"/>
	<path style="fill:#A33322;" d="M93.7,214.5v0.5l-2.5,3.5c0,0,1.5,5.6,2.5,5.6s2.2-6,2.2-6L93.7,214.5z"/>
	<polygon style="fill:#73321B;" points="92.7,224 93,236.8 93.7,236.5 93.7,224 	"/>
</g>
<text transform="matrix(1 0 0 1 71.3794 254.6919)" style="fill:#FFFFFF; font-family:'MyriadPro-Regular'; font-size:8;">www.patriciagibson.com</text>
<g>
	<path style="fill:#FFFFFF;" d="M135.9,287.2c-0.5,0-1.1,0-1.6,0c-0.3,0-0.5-0.2-0.5-0.5s0.2-0.5,0.5-0.5c0.6,0,1.2,0,1.8,0
		c1.4,0,2.8,0,4.2-0.1c0.3,0,0.5,0.2,0.5,0.5s-0.2,0.5-0.5,0.5C138.8,287.2,137.3,287.2,135.9,287.2z M128.3,287L128.3,287
		c-2.1-0.2-4.1-0.4-6-0.7c-0.3,0-0.5-0.3-0.4-0.6c0-0.3,0.3-0.5,0.6-0.4c1.9,0.3,3.9,0.5,5.9,0.6c0.3,0,0.5,0.3,0.5,0.5
		C128.8,286.8,128.6,287,128.3,287z M146.3,286.9c-0.3,0-0.5-0.2-0.5-0.5s0.2-0.5,0.5-0.5c1.9-0.1,3.8-0.3,6-0.5
		c0.3,0,0.5,0.2,0.5,0.5s-0.2,0.5-0.5,0.5C150.1,286.6,148.2,286.8,146.3,286.9L146.3,286.9z M98.4,286.4c-0.3,0-0.5-0.2-0.5-0.5
		s0.2-0.5,0.5-0.5c2-0.1,4.1-0.2,6-0.3c0.3,0,0.5,0.2,0.5,0.5s-0.2,0.5-0.5,0.5C102.6,286.2,100.4,286.4,98.4,286.4L98.4,286.4z
		 M92.4,286.3L92.4,286.3c-0.6-0.1-1.1-0.1-1.5-0.2c-1.5-0.2-3-0.4-4.4-0.5c-0.3,0-0.5-0.3-0.5-0.5s0.2-0.5,0.5-0.5
		c1.5,0.1,3,0.2,4.5,0.5c0.5,0.1,1,0.1,1.4,0.2c0.3,0,0.5,0.3,0.4,0.5C92.9,286.1,92.7,286.3,92.4,286.3z M62.5,286.2
		c-0.3,0-0.5-0.2-0.5-0.5s0.2-0.5,0.5-0.5c0.7,0,1.4,0,2.2-0.1c1.2,0,2.5-0.1,3.8-0.1c0.2,0,0.5,0.2,0.5,0.5s-0.2,0.5-0.5,0.5
		c-1.3,0-2.6,0.1-3.8,0.1C63.9,286.2,63.2,286.2,62.5,286.2L62.5,286.2z M56.5,286.1C56.4,286.1,56.4,286.1,56.5,286.1
		c-2.4-0.3-4.3-0.9-5.9-1.9c-0.2-0.1-0.3-0.5-0.2-0.7c0.1-0.2,0.5-0.3,0.7-0.2c1.5,0.9,3.2,1.5,5.5,1.7c0.3,0,0.5,0.3,0.4,0.6
		C56.9,285.9,56.7,286.1,56.5,286.1z M164.2,286.1L164.2,286.1h-1.9c-1.2,0-2.4-0.1-3.5-0.1h-0.5c-0.3,0-0.5-0.2-0.5-0.5
		s0.2-0.5,0.5-0.5h0.6c1.1,0,2.3,0,3.5,0.1h1.9c0.3,0,0.5,0.2,0.5,0.5C164.7,285.9,164.5,286.1,164.2,286.1z M170.2,286
		c-0.3,0-0.5-0.2-0.5-0.5s0.2-0.5,0.5-0.5c2.3-0.1,4.2-0.4,5.8-0.8c0.3-0.1,0.5,0.1,0.6,0.4s-0.1,0.5-0.4,0.6
		C174.6,285.6,172.7,285.9,170.2,286C170.3,286,170.2,286,170.2,286z M74.4,286c-0.3,0-0.5-0.2-0.5-0.5s0.2-0.5,0.5-0.5
		c1,0,1.9-0.1,2.9-0.2c1.1-0.1,2.1-0.1,3.1-0.2c0.3,0,0.5,0.2,0.5,0.5s-0.2,0.5-0.5,0.5c-1,0-2,0.1-3.1,0.2
		C76.4,285.8,75.5,285.9,74.4,286C74.5,286,74.5,286,74.4,286z M110.4,285.7c-0.3,0-0.5-0.2-0.5-0.5s0.2-0.5,0.5-0.5
		c2.3-0.1,4.2-0.1,6-0.1c0.3,0,0.5,0.2,0.5,0.5s-0.3,0.5-0.5,0.5C114.5,285.6,112.7,285.6,110.4,285.7L110.4,285.7z M181.3,282.4
		c-0.1,0-0.2,0-0.3-0.1c-0.2-0.2-0.2-0.5-0.1-0.7c0.9-1.1,1.6-2.9,2-5.3c0-0.3,0.3-0.4,0.6-0.4c0.3,0,0.5,0.3,0.4,0.6
		c-0.5,2.6-1.2,4.5-2.2,5.8C181.6,282.3,181.5,282.4,181.3,282.4z M46.7,280c-0.2,0-0.3-0.1-0.4-0.3c-0.9-1.6-1.6-3.5-2-5.8
		c-0.1-0.3,0.1-0.5,0.4-0.6s0.5,0.1,0.6,0.4c0.4,2.1,1.1,4,1.9,5.5c0.1,0.2,0.1,0.5-0.2,0.7C46.9,279.9,46.8,280,46.7,280z
		 M184,270.9L184,270.9c-0.3,0-0.5-0.2-0.5-0.5c0-1.1,0.1-2.3,0.1-3.4c0-0.9,0-1.8,0-2.6c0-0.3,0.2-0.5,0.5-0.5s0.5,0.2,0.5,0.5
		c0,0.8,0,1.7,0,2.6c0,1.1,0,2.3-0.1,3.4C184.5,270.6,184.3,270.9,184,270.9z M44.1,268.4c-0.3,0-0.5-0.2-0.5-0.5c0-0.7,0-1.4,0-2.1
		c0-1.2,0-2.4,0.1-3.9c0-0.3,0.2-0.5,0.5-0.5s0.5,0.2,0.5,0.5c-0.1,1.5-0.1,2.7-0.1,3.9c0,0.7,0,1.4,0,2.1
		C44.6,268.1,44.4,268.4,44.1,268.4L44.1,268.4z M184.1,258.9L184.1,258.9c-0.3,0-0.5-0.2-0.5-0.5c0.1-1.7,0.1-3.7,0.1-6
		c0-0.3,0.2-0.5,0.5-0.5l0,0c0.3,0,0.5,0.2,0.5,0.5c0,2.3,0,4.3-0.1,6C184.6,258.6,184.4,258.9,184.1,258.9z M44.4,256.4L44.4,256.4
		c-0.3,0-0.5-0.2-0.5-0.5c0.1-2,0.1-4,0.1-6c0-0.3,0.2-0.5,0.5-0.5s0.5,0.2,0.5,0.5c0,2-0.1,4-0.1,6
		C44.9,256.2,44.7,256.4,44.4,256.4z M184.2,246.9c-0.3,0-0.5-0.2-0.5-0.5c0-2-0.1-4-0.1-6c0-0.3,0.2-0.5,0.5-0.5
		c0.2,0,0.5,0.2,0.5,0.5c0,2,0.1,4,0.1,6C184.7,246.6,184.5,246.9,184.2,246.9L184.2,246.9z M44.6,244.4c-0.3,0-0.5-0.2-0.5-0.5
		c0-2,0-4-0.1-6c0-0.3,0.2-0.5,0.5-0.5s0.5,0.2,0.5,0.5c0,2,0.1,4,0.1,6C45.1,244.1,44.9,244.4,44.6,244.4L44.6,244.4z M183.9,234.9
		c-0.3,0-0.5-0.2-0.5-0.5c-0.1-2.1-0.2-4.1-0.2-6c0-0.3,0.2-0.5,0.5-0.5s0.5,0.2,0.5,0.5c0.1,1.9,0.2,3.9,0.2,6
		C184.4,234.6,184.2,234.8,183.9,234.9L183.9,234.9z M44.3,232.4c-0.3,0-0.5-0.2-0.5-0.5c-0.1-2-0.1-4-0.2-6c0-0.3,0.2-0.5,0.5-0.5
		s0.5,0.2,0.5,0.5c0.1,2,0.2,4,0.2,6C44.9,232.1,44.6,232.4,44.3,232.4C44.4,232.4,44.4,232.4,44.3,232.4z M183.3,222.4h-0.5
		c-0.1-2-0.3-4-0.4-6c0-0.3,0.2-0.5,0.5-0.5s0.5,0.2,0.5,0.5c0.1,1.9,0.2,3.9,0.4,6H183.3z M43.8,220.4c-0.3,0-0.5-0.2-0.5-0.5
		c-0.1-2-0.2-4-0.4-6c0-0.3,0.2-0.5,0.5-0.5s0.5,0.2,0.5,0.5c0.1,2,0.2,4,0.4,6C44.3,220.1,44.1,220.4,43.8,220.4L43.8,220.4z
		 M182.7,210.9c-0.3,0-0.5-0.2-0.5-0.5c-0.1-2.1-0.1-4.1-0.1-6c0-0.3,0.2-0.5,0.5-0.5s0.5,0.2,0.5,0.5c0,1.9,0.1,3.9,0.1,6
		C183.2,210.6,183,210.9,182.7,210.9L182.7,210.9z M43,208.4c-0.3,0-0.5-0.2-0.5-0.5l-0.1-1.3c-0.1-1.5-0.2-3.1-0.2-4.8
		c0-0.3,0.2-0.5,0.5-0.5s0.5,0.2,0.5,0.5c0,1.6,0.1,3.2,0.2,4.7l0.1,1.3C43.6,208.1,43.4,208.4,43,208.4
		C43.1,208.4,43.1,208.4,43,208.4z M182.6,198.9L182.6,198.9c-0.3,0-0.5-0.2-0.5-0.5c0-2,0.1-4,0.1-6c0-0.3,0.3-0.5,0.5-0.5
		c0.3,0,0.5,0.2,0.5,0.5c-0.1,2-0.1,3.9-0.1,6C183.1,198.7,182.8,198.9,182.6,198.9z M42.7,196.4L42.7,196.4c-0.3,0-0.5-0.2-0.5-0.5
		c0-1.8,0.1-3.8,0.2-6c0-0.3,0.2-0.5,0.5-0.5s0.5,0.2,0.5,0.5c-0.1,2.2-0.2,4.2-0.2,6C43.2,196.2,43,196.4,42.7,196.4z M182.9,186.9
		L182.9,186.9c-0.3,0-0.5-0.2-0.5-0.5c0.1-2,0.2-4,0.3-6c0-0.3,0.3-0.5,0.5-0.5c0.3,0,0.5,0.2,0.5,0.5c-0.1,2-0.2,4-0.3,6
		C183.4,186.7,183.2,186.9,182.9,186.9z M43.2,184.4L43.2,184.4c-0.3,0-0.5-0.3-0.5-0.5v-0.8c0.1-1.7,0.2-3.4,0.3-5.2
		c0-0.3,0.2-0.5,0.5-0.5s0.5,0.2,0.5,0.5c-0.1,1.7-0.2,3.5-0.3,5.2v0.8C43.7,184.2,43.5,184.4,43.2,184.4z M183.5,174.9L183.5,174.9
		c-0.3,0-0.5-0.2-0.5-0.5c0.1-2,0.2-4,0.3-6c0-0.3,0.2-0.5,0.5-0.5s0.5,0.2,0.5,0.5c-0.1,2-0.2,4-0.3,6
		C184,174.7,183.7,174.9,183.5,174.9z M43.8,172.4L43.8,172.4c-0.3,0-0.5-0.2-0.5-0.5c0-1.5,0.1-3.1,0.1-4.6c0-0.5,0-0.9,0-1.4
		c0-0.3,0.2-0.5,0.5-0.5l0,0c0.3,0,0.5,0.2,0.5,0.5c0,0.5,0,0.9,0,1.4c0,1.6,0,3.1-0.1,4.6C44.3,172.2,44.1,172.4,43.8,172.4z
		 M184,162.9C183.9,162.9,183.9,162.9,184,162.9c-0.3,0-0.5-0.2-0.5-0.5c0.1-2,0.1-3.9,0.1-6c0-0.3,0.2-0.5,0.5-0.5s0.5,0.2,0.5,0.5
		c0,2-0.1,4-0.1,6C184.4,162.7,184.2,162.9,184,162.9z M43.7,160.5c-0.3,0-0.5-0.2-0.5-0.5c0-0.9,0-1.9,0-3c0-1,0-2,0-3.1
		c0-0.3,0.2-0.4,0.5-0.5c0.3,0,0.5,0.2,0.5,0.5c0,1,0,2.1,0,3c0,1,0,2,0,2.9C44.2,160.2,44,160.4,43.7,160.5L43.7,160.5z
		 M184.1,150.9c-0.3,0-0.5-0.2-0.5-0.5c0-1.9-0.1-3.9-0.1-6c0-0.3,0.2-0.5,0.5-0.5s0.5,0.2,0.5,0.5c0.1,2.1,0.1,4.1,0.1,6
		C184.6,150.7,184.3,150.9,184.1,150.9L184.1,150.9z M43.9,148.5C43.9,148.5,43.8,148.5,43.9,148.5c-0.3,0-0.5-0.2-0.5-0.5
		c0.1-1.4,0.1-2.9,0.2-4.3l0.1-1.7c0-0.3,0.3-0.5,0.5-0.5c0.3,0,0.5,0.2,0.5,0.5l-0.1,1.7c-0.1,1.5-0.1,2.9-0.2,4.3
		C44.4,148.2,44.1,148.5,43.9,148.5z M183.7,138.9c-0.3,0-0.5-0.2-0.5-0.5c-0.1-1.9-0.2-3.8-0.4-5.8v-0.2c0-0.3,0.2-0.5,0.5-0.5
		s0.5,0.2,0.5,0.5v0.2c0.1,2,0.3,3.9,0.4,5.8C184.2,138.7,184,138.9,183.7,138.9L183.7,138.9z M44.4,136.5L44.4,136.5
		c-0.3,0-0.5-0.2-0.5-0.5c0.1-2.3,0.1-4.2,0.1-6c0-0.3,0.2-0.5,0.5-0.5l0,0c0.3,0,0.5,0.2,0.5,0.5c0,1.8,0,3.7-0.1,6
		C44.9,136.2,44.6,136.5,44.4,136.5z M183.1,126.9c-0.3,0-0.5-0.2-0.5-0.5v-0.1c0-1.8,0-3.8,0.1-5.9c0-0.3,0.2-0.5,0.5-0.5
		s0.5,0.2,0.5,0.5c-0.1,2.1-0.1,4-0.1,5.9v0.1C183.6,126.7,183.4,126.9,183.1,126.9z M44.3,124.5c-0.3,0-0.5-0.2-0.5-0.5
		s0-0.5-0.1-0.8c-0.1-1.6-0.3-3.4-0.3-5.2c0-0.3,0.2-0.5,0.5-0.5c0.2,0,0.5,0.2,0.5,0.5c0.1,1.8,0.2,3.5,0.3,5.2
		c0,0.3,0,0.5,0.1,0.8C44.8,124.2,44.6,124.4,44.3,124.5L44.3,124.5z M183.6,115C183.5,115,183.5,115,183.6,115
		c-0.3,0-0.5-0.3-0.5-0.5c0.1-2,0.3-4,0.5-6c0-0.3,0.3-0.5,0.5-0.5c0.3,0,0.5,0.3,0.5,0.5c-0.2,2-0.3,4-0.4,6
		C184,114.8,183.8,115,183.6,115z M43.7,112.5c-0.3,0-0.5-0.2-0.5-0.5c0-1.8-0.1-3.6-0.1-5.5v-0.6c0-0.3,0.2-0.5,0.5-0.5l0,0
		c0.3,0,0.5,0.2,0.5,0.5v0.5c0,1.8,0,3.6,0.1,5.4C44.2,112.2,44,112.5,43.7,112.5L43.7,112.5z M184.5,103L184.5,103
		c-0.3,0-0.5-0.3-0.5-0.5c0.2-2,0.3-4,0.4-6c0-0.3,0.3-0.5,0.5-0.5c0.3,0,0.5,0.3,0.5,0.5c-0.1,2-0.3,4-0.4,6
		C185,102.8,184.7,103,184.5,103z M43.7,100.5L43.7,100.5c-0.3,0-0.5-0.2-0.5-0.5c0.1-2.1,0.1-4.1,0.3-6c0-0.3,0.3-0.5,0.5-0.5
		c0.3,0,0.5,0.3,0.5,0.5c-0.1,1.9-0.2,3.9-0.3,6C44.2,100.3,44,100.5,43.7,100.5z M185.3,91L185.3,91c-0.3,0-0.5-0.2-0.5-0.5
		c0.1-2.2,0.1-4.1,0.1-6c0-0.3,0.2-0.5,0.5-0.5l0,0c0.3,0,0.5,0.2,0.5,0.5c0,1.9,0,3.8-0.1,6C185.8,90.8,185.5,91,185.3,91z
		 M44.4,88.5L44.4,88.5c-0.3,0-0.5-0.3-0.5-0.5c0.2-2.2,0.3-4.1,0.4-6c0-0.3,0.3-0.5,0.5-0.5c0.3,0,0.5,0.2,0.5,0.5
		c-0.1,1.9-0.2,3.8-0.4,6C44.9,88.3,44.7,88.5,44.4,88.5z M185.2,79c-0.3,0-0.5-0.2-0.5-0.5c-0.1-1.7-0.3-3.3-0.5-4.8
		c-0.1-0.4-0.1-0.7-0.1-1.1c0-0.3,0.2-0.5,0.4-0.5c0.3,0,0.5,0.2,0.5,0.4c0,0.4,0.1,0.7,0.1,1.1c0.2,1.5,0.4,3.2,0.5,4.9
		C185.7,78.8,185.5,79,185.2,79C185.3,79,185.2,79,185.2,79z M44.9,76.5L44.9,76.5c-0.3,0-0.5-0.2-0.5-0.5v-0.3c0-1.9,0-3.8-0.1-5.7
		c0-0.3,0.2-0.5,0.5-0.5s0.5,0.2,0.5,0.5c0.1,2,0.1,3.8,0.1,5.8v0.3C45.4,76.3,45.2,76.5,44.9,76.5z M184.4,67.1L184.4,67.1
		c-0.3,0-0.5-0.2-0.5-0.5c0-1.7,0.1-3.3,0.2-5v-1.1c0-0.3,0.3-0.5,0.5-0.5c0.3,0,0.5,0.2,0.5,0.5v1.1c-0.1,1.6-0.1,3.3-0.2,4.9
		C184.9,66.8,184.7,67.1,184.4,67.1z M44.4,64.5c-0.3,0-0.5-0.2-0.5-0.5c-0.1-0.7-0.1-1.4-0.2-2.1v-0.4c-0.1-1.1-0.2-2.3-0.3-3.6
		c0-0.3,0.2-0.5,0.5-0.5s0.5,0.2,0.5,0.5c0.1,1.2,0.2,2.4,0.3,3.5v0.4c0.1,0.7,0.1,1.4,0.2,2.1C45,64.3,44.8,64.5,44.4,64.5
		C44.5,64.5,44.5,64.5,44.4,64.5z M184.7,55.1c-0.3,0-0.5-0.2-0.5-0.5c-0.1-2.5-0.4-4.3-1.1-5.7c-0.1-0.2,0-0.5,0.2-0.7
		c0.2-0.1,0.5,0,0.7,0.2c0.7,1.5,1.1,3.4,1.2,6C185.2,54.8,185,55,184.7,55.1L184.7,55.1z M44.5,52.6h-0.1C44.1,52.5,44,52.3,44,52
		c0.6-2.3,1.8-4.1,3.6-5.1c0.2-0.1,0.5-0.1,0.7,0.2c0.1,0.2,0.1,0.5-0.2,0.7c-1.5,0.9-2.6,2.4-3.1,4.5
		C44.9,52.4,44.7,52.6,44.5,52.6z M125.1,47.1c-0.3,0-0.5-0.2-0.5-0.5s0.2-0.5,0.5-0.5c1.8,0,3.8-0.1,6-0.3c0.3,0,0.5,0.2,0.5,0.5
		s-0.2,0.5-0.5,0.5C129,47,127,47.1,125.1,47.1L125.1,47.1z M119.1,46.9L119.1,46.9c-2.1-0.2-4.1-0.4-6-0.6c-0.3,0-0.5-0.3-0.4-0.6
		c0-0.3,0.3-0.5,0.6-0.4c1.9,0.2,3.9,0.4,6,0.6c0.3,0,0.5,0.3,0.5,0.5C119.6,46.7,119.4,46.9,119.1,46.9z M137.1,46.2
		c-0.2,0-0.5-0.2-0.5-0.4c0-0.3,0.2-0.5,0.4-0.6l1.1-0.1c1.6-0.2,3.3-0.4,4.9-0.6c0.3,0,0.5,0.2,0.5,0.4c0,0.3-0.2,0.5-0.4,0.5
		c-1.6,0.2-3.2,0.4-4.9,0.6L137.1,46.2L137.1,46.2z M53.5,45.9c-0.2,0-0.4-0.1-0.5-0.4c-0.1-0.3,0.1-0.5,0.4-0.6
		c2.1-0.6,4-0.9,6-1.1c0.3,0,0.5,0.2,0.6,0.4c0,0.3-0.2,0.5-0.4,0.6c-1.9,0.2-3.7,0.6-5.8,1.1C53.5,45.9,53.5,45.9,53.5,45.9z
		 M80.7,45.8c-1.2,0-2.3,0-3.4-0.1c-0.3,0-0.5-0.2-0.5-0.5s0.3-0.5,0.5-0.5c1.1,0,2.2,0.1,3.4,0.1c0.9,0,1.7,0,2.6,0
		c0.3,0,0.5,0.2,0.5,0.5s-0.2,0.5-0.5,0.5C82.4,45.8,81.5,45.8,80.7,45.8z M179,45.7h-0.1c-1.5-0.4-3.4-0.6-5.8-0.8
		c-0.3,0-0.5-0.2-0.5-0.5s0.3-0.5,0.5-0.5c2.5,0.1,4.5,0.4,6,0.8c0.3,0.1,0.4,0.3,0.4,0.6C179.4,45.6,179.2,45.7,179,45.7z
		 M107.2,45.6L107.2,45.6c-2.4-0.3-4.3-0.4-6-0.5c-0.3,0-0.5-0.2-0.5-0.5s0.2-0.5,0.5-0.5c1.8,0.1,3.7,0.3,6,0.5
		c0.3,0,0.5,0.3,0.4,0.6C107.7,45.4,107.5,45.6,107.2,45.6z M89.3,45.5c-0.3,0-0.5-0.2-0.5-0.5s0.2-0.5,0.5-0.5
		c1.5-0.1,2.9-0.2,4.3-0.4c0.6,0,1.1-0.1,1.7-0.1c0.3,0,0.5,0.2,0.5,0.5S95.6,45,95.3,45c-0.5,0-1.1,0.1-1.6,0.1
		C92.2,45.3,90.8,45.4,89.3,45.5L89.3,45.5z M71.3,45.2C71.3,45.2,71.2,45.2,71.3,45.2l-0.8-0.1c-1.9-0.3-3.6-0.5-5.2-0.6
		c-0.3,0-0.5-0.2-0.5-0.5s0.2-0.5,0.5-0.5c1.7,0.1,3.4,0.3,5.3,0.6l0.7,0.1c0.3,0,0.5,0.3,0.4,0.6C71.8,45.1,71.5,45.2,71.3,45.2z
		 M155,45.2h-0.2c-0.6,0-1.1,0-1.6,0c-1.4-0.1-2.8-0.1-4.2,0c-0.3,0-0.5-0.2-0.5-0.5s0.2-0.5,0.5-0.5c1.4,0,2.8,0,4.3,0
		c0.4,0,0.9,0,1.5,0h0.2c0.3,0,0.5,0.2,0.5,0.5C155.5,45,155.3,45.2,155,45.2z M161,45c-0.3,0-0.5-0.2-0.5-0.5s0.2-0.5,0.5-0.5
		c1.9-0.1,4-0.1,6-0.2l0,0c0.3,0,0.5,0.2,0.5,0.5s-0.2,0.5-0.5,0.5C165,44.9,163,44.9,161,45L161,45z"/>
</g>
<ellipse style="fill:#A1745A;" cx="112.5" cy="162.9" rx="3" ry="2.8"/>
<ellipse style="fill:#D4716A;" cx="66.1" cy="191" rx="5.3" ry="5"/>
<ellipse style="fill:#A1745A;" cx="154.9" cy="160" rx="4.7" ry="4.4"/>
<ellipse style="fill:#D4716A;" cx="168.1" cy="213.7" rx="4.7" ry="4.4"/>
<ellipse style="fill:#D4716A;" cx="131.4" cy="161.9" rx="6.5" ry="6.1"/>
<ellipse style="fill:#A1745A;" cx="101.2" cy="144" rx="4.5" ry="4.2"/>
<ellipse style="fill:#A1745A;" cx="75.6" cy="176.8" rx="2.8" ry="2.7"/>
<ellipse style="fill:#A1745A;" cx="104.5" cy="227.4" rx="3.5" ry="3.3"/>
</svg>
