<?xml version="1.0" encoding="UTF-8" standalone="no" ?><!DOCTYPE svg PUBLIC "-//W3C//DTD SVG 1.1//EN" "http://www.w3.org/Graphics/SVG/1.1/DTD/svg11.dtd">
<svg xmlns="http://www.w3.org/2000/svg" xmlns:xlink="http://www.w3.org/1999/xlink" version="1.1" width="496.5" height="342" xml:space="preserve"><desc>Created with Fabric.js 1.4.5</desc><defs></defs><rect x="-137.5" y="-86.65" rx="0" ry="0" width="275" height="173.3" style="stroke: none; stroke-width: 1; stroke-dasharray: ; stroke-linecap: butt; stroke-linejoin: miter; stroke-miterlimit: 10; fill: #1F2325; opacity: 1;" transform="translate(249 168.68) scale(1.5 1.5)"/><linearGradient id="SVGID_0" gradientUnits="userSpaceOnUse" x1="-23.2" y1="-21.55" x2="23.2" y2="-21.55"><stop offset="0%" style="stop-color:rgb(255,237,18);stop-opacity: 1"/><stop offset="78.72%" style="stop-color:rgb(247,177,25);stop-opacity: 1"/><stop offset="100%" style="stop-color:rgb(207,105,28);stop-opacity: 1"/></linearGradient><rect x="-23.2" y="-21.55" rx="0" ry="0" width="46.4" height="43.1" style="stroke: none; stroke-width: 1; stroke-dasharray: ; stroke-linecap: butt; stroke-linejoin: miter; stroke-miterlimit: 10; fill: url(#SVGID_0); opacity: 1;" transform="translate(250.5 166.57) scale(1.5 1.5)"/><g style="stroke: none; stroke-width: 1; stroke-dasharray: ; stroke-linecap: butt; stroke-linejoin: miter; stroke-miterlimit: 10; fill: none; opacity: 1;" transform="translate(258 179.25) scale(1.5 1.5)" ><g transform=""><path d="M 198.8 96.3 c 1.2 0 2.3 0.7 2.7 1.8 l 0.1 0.3 l 11.4 28 c -0.2 0 -0.5 0.1 -0.8 0.1 c -0.9 0 -2.2 -0.4 -3.1 -2.3 l -10.1 -24.9 l -0.2 -0.5 l -0.2 0.5 L 198.5 99.5 l -6.2 15.3 l -0.1 0.3 h 0.3 l 7.1 0 c 3 0.2 3.5 2.2 3.5 2.8 h -11.9 h -0.1 l -0.1 0.1 l -2.5 6.2 c -0.9 1.9 -2.2 2.3 -3.1 2.3 c -0.4 0 -0.7 -0.1 -0.8 -0.1 l 11.5 -28.3 C 196.5 97 197.60000000000002 96.3 198.8 96.3" style="stroke: none; stroke-width: 1; stroke-dasharray: ; stroke-linecap: butt; stroke-linejoin: miter; stroke-miterlimit: 10; fill: #FFFFFF; opacity: 1;" transform="translate(-165.5 -114)" stroke-linecap="round" /></g><g transform=""><path d="M 176.40000000000003 96.8 v 25.3 l 0 0.5 c 0 3.4 -2.2 3.9 -2.8 4 v -25.2 v -0.6 C 173.60000000000002 97.4 175.8 96.9 176.40000000000003 96.8" style="stroke: none; stroke-width: 1; stroke-dasharray: ; stroke-linecap: butt; stroke-linejoin: miter; stroke-miterlimit: 10; fill: #FFFFFF; opacity: 1;" transform="translate(-165.5 -114)" stroke-linecap="round" /></g><g transform=""><path d="M 149.7 108.1 c 0.5 -0.6 1 -1.1 1.5 -1.7 l -5.4 -7.5 l 0 0 c 0 0 0 -0.1 -0.1 -0.1 c -0.9 -1.3 -2 -2 -3.1 -2 c -0.7 0 -1.2 0.3 -1.5 0.4 l 8.1 11.3 C 149.40000000000003 108.4 149.60000000000002 108.3 149.7 108.1 z" style="stroke: none; stroke-width: 1; stroke-dasharray: ; stroke-linecap: butt; stroke-linejoin: miter; stroke-miterlimit: 10; fill: #FFFFFF; opacity: 1;" transform="translate(-165.5 -114)" stroke-linecap="round" /></g><g transform=""><path d="M 153.90000000000003 111.6 l -0.4 0.5 c -0.2 0.3 -0.4 0.6 -0.6 0.8 c -0.1 0.1 -0.2 0.3 -0.3 0.4 l 8.4 11.8 c 0.8 1 1.8 1.5 2.8 1.5 c 0.7 0 1.3 -0.3 1.5 -0.4 l -11 -15.3 C 154.3 111.1 154.10000000000002 111.4 153.90000000000003 111.6 z" style="stroke: none; stroke-width: 1; stroke-dasharray: ; stroke-linecap: butt; stroke-linejoin: miter; stroke-miterlimit: 10; fill: #FFFFFF; opacity: 1;" transform="translate(-165.5 -114)" stroke-linecap="round" /></g><g transform=""><path d="M 138 130.1 h 0.3 v 0.3 c 0.1 -0.1 0.1 -0.2 0.2 -0.2 c 0.1 -0.1 0.2 -0.1 0.3 -0.1 c 0.1 0 0.3 0 0.3 0.1 c 0 0 0.1 0.1 0.1 0.2 c 0.1 -0.1 0.1 -0.2 0.2 -0.2 c 0.1 0 0.2 -0.1 0.3 -0.1 c 0.2 0 0.4 0.1 0.5 0.3 c 0 0.1 0.1 0.2 0.1 0.4 v 1.2 h -0.3 v -1.2 c 0 -0.1 0 -0.2 -0.1 -0.2 c -0.1 0 -0.1 -0.1 -0.2 -0.1 c -0.1 0 -0.2 0 -0.3 0.1 c -0.1 0.1 -0.1 0.2 -0.1 0.4 v 1 h -0.3 v -1.2 c 0 -0.1 0 -0.2 0 -0.3 c 0 -0.1 -0.1 -0.1 -0.3 -0.1 c -0.1 0 -0.2 0 -0.3 0.1 c -0.1 0.1 -0.1 0.2 -0.1 0.5 v 0.9 h -0.3 V 130.1 z" style="stroke: none; stroke-width: 1; stroke-dasharray: ; stroke-linecap: butt; stroke-linejoin: miter; stroke-miterlimit: 10; fill: #FFFFFF; opacity: 1;" transform="translate(-165.5 -114)" stroke-linecap="round" /></g><g transform=""><path d="M 144.90000000000003 130.8 c 0.1 0 0.1 0 0.1 -0.1 c 0 0 0 -0.1 0 -0.1 c 0 -0.1 0 -0.2 -0.1 -0.2 c -0.1 0 -0.2 -0.1 -0.3 -0.1 c -0.2 0 -0.3 0 -0.3 0.1 c 0 0 -0.1 0.1 -0.1 0.2 h -0.3 c 0 -0.2 0.1 -0.4 0.2 -0.5 c 0.1 -0.1 0.3 -0.1 0.5 -0.1 c 0.2 0 0.4 0 0.5 0.1 c 0.1 0.1 0.2 0.2 0.2 0.4 v 1 c 0 0 0 0.1 0 0.1 c 0 0 0 0 0.1 0 c 0 0 0 0 0 0 c 0 0 0 0 0.1 0 v 0.2 c 0 0 -0.1 0 -0.1 0 c 0 0 -0.1 0 -0.1 0 c -0.1 0 -0.2 0 -0.2 -0.1 c 0 0 0 -0.1 -0.1 -0.2 c -0.1 0.1 -0.1 0.1 -0.3 0.2 c -0.1 0.1 -0.2 0.1 -0.4 0.1 c -0.2 0 -0.3 -0.1 -0.4 -0.2 c -0.1 -0.1 -0.2 -0.2 -0.2 -0.4 c 0 -0.2 0.1 -0.3 0.2 -0.4 c 0.1 -0.1 0.2 -0.1 0.4 -0.2 L 144.90000000000003 130.8 z M 144.2 131.6 c 0.1 0.1 0.1 0.1 0.2 0.1 c 0.1 0 0.2 0 0.3 -0.1 c 0.2 -0.1 0.2 -0.2 0.2 -0.4 v -0.2 c 0 0 -0.1 0 -0.1 0.1 c -0.1 0 -0.1 0 -0.2 0 l -0.2 0 c -0.1 0 -0.2 0 -0.2 0.1 c -0.1 0.1 -0.1 0.1 -0.1 0.2 C 144.10000000000002 131.5 144.2 131.5 144.2 131.6 z" style="stroke: none; stroke-width: 1; stroke-dasharray: ; stroke-linecap: butt; stroke-linejoin: miter; stroke-miterlimit: 10; fill: #FFFFFF; opacity: 1;" transform="translate(-165.5 -114)" stroke-linecap="round" /></g><g transform=""><path d="M 148.90000000000003 130.1 h 0.3 v 0.3 c 0 -0.1 0.1 -0.1 0.2 -0.2 c 0.1 -0.1 0.2 -0.1 0.3 -0.1 c 0 0 0 0 0 0 c 0 0 0 0 0.1 0 v 0.3 c 0 0 0 0 0 0 c 0 0 0 0 0 0 c -0.2 0 -0.3 0 -0.3 0.1 c -0.1 0.1 -0.1 0.2 -0.1 0.3 v 1 h -0.3 V 130.1 z" style="stroke: none; stroke-width: 1; stroke-dasharray: ; stroke-linecap: butt; stroke-linejoin: miter; stroke-miterlimit: 10; fill: #FFFFFF; opacity: 1;" transform="translate(-165.5 -114)" stroke-linecap="round" /></g><g transform=""><path d="M 153.10000000000002 129.4 h 0.3 v 1.4 l 0.8 -0.8 h 0.4 l -0.7 0.7 l 0.7 1.1 h -0.4 l -0.6 -0.9 l -0.2 0.2 v 0.7 h -0.3 V 129.4 z" style="stroke: none; stroke-width: 1; stroke-dasharray: ; stroke-linecap: butt; stroke-linejoin: miter; stroke-miterlimit: 10; fill: #FFFFFF; opacity: 1;" transform="translate(-165.5 -114)" stroke-linecap="round" /></g><g transform=""><path d="M 159 130.1 c 0.1 0.1 0.2 0.1 0.3 0.2 c 0.1 0.1 0.1 0.2 0.1 0.3 c 0 0.1 0 0.2 0 0.4 h -1.3 c 0 0.2 0 0.3 0.1 0.4 c 0.1 0.1 0.2 0.2 0.4 0.2 c 0.2 0 0.3 -0.1 0.4 -0.2 c 0.1 -0.1 0.1 -0.1 0.1 -0.2 h 0.3 c 0 0.1 0 0.1 -0.1 0.2 c 0 0.1 -0.1 0.1 -0.1 0.2 c -0.1 0.1 -0.2 0.1 -0.3 0.2 c -0.1 0 -0.2 0 -0.2 0 c -0.2 0 -0.4 -0.1 -0.6 -0.2 c -0.2 -0.2 -0.2 -0.4 -0.2 -0.7 c 0 -0.3 0.1 -0.5 0.2 -0.7 c 0.2 -0.2 0.4 -0.3 0.6 -0.3 C 158.7 130 158.8 130.1 159 130.1 z M 159.10000000000002 130.8 c 0 -0.1 0 -0.2 -0.1 -0.3 c -0.1 -0.1 -0.2 -0.2 -0.4 -0.2 c -0.1 0 -0.3 0 -0.3 0.1 c -0.1 0.1 -0.1 0.2 -0.1 0.4 H 159.10000000000002 z" style="stroke: none; stroke-width: 1; stroke-dasharray: ; stroke-linecap: butt; stroke-linejoin: miter; stroke-miterlimit: 10; fill: #FFFFFF; opacity: 1;" transform="translate(-165.5 -114)" stroke-linecap="round" /></g><g transform=""><path d="M 162.90000000000003 129.6 h 0.3 v 0.5 h 0.3 v 0.2 h -0.3 v 1.2 c 0 0.1 0 0.1 0.1 0.1 c 0 0 0.1 0 0.1 0 c 0 0 0 0 0 0 c 0 0 0 0 0.1 0 v 0.2 c 0 0 -0.1 0 -0.1 0 c 0 0 -0.1 0 -0.1 0 c -0.1 0 -0.2 0 -0.3 -0.1 c -0.1 -0.1 -0.1 -0.2 -0.1 -0.3 v -1.2 h -0.2 v -0.2 h 0.2 V 129.6 z" style="stroke: none; stroke-width: 1; stroke-dasharray: ; stroke-linecap: butt; stroke-linejoin: miter; stroke-miterlimit: 10; fill: #FFFFFF; opacity: 1;" transform="translate(-165.5 -114)" stroke-linecap="round" /></g><g transform=""><path d="M 170.90000000000003 129.4 h 0.3 v 0.3 h -0.3 V 129.4 z M 170.90000000000003 130.1 h 0.3 v 1.8 h -0.3 V 130.1 z" style="stroke: none; stroke-width: 1; stroke-dasharray: ; stroke-linecap: butt; stroke-linejoin: miter; stroke-miterlimit: 10; fill: #FFFFFF; opacity: 1;" transform="translate(-165.5 -114)" stroke-linecap="round" /></g><g transform=""><path d="M 174.7 130.1 h 0.3 v 0.3 c 0.1 -0.1 0.2 -0.2 0.3 -0.2 c 0.1 0 0.2 -0.1 0.3 -0.1 c 0.3 0 0.4 0.1 0.5 0.3 c 0 0.1 0.1 0.2 0.1 0.4 v 1.1 h -0.3 v -1.1 c 0 -0.1 0 -0.2 0 -0.3 c -0.1 -0.1 -0.1 -0.2 -0.3 -0.2 c -0.1 0 -0.1 0 -0.2 0 c -0.1 0 -0.2 0.1 -0.2 0.1 c 0 0.1 -0.1 0.1 -0.1 0.2 c 0 0.1 0 0.2 0 0.3 v 0.9 h -0.3 V 130.1 z" style="stroke: none; stroke-width: 1; stroke-dasharray: ; stroke-linecap: butt; stroke-linejoin: miter; stroke-miterlimit: 10; fill: #FFFFFF; opacity: 1;" transform="translate(-165.5 -114)" stroke-linecap="round" /></g><g transform=""><path d="M 179.7 130.1 h 0.3 v 0.3 c 0.1 -0.1 0.2 -0.2 0.3 -0.2 c 0.1 0 0.2 -0.1 0.3 -0.1 c 0.3 0 0.4 0.1 0.5 0.3 c 0 0.1 0.1 0.2 0.1 0.4 v 1.1 h -0.3 v -1.1 c 0 -0.1 0 -0.2 0 -0.3 c -0.1 -0.1 -0.1 -0.2 -0.3 -0.2 c -0.1 0 -0.1 0 -0.2 0 c -0.1 0 -0.2 0.1 -0.2 0.1 c 0 0.1 -0.1 0.1 -0.1 0.2 c 0 0.1 0 0.2 0 0.3 v 0.9 h -0.3 V 130.1 z" style="stroke: none; stroke-width: 1; stroke-dasharray: ; stroke-linecap: butt; stroke-linejoin: miter; stroke-miterlimit: 10; fill: #FFFFFF; opacity: 1;" transform="translate(-165.5 -114)" stroke-linecap="round" /></g><g transform=""><path d="M 185.90000000000003 130.3 c 0.2 0.2 0.2 0.4 0.2 0.7 c 0 0.3 -0.1 0.5 -0.2 0.7 c -0.1 0.2 -0.4 0.3 -0.6 0.3 c -0.2 0 -0.4 -0.1 -0.6 -0.2 c -0.1 -0.2 -0.2 -0.4 -0.2 -0.7 c 0 -0.3 0.1 -0.5 0.2 -0.7 c 0.2 -0.2 0.4 -0.3 0.6 -0.3 C 185.60000000000002 130 185.8 130.1 185.90000000000003 130.3 z M 185.7 131.4 c 0.1 -0.2 0.1 -0.3 0.1 -0.5 c 0 -0.2 0 -0.3 -0.1 -0.4 c -0.1 -0.2 -0.2 -0.2 -0.4 -0.2 c -0.2 0 -0.3 0.1 -0.4 0.2 c -0.1 0.1 -0.1 0.3 -0.1 0.5 c 0 0.2 0 0.3 0.1 0.5 c 0.1 0.1 0.2 0.2 0.4 0.2 C 185.5 131.7 185.7 131.6 185.7 131.4 z" style="stroke: none; stroke-width: 1; stroke-dasharray: ; stroke-linecap: butt; stroke-linejoin: miter; stroke-miterlimit: 10; fill: #FFFFFF; opacity: 1;" transform="translate(-165.5 -114)" stroke-linecap="round" /></g><g transform=""><path d="M 189.8 130.1 l 0.5 1.5 l 0.5 -1.5 h 0.3 l -0.7 1.8 h -0.3 l -0.7 -1.8 H 189.8 z" style="stroke: none; stroke-width: 1; stroke-dasharray: ; stroke-linecap: butt; stroke-linejoin: miter; stroke-miterlimit: 10; fill: #FFFFFF; opacity: 1;" transform="translate(-165.5 -114)" stroke-linecap="round" /></g><g transform=""><path d="M 195.3 130.8 c 0.1 0 0.1 0 0.1 -0.1 c 0 0 0 -0.1 0 -0.1 c 0 -0.1 0 -0.2 -0.1 -0.2 c -0.1 0 -0.2 -0.1 -0.3 -0.1 c -0.2 0 -0.3 0 -0.3 0.1 c 0 0 -0.1 0.1 -0.1 0.2 h -0.3 c 0 -0.2 0.1 -0.4 0.2 -0.5 c 0.1 -0.1 0.3 -0.1 0.5 -0.1 c 0.2 0 0.4 0 0.5 0.1 c 0.1 0.1 0.2 0.2 0.2 0.4 v 1 c 0 0 0 0.1 0 0.1 c 0 0 0 0 0.1 0 c 0 0 0 0 0 0 c 0 0 0 0 0.1 0 v 0.2 c 0 0 -0.1 0 -0.1 0 c 0 0 -0.1 0 -0.1 0 c -0.1 0 -0.2 0 -0.2 -0.1 c 0 0 0 -0.1 -0.1 -0.2 c -0.1 0.1 -0.1 0.1 -0.3 0.2 c -0.1 0.1 -0.2 0.1 -0.4 0.1 c -0.2 0 -0.3 -0.1 -0.4 -0.2 c -0.1 -0.1 -0.2 -0.2 -0.2 -0.4 c 0 -0.2 0.1 -0.3 0.2 -0.4 c 0.1 -0.1 0.2 -0.1 0.4 -0.2 L 195.3 130.8 z M 194.7 131.6 c 0.1 0.1 0.1 0.1 0.2 0.1 c 0.1 0 0.2 0 0.3 -0.1 c 0.2 -0.1 0.3 -0.2 0.3 -0.4 v -0.2 c 0 0 -0.1 0 -0.1 0.1 c -0.1 0 -0.1 0 -0.2 0 l -0.2 0 c -0.1 0 -0.2 0 -0.2 0.1 c -0.1 0.1 -0.1 0.1 -0.1 0.2 C 194.60000000000002 131.5 194.7 131.5 194.7 131.6 z" style="stroke: none; stroke-width: 1; stroke-dasharray: ; stroke-linecap: butt; stroke-linejoin: miter; stroke-miterlimit: 10; fill: #FFFFFF; opacity: 1;" transform="translate(-165.5 -114)" stroke-linecap="round" /></g><g transform=""><path d="M 199.40000000000003 129.6 h 0.3 v 0.5 h 0.3 v 0.2 h -0.3 v 1.2 c 0 0.1 0 0.1 0.1 0.1 c 0 0 0.1 0 0.1 0 c 0 0 0 0 0 0 c 0 0 0 0 0.1 0 v 0.2 c 0 0 -0.1 0 -0.1 0 c 0 0 -0.1 0 -0.1 0 c -0.1 0 -0.2 0 -0.3 -0.1 c -0.1 -0.1 -0.1 -0.2 -0.1 -0.3 v -1.2 h -0.2 v -0.2 h 0.2 V 129.6 z" style="stroke: none; stroke-width: 1; stroke-dasharray: ; stroke-linecap: butt; stroke-linejoin: miter; stroke-miterlimit: 10; fill: #FFFFFF; opacity: 1;" transform="translate(-165.5 -114)" stroke-linecap="round" /></g><g transform=""><path d="M 203.40000000000003 129.4 h 0.3 v 0.3 h -0.3 V 129.4 z M 203.40000000000003 130.1 h 0.3 v 1.8 h -0.3 V 130.1 z" style="stroke: none; stroke-width: 1; stroke-dasharray: ; stroke-linecap: butt; stroke-linejoin: miter; stroke-miterlimit: 10; fill: #FFFFFF; opacity: 1;" transform="translate(-165.5 -114)" stroke-linecap="round" /></g><g transform=""><path d="M 208.5 130.3 c 0.2 0.2 0.2 0.4 0.2 0.7 c 0 0.3 -0.1 0.5 -0.2 0.7 c -0.1 0.2 -0.4 0.3 -0.6 0.3 c -0.2 0 -0.4 -0.1 -0.6 -0.2 c -0.1 -0.2 -0.2 -0.4 -0.2 -0.7 c 0 -0.3 0.1 -0.5 0.2 -0.7 c 0.2 -0.2 0.4 -0.3 0.6 -0.3 C 208.2 130 208.3 130.1 208.5 130.3 z M 208.3 131.4 c 0.1 -0.2 0.1 -0.3 0.1 -0.5 c 0 -0.2 0 -0.3 -0.1 -0.4 c -0.1 -0.2 -0.2 -0.2 -0.4 -0.2 c -0.2 0 -0.3 0.1 -0.4 0.2 c -0.1 0.1 -0.1 0.3 -0.1 0.5 c 0 0.2 0 0.3 0.1 0.5 c 0.1 0.1 0.2 0.2 0.4 0.2 C 208.10000000000002 131.7 208.2 131.6 208.3 131.4 z" style="stroke: none; stroke-width: 1; stroke-dasharray: ; stroke-linecap: butt; stroke-linejoin: miter; stroke-miterlimit: 10; fill: #FFFFFF; opacity: 1;" transform="translate(-165.5 -114)" stroke-linecap="round" /></g><g transform=""><path d="M 212.2 130.1 h 0.3 v 0.3 c 0.1 -0.1 0.2 -0.2 0.3 -0.2 c 0.1 0 0.2 -0.1 0.3 -0.1 c 0.3 0 0.4 0.1 0.5 0.3 c 0 0.1 0.1 0.2 0.1 0.4 v 1.1 h -0.3 v -1.1 c 0 -0.1 0 -0.2 0 -0.3 c -0.1 -0.1 -0.1 -0.2 -0.3 -0.2 c -0.1 0 -0.1 0 -0.2 0 c -0.1 0 -0.2 0.1 -0.2 0.1 c 0 0.1 -0.1 0.1 -0.1 0.2 c 0 0.1 0 0.2 0 0.3 v 0.9 h -0.3 V 130.1 z" style="stroke: none; stroke-width: 1; stroke-dasharray: ; stroke-linecap: butt; stroke-linejoin: miter; stroke-miterlimit: 10; fill: #FFFFFF; opacity: 1;" transform="translate(-165.5 -114)" stroke-linecap="round" /></g><g transform=""><path d="M 118.80000000000001 99.3 l 10.1 24.9 c 0.9 1.9 2.2 2.3 3.1 2.3 c 0.4 0 0.7 -0.1 0.8 -0.1 l -11.4 -28 l -0.1 -0.3 c -0.5 -1.1 -1.5 -1.8 -2.7 -1.8 c -1.2 0 -2.3 0.7 -2.8 1.8 l -11.5 28.3 c 0.2 0 0.5 0.1 0.8 0.1 c 0.9 0 2.2 -0.4 3.1 -2.3 l 2.5 -6.2 l 0.1 -0.1 h 0.1 h 11.9 c -0.1 -0.6 -0.5 -2.6 -3.5 -2.8 l -7.1 0 h -0.3 l 0.1 -0.3 l 6.2 -15.3 l 0.1 -0.2 l 0.2 -0.5 L 118.80000000000001 99.3 z" style="stroke: none; stroke-width: 1; stroke-dasharray: ; stroke-linecap: butt; stroke-linejoin: miter; stroke-miterlimit: 10; fill: #FFFFFF; opacity: 1;" transform="translate(-165.5 -114)" stroke-linecap="round" /></g></g></svg>