<?xml version="1.0" encoding="UTF-8" standalone="no" ?><!DOCTYPE svg PUBLIC "-//W3C//DTD SVG 1.1//EN" "http://www.w3.org/Graphics/SVG/1.1/DTD/svg11.dtd">
<svg xmlns="http://www.w3.org/2000/svg" xmlns:xlink="http://www.w3.org/1999/xlink" version="1.1" width="495.29999999999995" height="339.29999999999995" xml:space="preserve"><desc>Created with Fabric.js 1.4.5</desc><defs></defs><g transform="translate(243.63 120.6) scale(1.5 1.5)"><text font-family="'GillSans'" font-size="10" font-weight="normal" style="stroke: none; stroke-width: 1; stroke-dasharray: ; stroke-linecap: butt; stroke-linejoin: miter; stroke-miterlimit: 10; fill: #A85C2E; opacity: 1;" transform="translate(-31 9)"><tspan x="0" y="-6.5" fill="#A85C2E">Patricia Gibson</tspan></text></g><g transform="translate(242.58 138.6) scale(1.5 1.5)"><text font-family="'GillSans-Light'" font-size="10" font-weight="normal" style="stroke: none; stroke-width: 1; stroke-dasharray: ; stroke-linecap: butt; stroke-linejoin: miter; stroke-miterlimit: 10; fill: #A85C2E; opacity: 1;" transform="translate(-23.5 9)"><tspan x="0" y="-6.5" fill="#A85C2E">Art Teacher</tspan></text></g><rect x="-137.5" y="-86.45" rx="0" ry="0" width="275" height="172.9" style="stroke: none; stroke-width: 1; stroke-dasharray: ; stroke-linecap: butt; stroke-linejoin: miter; stroke-miterlimit: 10; fill: #F7F7D9; opacity: 1;" transform="translate(247.5 171.07) scale(1.5 1.5)"/><polygon points="0.05,0 0.05,0 -0.05,0 " style="stroke: none; stroke-width: 1; stroke-dasharray: ; stroke-linecap: butt; stroke-linejoin: miter; stroke-miterlimit: 10; fill: #A85C2E; opacity: 1;" transform="translate(228.07 114.6) scale(1.5 1.5)"/><polygon points="0,0.05 0,0.05 0,-0.05 " style="stroke: none; stroke-width: 1; stroke-dasharray: ; stroke-linecap: butt; stroke-linejoin: miter; stroke-miterlimit: 10; fill: #A85C2E; opacity: 1;" transform="translate(259.2 109.27) scale(1.5 1.5)"/><polygon points="-0.15,0.05 0.15,-0.05 0.15,-0.05 " style="stroke: none; stroke-width: 1; stroke-dasharray: ; stroke-linecap: butt; stroke-linejoin: miter; stroke-miterlimit: 10; fill: #A85C2E; opacity: 1;" transform="translate(290.48 113.17) scale(1.5 1.5)"/><polygon points="0.1,0.05 0.1,0.05 -0.1,-0.05 " style="stroke: none; stroke-width: 1; stroke-dasharray: ; stroke-linecap: butt; stroke-linejoin: miter; stroke-miterlimit: 10; fill: #A85C2E; opacity: 1;" transform="translate(268.95 109.72) scale(1.5 1.5)"/><polygon points="-0.2,0 0,0 0.2,0 " style="stroke: none; stroke-width: 1; stroke-dasharray: ; stroke-linecap: butt; stroke-linejoin: miter; stroke-miterlimit: 10; fill: #A85C2E; opacity: 1;" transform="translate(276.15 114.75) scale(1.5 1.5)"/><polygon points="0.15,-0.05 -0.15,0.05 -0.15,0.05 0.15,0.05 " style="stroke: none; stroke-width: 1; stroke-dasharray: ; stroke-linecap: butt; stroke-linejoin: miter; stroke-miterlimit: 10; fill: #A85C2E; opacity: 1;" transform="translate(266.48 109.72) scale(1.5 1.5)"/><polygon points="0.1,-0.1 -0.1,0.1 0,0 " style="stroke: none; stroke-width: 1; stroke-dasharray: ; stroke-linecap: butt; stroke-linejoin: miter; stroke-miterlimit: 10; fill: #A85C2E; opacity: 1;" transform="translate(265.8 113.85) scale(1.5 1.5)"/><polygon points="-0.15,-0.05 -0.15,0.05 0.15,-0.05 " style="stroke: none; stroke-width: 1; stroke-dasharray: ; stroke-linecap: butt; stroke-linejoin: miter; stroke-miterlimit: 10; fill: #A85C2E; opacity: 1;" transform="translate(257.17 111.82) scale(1.5 1.5)"/><polygon points="0.15,-0.05 0.05,-0.05 -0.15,-0.05 -0.15,0.05 " style="stroke: none; stroke-width: 1; stroke-dasharray: ; stroke-linecap: butt; stroke-linejoin: miter; stroke-miterlimit: 10; fill: #A85C2E; opacity: 1;" transform="translate(243.68 109.12) scale(1.5 1.5)"/><polygon points="0.15,-0.05 0.05,-0.05 -0.15,0.05 " style="stroke: none; stroke-width: 1; stroke-dasharray: ; stroke-linecap: butt; stroke-linejoin: miter; stroke-miterlimit: 10; fill: #A85C2E; opacity: 1;" transform="translate(230.93 113.17) scale(1.5 1.5)"/><polygon points="0.15,-0.05 -0.15,0.05 -0.05,0.05 " style="stroke: none; stroke-width: 1; stroke-dasharray: ; stroke-linecap: butt; stroke-linejoin: miter; stroke-miterlimit: 10; fill: #A85C2E; opacity: 1;" transform="translate(228.82 114.07) scale(1.5 1.5)"/><polygon points="0,0 -0.1,0 0.1,0 " style="stroke: none; stroke-width: 1; stroke-dasharray: ; stroke-linecap: butt; stroke-linejoin: miter; stroke-miterlimit: 10; fill: #A85C2E; opacity: 1;" transform="translate(212.4 110.4) scale(1.5 1.5)"/><polygon points="0.15,0 -0.15,0 -0.15,0 " style="stroke: none; stroke-width: 1; stroke-dasharray: ; stroke-linecap: butt; stroke-linejoin: miter; stroke-miterlimit: 10; fill: #A85C2E; opacity: 1;" transform="translate(225.82 114.6) scale(1.5 1.5)"/><g style="stroke: none; stroke-width: 1; stroke-dasharray: ; stroke-linecap: butt; stroke-linejoin: miter; stroke-miterlimit: 10; fill: none; opacity: 1;" transform="translate(246.75 94.57) scale(1.5 1.5)" ><g transform=""><path d="M 196.5 124.04999999999998 c 0.2 0 0.3 0.1 0.2 0.1 c 0.3 -0.1 0.3 0 0.4 -0.2 c 0.2 -0.1 0.4 0 0.2 0.1 l 0.6 -0.1 H 197.60000000000002 c 0.1 -0.2 0.6 0 0.7 -0.1 h -0.6 v -0.1 c -0.1 0.1 -0.4 0 -0.5 0 c 0 0 0 -0.1 0.1 -0.1 C 196.5 123.64999999999998 197.10000000000002 123.94999999999999 196.5 124.04999999999998 C 196.40000000000003 124.04999999999998 196.40000000000003 124.04999999999998 196.5 124.04999999999998 z" style="stroke: none; stroke-width: 1; stroke-dasharray: ; stroke-linecap: butt; stroke-linejoin: miter; stroke-miterlimit: 10; fill: #A85C2E; opacity: 1;" transform="translate(-165.1 -113.1)" stroke-linecap="round" /></g><g transform=""><path d="M 195.8 123.64999999999998 l -0.3 0.2 h -0.4 c 0 0.1 -0.3 0.1 -0.1 0.2 c 0 0 0.1 0 0.2 0 c 0 0.1 -0.6 0.1 -0.5 0.2 c 0.4 0 0.4 0 0.6 -0.1 c 0.3 0 0.6 0 0.7 0.1 c 0.1 0 0.1 -0.1 0.2 -0.1 h -0.1 v -0.2 c -0.1 0 -0.2 0 -0.3 0 l 0.5 -0.3 c -0.2 -0.2 -0.7 -0.1 -0.9 -0.2 C 195.8 123.64999999999998 195.3 123.54999999999998 195.8 123.64999999999998 z" style="stroke: none; stroke-width: 1; stroke-dasharray: ; stroke-linecap: butt; stroke-linejoin: miter; stroke-miterlimit: 10; fill: #A85C2E; opacity: 1;" transform="translate(-165.1 -113.1)" stroke-linecap="round" /></g><g transform=""><path d="M 196.3 124.04999999999998 L 196.3 124.04999999999998 L 196.3 124.04999999999998 z" style="stroke: none; stroke-width: 1; stroke-dasharray: ; stroke-linecap: butt; stroke-linejoin: miter; stroke-miterlimit: 10; fill: #A85C2E; opacity: 1;" transform="translate(-165.1 -113.1)" stroke-linecap="round" /></g><g transform=""><path d="M 157.5 125.35 c -0.1 0 -0.1 0.1 -0.2 0.1 h 1.2 c 0 -0.1 -0.4 -0.1 -0.2 -0.2 c -0.1 -0.1 -0.4 0 -0.5 0.1 l 0.1 -0.1 c -0.3 0.1 -0.5 -0.1 -0.3 -0.2 l 0 0 l -0.8 0.4 C 157.2 125.44999999999999 157.10000000000002 125.35 157.5 125.35 z" style="stroke: none; stroke-width: 1; stroke-dasharray: ; stroke-linecap: butt; stroke-linejoin: miter; stroke-miterlimit: 10; fill: #A85C2E; opacity: 1;" transform="translate(-165.1 -113.1)" stroke-linecap="round" /></g><g transform=""><path d="M 132 125.04999999999998 c 0.2 0 0.2 0 0.2 -0.1 C 132.10000000000002 125.04999999999998 132 125.04999999999998 132 125.04999999999998 z" style="stroke: none; stroke-width: 1; stroke-dasharray: ; stroke-linecap: butt; stroke-linejoin: miter; stroke-miterlimit: 10; fill: #A85C2E; opacity: 1;" transform="translate(-165.1 -113.1)" stroke-linecap="round" /></g><g transform=""><path d="M 156.7 125.54999999999998 l -0.2 0.1 C 156.60000000000002 125.64999999999998 156.7 125.64999999999998 156.7 125.54999999999998 z" style="stroke: none; stroke-width: 1; stroke-dasharray: ; stroke-linecap: butt; stroke-linejoin: miter; stroke-miterlimit: 10; fill: #A85C2E; opacity: 1;" transform="translate(-165.1 -113.1)" stroke-linecap="round" /></g><g transform=""><path d="M 158.5 123.54999999999998 C 158.5 123.44999999999999 158.5 123.44999999999999 158.5 123.54999999999998 h -0.1 l 0 0 H 158.5 z" style="stroke: none; stroke-width: 1; stroke-dasharray: ; stroke-linecap: butt; stroke-linejoin: miter; stroke-miterlimit: 10; fill: #A85C2E; opacity: 1;" transform="translate(-165.1 -113.1)" stroke-linecap="round" /></g><g transform=""><path d="M 151.10000000000002 126.04999999999998 L 151.10000000000002 126.04999999999998 C 151 126.04999999999998 151.10000000000002 126.04999999999998 151.10000000000002 126.04999999999998 z" style="stroke: none; stroke-width: 1; stroke-dasharray: ; stroke-linecap: butt; stroke-linejoin: miter; stroke-miterlimit: 10; fill: #A85C2E; opacity: 1;" transform="translate(-165.1 -113.1)" stroke-linecap="round" /></g><g transform=""><path d="M 161.8 122.75 l -0.6 0.1 c 0.1 -0.1 -0.2 0 -0.1 -0.1 c 0 0 -0.2 0 -0.2 0.1 h 0.1 c -0.3 0.2 -0.1 0.2 -0.6 0.4 c 0.3 0.1 0.4 0 0.6 -0.1 c 0.1 0 0.1 0 0.1 0 l 0.5 -0.3 L 161.8 122.75 z" style="stroke: none; stroke-width: 1; stroke-dasharray: ; stroke-linecap: butt; stroke-linejoin: miter; stroke-miterlimit: 10; fill: #A85C2E; opacity: 1;" transform="translate(-165.1 -113.1)" stroke-linecap="round" /></g><g transform=""><path d="M 139.7 124.04999999999998 L 139.7 124.04999999999998 L 139.7 124.04999999999998 z" style="stroke: none; stroke-width: 1; stroke-dasharray: ; stroke-linecap: butt; stroke-linejoin: miter; stroke-miterlimit: 10; fill: #A85C2E; opacity: 1;" transform="translate(-165.1 -113.1)" stroke-linecap="round" /></g><g transform=""><path d="M 139.7 123.94999999999999 L 139.7 123.94999999999999 C 139.7 124.04999999999998 139.8 124.04999999999998 139.7 123.94999999999999 z" style="stroke: none; stroke-width: 1; stroke-dasharray: ; stroke-linecap: butt; stroke-linejoin: miter; stroke-miterlimit: 10; fill: #A85C2E; opacity: 1;" transform="translate(-165.1 -113.1)" stroke-linecap="round" /></g><g transform=""><path d="M 156.8 125.44999999999999 c 0 0 0 0.1 -0.1 0.1 L 156.8 125.44999999999999 C 156.90000000000003 125.44999999999999 156.90000000000003 125.44999999999999 156.8 125.44999999999999 z" style="stroke: none; stroke-width: 1; stroke-dasharray: ; stroke-linecap: butt; stroke-linejoin: miter; stroke-miterlimit: 10; fill: #A85C2E; opacity: 1;" transform="translate(-165.1 -113.1)" stroke-linecap="round" /></g><g transform=""><path d="M 157.3 125.04999999999998 h 0.5 l 0.2 -0.1 C 157.7 124.94999999999999 157.5 124.94999999999999 157.3 125.04999999999998 z" style="stroke: none; stroke-width: 1; stroke-dasharray: ; stroke-linecap: butt; stroke-linejoin: miter; stroke-miterlimit: 10; fill: #A85C2E; opacity: 1;" transform="translate(-165.1 -113.1)" stroke-linecap="round" /></g><g transform=""><path d="M 151.8 126.14999999999998 c -1 0 0.2 -0.2 -0.2 -0.3 c -0.3 0 -0.4 0.1 -0.5 0.2 c 0.8 -0.1 -0.1 0.3 0.7 0.3 c -0.1 0.2 -0.6 0.2 -0.8 0.1 c -0.3 -0.2 0.3 -0.1 0.3 -0.3 c -0.3 0 -0.3 0.1 -0.4 0.2 c -0.5 0 -1 0.2 -1.3 0 c -0.4 0 -0.3 0.1 -0.5 0.2 c 0 0.2 0.5 0.1 0.7 0.2 c 0 0 -0.1 0 -0.1 -0.1 h 0.3 c -0.3 -0.1 0 -0.2 0.2 -0.2 c 0.1 0 0.3 0 0.3 0 h -0.2 c 0.2 0.1 0.5 -0.1 0.7 0 l -0.1 0.1 c 0.3 -0.1 0.5 -0.1 0.9 -0.2 l -0.2 0.2 c 0.3 -0.2 1 -0.1 1.5 0 c -0.1 0 -0.1 -0.1 -0.1 -0.1 c 0.3 0 0.5 0.1 0.4 0.2 c 0.3 -0.2 1.1 0.1 1.4 -0.1 l 1.7 -0.9 c -0.1 0 -0.1 0 -0.2 0.1 c -0.2 -0.2 -0.2 -0.1 0 -0.3 c -0.3 0.1 -0.2 0.2 -0.6 0.2 c 0.2 -0.1 0.2 -0.3 -0.2 -0.3 c -1 0.2 -1.6 0.6 -2.5 0.9 C 153 126.14999999999998 152.3 126.14999999999998 151.8 126.14999999999998 c 0.2 -0.1 0.5 -0.2 0.8 -0.2 c -0.2 0 -0.5 0 -0.7 0 L 151.8 126.14999999999998 z" style="stroke: none; stroke-width: 1; stroke-dasharray: ; stroke-linecap: butt; stroke-linejoin: miter; stroke-miterlimit: 10; fill: #A85C2E; opacity: 1;" transform="translate(-165.1 -113.1)" stroke-linecap="round" /></g><g transform=""><path d="M 154.10000000000002 125.75 C 154.10000000000002 125.75 154 125.75 154.10000000000002 125.75 C 154 125.75 154.10000000000002 125.75 154.10000000000002 125.75 z" style="stroke: none; stroke-width: 1; stroke-dasharray: ; stroke-linecap: butt; stroke-linejoin: miter; stroke-miterlimit: 10; fill: #A85C2E; opacity: 1;" transform="translate(-165.1 -113.1)" stroke-linecap="round" /></g><g transform=""><path d="M 156.60000000000002 125.14999999999998 c 0.1 0 0.1 0 0.2 -0.1 C 156.7 125.04999999999998 156.7 125.14999999999998 156.60000000000002 125.14999999999998 L 156.60000000000002 125.14999999999998 z" style="stroke: none; stroke-width: 1; stroke-dasharray: ; stroke-linecap: butt; stroke-linejoin: miter; stroke-miterlimit: 10; fill: #A85C2E; opacity: 1;" transform="translate(-165.1 -113.1)" stroke-linecap="round" /></g><g transform=""><path d="M 156.8 125.35 L 156.8 125.35 C 156.8 125.44999999999999 156.8 125.44999999999999 156.8 125.35 C 156.8 125.44999999999999 156.8 125.35 156.8 125.35 z" style="stroke: none; stroke-width: 1; stroke-dasharray: ; stroke-linecap: butt; stroke-linejoin: miter; stroke-miterlimit: 10; fill: #A85C2E; opacity: 1;" transform="translate(-165.1 -113.1)" stroke-linecap="round" /></g><g transform=""><path d="M 148.10000000000002 125.04999999999998 L 148.10000000000002 125.04999999999998 L 148.10000000000002 125.04999999999998 z" style="stroke: none; stroke-width: 1; stroke-dasharray: ; stroke-linecap: butt; stroke-linejoin: miter; stroke-miterlimit: 10; fill: #A85C2E; opacity: 1;" transform="translate(-165.1 -113.1)" stroke-linecap="round" /></g><g transform=""><path d="M 150.8 125.94999999999999 c 0.3 0 0 -0.2 0.5 -0.2 h -0.1 c 0.3 -0.1 0.9 0 1.3 0 c 0 0.1 0.2 0.1 0.2 0.2 c 0.3 0 0.6 -0.1 0.7 -0.2 c 0.2 0 0.4 -0.1 0.6 0 c -0.1 -0.1 0.3 -0.2 -0.2 -0.2 c 0 0 0 0 0.1 0 c -0.3 -0.1 -0.5 0.1 -0.8 0.1 c -0.2 -0.1 0.3 -0.1 0.1 -0.1 c -0.4 0.1 -1.2 -0.1 -1.1 0.2 c -0.3 0 -0.3 0 -0.4 -0.1 c -0.4 0.3 -1.6 -0.1 -1.6 0.2 c 0.2 0 0.4 0 0.6 -0.1 L 150.8 125.94999999999999 z" style="stroke: none; stroke-width: 1; stroke-dasharray: ; stroke-linecap: butt; stroke-linejoin: miter; stroke-miterlimit: 10; fill: #A85C2E; opacity: 1;" transform="translate(-165.1 -113.1)" stroke-linecap="round" /></g><g transform=""><path d="M 156 125.14999999999998 L 156 125.14999999999998 L 156 125.14999999999998 z" style="stroke: none; stroke-width: 1; stroke-dasharray: ; stroke-linecap: butt; stroke-linejoin: miter; stroke-miterlimit: 10; fill: #A85C2E; opacity: 1;" transform="translate(-165.1 -113.1)" stroke-linecap="round" /></g><g transform=""><path d="M 160.3 126.25 l -0.1 0.2 c -0.8 0.1 -1.1 0 -1.8 0 c -0.1 0 0 -0.1 0.1 -0.1 c -0.5 0 -1.2 0 -1.6 0.1 c -0.2 0 -0.6 -0.1 -0.4 -0.1 c -0.1 0 -0.2 0 -0.3 0 c 0 -0.1 0.2 0 0.2 -0.1 c -0.1 0 -0.1 0 -0.1 0 c 0.1 -0.1 -0.1 -0.3 0.4 -0.3 c 0.2 0.2 -0.4 0 -0.3 0.2 c 0.2 0 0.2 -0.1 0.2 -0.1 c 0.2 0 0.2 0.1 0.2 0.1 c 0.1 -0.1 0.4 0 0.5 -0.1 c 0.4 0 0 0.2 0.3 0.2 l 0.2 -0.2 h 0.5 c 0.7 -0.1 -0.1 -0.4 0.7 -0.5 c -0.1 0.1 0.2 0.3 0.6 0.3 c -0.2 0 -0.6 0.2 -0.9 0.1 c 0.4 0.2 -0.6 0 -0.3 0.2 c 0.2 -0.1 0.5 -0.1 0.8 -0.1 h -0.1 c 0.3 0 0.5 -0.2 0.9 -0.1 c 0.2 0 0.2 0.1 0.1 0.1 C 160.10000000000002 126.25 160.3 126.14999999999998 160.3 126.25 z M 159.90000000000003 126.25 H 159.60000000000002 C 159.7 126.25 159.8 126.25 159.90000000000003 126.25 z" style="stroke: none; stroke-width: 1; stroke-dasharray: ; stroke-linecap: butt; stroke-linejoin: miter; stroke-miterlimit: 10; fill: #A85C2E; opacity: 1;" transform="translate(-165.1 -113.1)" stroke-linecap="round" /></g><g transform=""><path d="M 192.3 123.64999999999998 L 192.3 123.64999999999998 C 192.3 123.75 192.3 123.64999999999998 192.3 123.64999999999998 z" style="stroke: none; stroke-width: 1; stroke-dasharray: ; stroke-linecap: butt; stroke-linejoin: miter; stroke-miterlimit: 10; fill: #A85C2E; opacity: 1;" transform="translate(-165.1 -113.1)" stroke-linecap="round" /></g><g transform=""><path d="M 169.60000000000002 123.64999999999998 h 0.1 H 169.60000000000002 z" style="stroke: none; stroke-width: 1; stroke-dasharray: ; stroke-linecap: butt; stroke-linejoin: miter; stroke-miterlimit: 10; fill: #A85C2E; opacity: 1;" transform="translate(-165.1 -113.1)" stroke-linecap="round" /></g><g transform=""><path d="M 172.90000000000003 122.85 l 0.2 -0.1 C 173.10000000000002 122.85 173 122.85 172.90000000000003 122.85 z" style="stroke: none; stroke-width: 1; stroke-dasharray: ; stroke-linecap: butt; stroke-linejoin: miter; stroke-miterlimit: 10; fill: #A85C2E; opacity: 1;" transform="translate(-165.1 -113.1)" stroke-linecap="round" /></g><g transform=""><path d="M 190.5 123.64999999999998 L 190.5 123.64999999999998 L 190.5 123.64999999999998 L 190.5 123.64999999999998 z" style="stroke: none; stroke-width: 1; stroke-dasharray: ; stroke-linecap: butt; stroke-linejoin: miter; stroke-miterlimit: 10; fill: #A85C2E; opacity: 1;" transform="translate(-165.1 -113.1)" stroke-linecap="round" /></g><g transform=""><path d="M 179.60000000000002 123.44999999999999 h 0.1 H 179.60000000000002 z" style="stroke: none; stroke-width: 1; stroke-dasharray: ; stroke-linecap: butt; stroke-linejoin: miter; stroke-miterlimit: 10; fill: #A85C2E; opacity: 1;" transform="translate(-165.1 -113.1)" stroke-linecap="round" /></g><g transform=""><path d="M 168.10000000000002 122.94999999999999 L 168.10000000000002 122.94999999999999 L 168.10000000000002 122.94999999999999 z" style="stroke: none; stroke-width: 1; stroke-dasharray: ; stroke-linecap: butt; stroke-linejoin: miter; stroke-miterlimit: 10; fill: #A85C2E; opacity: 1;" transform="translate(-165.1 -113.1)" stroke-linecap="round" /></g><g transform=""><path d="M 168.40000000000003 123.54999999999998 C 168.3 123.54999999999998 168.3 123.64999999999998 168.40000000000003 123.54999999999998 L 168.40000000000003 123.54999999999998 z" style="stroke: none; stroke-width: 1; stroke-dasharray: ; stroke-linecap: butt; stroke-linejoin: miter; stroke-miterlimit: 10; fill: #A85C2E; opacity: 1;" transform="translate(-165.1 -113.1)" stroke-linecap="round" /></g><g transform=""><path d="M 163.2 123.14999999999998 h -0.2 C 163.10000000000002 123.14999999999998 163.2 123.14999999999998 163.2 123.14999999999998 z" style="stroke: none; stroke-width: 1; stroke-dasharray: ; stroke-linecap: butt; stroke-linejoin: miter; stroke-miterlimit: 10; fill: #A85C2E; opacity: 1;" transform="translate(-165.1 -113.1)" stroke-linecap="round" /></g><g transform=""><path d="M 167.8 123.44999999999999 L 167.8 123.44999999999999 L 167.8 123.44999999999999 z" style="stroke: none; stroke-width: 1; stroke-dasharray: ; stroke-linecap: butt; stroke-linejoin: miter; stroke-miterlimit: 10; fill: #A85C2E; opacity: 1;" transform="translate(-165.1 -113.1)" stroke-linecap="round" /></g><g transform=""><path d="M 193.5 124.35 L 193.5 124.35 L 193.5 124.35 z" style="stroke: none; stroke-width: 1; stroke-dasharray: ; stroke-linecap: butt; stroke-linejoin: miter; stroke-miterlimit: 10; fill: #A85C2E; opacity: 1;" transform="translate(-165.1 -113.1)" stroke-linecap="round" /></g><g transform=""><path d="M 194 124.04999999999998 h 0.2 C 194.10000000000002 124.04999999999998 194.10000000000002 124.04999999999998 194 124.04999999999998 z" style="stroke: none; stroke-width: 1; stroke-dasharray: ; stroke-linecap: butt; stroke-linejoin: miter; stroke-miterlimit: 10; fill: #A85C2E; opacity: 1;" transform="translate(-165.1 -113.1)" stroke-linecap="round" /></g><g transform=""><path d="M 182.5 123.75 c 0.1 0 0.2 0.1 0.1 0.1 C 182.7 123.85 182.7 123.75 182.5 123.75 z" style="stroke: none; stroke-width: 1; stroke-dasharray: ; stroke-linecap: butt; stroke-linejoin: miter; stroke-miterlimit: 10; fill: #A85C2E; opacity: 1;" transform="translate(-165.1 -113.1)" stroke-linecap="round" /></g><g transform=""><path d="M 192.60000000000002 125.75 l 0.1 -0.1 C 192.60000000000002 125.64999999999998 192.5 125.64999999999998 192.60000000000002 125.75 z" style="stroke: none; stroke-width: 1; stroke-dasharray: ; stroke-linecap: butt; stroke-linejoin: miter; stroke-miterlimit: 10; fill: #A85C2E; opacity: 1;" transform="translate(-165.1 -113.1)" stroke-linecap="round" /></g><g transform=""><path d="M 192.7 125.64999999999998 h 0.1 C 192.7 125.54999999999998 192.7 125.64999999999998 192.7 125.64999999999998 z" style="stroke: none; stroke-width: 1; stroke-dasharray: ; stroke-linecap: butt; stroke-linejoin: miter; stroke-miterlimit: 10; fill: #A85C2E; opacity: 1;" transform="translate(-165.1 -113.1)" stroke-linecap="round" /></g><g transform=""><path d="M 181.10000000000002 125.54999999999998 L 181.10000000000002 125.54999999999998 L 181.10000000000002 125.54999999999998 z" style="stroke: none; stroke-width: 1; stroke-dasharray: ; stroke-linecap: butt; stroke-linejoin: miter; stroke-miterlimit: 10; fill: #A85C2E; opacity: 1;" transform="translate(-165.1 -113.1)" stroke-linecap="round" /></g><g transform=""><path d="M 194.3 124.04999999999998 c 0 -0.1 0.8 -0.2 0.2 -0.2 c 0 -0.2 0.4 -0.1 0.6 -0.1 c -0.1 0 0.1 -0.1 0 -0.2 c -0.1 0 -0.2 0.1 -0.3 0.1 c -0.1 -0.1 0.1 -0.1 0.3 -0.1 c -0.2 -0.1 0.3 -0.1 0 -0.2 c -0.6 0.1 -1.1 0.1 -1.5 0.4 c 0.4 0 0.7 -0.1 1 0 l -0.1 0.1 c -0.3 -0.1 -0.5 0 -0.8 0 L 194.3 124.04999999999998 c 0.4 0 0.2 0 -0.1 0.1 C 194.2 124.04999999999998 194.3 124.04999999999998 194.3 124.04999999999998 z" style="stroke: none; stroke-width: 1; stroke-dasharray: ; stroke-linecap: butt; stroke-linejoin: miter; stroke-miterlimit: 10; fill: #A85C2E; opacity: 1;" transform="translate(-165.1 -113.1)" stroke-linecap="round" /></g><g transform=""><path d="M 193.8 125.25 L 193.8 125.25 C 193.90000000000003 125.25 193.90000000000003 125.25 193.8 125.25 L 193.8 125.25 z" style="stroke: none; stroke-width: 1; stroke-dasharray: ; stroke-linecap: butt; stroke-linejoin: miter; stroke-miterlimit: 10; fill: #A85C2E; opacity: 1;" transform="translate(-165.1 -113.1)" stroke-linecap="round" /></g><g transform=""><path d="M 163.3 126.04999999999998 L 163.3 126.04999999999998 L 163.3 126.04999999999998 z" style="stroke: none; stroke-width: 1; stroke-dasharray: ; stroke-linecap: butt; stroke-linejoin: miter; stroke-miterlimit: 10; fill: #A85C2E; opacity: 1;" transform="translate(-165.1 -113.1)" stroke-linecap="round" /></g><g transform=""><path d="M 193.40000000000003 124.54999999999998 L 193.40000000000003 124.54999999999998 L 193.40000000000003 124.54999999999998 z" style="stroke: none; stroke-width: 1; stroke-dasharray: ; stroke-linecap: butt; stroke-linejoin: miter; stroke-miterlimit: 10; fill: #A85C2E; opacity: 1;" transform="translate(-165.1 -113.1)" stroke-linecap="round" /></g><g transform=""><path d="M 164.8 126.04999999999998 L 164.8 126.04999999999998 L 164.8 126.04999999999998 z" style="stroke: none; stroke-width: 1; stroke-dasharray: ; stroke-linecap: butt; stroke-linejoin: miter; stroke-miterlimit: 10; fill: #A85C2E; opacity: 1;" transform="translate(-165.1 -113.1)" stroke-linecap="round" /></g><g transform=""><path d="M 165.2 122.94999999999999 L 165.2 122.94999999999999 L 165.2 122.94999999999999 z" style="stroke: none; stroke-width: 1; stroke-dasharray: ; stroke-linecap: butt; stroke-linejoin: miter; stroke-miterlimit: 10; fill: #A85C2E; opacity: 1;" transform="translate(-165.1 -113.1)" stroke-linecap="round" /></g><g transform=""><path d="M 164.8 125.94999999999999 L 164.8 125.94999999999999 C 164.8 126.04999999999998 164.8 126.04999999999998 164.8 125.94999999999999 z" style="stroke: none; stroke-width: 1; stroke-dasharray: ; stroke-linecap: butt; stroke-linejoin: miter; stroke-miterlimit: 10; fill: #A85C2E; opacity: 1;" transform="translate(-165.1 -113.1)" stroke-linecap="round" /></g><g transform=""><path d="M 172.3 125.44999999999999 L 172.3 125.44999999999999 C 172.2 125.44999999999999 172.2 125.44999999999999 172.3 125.44999999999999 z" style="stroke: none; stroke-width: 1; stroke-dasharray: ; stroke-linecap: butt; stroke-linejoin: miter; stroke-miterlimit: 10; fill: #A85C2E; opacity: 1;" transform="translate(-165.1 -113.1)" stroke-linecap="round" /></g><g transform=""><path d="M 170.8 125.25 L 170.8 125.25 L 170.8 125.25 z" style="stroke: none; stroke-width: 1; stroke-dasharray: ; stroke-linecap: butt; stroke-linejoin: miter; stroke-miterlimit: 10; fill: #A85C2E; opacity: 1;" transform="translate(-165.1 -113.1)" stroke-linecap="round" /></g><g transform=""><path d="M 182.10000000000002 123.14999999999998 c -0.1 0 -0.1 0 -0.2 0 C 182 123.14999999999998 182.10000000000002 123.14999999999998 182.10000000000002 123.14999999999998 z" style="stroke: none; stroke-width: 1; stroke-dasharray: ; stroke-linecap: butt; stroke-linejoin: miter; stroke-miterlimit: 10; fill: #A85C2E; opacity: 1;" transform="translate(-165.1 -113.1)" stroke-linecap="round" /></g><g transform=""><path d="M 164.8 126.04999999999998 L 164.8 126.04999999999998 L 164.8 126.04999999999998 z" style="stroke: none; stroke-width: 1; stroke-dasharray: ; stroke-linecap: butt; stroke-linejoin: miter; stroke-miterlimit: 10; fill: #A85C2E; opacity: 1;" transform="translate(-165.1 -113.1)" stroke-linecap="round" /></g><g transform=""><path d="M 174.60000000000002 124.75 L 174.60000000000002 124.75 C 174.5 124.75 174.5 124.75 174.60000000000002 124.75 L 174.60000000000002 124.75 z" style="stroke: none; stroke-width: 1; stroke-dasharray: ; stroke-linecap: butt; stroke-linejoin: miter; stroke-miterlimit: 10; fill: #A85C2E; opacity: 1;" transform="translate(-165.1 -113.1)" stroke-linecap="round" /></g><g transform=""><path d="M 175.3 124.85 C 175.3 124.85 175.3 124.94999999999999 175.3 124.85 c 0.2 0 0.7 0.1 0.8 -0.1 c -0.1 0 -0.6 -0.1 -0.5 -0.2 c -0.2 0 -0.5 -0.1 -0.6 0 c 0.3 0.1 0 0.1 -0.2 0.2 c -0.2 0 0 -0.1 -0.1 -0.1 h -0.4 h 0.4 l -0.1 0.1 l 0 0 C 175.3 124.64999999999998 174.7 124.94999999999999 175.3 124.85 z" style="stroke: none; stroke-width: 1; stroke-dasharray: ; stroke-linecap: butt; stroke-linejoin: miter; stroke-miterlimit: 10; fill: #A85C2E; opacity: 1;" transform="translate(-165.1 -113.1)" stroke-linecap="round" /></g><g transform=""><path d="M 175.3 124.94999999999999 h -0.1 C 175.2 124.94999999999999 175.3 124.94999999999999 175.3 124.94999999999999 z" style="stroke: none; stroke-width: 1; stroke-dasharray: ; stroke-linecap: butt; stroke-linejoin: miter; stroke-miterlimit: 10; fill: #A85C2E; opacity: 1;" transform="translate(-165.1 -113.1)" stroke-linecap="round" /></g><g transform=""><path d="M 178 125.14999999999998 h 0.1 H 178 z" style="stroke: none; stroke-width: 1; stroke-dasharray: ; stroke-linecap: butt; stroke-linejoin: miter; stroke-miterlimit: 10; fill: #A85C2E; opacity: 1;" transform="translate(-165.1 -113.1)" stroke-linecap="round" /></g><g transform=""><path d="M 158.2 124.94999999999999 c 0 0 0.4 0.1 0.4 0 H 158.2 L 158.2 124.94999999999999 z" style="stroke: none; stroke-width: 1; stroke-dasharray: ; stroke-linecap: butt; stroke-linejoin: miter; stroke-miterlimit: 10; fill: #A85C2E; opacity: 1;" transform="translate(-165.1 -113.1)" stroke-linecap="round" /></g><g transform=""><path d="M 185.3 124.54999999999998 h -0.1 l 0 0 C 185.2 124.54999999999998 185.3 124.54999999999998 185.3 124.54999999999998 z" style="stroke: none; stroke-width: 1; stroke-dasharray: ; stroke-linecap: butt; stroke-linejoin: miter; stroke-miterlimit: 10; fill: #A85C2E; opacity: 1;" transform="translate(-165.1 -113.1)" stroke-linecap="round" /></g><g transform=""><path d="M 175.7 124.54999999999998 c -0.1 0 -0.1 0 -0.1 0.1 C 175.7 124.64999999999998 175.7 124.54999999999998 175.7 124.54999999999998 z" style="stroke: none; stroke-width: 1; stroke-dasharray: ; stroke-linecap: butt; stroke-linejoin: miter; stroke-miterlimit: 10; fill: #A85C2E; opacity: 1;" transform="translate(-165.1 -113.1)" stroke-linecap="round" /></g><g transform=""><path d="M 185.3 124.75 c 0.1 0 0.1 0.1 0.1 0.1 c 0.1 0 0.2 -0.1 0.3 -0.1 C 185.7 124.85 185.5 124.85 185.3 124.75 z" style="stroke: none; stroke-width: 1; stroke-dasharray: ; stroke-linecap: butt; stroke-linejoin: miter; stroke-miterlimit: 10; fill: #A85C2E; opacity: 1;" transform="translate(-165.1 -113.1)" stroke-linecap="round" /></g><g transform=""><path d="M 185.8 124.85 L 185.8 124.85 L 185.8 124.85 z" style="stroke: none; stroke-width: 1; stroke-dasharray: ; stroke-linecap: butt; stroke-linejoin: miter; stroke-miterlimit: 10; fill: #A85C2E; opacity: 1;" transform="translate(-165.1 -113.1)" stroke-linecap="round" /></g><g transform=""><path d="M 158 124.94999999999999 h -0.1 H 158 h -0.3 H 157.60000000000002 l 0 0 h -0.1 c -0.2 0.1 -0.7 0.2 -0.9 0.3 c -0.2 0 -0.4 0.1 -0.6 0.1 c 0.1 0 0.3 0 0.3 -0.1 c -0.3 -0.1 -0.4 -0.3 -0.9 -0.1 h 0.3 l -0.7 0.2 c -0.2 -0.1 0.3 -0.1 0.4 -0.2 c -0.5 0.1 -0.9 -0.2 -1.2 0 c 0 -0.1 -0.1 -0.3 -0.4 -0.3 c 0.2 0.1 -0.2 0.1 0 0.2 c -0.1 0.1 -0.4 0 -0.4 0 v -0.1 c -0.6 -0.2 -0.8 0.1 -1 0.2 c -0.7 0.1 -1 0 -1.6 0 c 0 -0.1 -0.2 -0.3 -0.4 -0.3 c -0.1 0.1 -0.6 0.2 -0.7 0.3 c 0.4 0.1 0.3 -0.1 0.6 -0.2 c 0.2 0.2 0 0.2 0.3 0.2 c -0.2 -0.1 -1 0.1 -1.2 -0.1 h 0.1 c -0.4 -0.1 -0.5 -0.4 -1.1 -0.2 l -0.3 0.1 l 0 0 c -0.5 0 -0.4 -0.2 -0.9 -0.1 c 0 0 0 0 0.1 0 c -0.3 -0.1 -0.6 0.1 -0.9 0.1 c -0.1 -0.1 0 -0.1 0.1 -0.2 c -0.6 0 -1.2 0.2 -1.5 0.3 l -0.4 -0.1 c 0.2 0 0.5 -0.2 0.4 -0.3 c -0.2 0 -0.2 0.1 -0.4 0.1 c 0 -0.1 0.2 -0.2 0.3 -0.2 c -0.6 -0.1 -0.1 0.3 -0.5 0 c -0.2 0 -0.3 0.1 -0.3 0.2 l -0.3 -0.1 c 0 0.1 -0.4 0.1 -0.7 0.1 c 0 0.1 0.2 0.1 0.3 0.1 c 0 0.1 -0.3 0.1 -0.5 0.1 c -0.1 -0.3 -1.2 0 -1 -0.3 c -0.8 0.1 -2 0.1 -2.5 0.2 c -0.2 -0.1 -0.5 -0.1 -0.3 -0.2 c -0.7 0 -1 0.3 -1.6 0.2 c -0.1 0 0.3 0 0.3 -0.1 c -0.4 0.1 -0.8 -0.1 -1.4 0 c 0.1 0 0.1 -0.1 0.2 -0.1 c 0 0 -0.3 0.1 -0.4 0.1 c -0.1 0 0.1 0 0.1 -0.1 c -1.3 -0.1 -2.2 0.2 -3.5 0.2 c 0.4 0 0.5 -0.2 0.5 -0.2 h -0.4 c -0.1 0.1 -0.4 0.1 -0.6 0.1 c 0 0 -0.1 -0.1 0 -0.1 c -0.7 -0.2 -1.1 0.3 -2 0.2 l 1 -0.3 l -0.3 -0.1 l 0.5 -0.2 c -0.3 -0.1 -0.5 0.1 -0.5 0 c 0.1 0 0.2 0 0.2 -0.1 c -0.3 0 -0.3 0 -0.5 0.1 c 0.5 -0.3 1.5 -0.3 2.1 -0.3 c 0.1 0 -0.1 0.1 -0.1 0.1 c 0.2 0 0.4 0.1 0.6 0 c 0.2 -0.1 -0.1 -0.1 -0.3 -0.1 c 0 -0.1 0.1 -0.1 0.2 -0.1 c 0 0.1 0.8 0 1 0.2 c 0.8 0 -0.1 -0.3 0.7 -0.3 l 0.2 0.1 c 0.5 -0.1 1.1 -0.2 1.6 -0.2 H 136.60000000000002 c -0.1 0.1 0 0.1 0.1 0.1 c 0.4 0.1 0.8 -0.1 1 0 c 0.5 -0.2 1.2 -0.3 1.7 -0.3 c 0.1 0.2 -0.7 0.2 -0.9 0.3 h 0.5 c -0.3 0 -0.4 0.1 -0.6 0.2 c 0.4 0 0.6 -0.1 0.9 -0.2 c 0 0.1 0 0.1 0.2 0.1 l 0.1 -0.1 c 0 0 0 0 0.1 0 l 0.7 -0.1 c -0.1 -0.1 -0.2 -0.2 -0.3 -0.2 c 0.1 0.1 -0.1 0.1 -0.3 0.1 c 0.2 -0.1 -0.2 -0.1 -0.2 -0.1 c 0.4 0 0.8 0 1 0 l 0.1 0.1 c 0.3 0 0.7 0 0.9 0 l -0.1 0.1 c 0.4 0 0.8 0 1.2 0.1 c 0.4 -0.1 0.8 -0.2 1.1 -0.4 c 0.2 -0.1 1.1 0.2 1.5 0 c 0 0 -0.3 0.1 -0.4 0.2 c 0.3 0 0.5 -0.2 0.6 0 c -0.6 -0.1 0 0.1 -0.2 0.2 c 0.3 0 0.6 0 0.7 -0.1 c -0.5 0 0.2 -0.2 -0.3 -0.1 c 0.4 -0.1 0.9 -0.2 1.3 -0.1 c 0 0.1 0 0.1 0.2 0.1 l 0.1 -0.1 c 0.2 0 -0.4 0.1 0 0.2 c 0.4 -0.2 1.3 0.1 1.5 -0.2 c 0.3 0.1 -0.6 0.1 -0.1 0.3 c -0.3 0.1 -0.7 0 -0.8 0.1 c 0.3 0 0.1 0.1 0.3 0.1 l 0.3 -0.1 h -0.1 c 0.5 -0.1 1.4 -0.1 2 -0.1 c 0.6 -0.2 1 -0.4 1.6 -0.4 c -0.2 0.1 0.6 0.1 0.1 0.3 c 0.3 0.1 0.6 0 0.6 -0.1 c -0.3 0 -0.1 0 -0.3 -0.1 c 0.2 -0.1 0.5 -0.1 0.7 0 c -0.1 0 0 0 -0.1 0 c 0.3 0.1 0.2 -0.1 0.4 -0.1 c 0.1 0.1 0.5 0 0.7 0.1 l 0.3 -0.2 c -0.2 0.1 0.3 0 0.4 0.1 c 0.2 -0.1 0.4 -0.2 0.8 -0.2 c -0.1 0.1 0.3 0.1 0.3 0.2 c 0.6 0.1 1 -0.3 1.5 -0.1 c 0 0 -0.1 0.1 0 0.1 s 0.4 0 0.5 0 l 0 0 l 0 0 c 0.1 0 0.1 0 0.1 0 c 0.2 -0.1 0.4 -0.2 0.8 -0.3 c 0 -0.1 -0.4 -0.1 -0.6 0 l -0.1 0.1 c -0.1 -0.2 -0.4 0 -0.5 0 c 0.3 -0.2 1.1 -0.2 1.6 -0.3 c -0.3 -0.2 -0.9 -0.2 -1.5 -0.2 l 0.2 0.1 H 157.60000000000002 l 0.3 0.1 c -0.3 0 -0.5 0 -0.8 0 c 0.3 0 0.4 0.2 0.2 0.1 c -0.3 -0.1 -0.3 0.1 -0.6 0.1 c 0.1 0 0.3 0 0.2 0.1 c -0.5 -0.2 -0.6 -0.1 -1.1 -0.2 c 0.1 0.2 -0.6 0 -0.6 0.2 h 0.2 l -0.4 0.1 c -0.4 -0.2 0.4 -0.2 -0.3 -0.3 c -0.6 0 -0.6 0.2 -1 0.2 c 0.1 -0.1 0.5 -0.2 0.9 -0.2 l -0.2 -0.1 c 0.1 -0.1 0.6 -0.1 0.9 0 c -0.4 0.1 0.2 0 0.4 0.2 c 0 -0.1 -0.2 -0.1 0.1 -0.2 c -0.3 0 -0.3 0 -0.7 0 c 0.8 0.1 0.7 -0.4 1.4 -0.3 c -0.3 0.1 0.1 0.2 0.2 0.2 c 0.2 0 0.5 0 0.6 -0.1 l -0.1 -0.2 c 0.4 -0.1 0.6 0.3 1 0.1 c 0.1 -0.1 -0.4 0 -0.3 -0.1 c 0.6 -0.1 0.9 0.2 1.5 0.3 c 0 -0.1 0 -0.2 0.2 -0.3 c -0.1 0.1 0.1 0.2 -0.1 0.2 c 0.2 0 0.4 0 0.6 -0.1 c -0.4 -0.1 0.2 -0.1 0.2 -0.2 c 0.2 0 -0.1 0.1 -0.2 0.1 c 0.2 0 0.4 0.2 0.5 0 c 0 0.1 -0.5 0.3 -0.8 0.3 h 0.2 c -0.1 0.1 -0.2 0 -0.4 0 c 0.2 0.1 0.2 0.2 0.1 0.3 l 0 0 c -0.2 0 -0.3 0 -0.3 0.1 c -0.1 0.1 0.2 0.1 0.3 0.2 h 0.3 l 0.9 -0.5 c 0.4 -0.1 0.5 0.1 0.8 0.1 l 0.1 -0.1 c 0.3 0 0.6 0.1 0.4 0.2 h -0.1 l 0 0 l 0 0 c 0.3 0 0.6 -0.1 0.6 -0.1 c -0.6 0.2 0 0.2 -0.1 0.5 l 0.6 -0.1 c -0.4 -0.1 0 -0.1 0.1 -0.1 c 0 0.1 0.5 0 0.7 0 l 0 0 c 0.2 0 0.5 0 0.8 0 c 0 0 0.3 -0.2 0.4 -0.4 c -0.4 0 -0.2 -0.1 -0.2 -0.2 h 0.1 c 0.1 0 -0.1 0 -0.1 -0.1 c -0.4 0.1 -0.9 0.1 -1.1 0.3 c 0.1 0.1 0.2 -0.1 0.4 0 c -0.2 0.1 -0.5 0.1 -0.9 0.1 l -0.1 -0.1 l -0.4 0.1 c 0.2 -0.1 0.1 -0.2 0.4 -0.2 c 0 -0.1 -0.4 0 -0.6 0 l -0.1 0.1 c 0 -0.1 -0.5 -0.1 -0.1 -0.2 l 0.6 -0.1 l -0.2 -0.1 h 0.5 l -0.1 0.1 c 0.8 -0.1 0.2 0.3 1 0.1 c 0.2 -0.2 0.5 -0.2 1 -0.1 c -0.4 0 0 0.1 -0.2 0.2 c 0.4 0.1 0.5 -0.1 0.7 -0.1 c 0.1 0.1 0.2 0.2 -0.2 0.2 c 0 0.2 0.4 0 0.5 0.2 c 1.1 0 0.8 -0.6 2.1 -0.4 v 0.1 c 0.8 -0.1 1.2 0 2 -0.1 l 0.6 0.2 c -0.1 0 -0.5 0.2 -0.3 0.3 c -0.3 -0.2 -0.6 -0.1 -0.9 -0.2 c 0 0.1 0.1 0.1 0.1 0.1 c -0.2 0 -0.3 -0.1 -0.5 -0.1 c 0 0 0.3 0.1 0.1 0.1 l -0.3 -0.1 c -0.4 0.1 -0.2 0.3 -0.7 0.2 c 0.1 -0.1 0.3 -0.3 0.5 -0.3 c -0.2 0 0.3 -0.1 0.1 -0.1 c -0.3 0.2 -0.5 0 -0.9 0.1 c 0.1 0 0.1 -0.1 0.2 -0.1 l -0.7 -0.1 c 0.2 0.1 -0.5 0.1 -0.5 0.2 c 0.7 0.1 0.5 0 1.3 0.1 c -0.2 0 -0.5 0.2 -0.6 0.3 l 0 0 c -0.1 0.1 0 0.2 0 0.4 c 0.4 -0.2 0.6 0 1 -0.1 c 0.1 -0.1 -0.2 -0.2 -0.5 -0.1 l 0.4 -0.1 l -0.1 0.1 h 1 c -0.2 0 -0.2 0.1 -0.3 0.1 c 0.1 0 0.2 0 0.4 0.1 c 0 -0.1 0 -0.2 0.1 -0.2 c 0.6 0 1 0.1 1.2 0.3 h 0.1 c -0.1 -0.1 0.4 -0.2 0.6 -0.4 c 0 0.1 0.3 0.1 0.5 0.2 c 0.1 -0.2 0 -0.4 -0.2 -0.5 c -0.4 0.1 -0.2 0.1 -0.4 0.3 l -0.7 0.1 l 0.1 -0.1 c -0.3 -0.1 -0.6 0.1 -0.6 -0.1 c 0.2 -0.1 0.5 0 0.6 -0.2 l -0.2 -0.1 c 0.4 -0.2 0.2 0.2 0.7 0 c -0.2 -0.1 0 0 0.2 -0.1 c -0.2 -0.1 -0.8 0 -0.7 -0.2 c 0.2 -0.1 0.8 0.3 1.1 0 l 0 0 c 0.5 0 0.6 -0.1 0.8 -0.2 c 0.2 0.1 0.5 0 0.7 0 v 0.1 h 0.3 c -0.1 0.1 -0.4 0 -0.6 0 v 0.1 c -0.3 -0.1 -0.5 0.1 -0.7 0.2 c 0.3 -0.1 1 0 1.1 -0.2 l 0.2 0.1 h 0.1 c 0.2 0.1 0 0.2 -0.3 0.3 c -0.1 0 -0.1 0 -0.1 -0.1 c -0.1 0.1 -0.3 0.2 -0.6 0.1 l 0.2 -0.1 c -0.4 0 -0.8 0 -1 0.2 c 0.6 0.1 1.2 0.1 1.8 0.1 c 0.2 -0.3 0.4 -0.4 0.5 -0.7 c 0.4 0 0.9 -0.1 1.3 0 v 0.1 c 0.2 0 0.3 0 0.4 0 c 0.2 0.1 -0.1 0.1 0 0.2 l 0.6 -0.1 c 0 0.1 -0.5 0.1 -0.7 0.1 h 0.1 c -0.3 0 -0.7 0.2 -0.9 0 c -0.1 0 0.3 -0.1 -0.2 -0.1 c -0.3 -0.1 -0.4 0.1 -0.4 0.1 c 0 0.1 0.5 0.1 0.3 0.2 c 0.2 0 0.3 -0.1 0.6 0 c -0.2 0 -0.5 0.1 -0.6 0 c -0.4 0.1 -0.4 0.4 -0.2 0.5 c 0 -0.1 0.8 -0.1 0.2 -0.3 c 0.3 -0.1 0.7 -0.1 1.1 -0.2 l 0 0 h 0.4 c -0.1 0 -0.2 0.1 -0.2 0.1 l 0.6 -0.2 c -0.3 0.1 0.2 0.1 0.4 0.1 c 0.1 -0.1 0.3 -0.2 0.1 -0.2 c -0.2 -0.1 -0.1 0.1 -0.4 0.1 l 0.3 -0.2 l 0 0 l 0.2 -0.1 c 0.4 0 -0.2 0.3 0.4 0.2 l -0.1 -0.2 c 0.6 0 1.5 0.2 1.9 0.1 c -0.1 0.1 -0.2 0.3 0 0.4 c -0.2 0 -0.6 0 -0.9 0 c -0.1 0 0.3 -0.2 0.7 -0.2 c -0.1 -0.3 -0.8 0.2 -0.8 -0.1 c -0.8 -0.1 -0.6 0.3 -1.2 0.1 c 0 0.1 -0.2 0.1 -0.2 0.2 c 0.2 0.2 0.9 0 1.3 0.1 c 0 0 -0.1 0 -0.1 0.1 c 0.3 0 0.4 0 0.6 0 l 0 0 c 0.4 -0.1 0.2 0.1 0.4 0.2 c 0.1 0 0.4 0 0.3 -0.1 l 0.4 0.1 v -0.2 c 0.2 0 0.3 0.1 0.5 0 v -0.1 h -0.6 c 0.3 0 0.1 -0.1 0.4 -0.2 c -0.3 0.1 0.2 0.1 0.3 0.2 l 0.2 -0.1 h -0.1 c 0.2 0.1 0.2 0 0.4 0 c -0.2 -0.1 -0.4 -0.2 -0.7 -0.1 c 0.2 -0.1 0.7 -0.2 0.8 -0.2 c 0.2 -0.1 0.4 0 0.6 0.1 c -0.4 0.1 0.2 0.4 -0.7 0.3 h 0.1 c -0.1 -0.2 -0.5 0 -0.7 0.1 c 0 0.1 -0.1 0.1 0.2 0.2 c -0.1 -0.1 0.3 -0.2 0.6 -0.1 l -0.1 0.2 h 0.5 l 0 0 c 0.2 0.1 0.5 0 0.8 0.1 c 0.2 -0.1 1.1 0 0.7 -0.2 c 0.3 0.1 0.5 0 0.8 -0.1 l -0.4 -0.1 c 0.5 -0.2 0.3 -0.1 0.7 -0.3 c 0 0.1 0.1 0.1 0 0.2 c 0.6 0 1.5 0.1 1.8 -0.1 c 0.4 0 0.5 0.3 1.1 0.2 c 0.1 0 -0.1 -0.2 0.3 -0.1 c 0 0 -0.4 0.2 0.1 0.1 c 0.3 -0.2 0.7 0.1 1.2 -0.1 c 0.2 0.1 0.6 0 0.5 0.2 c -0.3 0 -0.8 0 -0.9 0.1 c 0 -0.1 -0.2 -0.1 0 -0.1 c -0.5 -0.1 -0.3 0.1 -0.8 0 c 0 0.1 0.2 0.1 0.3 0.1 c 0 0.2 -0.9 0.1 -0.5 0.3 c 0.5 0 0.7 -0.4 1.1 -0.2 c -0.2 0.1 -0.4 0 -0.7 0.2 l 0.4 0.1 l 0.3 -0.1 l 0 0 c 0.6 0.2 0.6 -0.2 1.1 -0.3 c -0.3 -0.1 0.1 -0.3 -0.2 -0.4 c 0.4 0 0.7 0 0.7 0.2 c -0.7 0.1 0 0.2 -0.7 0.4 c 0.1 0.1 -0.2 0.3 0.2 0.3 c 0.4 -0.1 -0.1 -0.1 0.3 -0.2 c 0 0 0.1 0 0 0.1 c 0.2 -0.1 0.2 0 0.5 -0.1 h -0.1 c 0.3 0.1 0.3 -0.1 0.6 0 c -0.1 -0.1 0.2 -0.1 0.3 -0.2 c -0.3 0 -0.4 -0.2 -0.9 -0.2 c -0.1 0.1 0 0.2 -0.2 0.2 h 0.3 c -0.1 0 -0.1 0 -0.2 0.1 l -0.3 -0.1 c 0.4 -0.1 0.2 -0.2 0.4 -0.3 c 0.4 0 0.3 0 0.5 0 c 0 0.2 0.7 0.3 1.2 0.4 c -0.1 0 -0.2 0 -0.2 0 c -0.3 0.1 0.2 0.1 0.2 0.2 l 0.2 -0.1 c 0 0 -0.1 0 0 0.1 c 0.3 0 0.3 -0.2 0.6 -0.2 c 0 0.1 -0.2 0.2 0 0.3 c 0.1 0.1 0.3 0.3 0.7 0.2 c 0 0 0.1 -0.1 0.3 -0.1 l 0 0 l 0.3 0.1 c -0.2 0.1 -0.5 -0.1 -0.7 0.1 v 0.1 c -0.2 0 -0.4 0.1 -0.5 0.1 c 0.3 0 0.3 0 0.6 0 c 0 0.1 -0.2 0.1 -0.2 0.2 v -0.1 c -0.4 -0.1 -0.6 0.1 -1 0.1 c -0.1 0 0 0 0 0 c -0.4 0.1 -0.7 0 -1.1 0.1 l 0.1 -0.1 c -0.2 0.1 -0.7 0.2 -1.2 0.3 v 0.1 c 0.1 0 -0.1 0 -0.2 0 l 0 0 c -0.2 0.1 -0.5 0.1 -0.7 0.2 c 0.1 0 0.1 0.1 0.2 0.1 c 0.1 -0.1 0.5 0 0.5 -0.2 c 0.2 0.1 0.5 0 0.7 0 c -0.3 -0.1 0.2 -0.1 0.2 -0.2 c 0.1 0.1 0.4 0 0.4 0.1 c 0.1 0 -0.1 -0.1 -0.2 0 c -0.3 0.1 0.5 0.1 0.2 0.2 c 0.5 -0.1 1.1 0 1.5 -0.2 h -0.3 c 0.2 0 0.7 0 0.7 0 c -0.2 0 -0.3 0 -0.5 0 c 0 0.1 0.5 0 0.5 0.1 l 0.6 -0.2 h -0.3 c 0.2 -0.1 0.7 0 1.1 0 c -0.2 0.2 -0.6 0 -1 0.1 c -0.3 0.1 0.2 0.2 -0.1 0.2 c 0.1 0 0.3 0 0.3 0 h 0.1 c -0.3 0.2 -0.8 0.1 -1.2 0.3 c 0 0 0.1 0 0.1 -0.1 c -0.3 -0.1 -0.6 -0.1 -0.9 0 c 0.1 0.1 0.2 0 0.3 0 c 0 0 -0.3 0.1 -0.4 0.1 c 0.3 0 0 0.1 0.2 0.1 c -0.2 0 -0.3 0 -0.5 0 c -0.1 -0.1 0.1 -0.1 0.1 -0.2 c -0.2 0.1 -0.3 -0.1 -0.6 -0.1 c 0.4 0 -0.1 0.2 -0.3 0.2 h 0.1 c -0.1 0.1 -0.2 0.1 -0.3 0 c 0.2 0 0.3 0 0.3 -0.1 c -0.1 0 -0.2 0 -0.4 0 l 0.1 -0.1 h -0.6 c -0.1 0.1 -0.2 0.2 -0.3 0.3 c -0.1 -0.1 -0.3 0 -0.4 0 h 0.1 c -0.2 -0.1 -0.8 0 -0.8 0.1 c -0.2 -0.1 1.2 -0.5 0 -0.4 c -0.5 0 -0.3 0.2 -0.6 0.3 l 0 0 c -0.2 0 -0.2 0.1 -0.4 0.1 c 0.1 0 0.3 0 0.4 0 c -0.1 0.1 -0.4 0 -0.6 0.1 c 0.2 -0.2 -0.4 -0.1 -0.2 -0.1 c -0.4 -0.1 -0.9 0 -1.1 0.1 c -0.3 -0.2 -0.5 0 -0.9 -0.1 c 0.1 0 0.2 0 0.3 0 c 0.3 -0.1 -0.5 -0.1 -0.1 -0.2 c -0.1 0 0 0.1 0.1 0 c 0.2 0 0.3 -0.1 0.3 -0.1 l -0.4 -0.1 h 0.1 l -0.6 -0.2 c 0 0 0 0.1 0.1 0.1 c -0.7 -0.1 -1.4 0 -2 0 c -0.1 0.4 -1.4 0.2 -1.9 0.4 c 0.1 -0.1 0.2 -0.3 0.1 -0.4 c 0.1 0 0.3 -0.2 0.5 -0.1 c 0 0.1 0.3 0.1 0.1 0.2 c 0.6 0 -0.1 -0.2 0.1 -0.3 c -0.7 0 -1.1 0.2 -1.6 0.3 l 0 0 l -0.3 0.1 c 0.3 0 0.3 0.2 -0.1 0.2 l 0 0 c -0.2 -0.1 -0.6 0 -0.9 0 l -0.2 0.1 c -0.3 0 -0.3 -0.2 -0.4 -0.4 c -0.5 0 -0.8 0.2 -1.1 0.3 c -0.2 -0.1 -0.9 -0.1 -0.5 -0.2 c -0.5 0.1 -0.4 0.6 -1.1 0.3 l 0.2 -0.1 c -0.7 0 -1.8 0.2 -2.1 0.1 c 0.3 -0.3 -0.9 -0.3 -1.1 -0.7 c 0 0.1 -0.2 0.1 -0.3 0.1 s -0.2 -0.1 -0.3 0 c 0.3 0.1 -0.2 0.3 0.3 0.2 c -0.3 0.2 -0.6 0.4 -1.3 0.4 v -0.1 h 0.5 c 0 -0.1 0.2 -0.1 0.3 -0.1 c -0.9 -0.1 0.1 -0.3 -0.8 -0.3 c -0.1 0.1 0 0.1 -0.3 0.1 c 0.1 0 0.1 -0.1 0 -0.1 l -0.2 0.1 c -0.3 -0.2 0.5 -0.1 0.3 -0.3 c 0.4 -0.1 1 -0.2 0.9 -0.3 c -0.6 -0.1 -0.5 0.3 -1.1 0.2 l -0.1 -0.1 c -0.2 0 -0.2 0.2 -0.4 0.2 c 0 0 -0.1 -0.1 -0.2 -0.1 c -0.4 0.2 -0.6 0.2 -0.9 0.4 c 0.9 -0.1 0.8 0.1 1.7 0 c -0.1 0.1 -0.8 0.1 -0.8 0.3 v -0.1 c -0.3 0.1 -0.6 0.1 -1 0.1 l 0.2 -0.1 c -0.5 0.1 -0.8 -0.2 -1.2 0 c 0.1 0 0.2 0 0.3 0 c -0.3 0.1 -0.6 0 -0.9 0 l -0.6 0.2 c 0 -0.1 -0.4 -0.1 -0.2 -0.2 c -0.4 -0.1 -0.6 0.1 -0.8 0.1 c -0.4 -0.1 0.4 -0.1 0.4 -0.3 c -0.6 -0.1 -1.2 0 -1.5 0.1 c 0.1 0 0.2 0.1 0.2 0.1 s -0.3 0 -0.4 0 l -0.1 0.1 c -0.2 -0.1 -0.2 -0.1 0 -0.2 c -0.2 0 -0.5 0.2 -0.7 0 c 0.4 -0.1 0.8 0 1 -0.1 c -0.7 0.1 -0.7 -0.3 -1.7 -0.2 c 0 0 0.1 -0.1 0 -0.1 c -0.4 0 -0.1 0.2 -0.2 0.3 c 0.3 -0.1 0.5 0 0.7 0.1 l -0.1 0.1 c 0 0 -0.2 0 -0.3 -0.1 l -0.1 0.1 c 0 -0.2 -0.3 -0.3 -0.6 -0.2 c 0.3 0.1 0.2 0.1 0.3 0.3 c -0.4 0.2 -0.4 -0.2 -0.8 0 c 0 -0.1 0.4 -0.1 0.1 -0.1 c -0.3 0 -0.2 0.1 -0.4 0.2 c 0.2 -0.1 0.1 -0.2 0.3 -0.4 c 0.4 0 0.2 0 0.6 -0.1 l -0.4 -0.1 c 0.4 0 0.3 -0.2 0.3 -0.2 c -0.6 -0.1 -0.5 0.2 -0.9 0.2 c -0.2 0.1 0.4 0 0.1 0.1 c -0.4 0 -0.1 0.1 -0.5 0.1 l 0.1 -0.1 c -0.1 -0.1 -0.3 0 -0.4 0 c -0.2 0 0.2 0.5 -0.5 0.5 v -0.1 l 0.7 -1.1 c -0.7 0 -1.5 0 -2.3 -0.1 c -0.2 -0.2 0.6 -0.2 0.5 -0.3 h 0.4 c 0 0.1 -0.8 0 -0.4 0.2 c 0.7 -0.1 1 0 1.6 -0.2 c -0.2 -0.2 -0.8 0 -1.2 -0.1 c 0.2 0 0.3 0 0.5 0 l -1.2 -0.1 l -0.1 0.1 c 0.3 0 0.5 0 0.5 0.1 c -0.4 0 -0.7 0.1 -0.7 0.3 h 0.1 h -0.1 L 158 124.94999999999999 z M 132.8 124.85 L 132.8 124.85 L 132.8 124.85 z M 165.60000000000002 124.35 c -0.5 0 -1 -0.1 -1.5 -0.1 c 0.9 0.3 1.5 0.6 0 0.6 h -0.1 c 0.2 0 0.5 0 0.9 0 c 0.3 -0.1 1.1 -0.5 1.1 -0.6 C 165.8 124.25 165.7 124.35 165.60000000000002 124.35 L 165.60000000000002 124.35 z M 166 124.94999999999999 c 0.3 0 0.2 0 0.3 -0.1 L 166 124.94999999999999 C 166 124.85 166 124.85 166 124.94999999999999 z M 166.2 124.75 L 166.2 124.75 L 166.2 124.75 z M 160.5 124.64999999999998 L 160.5 124.64999999999998 h -0.2 C 160.40000000000003 124.64999999999998 160.40000000000003 124.64999999999998 160.5 124.64999999999998 z M 161.10000000000002 124.85 l 0.1 -0.1 L 161.10000000000002 124.85 C 161 124.75 161 124.75 161.10000000000002 124.85 z M 163 125.25 c 0.1 -0.1 0.5 -0.1 0.6 -0.3 c 0 0 -0.1 -0.1 -0.2 -0.1 h -0.3 c 0 0 0 0 -0.1 0.1 c 0.1 0 0.2 0.1 0.2 0.2 c -0.3 -0.2 -0.3 0.2 -0.6 0.1 C 162.5 125.25 162.90000000000003 125.25 163 125.25 z M 188.5 124.75 L 188.5 124.75 l -0.1 0.2 c -0.4 0 -0.8 -0.3 -1.1 -0.1 c -0.2 0 -0.3 -0.2 -0.4 -0.2 c 0.1 0 0.2 0 0.2 0 C 188.2 124.35 187.7 124.94999999999999 188.5 124.75 z M 183.7 124.54999999999998 C 183.8 124.44999999999999 183.8 124.44999999999999 183.7 124.54999999999998 c -0.9 0.3 -1.6 0.3 -2.1 0.3 c 0.1 0.1 0.5 0.2 0.8 0.3 l -0.2 0.1 l -0.1 -0.1 l -0.3 0.1 c 0.1 0.1 0.4 0.1 0.5 0.1 c 0 0 0.6 -0.2 0.7 -0.3 l -0.5 -0.1 c 0.1 0 0.7 0 1 0 c 0 -0.1 -0.4 -0.2 -0.5 0 c 0 -0.1 0.4 -0.1 0.1 -0.2 c 0.4 -0.1 0.9 0 1.2 0 v 0.2 c 0.3 0.1 0.2 -0.2 0.5 -0.1 c -0.4 0 0.1 0.2 -0.3 0.2 c 0.1 0.1 0 0.2 0.3 0.2 c 0.3 -0.2 0.4 0.1 0.6 -0.1 c 0.2 0.1 -0.2 0.1 0.2 0.2 c 0.4 -0.1 0.4 -0.2 0.4 -0.4 c -0.4 0 -0.4 0.2 -0.7 0.2 l 0.6 -0.3 c -0.1 0 -0.2 0 -0.3 0 c 0.1 0 0.2 -0.1 0.3 -0.1 l 0.1 -0.1 c -0.3 0 -0.6 0 -0.7 -0.1 v -0.1 c -0.1 -0.1 -0.3 0 -0.4 0 c -0.3 0 -0.6 0.1 -0.7 0 l 0.1 -0.1 C 184.2 124.44999999999999 184.2 124.44999999999999 183.7 124.54999999999998 z M 171.3 124.35 c 0.2 0.3 0.5 0.5 1.5 0.5 h -0.1 c 0.5 0.2 1 -0.2 1.7 0 c -0.3 0.1 -0.3 0.1 -0.7 0.3 l 0.3 -0.1 c -0.1 0.2 0.2 0.1 0.5 0.1 l -0.2 0.2 c -0.2 -0.1 -0.5 -0.1 -0.5 0 c 0.1 0 -0.5 -0.2 -0.8 -0.2 c 0 0.1 0.7 0.1 0.4 0.3 c 0.3 -0.1 0.3 0 0.6 0 c -0.3 0.1 -0.1 0.2 -0.3 0.3 h 0.5 c 0 0 -0.7 0.1 -0.3 0.2 c 0.2 -0.1 0.7 0 0.7 -0.1 l 0 0 c 0.3 0 0.2 -0.2 0.6 -0.1 c 0 -0.1 -0.1 -0.1 -0.2 -0.1 c -0.1 0 -0.1 0.1 -0.4 0.1 c -0.1 -0.1 0.3 0 0.1 -0.2 c -0.1 -0.1 -0.7 0.1 -0.5 -0.1 h 0.3 c 0 -0.1 0.3 -0.1 0.3 -0.2 c 0.2 0 0.4 0.1 0.6 0 c 0.1 -0.1 -0.1 -0.2 0.3 -0.2 c 0.3 0.2 1.1 0.2 1.4 0.1 l 0.3 -0.1 c 0 -0.1 -0.5 0 -0.3 -0.1 h 0.4 V 125.04999999999998 c 0.1 0 0.3 0 0.4 -0.1 c -0.1 0.1 -0.4 0.1 -0.4 0.2 c 0.2 0 0.2 0.1 0.4 0.1 h -0.1 c 0.4 0.1 0.4 -0.2 0.5 -0.2 c 0.4 -0.2 -0.4 -0.2 -0.4 -0.3 l 1.2 -0.1 c -0.1 0 -0.2 0.1 -0.2 0.1 c 0.3 0.1 0 0.1 0.4 0.1 c 0 -0.2 0.5 -0.1 0.8 -0.2 c 0.1 0.1 0.2 0.1 -0.1 0.1 c 0 0.1 0.4 0.1 0.6 0.1 c 0.1 0 0.2 0 0.3 -0.1 c -0.1 -0.1 -0.1 -0.1 0.2 -0.2 l 0 0 c -0.4 0 -1.1 -0.2 -1.3 0 l 0.1 -0.1 c -0.5 -0.1 -1 0.2 -1.3 0 c 0 -0.1 -0.1 0 -0.1 -0.2 l -0.4 0.1 l 0.1 -0.1 H 177.60000000000002 l 0 0 l -0.7 0.3 c 0 0.1 0 0.1 -0.1 0.1 s -0.2 0 -0.2 0 l 0 0 l 0 0 c -0.1 0 -0.2 -0.1 -0.4 -0.1 h 0.6 c 0 -0.1 0 -0.2 -0.3 -0.3 c 0.1 0 0.2 -0.1 0 -0.1 c 0 0 -0.4 0.1 -0.2 0.1 c -0.5 0 -1.4 -0.2 -2.2 0 c 0.6 -0.1 -0.5 -0.1 0.2 -0.2 c -0.4 -0.2 -0.4 0.2 -0.8 0.1 c 0 -0.1 0.2 0 0.4 -0.1 c -0.8 -0.1 -1.3 0.3 -2 0.2 v -0.1 L 171.3 124.35 z M 169.90000000000003 124.44999999999999 h -0.4 l 0 0 l -0.4 0.1 c 0.3 0 0.4 0.2 0.1 0.3 c 0 -0.1 -0.1 -0.1 0.1 -0.1 c -0.2 -0.1 -0.8 -0.1 -0.6 0 c 0.5 -0.2 0.1 0.2 0.5 0.1 c -0.2 0.1 -0.4 0.1 -0.6 0.1 c 0.2 -0.1 0 -0.2 -0.3 -0.3 c -0.1 0 -0.5 0 -0.7 0.1 c 0.1 0.1 -0.1 0.2 0.2 0.2 c -0.1 0 -0.3 0.1 -0.5 0 c 0.1 0 0.2 0 0.2 -0.1 c -0.1 -0.1 -0.3 -0.1 -0.4 -0.1 h -0.2 c 0 0 0 0 0.1 0 l -0.2 0.1 c 0.3 -0.1 0.1 0.1 0.1 0.1 c 0 -0.1 -0.2 0 -0.3 0 l 0.2 0.1 c -0.1 0.1 -0.4 -0.1 -0.4 0 c 0.5 0.1 0.7 0 1.2 0 l -0.2 -0.1 c 0.5 -0.1 0.3 0.2 0.9 0.2 c 0.2 -0.1 0.9 0 0.9 -0.2 c -0.1 0.1 0.4 0.2 0.6 0.1 c 0.2 -0.2 0.9 -0.2 0.7 -0.3 c -0.2 0 -0.4 0.1 -0.6 0 h 0.4 l -0.2 -0.1 C 170 124.75 169.90000000000003 124.64999999999998 169.90000000000003 124.44999999999999 z M 162 123.35 L 162 123.35 L 162 123.35 L 162 123.35 z" style="stroke: none; stroke-width: 1; stroke-dasharray: ; stroke-linecap: butt; stroke-linejoin: miter; stroke-miterlimit: 10; fill: #A85C2E; opacity: 1;" transform="translate(-165.1 -113.1)" stroke-linecap="round" /></g><g transform=""><path d="M 193.7 124.35 c 0.1 0 0.4 0 0.3 -0.1 C 194 124.35 193.60000000000002 124.25 193.7 124.35 z" style="stroke: none; stroke-width: 1; stroke-dasharray: ; stroke-linecap: butt; stroke-linejoin: miter; stroke-miterlimit: 10; fill: #A85C2E; opacity: 1;" transform="translate(-165.1 -113.1)" stroke-linecap="round" /></g><g transform=""><path d="M 194 124.44999999999999 c 0 0 0 -0.1 0.1 -0.1 h -0.3 L 194 124.44999999999999 z" style="stroke: none; stroke-width: 1; stroke-dasharray: ; stroke-linecap: butt; stroke-linejoin: miter; stroke-miterlimit: 10; fill: #A85C2E; opacity: 1;" transform="translate(-165.1 -113.1)" stroke-linecap="round" /></g><g transform=""><path d="M 194.3 125.25 c 0.2 -0.1 0.3 -0.1 0.5 -0.1 c 0.1 0.3 -0.4 0.1 -0.5 0.3 c 0.5 0 0.6 -0.2 1 -0.2 C 195.10000000000002 125.04999999999998 194.40000000000003 125.04999999999998 194.3 125.25 z" style="stroke: none; stroke-width: 1; stroke-dasharray: ; stroke-linecap: butt; stroke-linejoin: miter; stroke-miterlimit: 10; fill: #A85C2E; opacity: 1;" transform="translate(-165.1 -113.1)" stroke-linecap="round" /></g><g transform=""><path d="M 188.60000000000002 123.25 c 0 -0.1 -0.2 0 -0.3 0 C 188.40000000000003 123.25 188.5 123.25 188.60000000000002 123.25 z" style="stroke: none; stroke-width: 1; stroke-dasharray: ; stroke-linecap: butt; stroke-linejoin: miter; stroke-miterlimit: 10; fill: #A85C2E; opacity: 1;" transform="translate(-165.1 -113.1)" stroke-linecap="round" /></g><g transform=""><path d="M 138.5 123.14999999999998 l -1.9 0.1 C 137.10000000000002 123.25 137.60000000000002 123.14999999999998 138.5 123.14999999999998 z" style="stroke: none; stroke-width: 1; stroke-dasharray: ; stroke-linecap: butt; stroke-linejoin: miter; stroke-miterlimit: 10; fill: #A85C2E; opacity: 1;" transform="translate(-165.1 -113.1)" stroke-linecap="round" /></g><g transform=""><path d="M 182.2 123.75 c 0.5 -0.1 0.8 -0.2 1.3 -0.3 c -0.7 -0.2 -0.9 0.3 -1.5 0.1 L 182.2 123.75 z" style="stroke: none; stroke-width: 1; stroke-dasharray: ; stroke-linecap: butt; stroke-linejoin: miter; stroke-miterlimit: 10; fill: #A85C2E; opacity: 1;" transform="translate(-165.1 -113.1)" stroke-linecap="round" /></g><g transform=""><path d="M 182.3 123.14999999999998 c 0.1 0.2 -0.4 0.2 -0.3 0.3 c 0.4 0 0.2 -0.2 0.5 -0.1 L 182.3 123.14999999999998 z" style="stroke: none; stroke-width: 1; stroke-dasharray: ; stroke-linecap: butt; stroke-linejoin: miter; stroke-miterlimit: 10; fill: #A85C2E; opacity: 1;" transform="translate(-165.1 -113.1)" stroke-linecap="round" /></g><g transform=""><path d="M 184.7 125.75 H 184.60000000000002 H 184.7 z" style="stroke: none; stroke-width: 1; stroke-dasharray: ; stroke-linecap: butt; stroke-linejoin: miter; stroke-miterlimit: 10; fill: #A85C2E; opacity: 1;" transform="translate(-165.1 -113.1)" stroke-linecap="round" /></g><g transform=""><path d="M 180.10000000000002 123.14999999999998 L 180.10000000000002 123.14999999999998 L 180.10000000000002 123.14999999999998 z" style="stroke: none; stroke-width: 1; stroke-dasharray: ; stroke-linecap: butt; stroke-linejoin: miter; stroke-miterlimit: 10; fill: #A85C2E; opacity: 1;" transform="translate(-165.1 -113.1)" stroke-linecap="round" /></g><g transform=""><path d="M 182.40000000000003 125.25 l 0.2 -0.1 C 182.60000000000002 125.14999999999998 182.3 125.14999999999998 182.40000000000003 125.25 z" style="stroke: none; stroke-width: 1; stroke-dasharray: ; stroke-linecap: butt; stroke-linejoin: miter; stroke-miterlimit: 10; fill: #A85C2E; opacity: 1;" transform="translate(-165.1 -113.1)" stroke-linecap="round" /></g><g transform=""><path d="M 180.8 125.64999999999998 c 0.1 0.1 -0.4 0 -0.1 0.1 C 180.90000000000003 125.75 180.8 125.64999999999998 180.8 125.64999999999998 z" style="stroke: none; stroke-width: 1; stroke-dasharray: ; stroke-linecap: butt; stroke-linejoin: miter; stroke-miterlimit: 10; fill: #A85C2E; opacity: 1;" transform="translate(-165.1 -113.1)" stroke-linecap="round" /></g><g transform=""><path d="M 177.7 124.85 H 177.60000000000002 H 177.7 z" style="stroke: none; stroke-width: 1; stroke-dasharray: ; stroke-linecap: butt; stroke-linejoin: miter; stroke-miterlimit: 10; fill: #A85C2E; opacity: 1;" transform="translate(-165.1 -113.1)" stroke-linecap="round" /></g><g transform=""><path d="M 177.7 124.85 c 0.1 0 0.2 0 0.3 0 C 177.90000000000003 124.75 177.8 124.75 177.7 124.85 z" style="stroke: none; stroke-width: 1; stroke-dasharray: ; stroke-linecap: butt; stroke-linejoin: miter; stroke-miterlimit: 10; fill: #A85C2E; opacity: 1;" transform="translate(-165.1 -113.1)" stroke-linecap="round" /></g><g transform=""><path d="M 176.40000000000003 124.85 h 0.1 c -0.1 0.1 -0.1 0.1 0 0 c 0.1 0 0.1 0 0.1 -0.1 h 0.1 H 176.60000000000002 C 176.5 124.75 176.40000000000003 124.75 176.40000000000003 124.85 z" style="stroke: none; stroke-width: 1; stroke-dasharray: ; stroke-linecap: butt; stroke-linejoin: miter; stroke-miterlimit: 10; fill: #A85C2E; opacity: 1;" transform="translate(-165.1 -113.1)" stroke-linecap="round" /></g><g transform=""><path d="M 171.7 122.85 c 0.4 0 0.5 0.1 0.5 0.2 c 0.4 0 0.3 -0.1 0.5 -0.2 C 172.2 122.85 172.10000000000002 122.75 171.7 122.85 z" style="stroke: none; stroke-width: 1; stroke-dasharray: ; stroke-linecap: butt; stroke-linejoin: miter; stroke-miterlimit: 10; fill: #A85C2E; opacity: 1;" transform="translate(-165.1 -113.1)" stroke-linecap="round" /></g><g transform=""><path d="M 172.60000000000002 122.85 h 0.1 C 172.7 122.75 172.7 122.75 172.60000000000002 122.85 z" style="stroke: none; stroke-width: 1; stroke-dasharray: ; stroke-linecap: butt; stroke-linejoin: miter; stroke-miterlimit: 10; fill: #A85C2E; opacity: 1;" transform="translate(-165.1 -113.1)" stroke-linecap="round" /></g><g transform=""><path d="M 171.10000000000002 122.75 c 0.1 0 0.2 0 0.2 0 C 171.40000000000003 122.75 171 122.75 171.10000000000002 122.75 z" style="stroke: none; stroke-width: 1; stroke-dasharray: ; stroke-linecap: butt; stroke-linejoin: miter; stroke-miterlimit: 10; fill: #A85C2E; opacity: 1;" transform="translate(-165.1 -113.1)" stroke-linecap="round" /></g><g transform=""><path d="M 172.5 124.64999999999998 c 0 0.1 0.3 0 0.4 0 C 172.8 124.64999999999998 172.7 124.44999999999999 172.5 124.64999999999998 z" style="stroke: none; stroke-width: 1; stroke-dasharray: ; stroke-linecap: butt; stroke-linejoin: miter; stroke-miterlimit: 10; fill: #A85C2E; opacity: 1;" transform="translate(-165.1 -113.1)" stroke-linecap="round" /></g><g transform=""><path d="M 170 123.14999999999998 c 0.1 0 0.2 0.1 0.1 0.1 C 170.3 123.25 170.40000000000003 123.04999999999998 170 123.14999999999998 z" style="stroke: none; stroke-width: 1; stroke-dasharray: ; stroke-linecap: butt; stroke-linejoin: miter; stroke-miterlimit: 10; fill: #A85C2E; opacity: 1;" transform="translate(-165.1 -113.1)" stroke-linecap="round" /></g><g transform=""><path d="M 172.8 125.94999999999999 c 0.3 -0.1 -0.5 -0.3 0 -0.4 c -0.6 -0.1 0 0.2 -0.4 0.1 C 172.7 125.75 172.8 125.94999999999999 172.8 125.94999999999999 z" style="stroke: none; stroke-width: 1; stroke-dasharray: ; stroke-linecap: butt; stroke-linejoin: miter; stroke-miterlimit: 10; fill: #A85C2E; opacity: 1;" transform="translate(-165.1 -113.1)" stroke-linecap="round" /></g><g transform=""><path d="M 172.40000000000003 125.75 h -0.1 H 172.40000000000003 z" style="stroke: none; stroke-width: 1; stroke-dasharray: ; stroke-linecap: butt; stroke-linejoin: miter; stroke-miterlimit: 10; fill: #A85C2E; opacity: 1;" transform="translate(-165.1 -113.1)" stroke-linecap="round" /></g><g transform=""><path d="M 168.3 125.04999999999998 C 168.40000000000003 125.04999999999998 168.40000000000003 125.04999999999998 168.3 125.04999999999998 C 168.40000000000003 125.04999999999998 168.40000000000003 125.04999999999998 168.3 125.04999999999998 z" style="stroke: none; stroke-width: 1; stroke-dasharray: ; stroke-linecap: butt; stroke-linejoin: miter; stroke-miterlimit: 10; fill: #A85C2E; opacity: 1;" transform="translate(-165.1 -113.1)" stroke-linecap="round" /></g><g transform=""><path d="M 170.90000000000003 125.85 l 0.4 -0.2 c -0.3 0.1 -1 0.1 -1 0.3 C 170.60000000000002 125.94999999999999 170.90000000000003 125.94999999999999 170.90000000000003 125.85 L 170.90000000000003 125.85 z" style="stroke: none; stroke-width: 1; stroke-dasharray: ; stroke-linecap: butt; stroke-linejoin: miter; stroke-miterlimit: 10; fill: #A85C2E; opacity: 1;" transform="translate(-165.1 -113.1)" stroke-linecap="round" /></g><g transform=""><path d="M 165.90000000000003 122.85 l 0.2 -0.1 L 165.90000000000003 122.85 C 166 122.75 165.8 122.85 165.90000000000003 122.85 z" style="stroke: none; stroke-width: 1; stroke-dasharray: ; stroke-linecap: butt; stroke-linejoin: miter; stroke-miterlimit: 10; fill: #A85C2E; opacity: 1;" transform="translate(-165.1 -113.1)" stroke-linecap="round" /></g><g transform=""><path d="M 165.8 122.75 L 165.8 122.75 C 165.90000000000003 122.75 165.90000000000003 122.75 165.8 122.75 z" style="stroke: none; stroke-width: 1; stroke-dasharray: ; stroke-linecap: butt; stroke-linejoin: miter; stroke-miterlimit: 10; fill: #A85C2E; opacity: 1;" transform="translate(-165.1 -113.1)" stroke-linecap="round" /></g><g transform=""><path d="M 169.2 124.94999999999999 c 0.1 0 0.2 0 0.4 0 C 169.5 124.94999999999999 169.10000000000002 124.85 169.2 124.94999999999999 z" style="stroke: none; stroke-width: 1; stroke-dasharray: ; stroke-linecap: butt; stroke-linejoin: miter; stroke-miterlimit: 10; fill: #A85C2E; opacity: 1;" transform="translate(-165.1 -113.1)" stroke-linecap="round" /></g><g transform=""><path d="M 164.60000000000002 123.04999999999998 h 0.3 H 164.60000000000002 z" style="stroke: none; stroke-width: 1; stroke-dasharray: ; stroke-linecap: butt; stroke-linejoin: miter; stroke-miterlimit: 10; fill: #A85C2E; opacity: 1;" transform="translate(-165.1 -113.1)" stroke-linecap="round" /></g><g transform=""><path d="M 165.10000000000002 126.04999999999998 c 0.2 0 0.4 -0.1 0.3 -0.2 h -0.4 c 0.1 0.1 0.1 0 0.3 0 L 165.10000000000002 126.04999999999998 z" style="stroke: none; stroke-width: 1; stroke-dasharray: ; stroke-linecap: butt; stroke-linejoin: miter; stroke-miterlimit: 10; fill: #A85C2E; opacity: 1;" transform="translate(-165.1 -113.1)" stroke-linecap="round" /></g><g transform=""><path d="M 152.5 123.04999999999998 c 0.1 -0.1 0.5 0 0.6 0 c -0.1 0 -0.3 0.1 -0.1 0.1 l 0.3 -0.2 c 0.5 0.1 -0.4 0.3 -0.6 0.4 c 0.5 0 0.6 -0.1 1.1 -0.1 c -0.1 0 -0.2 -0.1 -0.3 -0.1 c 0 -0.2 0.5 -0.1 0.8 -0.1 c -0.2 -0.1 -0.1 -0.1 0.1 -0.2 c 0 0 0 0 0.1 0 h 0.1 l 0 0 c 0 0 0 0 0 -0.1 c -0.3 0 -0.5 -0.1 -0.7 -0.1 c 0.2 0.2 -0.6 0.1 -0.8 0.1 h -0.3 h -0.1 c 0 0 0 -0.1 0.2 -0.1 c -0.1 0 -0.5 0 -0.5 0.1 h -1 h -0.1 l 0 0 h -4.2 c 0.2 0 0.4 0.1 0.6 0.1 c -0.3 0.2 0.3 0 0.3 0.2 c -0.1 0.1 -0.4 0 -0.5 0 c 0 0.1 0.1 0.1 0.1 0.2 c 0.5 0.1 0.6 -0.3 1.1 -0.2 c 0 0.1 -0.2 0.2 0.2 0.2 h -0.1 c 0.5 -0.1 0.4 0.2 0.8 0 v 0.1 c 0.2 -0.1 0.7 -0.1 1 -0.1 l 0 0 c 0.8 -0.2 0.4 0 1.3 -0.1 l -0.4 0.2 c 0.3 0.1 0.4 -0.1 0.6 -0.1 c 0 0 0 0.1 -0.2 0.1 l 1 -0.2 C 152.90000000000003 123.04999999999998 152.60000000000002 123.04999999999998 152.5 123.04999999999998 z" style="stroke: none; stroke-width: 1; stroke-dasharray: ; stroke-linecap: butt; stroke-linejoin: miter; stroke-miterlimit: 10; fill: #A85C2E; opacity: 1;" transform="translate(-165.1 -113.1)" stroke-linecap="round" /></g><g transform=""><path d="M 153.8 123.25 c 0.1 0 0.1 0 0.2 0 C 154 123.25 153.90000000000003 123.25 153.8 123.25 z" style="stroke: none; stroke-width: 1; stroke-dasharray: ; stroke-linecap: butt; stroke-linejoin: miter; stroke-miterlimit: 10; fill: #A85C2E; opacity: 1;" transform="translate(-165.1 -113.1)" stroke-linecap="round" /></g><g transform=""><path d="M 146.7 122.85 h 0.3 C 146.90000000000003 122.75 146.8 122.75 146.7 122.85 z" style="stroke: none; stroke-width: 1; stroke-dasharray: ; stroke-linecap: butt; stroke-linejoin: miter; stroke-miterlimit: 10; fill: #A85C2E; opacity: 1;" transform="translate(-165.1 -113.1)" stroke-linecap="round" /></g><g transform=""><path d="M 155.3 122.94999999999999 c -0.2 -0.1 0.1 -0.1 0.2 -0.2 h -0.6 c 0 0.1 -0.1 0.1 0 0.2 H 155.3 z" style="stroke: none; stroke-width: 1; stroke-dasharray: ; stroke-linecap: butt; stroke-linejoin: miter; stroke-miterlimit: 10; fill: #A85C2E; opacity: 1;" transform="translate(-165.1 -113.1)" stroke-linecap="round" /></g><g transform=""><path d="M 154.60000000000002 122.64999999999998 c 0 0 -0.1 0.1 -0.2 0.1 h 0.3 C 154.8 122.75 154.8 122.64999999999998 154.60000000000002 122.64999999999998 z" style="stroke: none; stroke-width: 1; stroke-dasharray: ; stroke-linecap: butt; stroke-linejoin: miter; stroke-miterlimit: 10; fill: #A85C2E; opacity: 1;" transform="translate(-165.1 -113.1)" stroke-linecap="round" /></g><g transform=""><path d="M 153 125.25 c 0.1 0.1 0.4 0 0.5 0 C 153.10000000000002 125.25 153.3 125.14999999999998 153 125.25 z" style="stroke: none; stroke-width: 1; stroke-dasharray: ; stroke-linecap: butt; stroke-linejoin: miter; stroke-miterlimit: 10; fill: #A85C2E; opacity: 1;" transform="translate(-165.1 -113.1)" stroke-linecap="round" /></g><g transform=""><path d="M 144.5 123.35 h -0.1 C 144.40000000000003 123.35 144.5 123.35 144.5 123.35 z" style="stroke: none; stroke-width: 1; stroke-dasharray: ; stroke-linecap: butt; stroke-linejoin: miter; stroke-miterlimit: 10; fill: #A85C2E; opacity: 1;" transform="translate(-165.1 -113.1)" stroke-linecap="round" /></g><g transform=""><path d="M 146.90000000000003 123.25 c -0.7 -0.2 0.4 -0.1 0.2 -0.3 l -0.4 0.1 v -0.1 h -0.4 c 0.1 0.1 0.2 0.1 0.1 0.2 c -0.6 0 -0.2 -0.1 -0.6 -0.2 h -0.7 h 0.1 c -0.1 0 -0.1 0 -0.1 0 l -2.2 0.1 c -0.4 0.1 0.2 0.2 -0.1 0.3 c 0.5 0 1.2 0.1 1.2 -0.1 v 0.1 l 0.3 -0.2 h -0.3 c 0.3 -0.2 1.2 -0.1 1.3 0 c -0.5 0.1 -0.3 0.2 -1 0.1 c 0 0 0.2 0.1 0 0.2 C 145.3 123.25 146.10000000000002 123.35 146.90000000000003 123.25 z" style="stroke: none; stroke-width: 1; stroke-dasharray: ; stroke-linecap: butt; stroke-linejoin: miter; stroke-miterlimit: 10; fill: #A85C2E; opacity: 1;" transform="translate(-165.1 -113.1)" stroke-linecap="round" /></g><g transform=""><path d="M 138.60000000000002 123.25 L 138.60000000000002 123.25 L 138.60000000000002 123.25 z" style="stroke: none; stroke-width: 1; stroke-dasharray: ; stroke-linecap: butt; stroke-linejoin: miter; stroke-miterlimit: 10; fill: #A85C2E; opacity: 1;" transform="translate(-165.1 -113.1)" stroke-linecap="round" /></g><g transform=""><path d="M 138.90000000000003 123.35 l 0.4 -0.2 h -0.6 v 0.1 C 138.7 123.25 138.90000000000003 123.14999999999998 138.90000000000003 123.35 L 138.90000000000003 123.35 z" style="stroke: none; stroke-width: 1; stroke-dasharray: ; stroke-linecap: butt; stroke-linejoin: miter; stroke-miterlimit: 10; fill: #A85C2E; opacity: 1;" transform="translate(-165.1 -113.1)" stroke-linecap="round" /></g><g transform=""><path d="M 139.8 123.04999999999998 c -0.3 0.1 -0.3 0.2 -0.1 0.3 c -0.3 0.1 -0.2 -0.2 -0.4 0 c 0 0.1 0.4 0 0.5 0 V 123.04999999999998 z" style="stroke: none; stroke-width: 1; stroke-dasharray: ; stroke-linecap: butt; stroke-linejoin: miter; stroke-miterlimit: 10; fill: #A85C2E; opacity: 1;" transform="translate(-165.1 -113.1)" stroke-linecap="round" /></g><g transform=""><path d="M 142.10000000000002 123.14999999999998 h -0.2 C 141.90000000000003 123.14999999999998 141.90000000000003 123.25 142.10000000000002 123.14999999999998 L 142.10000000000002 123.14999999999998 z" style="stroke: none; stroke-width: 1; stroke-dasharray: ; stroke-linecap: butt; stroke-linejoin: miter; stroke-miterlimit: 10; fill: #A85C2E; opacity: 1;" transform="translate(-165.1 -113.1)" stroke-linecap="round" /></g><g transform=""><path d="M 141.3 123.14999999999998 c -0.1 0 -0.2 0 -0.3 0 H 141.3 z" style="stroke: none; stroke-width: 1; stroke-dasharray: ; stroke-linecap: butt; stroke-linejoin: miter; stroke-miterlimit: 10; fill: #A85C2E; opacity: 1;" transform="translate(-165.1 -113.1)" stroke-linecap="round" /></g><g transform=""><path d="M 141.5 123.14999999999998 L 141.5 123.14999999999998 h -0.3 C 141.40000000000003 123.14999999999998 141.40000000000003 123.14999999999998 141.5 123.14999999999998 z" style="stroke: none; stroke-width: 1; stroke-dasharray: ; stroke-linecap: butt; stroke-linejoin: miter; stroke-miterlimit: 10; fill: #A85C2E; opacity: 1;" transform="translate(-165.1 -113.1)" stroke-linecap="round" /></g><g transform=""><path d="M 141.90000000000003 123.14999999999998 c 0 -0.1 -0.1 -0.2 -0.4 -0.2 l 0.1 0.2 H 141.90000000000003 z" style="stroke: none; stroke-width: 1; stroke-dasharray: ; stroke-linecap: butt; stroke-linejoin: miter; stroke-miterlimit: 10; fill: #A85C2E; opacity: 1;" transform="translate(-165.1 -113.1)" stroke-linecap="round" /></g><g transform=""><path d="M 149.8 125.85 c -0.1 0 -0.1 0 -0.2 0.1 C 149.7 125.85 149.8 125.85 149.8 125.85 z" style="stroke: none; stroke-width: 1; stroke-dasharray: ; stroke-linecap: butt; stroke-linejoin: miter; stroke-miterlimit: 10; fill: #A85C2E; opacity: 1;" transform="translate(-165.1 -113.1)" stroke-linecap="round" /></g><g transform=""><path d="M 148.7 126.54999999999998 c -0.3 -0.1 0.4 -0.1 -0.1 -0.2 c 0 -0.1 0.2 -0.2 0.5 -0.2 c 0 0.1 -0.3 0.1 -0.1 0.2 c 0.2 -0.1 0.2 0 0.2 -0.2 c 0.3 -0.1 0.3 -0.2 0.5 -0.3 c -0.4 0.1 -1.1 -0.1 -1.5 0.1 c -0.2 0.2 -0.1 0.4 -0.1 0.6 C 148 126.64999999999998 148.7 126.75 148.7 126.54999999999998 z" style="stroke: none; stroke-width: 1; stroke-dasharray: ; stroke-linecap: butt; stroke-linejoin: miter; stroke-miterlimit: 10; fill: #A85C2E; opacity: 1;" transform="translate(-165.1 -113.1)" stroke-linecap="round" /></g><g transform=""><path d="M 149.2 126.75 c 0.1 0 0.2 0 0.3 0 C 149.40000000000003 126.64999999999998 149.3 126.75 149.2 126.75 z" style="stroke: none; stroke-width: 1; stroke-dasharray: ; stroke-linecap: butt; stroke-linejoin: miter; stroke-miterlimit: 10; fill: #A85C2E; opacity: 1;" transform="translate(-165.1 -113.1)" stroke-linecap="round" /></g><g transform=""><path d="M 146 124.94999999999999 c 0 0 -0.3 0.1 -0.2 0.1 h 0.4 C 146 125.04999999999998 146 124.94999999999999 146 124.94999999999999 z" style="stroke: none; stroke-width: 1; stroke-dasharray: ; stroke-linecap: butt; stroke-linejoin: miter; stroke-miterlimit: 10; fill: #A85C2E; opacity: 1;" transform="translate(-165.1 -113.1)" stroke-linecap="round" /></g><g transform=""><path d="M 146.3 125.04999999999998 h -0.2 C 146.2 125.04999999999998 146.2 125.04999999999998 146.3 125.04999999999998 z" style="stroke: none; stroke-width: 1; stroke-dasharray: ; stroke-linecap: butt; stroke-linejoin: miter; stroke-miterlimit: 10; fill: #A85C2E; opacity: 1;" transform="translate(-165.1 -113.1)" stroke-linecap="round" /></g><g transform=""><path d="M 146 124.94999999999999 L 146 124.94999999999999 L 146 124.94999999999999 z" style="stroke: none; stroke-width: 1; stroke-dasharray: ; stroke-linecap: butt; stroke-linejoin: miter; stroke-miterlimit: 10; fill: #A85C2E; opacity: 1;" transform="translate(-165.1 -113.1)" stroke-linecap="round" /></g><g transform=""><path d="M 140.3 123.04999999999998 c 0 -0.1 -0.2 0 -0.2 0 C 140.2 123.04999999999998 140.3 123.04999999999998 140.3 123.04999999999998 z" style="stroke: none; stroke-width: 1; stroke-dasharray: ; stroke-linecap: butt; stroke-linejoin: miter; stroke-miterlimit: 10; fill: #A85C2E; opacity: 1;" transform="translate(-165.1 -113.1)" stroke-linecap="round" /></g><g transform=""><path d="M 134 123.35 l -0.2 -0.1 C 133.90000000000003 123.25 133.90000000000003 123.35 134 123.35 z" style="stroke: none; stroke-width: 1; stroke-dasharray: ; stroke-linecap: butt; stroke-linejoin: miter; stroke-miterlimit: 10; fill: #A85C2E; opacity: 1;" transform="translate(-165.1 -113.1)" stroke-linecap="round" /></g><g transform=""><path d="M 131.60000000000002 125.14999999999998 L 131.60000000000002 125.14999999999998 L 131.60000000000002 125.14999999999998 z" style="stroke: none; stroke-width: 1; stroke-dasharray: ; stroke-linecap: butt; stroke-linejoin: miter; stroke-miterlimit: 10; fill: #A85C2E; opacity: 1;" transform="translate(-165.1 -113.1)" stroke-linecap="round" /></g><g transform=""><path d="M 131.60000000000002 125.14999999999998 c -0.1 0.1 -0.4 0 -0.5 0.1 l 0 0 h -0.2 C 131.10000000000002 125.25 131.5 125.25 131.60000000000002 125.14999999999998 z" style="stroke: none; stroke-width: 1; stroke-dasharray: ; stroke-linecap: butt; stroke-linejoin: miter; stroke-miterlimit: 10; fill: #A85C2E; opacity: 1;" transform="translate(-165.1 -113.1)" stroke-linecap="round" /></g><g transform=""><path d="M 165.2 116.75 c 0 0 3.9 -4.7 5.5 -11.6 C 170.7 105.14999999999999 164.40000000000003 109.44999999999999 165.2 116.75 z" style="stroke: none; stroke-width: 1; stroke-dasharray: ; stroke-linecap: butt; stroke-linejoin: miter; stroke-miterlimit: 10; fill: #A85C2E; opacity: 1;" transform="translate(-165.1 -113.1)" stroke-linecap="round" /></g><g transform=""><path d="M 165.10000000000002 117.04999999999998 v -0.3 C 164.3 109.44999999999999 170.60000000000002 105.04999999999998 170.60000000000002 105.04999999999998 l 0.3 -0.2 l -0.1 0.3 c -1.6 6.9 -5.5 11.6 -5.5 11.7 L 165.10000000000002 117.04999999999998 z M 170.5 105.44999999999999 c -1.2 0.9 -5.7 4.9 -5.2 11 C 166.10000000000002 115.44999999999999 169.10000000000002 111.25 170.5 105.44999999999999 z" style="stroke: none; stroke-width: 1; stroke-dasharray: ; stroke-linecap: butt; stroke-linejoin: miter; stroke-miterlimit: 10; fill: #FFFFFF; opacity: 1;" transform="translate(-165.1 -113.1)" stroke-linecap="round" /></g><g transform=""><path d="M 167.7 110.14999999999999 c 0 0 1.5 4.4 6.2 2.8 c 0 0 4.8 -1.8 5.6 -5.9 C 179.5 107.04999999999998 170.90000000000003 104.54999999999998 167.7 110.14999999999999 z" style="stroke: none; stroke-width: 1; stroke-dasharray: ; stroke-linecap: butt; stroke-linejoin: miter; stroke-miterlimit: 10; fill: #A85C2E; opacity: 1;" transform="translate(-165.1 -113.1)" stroke-linecap="round" /></g><g transform=""><path d="M 172 113.44999999999999 L 172 113.44999999999999 c -3.2 0 -4.3 -3.2 -4.4 -3.2 v -0.1 l 0 0 c 1.8 -3.1 5.1 -3.7 7.7 -3.7 c 2.3 0 4.3 0.5 4.3 0.6 h 0.1 v 0.1 c -0.8 4.1 -5.7 6 -5.7 6 C 173.3 113.35 172.60000000000002 113.44999999999999 172 113.44999999999999 z M 167.90000000000003 110.14999999999999 c 0.2 0.4 1.3 3 4.1 3 c 0.6 0 1.2 -0.1 1.9 -0.3 c 0 0 4.7 -1.8 5.5 -5.7 c -0.4 -0.1 -2.1 -0.5 -4.1 -0.5 C 172.90000000000003 106.64999999999999 169.60000000000002 107.25 167.90000000000003 110.14999999999999 z" style="stroke: none; stroke-width: 1; stroke-dasharray: ; stroke-linecap: butt; stroke-linejoin: miter; stroke-miterlimit: 10; fill: #FFFFFF; opacity: 1;" transform="translate(-165.1 -113.1)" stroke-linecap="round" /></g><g transform=""><path d="M 168.60000000000002 111.54999999999998 c 0 0 -3.6 3 -0.5 6.7 c 0 0 2 1.7 5 3 C 173 121.14999999999998 178.90000000000003 113.44999999999999 168.60000000000002 111.54999999999998 z" style="stroke: none; stroke-width: 1; stroke-dasharray: ; stroke-linecap: butt; stroke-linejoin: miter; stroke-miterlimit: 10; fill: #A85C2E; opacity: 1;" transform="translate(-165.1 -113.1)" stroke-linecap="round" /></g><g transform=""><path d="M 173.10000000000002 121.35 L 173.10000000000002 121.35 c -3.1 -1.3 -5.1 -3 -5.1 -3 c -1 -1.2 -1.4 -2.4 -1.3 -3.6 c 0.2 -2 1.7 -3.2 1.8 -3.3 l 0 0 h 0.1 c 3.2 0.6 5.2 1.9 5.9 3.7 C 175.60000000000002 117.94999999999999 173.2 121.14999999999998 173.10000000000002 121.35 L 173.10000000000002 121.35 z M 168.60000000000002 111.64999999999999 c -0.2 0.2 -1.5 1.4 -1.6 3.1 c -0.1 1.2 0.3 2.3 1.2 3.4 c 0 0 1.9 1.6 4.8 2.9 c 0.4 -0.5 2.2 -3.4 1.3 -5.9 C 173.60000000000002 113.44999999999999 171.7 112.25 168.60000000000002 111.64999999999999 z" style="stroke: none; stroke-width: 1; stroke-dasharray: ; stroke-linecap: butt; stroke-linejoin: miter; stroke-miterlimit: 10; fill: #FFFFFF; opacity: 1;" transform="translate(-165.1 -113.1)" stroke-linecap="round" /></g><g transform=""><path d="M 166.60000000000002 110.64999999999999 c 0 0 0.8 4 -4.4 5 c 0 0 -2 0.3 -6.1 -1.4 C 156.2 114.14999999999998 158.40000000000003 104.25 166.60000000000002 110.64999999999999 z" style="stroke: none; stroke-width: 1; stroke-dasharray: ; stroke-linecap: butt; stroke-linejoin: miter; stroke-miterlimit: 10; fill: #A85C2E; opacity: 1;" transform="translate(-165.1 -113.1)" stroke-linecap="round" /></g><g transform=""><path d="M 162 115.75 c -0.7 0 -2.6 -0.1 -5.8 -1.5 h -0.1 v -0.1 c 0 -0.1 1.4 -5.8 5.6 -5.8 c 1.5 0 3.2 0.7 5.1 2.2 l 0 0 l 0 0 c 0 0.1 0.3 1.5 -0.6 2.9 c -0.7 1.1 -2 1.8 -3.8 2.2 C 162.3 115.75 162.2 115.75 162 115.75 z M 156.3 114.04999999999998 c 3.1 1.3 5 1.4 5.6 1.4 c 0.2 0 0.3 0 0.3 0 c 1.7 -0.3 2.9 -1 3.6 -2.1 c 0.8 -1.2 0.7 -2.4 0.6 -2.7 c -1.8 -1.4 -3.4 -2.1 -4.9 -2.1 C 157.90000000000003 108.64999999999999 156.5 113.35 156.3 114.04999999999998 z" style="stroke: none; stroke-width: 1; stroke-dasharray: ; stroke-linecap: butt; stroke-linejoin: miter; stroke-miterlimit: 10; fill: #FFFFFF; opacity: 1;" transform="translate(-165.1 -113.1)" stroke-linecap="round" /></g><g transform=""><path d="M 167.7 110.14999999999999 c 0 0 -4.3 1.7 -6.2 -2.8 c 0 0 -1.7 -4.7 1 -8 C 162.60000000000002 99.35 170.10000000000002 104.14999999999999 167.7 110.14999999999999 z" style="stroke: none; stroke-width: 1; stroke-dasharray: ; stroke-linecap: butt; stroke-linejoin: miter; stroke-miterlimit: 10; fill: #A85C2E; opacity: 1;" transform="translate(-165.1 -113.1)" stroke-linecap="round" /></g><g transform=""><path d="M 165.90000000000003 110.64999999999999 c -1.4 0 -3.3 -0.6 -4.4 -3.2 c 0 -0.1 -1.7 -4.9 1 -8.1 l 0.1 -0.1 l 0.1 0.1 c 0.1 0 7.6 4.9 5.2 11 v 0.1 h -0.1 C 167.8 110.25 166.90000000000003 110.64999999999999 165.90000000000003 110.64999999999999 z M 162.60000000000002 99.54999999999998 c -2.5 3.2 -0.9 7.8 -0.9 7.8 c 1 2.5 2.8 3 4.2 3 c 0.9 0 1.6 -0.2 1.8 -0.3 C 169.7 104.64999999999999 163.40000000000003 100.04999999999998 162.60000000000002 99.54999999999998 z" style="stroke: none; stroke-width: 1; stroke-dasharray: ; stroke-linecap: butt; stroke-linejoin: miter; stroke-miterlimit: 10; fill: #FFFFFF; opacity: 1;" transform="translate(-165.1 -113.1)" stroke-linecap="round" /></g></g><g transform="translate(249.6 151.62) scale(1.5 1.5)"><text font-family="'GillSans-Light'" font-size="8" font-weight="normal" style="stroke: none; stroke-width: 1; stroke-dasharray: ; stroke-linecap: butt; stroke-linejoin: miter; stroke-miterlimit: 10; fill: #A85C2E; opacity: 1;" transform="translate(-52 7)"><tspan x="0" y="-5.2" fill="#A85C2E">79 James Street, Brooklyn East </tspan></text></g><g transform="translate(244.65 168.12) scale(1.5 1.5)"><text font-family="'GillSans-Light'" font-size="8" font-weight="normal" style="stroke: none; stroke-width: 1; stroke-dasharray: ; stroke-linecap: butt; stroke-linejoin: miter; stroke-miterlimit: 10; fill: #A85C2E; opacity: 1;" transform="translate(-34 7)"><tspan x="0" y="-5.2" fill="#A85C2E">New York City 1289</tspan></text></g><g transform="translate(244.95 184.62) scale(1.5 1.5)"><text font-family="'GillSans-Light'" font-size="8" font-weight="normal" style="stroke: none; stroke-width: 1; stroke-dasharray: ; stroke-linecap: butt; stroke-linejoin: miter; stroke-miterlimit: 10; fill: #A85C2E; opacity: 1;" transform="translate(-32.5 7)"><tspan x="0" y="-5.2" fill="#A85C2E">Tel: 079-5889-3344</tspan></text></g><g transform="translate(252.9 201.12) scale(1.5 1.5)"><text font-family="'GillSans-Light'" font-size="8" font-weight="normal" style="stroke: none; stroke-width: 1; stroke-dasharray: ; stroke-linecap: butt; stroke-linejoin: miter; stroke-miterlimit: 10; fill: #A85C2E; opacity: 1;" transform="translate(-51 7)"><tspan x="0" y="-5.2" fill="#A85C2E">Email: particiagib@kmail.com</tspan></text></g><g transform="translate(247.2 234.12) scale(1.5 1.5)"><text font-family="'GillSans-Light'" font-size="8" font-weight="normal" style="stroke: none; stroke-width: 1; stroke-dasharray: ; stroke-linecap: butt; stroke-linejoin: miter; stroke-miterlimit: 10; fill: #A85C2E; opacity: 1;" transform="translate(-44 7)"><tspan x="0" y="-5.2" fill="#A85C2E">Facebook: Patricia_Gibson</tspan></text></g><g transform="translate(248.1 250.62) scale(1.5 1.5)"><text font-family="'GillSans-Light'" font-size="8" font-weight="normal" style="stroke: none; stroke-width: 1; stroke-dasharray: ; stroke-linecap: butt; stroke-linejoin: miter; stroke-miterlimit: 10; fill: #A85C2E; opacity: 1;" transform="translate(-41 7)"><tspan x="0" y="-5.2" fill="#A85C2E">Twitter: @patriciagibson</tspan></text></g><g transform="translate(247.35 267.12) scale(1.5 1.5)"><text font-family="'GillSans-Light'" font-size="8" font-weight="normal" style="stroke: none; stroke-width: 1; stroke-dasharray: ; stroke-linecap: butt; stroke-linejoin: miter; stroke-miterlimit: 10; fill: #A85C2E; opacity: 1;" transform="translate(-39 7)"><tspan x="0" y="-5.2" fill="#A85C2E">www.patriciagibson.net</tspan></text></g></svg>